<svg width="52" height="52" viewBox="0 0 52 52" fill="none" xmlns="http://www.w3.org/2000/svg">
<rect width="51.42" height="51.4244" rx="6.26032" fill="url(#paint0_linear_266_1110)"/>
<g clip-path="url(#clip0_266_1110)">
<path d="M14.5475 13.556C14.199 13.556 13.9229 13.8319 13.9229 14.1609C13.9229 14.502 14.2101 14.767 14.5475 14.767C14.8904 14.767 15.1729 14.4973 15.1729 14.1609C15.1729 13.834 14.8994 13.556 14.5475 13.556Z" fill="white"/>
<path d="M17.6855 13.556C17.3459 13.556 17.0605 13.8316 17.0605 14.1609C17.0605 14.4905 17.3451 14.767 17.6855 14.767C18.0259 14.767 18.3105 14.4905 18.3105 14.1609C18.3105 13.8316 18.0252 13.556 17.6855 13.556Z" fill="white"/>
<path d="M33.3743 13.5558H20.8232C20.4781 13.5558 20.1982 13.8269 20.1982 14.1613C20.1982 14.4957 20.4781 14.7667 20.8232 14.7667H33.3742C33.7194 14.7667 33.9992 14.4956 33.9992 14.1613C33.9992 13.8269 33.7195 13.5558 33.3743 13.5558Z" fill="white"/>
<path d="M42.1602 32.7059H41.1874C41.1469 32.6018 41.1029 32.4991 41.0555 32.3977L41.7435 31.7313C41.9875 31.4948 41.9875 31.1114 41.7434 30.8749L39.9684 29.1555C39.7243 28.9191 39.3286 28.9191 39.0845 29.1555L38.3967 29.8219C38.292 29.776 38.1859 29.7333 38.0785 29.6941V28.7519C38.0785 28.4175 37.7987 28.1464 37.4535 28.1464H37.1372V13.8573C37.1372 12.015 35.59 10.5161 33.6882 10.5161H14.2342C12.3323 10.5161 10.7852 12.0149 10.7852 13.8573V31.4876C10.7852 33.3299 12.3323 34.8288 14.2342 34.8288H29.6117V35.7432C29.6117 36.0776 29.8915 36.3487 30.2367 36.3487H31.2093C31.2498 36.4528 31.2938 36.5556 31.3412 36.6569L30.6533 37.3233C30.4093 37.5597 30.4093 37.9431 30.6533 38.1796L32.4283 39.8991C32.6724 40.1355 33.0682 40.1356 33.3122 39.8991L34 39.2327C34.1047 39.2786 34.2108 39.3212 34.3182 39.3605V40.3027C34.3182 40.6371 34.598 40.9082 34.9432 40.9082H37.4534C37.7986 40.9082 38.0784 40.6371 38.0784 40.3027V39.3605C38.1858 39.3212 38.292 39.2786 38.3966 39.2327L39.0845 39.8991C39.3286 40.1355 39.7243 40.1356 39.9683 39.8991L41.7433 38.1796C41.9874 37.9432 41.9875 37.5598 41.7434 37.3233L41.0555 36.6569C41.1029 36.5555 41.1468 36.4528 41.1874 36.3487H42.1602C42.5053 36.3487 42.7852 36.0776 42.7852 35.7432V33.3113C42.7852 32.9769 42.5053 32.7059 42.1602 32.7059ZM12.0352 13.8573C12.0352 12.6827 13.0216 11.727 14.2342 11.727H33.6882C34.9007 11.727 35.8872 12.6826 35.8872 13.8573V16.5955H12.0352V13.8573ZM29.6117 33.3113V33.6178H14.2342C13.0217 33.6178 12.0352 32.6622 12.0352 31.4875V17.8064H35.8872V28.1463H34.9433C34.5982 28.1463 34.3183 28.4175 34.3183 28.7518V29.694C34.2109 29.7333 34.1048 29.776 34.0002 29.8218L33.3122 29.1554C33.0682 28.919 32.6724 28.919 32.4283 29.1554L30.6534 30.8749C30.4093 31.1113 30.4093 31.4947 30.6534 31.7312L31.3413 32.3976C31.2939 32.4989 31.2499 32.6017 31.2094 32.7058H30.2367C29.8915 32.7059 29.6117 32.9769 29.6117 33.3113ZM41.5352 35.1377H40.7345C40.4533 35.1377 40.2068 35.3195 40.132 35.582C40.0433 35.8934 39.9146 36.194 39.7496 36.4755C39.6108 36.7124 39.6523 37.01 39.8512 37.2026L40.4176 37.7514L39.5265 38.6146L38.96 38.066C38.7612 37.8734 38.454 37.833 38.2095 37.9676C37.9192 38.1274 37.6088 38.252 37.2871 38.3381C37.0162 38.4105 36.8285 38.6494 36.8285 38.9217V39.6973H35.5683V38.9217C35.5683 38.6494 35.3806 38.4106 35.1097 38.3381C34.7879 38.252 34.4776 38.1274 34.1873 37.9676C33.9427 37.833 33.6355 37.8733 33.4367 38.066L32.8703 38.6148L31.9792 37.7515L32.5457 37.2027C32.7445 37.01 32.786 36.7124 32.6472 36.4755C32.4822 36.1942 32.3535 35.8936 32.2648 35.5821C32.19 35.3196 31.9435 35.1377 31.6623 35.1377H30.8617V33.9168H31.6623C31.9434 33.9168 32.19 33.735 32.2648 33.4725C32.3536 33.1609 32.4822 32.8604 32.6472 32.579C32.786 32.3421 32.7445 32.0445 32.5457 31.8519L31.9792 31.3031L32.8703 30.4398L33.4367 30.9885C33.6355 31.1812 33.9427 31.2215 34.1872 31.0869C34.4778 30.9271 34.7881 30.8025 35.1097 30.7164C35.3806 30.644 35.5683 30.4051 35.5683 30.1328V29.3572H36.8285V30.1328C36.8285 30.4051 37.0162 30.6439 37.2871 30.7164C37.6087 30.8025 37.919 30.9271 38.2095 31.0869C38.4541 31.2215 38.7612 31.1811 38.96 30.9885L39.5265 30.4398L40.4176 31.3031L39.8512 31.8519C39.6523 32.0445 39.6108 32.3421 39.7496 32.579C39.9146 32.8604 40.0432 33.161 40.132 33.4725C40.2069 33.7351 40.4534 33.9168 40.7345 33.9168H41.5352V35.1377Z" fill="white"/>
<path d="M36.1984 31.7939C34.6426 31.7939 33.377 33.0201 33.377 34.5272C33.377 36.0343 34.6426 37.2605 36.1984 37.2605C37.7541 37.2605 39.0198 36.0343 39.0198 34.5272C39.0198 33.0201 37.7541 31.7939 36.1984 31.7939ZM36.1984 36.0495C35.3319 36.0495 34.627 35.3666 34.627 34.5272C34.627 33.6877 35.3319 33.0048 36.1984 33.0048C37.0649 33.0048 37.7698 33.6877 37.7698 34.5272C37.7698 35.3666 37.0649 36.0495 36.1984 36.0495Z" fill="white"/>
<path d="M28.354 27.5385H14.5479C14.2027 27.5385 13.9229 27.8096 13.9229 28.1439C13.9229 28.4783 14.2027 28.7494 14.5479 28.7494H28.354C28.6992 28.7494 28.979 28.4783 28.979 28.1439C28.979 27.8096 28.6992 27.5385 28.354 27.5385Z" fill="white"/>
<path d="M28.354 30.5781H14.5479C14.2027 30.5781 13.9229 30.8493 13.9229 31.1836C13.9229 31.5179 14.2027 31.7891 14.5479 31.7891H28.354C28.6992 31.7891 28.979 31.5179 28.979 31.1836C28.979 30.8493 28.6992 30.5781 28.354 30.5781Z" fill="white"/>
<path d="M16.7621 25.5517C16.835 25.5785 16.9099 25.5912 16.9835 25.5912C17.2357 25.5912 17.4733 25.4422 17.568 25.2001L17.8223 24.5503H19.5847L19.836 25.1984C19.9573 25.5115 20.3178 25.6701 20.6408 25.5524C20.9639 25.4349 21.1275 25.0857 21.0061 24.7727L19.386 20.5939C19.3839 20.5884 19.3817 20.5829 19.3794 20.5775C19.2676 20.3128 19.0048 20.1418 18.7097 20.1418C18.7095 20.1418 18.7093 20.1418 18.709 20.1418C18.4137 20.1421 18.1509 20.3136 18.0395 20.5788C18.0376 20.5833 18.0357 20.5878 18.0339 20.5925L16.399 24.7711C16.2769 25.0836 16.4393 25.4332 16.7621 25.5517ZM18.7076 22.2876L19.1153 23.3393H18.2962L18.7076 22.2876Z" fill="white"/>
<path d="M31.1738 24.9856V20.7271C31.1738 20.3927 30.894 20.1216 30.5488 20.1216C30.2036 20.1216 29.9238 20.3927 29.9238 20.7271V24.9856C29.9238 25.32 30.2036 25.591 30.5488 25.591C30.894 25.591 31.1738 25.32 31.1738 24.9856Z" fill="white"/>
<path d="M24.2988 25.5911C24.644 25.5911 24.9238 25.32 24.9238 24.9856V23.7469C25.1503 23.7458 25.3861 23.7449 25.5283 23.7449C26.5735 23.7449 27.4238 22.9367 27.4238 21.9434C27.4238 20.95 26.5735 20.1418 25.5283 20.1418H24.2988C23.9475 20.1418 23.6738 20.4205 23.6738 20.7473V24.9856C23.6738 25.32 23.9536 25.5911 24.2988 25.5911ZM25.5283 21.3528C25.8782 21.3528 26.1738 21.6232 26.1738 21.9434C26.1738 22.2635 25.8781 22.5339 25.5283 22.5339C25.3871 22.5339 25.154 22.5348 24.9289 22.5359C24.926 21.9698 24.9276 22.0681 24.9256 21.3528H25.5283Z" fill="white"/>
</g>
<defs>
<linearGradient id="paint0_linear_266_1110" x1="9.6133" y1="42.4966" x2="55.1168" y2="13.8685" gradientUnits="userSpaceOnUse">
<stop stop-color="#6F90B4"/>
<stop offset="0.567308" stop-color="#2E5A88"/>
<stop offset="1" stop-color="#87BBF3"/>
</linearGradient>
<clipPath id="clip0_266_1110">
<rect width="32" height="31" fill="white" transform="translate(10.7852 10.2122)"/>
</clipPath>
</defs>
</svg>
