<svg width="52" height="52" viewBox="0 0 52 52" fill="none" xmlns="http://www.w3.org/2000/svg">
<rect width="51.4241" height="51.4241" rx="5.92264" fill="url(#paint0_linear_266_1121)"/>
<g clip-path="url(#clip0_266_1121)">
<path d="M25.712 20.7869C23.935 20.7869 22.4893 22.1844 22.4893 23.9022C22.4893 25.3255 23.482 26.5279 24.8331 26.8988V36.5902C24.8331 37.0594 25.2266 37.4398 25.712 37.4398C26.1974 37.4398 26.591 37.0594 26.591 36.5902V26.8988C27.942 26.528 28.9348 25.3255 28.9348 23.9022C28.9348 22.1844 27.4891 20.7869 25.712 20.7869ZM25.712 25.3183C24.9043 25.3183 24.2471 24.683 24.2471 23.9022C24.2471 23.1214 24.9043 22.4861 25.712 22.4861C26.5198 22.4861 27.1769 23.1214 27.1769 23.9022C27.1769 24.683 26.5198 25.3183 25.712 25.3183Z" fill="white"/>
<path d="M21.6453 19.3598C21.3021 19.028 20.7456 19.028 20.4023 19.3598C17.6773 21.9939 17.6769 26.2578 20.4023 28.8923C20.7456 29.2241 21.302 29.2241 21.6453 28.8923C21.9885 28.5605 21.9885 28.0225 21.6453 27.6907C19.6073 25.7207 19.607 22.5317 21.6453 20.5614C21.9885 20.2296 21.9885 19.6916 21.6453 19.3598Z" fill="white"/>
<path d="M31.0209 19.3598C30.6777 19.028 30.1212 19.028 29.7779 19.3598C29.4347 19.6915 29.4347 20.2295 29.7779 20.5613C31.8113 22.5269 31.8113 25.7251 29.7779 27.6907C29.4347 28.0224 29.4347 28.5604 29.7779 28.8922C30.1213 29.224 30.6777 29.224 31.0209 28.8922C33.7397 26.2642 33.7397 21.9878 31.0209 19.3598Z" fill="white"/>
<path d="M18.9939 17.998C19.3372 17.6662 19.3372 17.1282 18.9939 16.7964C18.6507 16.4647 18.0942 16.4647 17.7509 16.7964C13.57 20.838 13.57 27.414 17.7509 31.4556C18.0941 31.7873 18.6506 31.7875 18.9939 31.4556C19.3372 31.1238 19.3372 30.5858 18.9939 30.254C15.4984 26.875 15.4984 21.377 18.9939 17.998Z" fill="white"/>
<path d="M33.6733 16.7964C33.3301 16.4647 32.7735 16.4647 32.4303 16.7964C32.087 17.1282 32.087 17.6662 32.4303 17.998C35.9258 21.377 35.9258 26.875 32.4303 30.254C32.087 30.5858 32.087 31.1238 32.4303 31.4556C32.7736 31.7874 33.33 31.7874 33.6733 31.4556C37.8542 27.414 37.8542 20.838 33.6733 16.7964Z" fill="white"/>
<path d="M16.3422 15.4346C16.6855 15.1029 16.6855 14.5649 16.3422 14.2331C15.999 13.9013 15.4425 13.9013 15.0992 14.2331C9.24312 19.8939 9.25583 28.3703 15.0992 34.019C15.4424 34.3507 15.9989 34.3509 16.3422 34.019C16.6855 33.6872 16.6855 33.1492 16.3422 32.8174C11.2166 27.8625 11.2166 20.3896 16.3422 15.4346Z" fill="white"/>
<path d="M36.3247 14.2331C35.9815 13.9013 35.4249 13.9013 35.0817 14.2331C34.7384 14.5648 34.7384 15.1028 35.0817 15.4346C40.2074 20.3896 40.2074 27.8625 35.0817 32.8174C34.7384 33.1492 34.7384 33.6871 35.0817 34.019C35.425 34.3508 35.9814 34.3508 36.3247 34.019C42.1807 28.3582 42.1681 19.8817 36.3247 14.2331Z" fill="white"/>
</g>
<defs>
<linearGradient id="paint0_linear_266_1121" x1="9.61408" y1="42.4963" x2="55.119" y2="13.8649" gradientUnits="userSpaceOnUse">
<stop stop-color="#6F90B4"/>
<stop offset="0.567308" stop-color="#2E5A88"/>
<stop offset="1" stop-color="#87BBF3"/>
</linearGradient>
<clipPath id="clip0_266_1121">
<rect width="30" height="29" fill="white" transform="translate(10.7119 11.212)"/>
</clipPath>
</defs>
</svg>
