<svg width="52" height="52" viewBox="0 0 52 52" fill="none" xmlns="http://www.w3.org/2000/svg">
<rect width="51.42" height="51.42" rx="7.75686" fill="url(#paint0_linear_266_1105)"/>
<path d="M39.2819 23.5776C38.8713 23.166 38.3211 22.9787 37.7222 22.9436C37.417 22.9454 37.1216 23.0057 36.8496 23.1129C36.7533 22.9463 36.6353 22.7932 36.4976 22.6555C36.0887 22.2466 35.5394 22.0215 34.9487 22.0215C34.7614 22.0287 34.6002 22.0404 34.4336 22.0773L34.4362 21.3072C35.5617 20.5429 36.2634 19.2542 36.2634 17.872C36.2634 15.5839 34.4021 13.7225 32.1139 13.7225C31.4707 13.7225 30.8687 13.8821 30.3248 14.1445C29.8398 13.3427 28.9679 12.8004 27.9644 12.8004H16.8991C15.3737 12.8004 14.1328 14.0413 14.1328 15.5667V35.8531C14.1328 37.3786 15.3737 38.6195 16.8991 38.6195H27.9644C29.4899 38.6195 30.7308 37.3786 30.7308 35.8531C30.7308 35.3435 30.3183 34.931 29.8087 34.931C29.299 34.931 28.8866 35.3435 28.8866 35.8531C28.8866 36.3619 28.4732 36.7752 27.9644 36.7752H16.8991C16.3904 36.7752 15.977 36.3619 15.977 35.8531V15.5667C15.977 15.058 16.3904 14.6446 16.8991 14.6446H20.5876C20.5876 15.6613 21.4151 16.4889 22.4318 16.4889C23.4485 16.4889 24.276 15.6613 24.276 14.6446H27.9644C28.3962 14.6446 28.7425 14.9484 28.8426 15.3494C28.3003 16.0508 27.9644 16.9189 27.9644 17.872C27.9644 19.2595 28.671 20.5545 29.8042 21.3176L29.7988 23.3686L27.4503 24.9445C27.1954 25.1156 27.0423 25.4029 27.0423 25.7099V28.4763C27.0423 28.6438 27.0874 28.8076 27.1738 28.9508L29.9401 33.5614C30.1067 33.8387 30.4066 34.0089 30.7308 34.0089H36.2634C36.5876 34.0089 36.8875 33.8387 37.0541 33.5614L39.8204 28.9508C39.9068 28.8076 39.9519 28.6438 39.9519 28.4763V25.2579C39.9546 24.6095 39.7168 24.0125 39.2819 23.5776ZM34.4192 17.872C34.4192 18.1707 34.3419 18.4529 34.2333 18.7219C34.126 18.4915 33.984 18.2755 33.7979 18.089C33.3602 17.6514 32.7713 17.411 32.1391 17.411C32.1355 17.411 32.1319 17.411 32.1274 17.411C31.1843 17.4156 30.3713 17.9694 30.0098 18.7555C29.8921 18.4769 29.8087 18.1831 29.8087 17.872C29.8087 16.6005 30.8424 15.5667 32.1139 15.5667C33.3854 15.5667 34.4192 16.6005 34.4192 17.872ZM38.1076 28.2205L35.7411 32.1647H31.2531L28.8866 28.2205V26.2016L29.7907 25.5947V26.632C29.7907 27.1408 30.2031 27.5533 30.7119 27.5542C31.2197 27.5542 31.634 27.1426 31.6349 26.6347L31.6529 19.6568C31.6538 19.4407 31.8753 19.2561 32.1364 19.2552C32.2778 19.2993 32.4048 19.3056 32.493 19.393C32.5408 19.4416 32.5984 19.5217 32.5975 19.6361L32.5831 24.1602C32.5777 24.2196 32.575 24.2799 32.575 24.3403C32.575 24.3808 32.5768 24.4204 32.5822 24.4591L32.575 26.6293C32.5732 27.1381 32.9847 27.5524 33.4944 27.5542H33.4971C34.005 27.5542 34.4174 27.1435 34.4192 26.6347L34.4264 24.2745C34.4705 24.0539 34.6993 23.8666 34.9469 23.8657H34.9487C35.0505 23.8657 35.1306 23.8963 35.1936 23.9594C35.2765 24.0422 35.3242 24.1764 35.3233 24.3313V26.632C35.3233 27.1417 35.7357 27.5542 36.2454 27.5542C36.7551 27.5542 37.1675 27.1417 37.1675 26.632V25.2705C37.1693 25.0283 37.4485 24.7887 37.7312 24.7878H37.733C37.8348 24.7878 37.9149 24.8184 37.978 24.8815C38.0608 24.9643 38.1085 25.0985 38.1076 25.2534V28.2205Z" fill="white"/>
<path d="M22.1617 18.6033C21.8015 18.2431 21.218 18.2431 20.8578 18.6033L19.6655 19.7955L19.3954 19.5254C19.0352 19.1652 18.4516 19.1652 18.0914 19.5254C17.7312 19.8856 17.7312 20.4691 18.0914 20.8293L19.0135 21.7514C19.1936 21.9315 19.4296 22.0216 19.6655 22.0216C19.9014 22.0216 20.1374 21.9315 20.3175 21.7514L22.1617 19.9072C22.5219 19.547 22.5219 18.9635 22.1617 18.6033Z" fill="white"/>
<path d="M22.1617 24.1359C21.8015 23.7757 21.218 23.7757 20.8578 24.1359L19.6655 25.3282L19.3954 25.058C19.0352 24.6978 18.4516 24.6978 18.0914 25.058C17.7312 25.4182 17.7312 26.0018 18.0914 26.362L19.0135 27.2841C19.1936 27.4642 19.4296 27.5542 19.6655 27.5542C19.9014 27.5542 20.1374 27.4642 20.3175 27.2841L22.1617 25.4399C22.5219 25.0797 22.5219 24.4961 22.1617 24.1359Z" fill="white"/>
<path d="M20.8578 29.6685L19.6655 30.8608L19.3954 30.5906C19.0352 30.2304 18.4516 30.2304 18.0914 30.5906C17.7312 30.9508 17.7312 31.5344 18.0914 31.8946L19.0135 32.8167C19.1936 32.9968 19.4296 33.0868 19.6655 33.0868C19.9014 33.0868 20.1374 32.9968 20.3175 32.8167L22.1617 30.9724C22.5219 30.6122 22.5219 30.0287 22.1617 29.6685C21.8015 29.3083 21.218 29.3083 20.8578 29.6685Z" fill="white"/>
<defs>
<linearGradient id="paint0_linear_266_1105" x1="9.6133" y1="42.4929" x2="55.1146" y2="13.8638" gradientUnits="userSpaceOnUse">
<stop stop-color="#6F90B4"/>
<stop offset="0.567308" stop-color="#2E5A88"/>
<stop offset="1" stop-color="#87BBF3"/>
</linearGradient>
</defs>
</svg>
