<svg width="52" height="52" viewBox="0 0 52 52" fill="none" xmlns="http://www.w3.org/2000/svg">
<rect width="51.42" height="51.42" rx="6.16737" fill="url(#paint0_linear_266_1129)"/>
<g clip-path="url(#clip0_266_1129)">
<path d="M39.0466 40.6199C39.0952 40.8876 39.0885 41.1625 39.027 41.4277C38.9655 41.6928 38.8504 41.9425 38.6888 42.1615C38.2274 42.8047 37.3809 43.2756 36.4243 43.4213C36.3971 43.4254 36.3696 43.4275 36.342 43.4275H35.9336L35.8959 44.0517C35.8876 44.1909 35.8264 44.3216 35.7249 44.4171C35.6234 44.5127 35.4893 44.5659 35.3499 44.5659H18.1892C18.0498 44.5659 17.9156 44.5127 17.8142 44.4171C17.7127 44.3216 17.6515 44.1909 17.6432 44.0517L17.6054 43.4275H17.1971C17.1696 43.4275 17.1421 43.4254 17.1149 43.4213C16.1588 43.276 15.3123 42.8057 14.8505 42.1634C14.6885 41.9444 14.573 41.6945 14.511 41.4291C14.4491 41.1638 14.442 40.8886 14.4902 40.6204C15.034 37.5281 15.8256 35.0991 16.9746 32.9917L16.9186 32.0665C16.9141 31.992 16.9249 31.9174 16.9503 31.8472C16.9757 31.7771 17.0152 31.7128 17.0663 31.6585C17.1175 31.6042 17.1792 31.5609 17.2477 31.5313C17.3162 31.5017 17.39 31.4865 17.4646 31.4865H17.8921C17.9389 31.4174 17.9838 31.3537 18.0272 31.2926C18.559 30.5331 19.1645 29.8074 19.9865 29.4385C19.1761 28.4795 18.7584 27.4151 18.7431 26.2662C18.7431 26.2609 18.7431 26.2556 18.7426 26.2506C18.7417 26.1542 18.7426 26.0572 18.7475 25.9595C18.8361 24.1134 19.6039 22.1656 20.9097 20.4751C22.2107 18.7906 23.8746 17.5792 25.5947 17.0641C26.3599 16.8266 27.179 16.8266 27.9442 17.0641C29.6629 17.5792 31.3262 18.7906 32.6268 20.475C33.9325 22.1658 34.7003 24.1135 34.7888 25.9594C34.7936 26.0572 34.7946 26.1542 34.7937 26.2508C34.7937 26.2558 34.7937 26.2609 34.7932 26.2659C34.7781 27.4153 34.3608 28.4794 33.5511 29.4383C34.3739 29.8073 34.9803 30.534 35.5145 31.297C35.557 31.3579 35.6005 31.4211 35.6449 31.4867H36.074C36.1486 31.4866 36.2225 31.5019 36.291 31.5315C36.3595 31.561 36.4212 31.6043 36.4724 31.6587C36.5235 31.713 36.563 31.7772 36.5884 31.8474C36.6138 31.9175 36.6246 31.9922 36.62 32.0666L36.5639 32.9955C37.7115 35.0971 38.5029 37.525 39.0468 40.6202L39.0466 40.6199ZM17.5388 42.3334L17.1104 35.2428C16.4477 36.8404 15.9464 38.6538 15.5671 40.8094C15.544 40.9339 15.5473 41.062 15.5768 41.1852C15.6062 41.3084 15.6612 41.4241 15.7382 41.5247C16.0173 41.9129 16.6036 42.2278 17.2396 42.3334H17.5388ZM32.6777 30.3082C32.1445 30.7537 31.5707 31.1483 30.9639 31.4867H34.2967C33.792 30.8374 33.3032 30.4148 32.6777 30.3082ZM19.8894 25.4784C20.655 25.2433 21.4111 25.0462 22.1575 24.8871C22.1983 24.8733 22.2406 24.8644 22.2836 24.8606H22.2861C25.2412 24.2339 28.295 24.2339 31.2502 24.8606H31.251C31.2947 24.8642 31.3379 24.8732 31.3795 24.8873C32.1268 25.0462 32.8829 25.2433 33.6477 25.4786C33.239 22.2915 30.5922 18.9999 27.6302 18.1122C27.0701 17.9359 26.4694 17.9359 25.9093 18.1122C22.9459 18.9995 20.2982 22.2909 19.8894 25.4784ZM22.9343 25.8409C22.9733 26.0904 23.0215 26.3204 23.0702 26.5368C23.4561 28.237 25.155 30.2275 26.7686 30.2491C28.3821 30.2278 30.0811 28.2374 30.4672 26.5359C30.5168 26.3209 30.5657 26.0923 30.6046 25.8415C28.0716 25.3479 25.4673 25.3477 22.9343 25.8409ZM21.3801 29.3102C21.402 29.3274 21.4226 29.3463 21.4416 29.3667C22.3038 30.1324 23.5196 30.839 25.0889 31.4867H28.4482C30.0227 30.8352 31.2402 30.1271 32.1009 29.3624C32.118 29.3444 32.1362 29.3275 32.1556 29.312C33.0568 28.4927 33.5607 27.603 33.6751 26.633C32.9971 26.4149 32.3305 26.2274 31.6751 26.0705C31.6335 26.3269 31.5836 26.5607 31.5332 26.7796C31.0475 28.9188 28.9732 31.3202 26.7737 31.3429H26.7625C24.563 31.3202 22.489 28.9188 22.0026 26.7779C21.9531 26.5577 21.9041 26.3238 21.8627 26.0701C21.206 26.2269 20.5389 26.4146 19.8614 26.6331C19.9762 27.6021 20.4795 28.4913 21.3801 29.3102ZM19.2428 31.4867H22.5743C21.9676 31.1483 21.3938 30.7538 20.8605 30.3084C20.2357 30.4152 19.7474 30.8376 19.2428 31.4867ZM35.4932 32.5805H24.9811H24.9789H24.9758H18.0461L18.7041 43.4719H34.8351L35.4612 33.1097C35.4612 33.0924 35.4623 33.075 35.4644 33.0577L35.4932 32.5805ZM37.9698 40.8101C37.5905 38.6531 37.0897 36.8404 36.4285 35.2459L36.0003 42.3335H36.2993C36.9356 42.2278 37.5217 41.9124 37.8004 41.524C37.8769 41.4235 37.9316 41.3081 37.9607 41.1852C37.9898 41.0622 37.9928 40.9346 37.9695 40.8104L37.9698 40.8101ZM30.7659 13.7147C30.9109 13.7147 31.05 13.6571 31.1526 13.5545C31.2552 13.452 31.3128 13.3129 31.3128 13.1678C31.3128 13.0228 31.2552 12.8837 31.1526 12.7811C31.05 12.6786 30.9109 12.6209 30.7659 12.6209H22.7712C22.6262 12.6209 22.4871 12.6786 22.3845 12.7811C22.282 12.8837 22.2243 13.0228 22.2243 13.1678C22.2243 13.3129 22.282 13.452 22.3845 13.5545C22.4871 13.6571 22.6262 13.7147 22.7712 13.7147H30.7659ZM22.7712 9.71063H26.7686C26.9136 9.71063 27.0527 9.65302 27.1553 9.55046C27.2578 9.4479 27.3154 9.3088 27.3154 9.16376C27.3154 9.01872 27.2578 8.87962 27.1553 8.77706C27.0527 8.6745 26.9136 8.61688 26.7686 8.61688H22.7712C22.6262 8.61688 22.4871 8.6745 22.3845 8.77706C22.282 8.87962 22.2243 9.01872 22.2243 9.16376C22.2243 9.3088 22.282 9.4479 22.3845 9.55046C22.4871 9.65302 22.6262 9.71063 22.7712 9.71063ZM22.7712 11.7127H30.7659C30.9109 11.7127 31.05 11.6551 31.1526 11.5526C31.2552 11.45 31.3128 11.3109 31.3128 11.1659C31.3128 11.0208 31.2552 10.8817 31.1526 10.7792C31.05 10.6766 30.9109 10.619 30.7659 10.619H22.7712C22.6262 10.619 22.4871 10.6766 22.3845 10.7792C22.282 10.8817 22.2243 11.0208 22.2243 11.1659C22.2243 11.3109 22.282 11.45 22.3845 11.5526C22.4871 11.6551 22.6262 11.7127 22.7712 11.7127ZM20.6364 14.5008V7.82821C20.6364 7.57016 20.7387 7.32265 20.921 7.13997C21.1032 6.95729 21.3505 6.85436 21.6086 6.85376H31.9289C32.1872 6.85405 32.4349 6.95681 32.6176 7.13949C32.8003 7.32217 32.903 7.56986 32.9033 7.82821V14.5008C32.9031 14.7593 32.8004 15.0071 32.6176 15.1899C32.4349 15.3727 32.187 15.4754 31.9286 15.4756H26.0759L22.9452 17.2847C22.8621 17.3327 22.7677 17.358 22.6717 17.358C22.5757 17.358 22.4814 17.3327 22.3983 17.2847C22.3152 17.2367 22.2461 17.1676 22.1981 17.0845C22.1501 17.0013 22.1249 16.907 22.1249 16.811V15.4756H21.6093C21.351 15.4752 21.1035 15.3723 20.9211 15.1896C20.7386 15.0068 20.6362 14.759 20.6364 14.5008ZM21.7301 14.3812H22.6713C22.8163 14.3812 22.9554 14.4388 23.058 14.5414C23.1605 14.6439 23.2182 14.783 23.2182 14.9281V15.8627L25.6552 14.4545C25.7383 14.4064 25.8326 14.3811 25.9286 14.381H31.8083V7.94782H21.7304L21.7301 14.3812ZM9.02301 20.9719H12.2873C12.4323 20.9719 12.5714 20.9143 12.674 20.8117C12.7766 20.7091 12.8342 20.5701 12.8342 20.425C12.8342 20.28 12.7766 20.1409 12.674 20.0383C12.5714 19.9358 12.4323 19.8781 12.2873 19.8781H9.02301C8.87797 19.8781 8.73887 19.9358 8.63631 20.0383C8.53375 20.1409 8.47613 20.28 8.47613 20.425C8.47613 20.5701 8.53375 20.7091 8.63631 20.8117C8.73887 20.9143 8.87797 20.9719 9.02301 20.9719ZM17.4939 22.4424H7.85809C7.56923 22.442 7.29229 22.3271 7.08804 22.1229C6.88378 21.9186 6.76889 21.6417 6.76855 21.3528V14.9083C6.76886 14.6194 6.88375 14.3425 7.08801 14.1382C7.29227 13.9339 7.56921 13.819 7.85809 13.8187H17.4939C17.7824 13.8194 18.0589 13.9345 18.2627 14.1387C18.4665 14.343 18.581 14.6197 18.5811 14.9083V21.3528C18.581 21.6414 18.4665 21.9181 18.2627 22.1223C18.0589 22.3266 17.7824 22.4417 17.4939 22.4424ZM17.4873 17.9288H7.8623V21.3528L17.4873 21.3483V17.9288ZM17.4873 16.3428H7.86184V16.835H17.4873V16.3428ZM17.4873 14.9121H7.8616V15.2491H17.4873V14.9121ZM9.02301 19.3995H12.2873C12.4323 19.3995 12.5714 19.3418 12.674 19.2393C12.7766 19.1367 12.8342 18.9976 12.8342 18.8526C12.8342 18.7075 12.7766 18.5684 12.674 18.4659C12.5714 18.3633 12.4323 18.3057 12.2873 18.3057H9.02301C8.87797 18.3057 8.73887 18.3633 8.63631 18.4659C8.53375 18.5684 8.47613 18.7075 8.47613 18.8526C8.47613 18.9976 8.53375 19.1367 8.63631 19.2393C8.73887 19.3418 8.87797 19.3995 9.02301 19.3995ZM46.7686 14.7931V21.4678C46.7683 21.7262 46.6655 21.9738 46.4829 22.1565C46.3002 22.3392 46.0525 22.442 45.7942 22.4423H35.4763C35.218 22.442 34.9703 22.3392 34.7876 22.1565C34.6049 21.9738 34.5022 21.7262 34.5019 21.4678V14.7931C34.5022 14.5348 34.6049 14.2871 34.7876 14.1044C34.9703 13.9218 35.218 13.819 35.4763 13.8187H45.7942C46.0525 13.819 46.3002 13.9218 46.4829 14.1044C46.6655 14.2871 46.7683 14.5348 46.7686 14.7931ZM36.3661 14.9131L40.1689 18.5577C40.2953 18.6762 40.4621 18.7422 40.6354 18.7422C40.8087 18.7422 40.9755 18.6762 41.1019 18.5577L44.9039 14.9131H36.3661ZM35.5959 20.5991L38.2061 18.1913L35.5959 15.6899V20.5991ZM44.8748 21.3487L42.2732 18.9502L41.8586 19.3477C41.5273 19.6588 41.0899 19.832 40.6354 19.832C40.1809 19.832 39.7435 19.6588 39.4121 19.3477L38.9973 18.9502L36.3969 21.3486L44.8748 21.3487ZM45.6748 15.6894L43.0648 18.1912L45.6748 20.5977V15.6894Z" fill="white"/>
</g>
<defs>
<linearGradient id="paint0_linear_266_1129" x1="9.6133" y1="42.4929" x2="55.1146" y2="13.8638" gradientUnits="userSpaceOnUse">
<stop stop-color="#6F90B4"/>
<stop offset="0.567308" stop-color="#2E5A88"/>
<stop offset="1" stop-color="#87BBF3"/>
</linearGradient>
<clipPath id="clip0_266_1129">
<rect width="40" height="40" fill="white" transform="translate(6.76855 5.70996)"/>
</clipPath>
</defs>
</svg>
