<svg width="324" height="227" viewBox="0 0 324 227" fill="none" xmlns="http://www.w3.org/2000/svg">
<path d="M140.379 0.5C170.061 0.5 195.856 17.1102 208.999 41.5508C215.943 38.0939 223.776 36.1572 232.052 36.1572C260.718 36.1574 283.958 59.4009 283.958 88.082C283.958 91.7258 283.582 95.2761 282.868 98.6982C306.062 103.445 323.5 123.976 323.5 148.574C323.5 176.694 300.718 199.5 272.603 199.5H60.46C27.3393 199.5 0.5 172.635 0.5 139.507C0.50011 105.49 28.8619 78.2379 62.5117 79.5635C61.9765 35.1062 97.7708 0.500099 140.379 0.5Z" stroke="url(#paint0_linear_305_3796)" stroke-opacity="0.5"/>
<path d="M142.259 14.5C169.361 14.5 192.916 29.6763 204.93 52.0107C211.267 48.8595 218.412 47.0957 225.96 47.0957C252.158 47.0957 273.396 68.3636 273.396 94.6055C273.396 97.9242 273.057 101.158 272.41 104.276C293.586 108.636 309.5 127.413 309.5 149.903C309.5 175.632 288.68 196.5 262.984 196.5H69.29C39.0248 196.5 14.5001 171.922 14.5 141.615C14.5 110.511 40.3898 85.587 71.1191 86.7734C70.6549 46.1312 103.346 14.5002 142.259 14.5Z" stroke="url(#paint1_linear_305_3796)" stroke-opacity="0.7"/>
<g filter="url(#filter0_d_305_3796)">
<path d="M75.5965 195C47.6482 195 25 172.261 25 144.221C25 115.276 49.1869 92.1186 77.7737 93.5026C77.0734 55.5824 107.434 26 143.602 26C168.844 26 190.764 40.2506 201.815 61.1786C207.756 58.1406 214.488 56.4344 221.609 56.4344C245.767 56.4344 265.353 76.0826 265.353 100.327C265.353 103.557 265.006 106.7 264.347 109.721C284.098 113.569 299 131.023 299 151.96C299 175.726 279.804 195 256.115 195H75.5965V195Z" fill="#F6F8FB"/>
</g>
<path d="M191.114 93.8268C192.125 94.2774 192.776 95.2832 192.776 96.3932V121.229C192.776 134.506 185.724 146.798 174.28 153.481L163.153 159.971C162.284 160.478 161.211 160.478 160.341 159.971L149.214 153.481C137.771 146.798 130.736 134.506 130.736 121.229V96.3928C130.736 95.283 131.388 94.2774 132.398 93.8267L160.611 81.242C161.335 80.9194 162.16 80.9193 162.884 81.2418L191.114 93.8268Z" fill="url(#paint2_linear_305_3796)"/>
<path d="M156.277 135.646C155.056 135.646 153.923 135.093 153.17 134.129C152.417 133.164 152.152 131.929 152.444 130.739L154.348 122.957C150.97 120.401 149.167 116.25 149.667 111.882C150.298 106.375 154.742 101.919 160.235 101.287C160.706 101.233 161.182 101.205 161.651 101.205C168.301 101.205 173.712 106.635 173.712 113.31C173.712 117.152 171.928 120.69 168.949 122.954L170.854 130.739C171.145 131.929 170.88 133.164 170.127 134.129C169.374 135.093 168.242 135.646 167.02 135.646H156.277Z" fill="#D4E8FF"/>
<path d="M165.6 121.463L167.738 130.202C167.929 130.983 167.341 131.736 166.54 131.736H156.758C155.957 131.736 155.369 130.983 155.559 130.202L157.698 121.463C154.638 119.883 152.652 116.519 153.084 112.738C153.535 108.8 156.707 105.626 160.631 105.174C165.85 104.573 170.273 108.651 170.273 113.768C170.273 117.121 168.375 120.028 165.6 121.463Z" fill="white"/>
<path d="M166.212 106.424C165.096 106.077 163.887 105.95 162.627 106.095C158.701 106.546 155.531 109.719 155.081 113.659C154.649 117.437 156.633 120.804 159.695 122.384L157.554 131.122C157.505 131.334 157.509 131.547 157.563 131.736H156.758C155.958 131.736 155.369 130.982 155.558 130.201L157.698 121.463C154.64 119.884 152.652 116.516 153.084 112.739C153.534 108.798 156.709 105.625 160.631 105.174C162.69 104.939 164.624 105.427 166.212 106.424Z" fill="#2E5A88" fill-opacity="0.33"/>
<defs>
<filter id="filter0_d_305_3796" x="1" y="10" width="322" height="217" filterUnits="userSpaceOnUse" color-interpolation-filters="sRGB">
<feFlood flood-opacity="0" result="BackgroundImageFix"/>
<feColorMatrix in="SourceAlpha" type="matrix" values="0 0 0 0 0 0 0 0 0 0 0 0 0 0 0 0 0 0 127 0" result="hardAlpha"/>
<feOffset dy="8"/>
<feGaussianBlur stdDeviation="12"/>
<feColorMatrix type="matrix" values="0 0 0 0 0.180392 0 0 0 0 0.352941 0 0 0 0 0.533333 0 0 0 0.18 0"/>
<feBlend mode="normal" in2="BackgroundImageFix" result="effect1_dropShadow_305_3796"/>
<feBlend mode="normal" in="SourceGraphic" in2="effect1_dropShadow_305_3796" result="shape"/>
</filter>
<linearGradient id="paint0_linear_305_3796" x1="140.623" y1="-126.959" x2="176.179" y2="191.362" gradientUnits="userSpaceOnUse">
<stop stop-color="#6F90B4"/>
<stop offset="0.413462" stop-color="#547AA2" stop-opacity="0.27"/>
<stop offset="0.999637" stop-color="#2E5A88" stop-opacity="0"/>
</linearGradient>
<linearGradient id="paint1_linear_305_3796" x1="142.482" y1="-101.973" x2="175.023" y2="189.009" gradientUnits="userSpaceOnUse">
<stop stop-color="#6F90B4"/>
<stop offset="0.413462" stop-color="#547AA2" stop-opacity="0.27"/>
<stop offset="0.999637" stop-color="#2E5A88" stop-opacity="0"/>
</linearGradient>
<linearGradient id="paint2_linear_305_3796" x1="142.335" y1="146.575" x2="204.036" y2="116.223" gradientUnits="userSpaceOnUse">
<stop stop-color="#6F90B4"/>
<stop offset="0.567308" stop-color="#2E5A88"/>
<stop offset="1" stop-color="#87BBF3"/>
</linearGradient>
</defs>
</svg>
