<svg width="52" height="52" viewBox="0 0 52 52" fill="none" xmlns="http://www.w3.org/2000/svg">
<rect width="51.42" height="51.42" rx="7.75686" fill="url(#paint0_linear_266_1293)"/>
<g clip-path="url(#clip0_266_1293)">
<path d="M39.542 25.71C39.542 22.3711 38.2417 19.2321 35.8809 16.8711C33.5199 14.5102 30.3809 13.21 27.042 13.21C24.593 13.21 22.2519 13.9104 20.246 15.2149C19.8415 14.8424 19.302 14.6144 18.71 14.6144C17.4584 14.6144 16.4401 15.6327 16.4401 16.8843C16.4401 17.4298 16.6337 17.931 16.9557 18.3229C15.3888 20.4528 14.542 23.0162 14.542 25.71C14.542 29.0488 15.8422 32.1878 18.2031 34.5488C20.5641 36.9097 23.7031 38.21 27.042 38.21C29.491 38.21 31.8321 37.5096 33.8379 36.205C34.2425 36.5775 34.782 36.8055 35.374 36.8055C36.6256 36.8055 37.6438 35.7873 37.6438 34.5356C37.6438 33.9901 37.4503 33.4889 37.1283 33.097C38.6952 30.9671 39.542 28.4037 39.542 25.71ZM36.179 34.5356C36.179 34.9795 35.8179 35.3407 35.374 35.3407C34.9301 35.3407 34.5689 34.9795 34.5689 34.5356C34.5689 34.0917 34.9301 33.7306 35.374 33.7306C35.8179 33.7306 36.179 34.0917 36.179 34.5356ZM35.374 32.2658C34.1224 32.2658 33.1041 33.284 33.1041 34.5356C33.1041 34.6618 33.1149 34.7854 33.1348 34.9059C32.1675 35.5489 31.0935 36.0433 29.9455 36.3567C30.3392 35.7917 30.6994 35.1039 31.0174 34.3005C31.4209 33.2814 31.7442 32.1166 31.9795 30.8552H36.8017C36.5296 31.3691 36.2187 31.8594 35.8719 32.3214C35.7115 32.2854 35.545 32.2658 35.374 32.2658ZM24.4286 33.7613C24.2205 33.2357 24.0355 32.6665 23.8747 32.0618C24.3241 31.7875 24.6706 31.3612 24.8436 30.8552H30.4888C30.2767 31.9181 29.9971 32.8984 29.6554 33.7613C28.9157 35.6296 27.9387 36.7451 27.042 36.7451C26.1453 36.7451 25.1683 35.6296 24.4286 33.7613ZM16.6387 29.3904C16.2301 28.2387 16.0068 27 16.0068 25.71C16.0068 24.4823 16.2086 23.301 16.5802 22.1971H21.8557C21.7206 23.3232 21.6505 24.5039 21.6505 25.71C21.6505 26.5086 21.6813 27.2961 21.7413 28.064C21.1836 28.3236 20.7486 28.803 20.5477 29.3904H16.6387ZM17.905 16.8843C17.905 16.4404 18.2661 16.0792 18.71 16.0792C19.1539 16.0792 19.515 16.4404 19.515 16.8843C19.515 17.3282 19.1539 17.6893 18.71 17.6893C18.2661 17.6893 17.905 17.3282 17.905 16.8843ZM18.71 19.1542C19.9616 19.1542 20.9799 18.1359 20.9799 16.8843C20.9799 16.7582 20.9691 16.6346 20.9492 16.5141C21.9165 15.871 22.9905 15.3767 24.1386 15.0632C23.7449 15.6283 23.3847 16.316 23.0666 17.1194C22.6453 18.1835 22.3116 19.4063 22.074 20.7322H17.1951C17.4871 20.1569 17.8277 19.6104 18.2121 19.0984C18.3725 19.1345 18.5389 19.1542 18.71 19.1542ZM29.6554 17.6586C29.8801 18.2261 30.0777 18.8447 30.2472 19.5037C29.7795 19.7769 29.4182 20.2122 29.2403 20.7322H23.5626C23.7784 19.6048 24.069 18.5667 24.4285 17.6586C25.1683 15.7903 26.1453 14.6748 27.042 14.6748C27.9387 14.6748 28.9157 15.7903 29.6554 17.6586ZM37.5038 22.1971C37.8754 23.301 38.0771 24.4823 38.0771 25.71C38.0771 27 37.8539 28.2387 37.4453 29.3904H32.2073C32.356 28.214 32.4334 26.9761 32.4334 25.71C32.4334 24.9673 32.4066 24.2345 32.3546 23.518C32.9066 23.2572 33.3368 22.7803 33.5362 22.1971H37.5038ZM24.8436 29.3904C24.5912 28.6521 23.9687 28.0845 23.1981 27.9097C23.1435 27.1932 23.1154 26.4574 23.1154 25.71C23.1154 24.4974 23.1892 23.3155 23.331 22.1971H29.2404C29.4942 22.9393 30.122 23.5091 30.8982 23.6807C30.9447 24.3433 30.9686 25.0216 30.9686 25.71C30.9686 26.9833 30.8872 28.2227 30.7312 29.3904H24.8436V29.3904ZM21.8906 30.1228C21.8906 29.6789 22.2518 29.3178 22.6957 29.3178C23.1396 29.3178 23.5007 29.6789 23.5007 30.1228C23.5007 30.5667 23.1396 30.9278 22.6957 30.9278C22.2518 30.9278 21.8906 30.5667 21.8906 30.1228ZM32.1934 21.4646C32.1934 21.9085 31.8322 22.2697 31.3883 22.2697C30.9444 22.2697 30.5833 21.9085 30.5833 21.4646C30.5833 21.0208 30.9444 20.6596 31.3883 20.6596C31.8322 20.6596 32.1934 21.0207 32.1934 21.4646ZM36.8889 20.7322H33.5363C33.2617 19.9292 32.5491 19.328 31.6847 19.2147C31.4956 18.4664 31.2726 17.7638 31.0175 17.1194C30.6994 16.3161 30.3392 15.6283 29.9455 15.0632C32.977 15.8908 35.4926 17.9813 36.8889 20.7322ZM17.2823 30.8552H20.5477C20.8271 31.6721 21.5595 32.2804 22.4441 32.3784C22.6234 33.062 22.8312 33.7062 23.0666 34.3005C23.3846 35.1039 23.7449 35.7917 24.1385 36.3567C21.1689 35.546 18.6947 33.5233 17.2823 30.8552Z" fill="white"/>
</g>
<defs>
<linearGradient id="paint0_linear_266_1293" x1="9.6133" y1="42.4929" x2="55.1146" y2="13.8638" gradientUnits="userSpaceOnUse">
<stop stop-color="#6F90B4"/>
<stop offset="0.567308" stop-color="#2E5A88"/>
<stop offset="1" stop-color="#87BBF3"/>
</linearGradient>
<clipPath id="clip0_266_1293">
<rect width="25" height="25" fill="white" transform="translate(14.542 13.21)"/>
</clipPath>
</defs>
</svg>
