<svg width="290" height="285" viewBox="0 0 290 285" fill="none" xmlns="http://www.w3.org/2000/svg">
<path d="M130.852 258.668C181.109 258.668 221.852 254.863 221.852 250.168C221.852 245.474 181.109 241.668 130.852 241.668C80.5936 241.668 39.8516 245.474 39.8516 250.168C39.8516 254.863 80.5936 258.668 130.852 258.668Z" fill="url(#paint0_radial_316_1465)" style="mix-blend-mode:multiply"/>
<g filter="url(#filter0_d_316_1465)">
<path d="M181.315 229.544C194.121 229.918 208.326 229.492 221.205 229.363C223.78 229.488 226.357 229.536 228.933 229.506C235.049 229.473 239.783 229.111 244.362 233.898C252.702 242.612 247.636 255.736 236.438 258.316C234.02 258.873 228.965 258.603 226.313 258.603L209.729 258.604L191.296 258.596C184.18 258.593 176.759 259.516 171.664 253.157C169.008 249.843 167.302 243.941 168.764 239.787C169.137 238.89 169.568 237.984 169.975 237.099L170.586 236.146C173.923 231.665 175.759 230.53 181.315 229.544Z" fill="#FEFEFE"/>
<path d="M212.408 241.163C213.916 240.621 215.576 241.409 216.11 242.919C216.647 244.43 215.851 246.087 214.338 246.615C212.836 247.14 211.191 246.352 210.658 244.851C210.128 243.35 210.909 241.701 212.408 241.163Z" fill="#D0CFD1"/>
<path d="M224.243 241.047C228.378 241.088 229.695 244.596 225.657 246.748C221.919 246.736 220.66 243.32 224.243 241.047Z" fill="#D0CFD1"/>
<path d="M235.698 241.175C237.198 240.626 238.86 241.396 239.407 242.895C239.956 244.395 239.183 246.054 237.684 246.602C236.187 247.148 234.529 246.378 233.982 244.88C233.433 243.383 234.203 241.724 235.698 241.175Z" fill="#D0CFD1"/>
<path d="M200.95 241.165C201.946 240.822 203.05 241.049 203.829 241.758C204.61 242.467 204.94 243.545 204.694 244.569C204.445 245.594 203.66 246.402 202.641 246.677C201.14 247.082 199.588 246.225 199.131 244.739C198.676 243.252 199.48 241.672 200.95 241.165Z" fill="#D0CFD1"/>
<path d="M188.556 240.501H188.388V240.332C188.388 238.191 186.645 236.448 184.503 236.448C182.361 236.448 180.619 238.191 180.619 240.332V240.501H180.45C179.425 240.501 178.592 241.334 178.592 242.359V247.764C178.592 248.788 179.425 249.621 180.45 249.621H188.556C189.581 249.621 190.414 248.788 190.414 247.764V242.359C190.414 241.334 189.581 240.501 188.556 240.501ZM181.632 240.332C181.632 238.749 182.92 237.461 184.503 237.461C186.086 237.461 187.374 238.749 187.374 240.332V240.501H181.632V240.332ZM189.401 247.764C189.401 248.229 189.022 248.608 188.556 248.608H180.45C179.984 248.608 179.605 248.229 179.605 247.764V242.359C179.605 241.894 179.984 241.515 180.45 241.515H188.556C189.022 241.515 189.401 241.894 189.401 242.359V247.764Z" fill="url(#paint1_linear_316_1465)"/>
</g>
<g filter="url(#filter1_d_316_1465)">
<rect x="239.938" y="60.5027" width="28.7676" height="28.6345" rx="6.58373" fill="#FEFEFE"/>
<path d="M261.436 70.2712C261.047 69.8921 260.463 69.8921 260.074 70.2712L252.78 77.3786L249.765 74.4409C249.376 74.0618 248.792 74.0618 248.403 74.4409C248.014 74.82 248.014 75.3886 248.403 75.7676L252.099 79.3687C252.293 79.5583 252.488 79.653 252.78 79.653C253.072 79.653 253.266 79.5583 253.461 79.3687L261.436 71.5979C261.825 71.2189 261.825 70.6503 261.436 70.2712Z" fill="url(#paint2_linear_316_1465)"/>
</g>
<g filter="url(#filter2_d_316_1465)">
<g filter="url(#filter3_di_316_1465)">
<path d="M144.908 33.7917C145.908 33.4511 146.998 33.4914 147.969 33.9052L213.943 62.0087C218.449 63.9279 221.29 68.4421 221.073 73.3344L218.213 137.697C218.066 140.994 217.491 143.868 216.459 146.296C208.309 165.49 193.743 182.347 177.972 195.922C163.524 208.357 148.559 217.61 137.82 223.033C91.0563 195.658 73.3331 156.958 69.4687 138.754C69.1641 137.318 69.0668 135.589 69.1649 133.382L72.1268 66.7166C72.3479 61.742 75.5953 57.4106 80.3087 55.8044L144.908 33.7917Z" stroke="url(#paint3_linear_316_1465)" stroke-width="21.423" shape-rendering="crispEdges"/>
</g>
<g filter="url(#filter4_d_316_1465)">
<path d="M74.6644 131.417L77.0266 78.2494C77.3639 70.6591 82.3237 64.0534 89.5185 61.612L141.038 44.1303C144.525 42.9469 148.326 43.0883 151.716 44.5274L204.386 66.8862C211.36 69.847 215.762 76.829 215.425 84.3985L213.166 135.253C212.977 139.492 212.23 143.71 210.512 147.589C195.657 181.112 159.832 204.882 141.018 213.896C139.61 214.57 137.962 214.494 136.602 213.726C95.5421 190.536 79.1994 156.923 75.2253 139.496C74.6212 136.847 74.5438 134.131 74.6644 131.417Z" fill="#E9EEF3"/>
</g>
<g filter="url(#filter5_i_316_1465)">
<path d="M145.161 98.1384C155.604 98.6026 163.693 107.445 163.229 117.888C162.892 125.468 158.141 131.806 151.567 134.535L154.407 152.473C143.094 157.799 134.663 154.024 131.862 151.471L136.204 134.151C129.535 130.983 125.064 124.046 125.412 116.207C125.876 105.764 134.718 97.6745 145.161 98.1384Z" fill="#8794A3"/>
</g>
</g>
<path d="M53.4303 134.309C32.7154 136.855 20.1135 139.938 20.1767 143.039C20.3112 149.635 77.7161 153.815 148.394 152.374C219.072 150.934 276.259 144.418 276.125 137.821C276.052 134.255 259.236 131.394 232.631 129.747" stroke="url(#paint4_linear_316_1465)" stroke-width="4.26669" stroke-linecap="round"/>
<path d="M67.8265 175.28C50.1381 177.454 39.3773 180.086 39.4313 182.734C39.5461 188.367 88.5641 191.936 148.916 190.706C209.268 189.475 258.1 183.912 257.985 178.279C257.923 175.233 243.564 172.791 220.846 171.384" stroke="url(#paint5_linear_316_1465)" stroke-width="3.64332" stroke-linecap="round"/>
<path d="M85.7831 211.738C72.0118 213.43 63.634 215.48 63.6761 217.541C63.7655 221.927 101.928 224.705 148.915 223.747C195.902 222.79 233.92 218.458 233.831 214.073C233.782 211.701 222.603 209.8 204.916 208.705" stroke="url(#paint6_linear_316_1465)" stroke-width="2.8365" stroke-linecap="round"/>
<g filter="url(#filter6_d_316_1465)">
<rect x="20.709" y="39.4126" width="31.2004" height="31.4721" rx="7.18225" fill="#FEFEFE"/>
<path d="M36.6091 54.4852C35.7604 54.4852 34.9309 54.2336 34.2253 53.7621C33.5197 53.2907 32.9697 52.6205 32.645 51.8365C32.3202 51.0525 32.2352 50.1898 32.4008 49.3575C32.5664 48.5252 32.975 47.7606 33.5751 47.1606C34.1751 46.5605 34.9397 46.1518 35.772 45.9863C36.6043 45.8207 37.467 45.9057 38.251 46.2305C39.0351 46.5552 39.7052 47.1052 40.1766 47.8108C40.6481 48.5164 40.8998 49.3459 40.8998 50.1945C40.8985 51.3321 40.446 52.4227 39.6416 53.2271C38.8373 54.0315 37.7466 54.484 36.6091 54.4852ZM36.6091 47.0957C35.9962 47.0957 35.397 47.2774 34.8874 47.6179C34.3778 47.9585 33.9807 48.4424 33.7461 49.0087C33.5116 49.5749 33.4502 50.198 33.5698 50.7991C33.6893 51.4002 33.9845 51.9524 34.4179 52.3857C34.8512 52.8191 35.4034 53.1143 36.0045 53.2338C36.6056 53.3534 37.2287 53.292 37.7949 53.0575C38.3612 52.8229 38.8451 52.4258 39.1856 51.9162C39.5262 51.4066 39.7079 50.8074 39.7079 50.1945C39.707 49.373 39.3802 48.5853 38.7992 48.0044C38.2183 47.4234 37.4306 47.0966 36.6091 47.0957Z" fill="url(#paint7_linear_316_1465)"/>
<path d="M44.0567 63.1966C43.8986 63.1966 43.7471 63.1338 43.6353 63.022C43.5235 62.9103 43.4608 62.7587 43.4608 62.6006V61.1275C43.4595 59.9959 43.0094 58.9111 42.2093 58.1109C41.4091 57.3108 40.3243 56.8607 39.1927 56.8594H34.0224C32.8908 56.8607 31.806 57.3108 31.0058 58.1109C30.2057 58.9111 29.7556 59.9959 29.7544 61.1275V62.6006C29.7544 62.7587 29.6916 62.9103 29.5798 63.022C29.4681 63.1338 29.3165 63.1966 29.1584 63.1966C29.0004 63.1966 28.8488 63.1338 28.737 63.022C28.6253 62.9103 28.5625 62.7587 28.5625 62.6006V61.1275C28.5642 59.68 29.14 58.2922 30.1636 57.2687C31.1871 56.2451 32.5749 55.6693 34.0224 55.6676H39.1921C40.6397 55.6691 42.0276 56.2449 43.0513 57.2684C44.075 58.292 44.6509 59.6799 44.6526 61.1275V62.6006C44.6526 62.7587 44.5898 62.9103 44.4781 63.022C44.3663 63.1338 44.2147 63.1966 44.0567 63.1966Z" fill="url(#paint8_linear_316_1465)"/>
</g>
<defs>
<filter id="filter0_d_316_1465" x="147.518" y="213.653" width="121.697" height="70.7233" filterUnits="userSpaceOnUse" color-interpolation-filters="sRGB">
<feFlood flood-opacity="0" result="BackgroundImageFix"/>
<feColorMatrix in="SourceAlpha" type="matrix" values="0 0 0 0 0 0 0 0 0 0 0 0 0 0 0 0 0 0 127 0" result="hardAlpha"/>
<feOffset dy="4.99869"/>
<feGaussianBlur stdDeviation="10.3544"/>
<feColorMatrix type="matrix" values="0 0 0 0 0.392157 0 0 0 0 0.392157 0 0 0 0 0.435294 0 0 0 0.2 0"/>
<feBlend mode="normal" in2="BackgroundImageFix" result="effect1_dropShadow_316_1465"/>
<feBlend mode="normal" in="SourceGraphic" in2="effect1_dropShadow_316_1465" result="shape"/>
</filter>
<filter id="filter1_d_316_1465" x="219.229" y="44.7925" width="70.1853" height="70.0522" filterUnits="userSpaceOnUse" color-interpolation-filters="sRGB">
<feFlood flood-opacity="0" result="BackgroundImageFix"/>
<feColorMatrix in="SourceAlpha" type="matrix" values="0 0 0 0 0 0 0 0 0 0 0 0 0 0 0 0 0 0 127 0" result="hardAlpha"/>
<feOffset dy="4.99869"/>
<feGaussianBlur stdDeviation="10.3544"/>
<feColorMatrix type="matrix" values="0 0 0 0 0.392157 0 0 0 0 0.392157 0 0 0 0 0.435294 0 0 0 0.2 0"/>
<feBlend mode="normal" in2="BackgroundImageFix" result="effect1_dropShadow_316_1465"/>
<feBlend mode="normal" in="SourceGraphic" in2="effect1_dropShadow_316_1465" result="shape"/>
</filter>
<filter id="filter2_d_316_1465" x="20.0218" y="-12.3273" width="253.669" height="287.44" filterUnits="userSpaceOnUse" color-interpolation-filters="sRGB">
<feFlood flood-opacity="0" result="BackgroundImageFix"/>
<feColorMatrix in="SourceAlpha" type="matrix" values="0 0 0 0 0 0 0 0 0 0 0 0 0 0 0 0 0 0 127 0" result="hardAlpha"/>
<feOffset dx="2.85639" dy="2.85639"/>
<feGaussianBlur stdDeviation="9.4261"/>
<feComposite in2="hardAlpha" operator="out"/>
<feColorMatrix type="matrix" values="0 0 0 0 1 0 0 0 0 1 0 0 0 0 1 0 0 0 0.25 0"/>
<feBlend mode="normal" in2="BackgroundImageFix" result="effect1_dropShadow_316_1465"/>
<feBlend mode="normal" in="SourceGraphic" in2="effect1_dropShadow_316_1465" result="shape"/>
</filter>
<filter id="filter3_di_316_1465" x="32.7085" y="8.58307e-06" width="224.794" height="263.085" filterUnits="userSpaceOnUse" color-interpolation-filters="sRGB">
<feFlood flood-opacity="0" result="BackgroundImageFix"/>
<feColorMatrix in="SourceAlpha" type="matrix" values="0 0 0 0 0 0 0 0 0 0 0 0 0 0 0 0 0 0 127 0" result="hardAlpha"/>
<feOffset dy="2.85639"/>
<feGaussianBlur stdDeviation="12.8538"/>
<feComposite in2="hardAlpha" operator="out"/>
<feColorMatrix type="matrix" values="0 0 0 0 1 0 0 0 0 1 0 0 0 0 1 0 0 0 0.25 0"/>
<feBlend mode="normal" in2="BackgroundImageFix" result="effect1_dropShadow_316_1465"/>
<feBlend mode="normal" in="SourceGraphic" in2="effect1_dropShadow_316_1465" result="shape"/>
<feColorMatrix in="SourceAlpha" type="matrix" values="0 0 0 0 0 0 0 0 0 0 0 0 0 0 0 0 0 0 127 0" result="hardAlpha"/>
<feOffset dx="1.4282" dy="-4.99869"/>
<feGaussianBlur stdDeviation="9.78315"/>
<feComposite in2="hardAlpha" operator="arithmetic" k2="-1" k3="1"/>
<feColorMatrix type="matrix" values="0 0 0 0 0.958654 0 0 0 0 0.958654 0 0 0 0 0.958654 0 0 0 0.25 0"/>
<feBlend mode="normal" in2="shape" result="effect2_innerShadow_316_1465"/>
</filter>
<filter id="filter4_d_316_1465" x="68.831" y="38.9791" width="152.397" height="182.589" filterUnits="userSpaceOnUse" color-interpolation-filters="sRGB">
<feFlood flood-opacity="0" result="BackgroundImageFix"/>
<feColorMatrix in="SourceAlpha" type="matrix" values="0 0 0 0 0 0 0 0 0 0 0 0 0 0 0 0 0 0 127 0" result="hardAlpha"/>
<feOffset dy="1.4282"/>
<feGaussianBlur stdDeviation="2.8921"/>
<feComposite in2="hardAlpha" operator="out"/>
<feColorMatrix type="matrix" values="0 0 0 0 0.293269 0 0 0 0 0.293269 0 0 0 0 0.293269 0 0 0 0.25 0"/>
<feBlend mode="normal" in2="BackgroundImageFix" result="effect1_dropShadow_316_1465"/>
<feBlend mode="normal" in="SourceGraphic" in2="effect1_dropShadow_316_1465" result="shape"/>
</filter>
<filter id="filter5_i_316_1465" x="125.393" y="94.549" width="37.8555" height="60.6211" filterUnits="userSpaceOnUse" color-interpolation-filters="sRGB">
<feFlood flood-opacity="0" result="BackgroundImageFix"/>
<feBlend mode="normal" in="SourceGraphic" in2="BackgroundImageFix" result="shape"/>
<feColorMatrix in="SourceAlpha" type="matrix" values="0 0 0 0 0 0 0 0 0 0 0 0 0 0 0 0 0 0 127 0" result="hardAlpha"/>
<feOffset dy="-3.57049"/>
<feGaussianBlur stdDeviation="2.71358"/>
<feComposite in2="hardAlpha" operator="arithmetic" k2="-1" k3="1"/>
<feColorMatrix type="matrix" values="0 0 0 0 0.740206 0 0 0 0 0.77743 0 0 0 0 0.816346 0 0 0 1 0"/>
<feBlend mode="normal" in2="shape" result="effect1_innerShadow_316_1465"/>
</filter>
<filter id="filter6_d_316_1465" x="0.00012207" y="23.7025" width="72.6189" height="72.8899" filterUnits="userSpaceOnUse" color-interpolation-filters="sRGB">
<feFlood flood-opacity="0" result="BackgroundImageFix"/>
<feColorMatrix in="SourceAlpha" type="matrix" values="0 0 0 0 0 0 0 0 0 0 0 0 0 0 0 0 0 0 127 0" result="hardAlpha"/>
<feOffset dy="4.99869"/>
<feGaussianBlur stdDeviation="10.3544"/>
<feColorMatrix type="matrix" values="0 0 0 0 0.392157 0 0 0 0 0.392157 0 0 0 0 0.435294 0 0 0 0.2 0"/>
<feBlend mode="normal" in2="BackgroundImageFix" result="effect1_dropShadow_316_1465"/>
<feBlend mode="normal" in="SourceGraphic" in2="effect1_dropShadow_316_1465" result="shape"/>
</filter>
<radialGradient id="paint0_radial_316_1465" cx="0" cy="0" r="1" gradientTransform="matrix(54.5 2.77765e-08 -0.00378891 4.50038 130.994 250.668)" gradientUnits="userSpaceOnUse">
<stop stop-color="#BCBCBC"/>
<stop offset="1" stop-color="#C3C3C3" stop-opacity="0"/>
</radialGradient>
<linearGradient id="paint1_linear_316_1465" x1="179.602" y1="249.543" x2="189.404" y2="239.742" gradientUnits="userSpaceOnUse">
<stop stop-color="#6F90B4"/>
<stop offset="1" stop-color="#2E5A88"/>
</linearGradient>
<linearGradient id="paint2_linear_316_1465" x1="249.275" y1="79.5955" x2="255.793" y2="69.3647" gradientUnits="userSpaceOnUse">
<stop stop-color="#6F90B4"/>
<stop offset="1" stop-color="#2E5A88"/>
</linearGradient>
<linearGradient id="paint3_linear_316_1465" x1="87.5802" y1="195.787" x2="259.329" y2="118.836" gradientUnits="userSpaceOnUse">
<stop stop-color="#6F90B4"/>
<stop offset="0.567308" stop-color="#2E5A88"/>
<stop offset="1" stop-color="#87BBF3"/>
</linearGradient>
<linearGradient id="paint4_linear_316_1465" x1="20.2072" y1="144.532" x2="276.155" y2="139.315" gradientUnits="userSpaceOnUse">
<stop offset="0.0240385" stop-color="white" stop-opacity="0.3"/>
<stop offset="0.506977" stop-color="#F9F9F9"/>
<stop offset="1" stop-color="white" stop-opacity="0.18"/>
</linearGradient>
<linearGradient id="paint5_linear_316_1465" x1="39.4573" y1="184.009" x2="258.011" y2="179.554" gradientUnits="userSpaceOnUse">
<stop offset="0.0240385" stop-color="white" stop-opacity="0.3"/>
<stop offset="0.506977" stop-color="#F9F9F9"/>
<stop offset="1" stop-color="white" stop-opacity="0.18"/>
</linearGradient>
<linearGradient id="paint6_linear_316_1465" x1="63.6963" y1="218.534" x2="233.851" y2="215.066" gradientUnits="userSpaceOnUse">
<stop offset="0.0240385" stop-color="white" stop-opacity="0.3"/>
<stop offset="0.506977" stop-color="#F9F9F9"/>
<stop offset="1" stop-color="white" stop-opacity="0.18"/>
</linearGradient>
<linearGradient id="paint7_linear_316_1465" x1="33.0519" y1="54.4342" x2="39.3993" y2="47.3614" gradientUnits="userSpaceOnUse">
<stop stop-color="#6F90B4"/>
<stop offset="1" stop-color="#2E5A88"/>
</linearGradient>
<linearGradient id="paint8_linear_316_1465" x1="29.938" y1="63.1518" x2="33.9373" y2="53.6281" gradientUnits="userSpaceOnUse">
<stop stop-color="#6F90B4"/>
<stop offset="1" stop-color="#2E5A88"/>
</linearGradient>
</defs>
</svg>
