<svg width="52" height="52" viewBox="0 0 52 52" fill="none" xmlns="http://www.w3.org/2000/svg">
<rect width="51.42" height="51.4244" rx="6.26032" fill="url(#paint0_linear_316_1504)"/>
<path d="M26.7847 39.0039C26.3412 39.0048 25.9019 38.9186 25.4918 38.7501C22.2991 37.4972 19.5601 35.3081 17.6343 32.4701C15.7085 29.6321 14.6861 26.2781 14.7013 22.8484V17.9305C14.701 17.1053 14.9822 16.3047 15.4985 15.661C16.0148 15.0172 16.7353 14.5689 17.5409 14.3901L25.9993 12.5051C26.5172 12.3962 27.0521 12.3962 27.5701 12.5051L36.0284 14.3901C36.834 14.5689 37.5545 15.0172 38.0708 15.661C38.5871 16.3047 38.8684 17.1053 38.868 17.9305V22.8484C38.8807 26.279 37.8574 29.6335 35.9321 32.4729C34.0068 35.3123 31.2692 37.5043 28.0776 38.7622C27.665 38.9209 27.2268 39.0028 26.7847 39.0039ZM26.7847 14.8372H26.5188L18.0605 16.7222C17.7879 16.7836 17.545 16.9375 17.3732 17.1578C17.2014 17.3782 17.1112 17.6512 17.118 17.9305V22.8484C17.1058 25.795 17.9842 28.6765 19.638 31.1152C21.2918 33.5539 23.6439 35.4359 26.3859 36.5147C26.643 36.6111 26.9263 36.6111 27.1834 36.5147C29.9254 35.4359 32.2775 33.5539 33.9313 31.1152C35.5851 28.6765 36.4635 25.795 36.4513 22.8484V17.9305C36.4582 17.6512 36.368 17.3782 36.1961 17.1578C36.0243 16.9375 35.7814 16.7836 35.5088 16.7222L27.0505 14.8372H26.7847ZM25.8543 29.0593C25.539 29.0612 25.2354 28.9398 25.0084 28.7209L22.2534 26.0143C22.1402 25.9019 22.0503 25.7683 21.9889 25.6211C21.9276 25.4738 21.896 25.3159 21.896 25.1564C21.896 24.9968 21.9276 24.8389 21.9889 24.6917C22.0503 24.5444 22.1402 24.4108 22.2534 24.2984C22.4798 24.0734 22.7861 23.9471 23.1053 23.9471C23.4245 23.9471 23.7308 24.0734 23.9572 24.2984L25.8663 26.1714L30.8326 21.338C30.946 21.2262 31.0804 21.1377 31.2281 21.0778C31.3757 21.0179 31.5337 20.9876 31.693 20.9887C31.8523 20.9898 32.0099 21.0223 32.1567 21.0843C32.3034 21.1463 32.4366 21.2367 32.5484 21.3501C32.6603 21.4636 32.7487 21.5979 32.8087 21.7456C32.8686 21.8932 32.8989 22.0512 32.8977 22.2105C32.8966 22.3699 32.8641 22.5274 32.8021 22.6742C32.7401 22.821 32.6498 22.9541 32.5363 23.0659L26.7243 28.7814C26.4818 28.9843 26.1694 29.084 25.8543 29.0593Z" fill="white"/>
<defs>
<linearGradient id="paint0_linear_316_1504" x1="9.6133" y1="42.4966" x2="55.1168" y2="13.8685" gradientUnits="userSpaceOnUse">
<stop stop-color="#6F90B4"/>
<stop offset="0.567308" stop-color="#2E5A88"/>
<stop offset="1" stop-color="#87BBF3"/>
</linearGradient>
</defs>
</svg>
