<svg width="52" height="52" viewBox="0 0 52 52" fill="none" xmlns="http://www.w3.org/2000/svg">
<rect width="51.4241" height="51.4241" rx="5.92264" fill="url(#paint0_linear_316_1516)"/>
<g clip-path="url(#clip0_316_1516)">
<path d="M38.6325 27.5499L34.5777 17.413C34.4234 17.0281 34.0476 16.7745 33.6348 16.7745H17.791C17.3716 16.7745 16.9996 17.035 16.8481 17.413L12.7933 27.5499C12.7504 27.6503 12.7129 27.8017 12.7129 27.9464C12.7129 30.7465 14.9909 33.0245 17.791 33.0245C20.5911 33.0245 22.8691 30.7465 22.8691 27.9464C22.8691 27.8042 22.8315 27.6499 22.7888 27.5499L19.2911 18.8058H24.6973V36.6808H21.6504C21.0895 36.6808 20.6348 37.1355 20.6348 37.6964C20.6348 38.2573 21.0895 38.712 21.6504 38.712H29.7754C30.3363 38.712 30.791 38.2573 30.791 37.6964C30.791 37.1355 30.3363 36.6808 29.7754 36.6808H26.7285V18.8058H32.1346L28.637 27.5499C28.5863 27.6688 28.5566 27.8087 28.5566 27.9464C28.5566 30.7465 30.8346 33.0245 33.6348 33.0245C36.4349 33.0245 38.7129 30.7465 38.7129 27.9464C38.7129 27.8092 38.6774 27.6551 38.6325 27.5499ZM17.791 30.9933C16.4669 30.9933 15.3379 30.1442 14.9187 28.962H20.6633C20.2442 30.1442 19.1151 30.9933 17.791 30.9933ZM15.2286 26.9308L17.791 20.5248L20.3534 26.9308H15.2286ZM33.6348 20.5248L36.1971 26.9308H31.0724L33.6348 20.5248ZM33.6348 30.9933C32.3107 30.9933 31.1816 30.1442 30.7624 28.962H36.5071C36.0879 30.1442 34.9588 30.9933 33.6348 30.9933Z" fill="white"/>
<path d="M27.7441 14.7433H23.6816C23.1207 14.7433 22.666 14.2886 22.666 13.7277C22.666 13.1667 23.1207 12.712 23.6816 12.712H27.7441C28.3051 12.712 28.7598 13.1667 28.7598 13.7277C28.7598 14.2886 28.3051 14.7433 27.7441 14.7433Z" fill="white"/>
</g>
<defs>
<linearGradient id="paint0_linear_316_1516" x1="9.61408" y1="42.4963" x2="55.119" y2="13.8649" gradientUnits="userSpaceOnUse">
<stop stop-color="#6F90B4"/>
<stop offset="0.567308" stop-color="#2E5A88"/>
<stop offset="1" stop-color="#87BBF3"/>
</linearGradient>
<clipPath id="clip0_316_1516">
<rect width="26" height="26" fill="white" transform="translate(12.7129 12.712)"/>
</clipPath>
</defs>
</svg>
