<svg width="52" height="52" viewBox="0 0 52 52" fill="none" xmlns="http://www.w3.org/2000/svg">
<rect width="51.42" height="51.42" rx="6.16737" fill="url(#paint0_linear_316_1526)"/>
<path d="M33.0249 24.9603C33.0249 24.4788 32.6219 24.0884 32.1249 24.0884H22.3629C21.8659 24.0884 21.4629 24.4788 21.4629 24.9603C21.4629 25.4417 21.8659 25.8321 22.3629 25.8321H32.1249C32.6219 25.8321 33.0249 25.4417 33.0249 24.9603Z" fill="white"/>
<path d="M22.3629 28.1426C21.8659 28.1426 21.4629 28.533 21.4629 29.0145C21.4629 29.4959 21.8659 29.8863 22.3629 29.8863H27.2439C27.7409 29.8863 28.1439 29.4959 28.1439 29.0145C28.1439 28.533 27.7409 28.1426 27.2439 28.1426H22.3629Z" fill="white"/>
<path d="M27.5291 37.2856H20.3591C19.2671 37.2856 18.3801 36.4254 18.3801 35.3684V18.6091C18.3801 17.5512 19.2681 16.6919 20.3591 16.6919H34.1291C35.2211 16.6919 36.1081 17.5522 36.1081 18.6091V25.2644C36.1081 25.7459 36.5111 26.1363 37.0081 26.1363C37.5051 26.1363 37.9081 25.7459 37.9081 25.2644V18.6091C37.9081 16.5902 36.2121 14.9472 34.1281 14.9472H34.1181V14.9336C34.1181 12.9167 32.4241 11.2756 30.3421 11.2756H16.5651C14.4831 11.2756 12.7891 12.9167 12.7891 14.9336V31.6998C12.7891 33.7167 14.4831 35.3578 16.5651 35.3578H16.5791V35.3684C16.5791 37.3873 18.2751 39.0303 20.3591 39.0303H27.5291C28.0261 39.0303 28.4291 38.6399 28.4291 38.1584C28.4291 37.677 28.0261 37.2856 27.5291 37.2856ZM16.5651 33.6131C15.4751 33.6131 14.5891 32.7548 14.5891 31.6988V14.9336C14.5891 13.8777 15.4751 13.0194 16.5651 13.0194H30.3431C31.4331 13.0194 32.3191 13.8777 32.3191 14.9336V14.9472H20.3591C18.2751 14.9472 16.5791 16.5902 16.5791 18.6091V33.6131H16.5651Z" fill="white"/>
<path d="M38.6874 31.9594V30.7349C38.6874 28.9844 37.2164 27.5603 35.4094 27.5603C33.6024 27.5603 32.1314 28.9853 32.1314 30.7349V31.9594C30.9464 32.2771 30.0684 33.3205 30.0684 34.5673V37.427C30.0684 38.9257 31.3274 40.1453 32.8744 40.1453H37.9444C39.4914 40.1453 40.7504 38.9257 40.7504 37.427V34.5673C40.7494 33.3195 39.8724 32.2771 38.6874 31.9594ZM35.4094 29.3041C36.2234 29.3041 36.8874 29.9454 36.8874 30.7349V31.8499H33.9324V30.7349C33.9314 29.9454 34.5944 29.3041 35.4094 29.3041ZM38.9494 37.427C38.9494 37.9647 38.4994 38.4006 37.9444 38.4006H32.8744C32.3194 38.4006 31.8694 37.9647 31.8694 37.427V34.5673C31.8694 34.0306 32.3194 33.5946 32.8744 33.5946H37.9444C38.4994 33.5946 38.9494 34.0306 38.9494 34.5673V37.427Z" fill="white"/>
<defs>
<linearGradient id="paint0_linear_316_1526" x1="9.6133" y1="42.4929" x2="55.1146" y2="13.8638" gradientUnits="userSpaceOnUse">
<stop stop-color="#6F90B4"/>
<stop offset="0.567308" stop-color="#2E5A88"/>
<stop offset="1" stop-color="#87BBF3"/>
</linearGradient>
</defs>
</svg>
