<svg width="52" height="52" viewBox="0 0 52 52" fill="none" xmlns="http://www.w3.org/2000/svg">
<rect width="51.42" height="51.42" rx="7.75686" fill="url(#paint0_linear_316_1496)"/>
<path d="M35.2189 14.2256H28.4492V12.2569C28.4492 12.0538 28.3663 11.8591 28.2186 11.7155C28.0709 11.5719 27.8706 11.4913 27.6617 11.4913H26.4242C26.2154 11.4913 26.0151 11.5719 25.8674 11.7155C25.7197 11.8591 25.6367 12.0538 25.6367 12.2569V14.2256H18.867C17.4552 14.2264 16.1015 14.7719 15.1032 15.7425C14.1049 16.7131 13.5437 18.0292 13.543 19.4018V22.4862C13.543 25.8794 14.9294 29.1336 17.3974 31.533C19.8653 33.9324 23.2125 35.2803 26.7027 35.2803H27.6617C27.8706 35.2803 28.0709 35.1997 28.2186 35.0561C28.3663 34.9125 28.4492 34.7178 28.4492 34.5147V33.3116C28.4492 33.1085 28.3663 32.9138 28.2186 32.7702C28.0709 32.6266 27.8706 32.546 27.6617 32.546H26.7027C23.9584 32.546 21.3266 31.4861 19.3861 29.5995C17.4456 27.7129 16.3555 25.1542 16.3555 22.4862V19.4018C16.3555 18.7542 16.6201 18.1331 17.0911 17.6752C17.5621 17.2173 18.2009 16.96 18.867 16.96H35.2189C35.885 16.96 36.5238 17.2173 36.9948 17.6752C37.4659 18.1331 37.7305 18.7542 37.7305 19.4018V22.7022C37.7287 23.4524 37.6343 24.1997 37.4492 24.928C37.4002 25.1156 37.4263 25.3144 37.5224 25.484C37.6185 25.6536 37.7774 25.7813 37.9667 25.8413L39.148 26.2159C39.25 26.2488 39.3579 26.261 39.465 26.2517C39.5721 26.2424 39.676 26.2118 39.7705 26.1618C39.8649 26.1118 39.9477 26.0434 40.0138 25.961C40.0799 25.8786 40.1279 25.7839 40.1548 25.6827C40.4106 24.7086 40.541 23.7075 40.543 22.7022V19.4018C40.5422 18.0292 39.9811 16.7131 38.9828 15.7425C37.9845 14.7719 36.6307 14.2264 35.2189 14.2256Z" fill="white"/>
<path d="M22.543 25.71C23.7856 25.71 24.793 24.7306 24.793 23.5225C24.793 22.3144 23.7856 21.335 22.543 21.335C21.3003 21.335 20.293 22.3144 20.293 23.5225C20.293 24.7306 21.3003 25.71 22.543 25.71Z" fill="white"/>
<path d="M31.543 25.71C32.7856 25.71 33.793 24.7306 33.793 23.5225C33.793 22.3144 32.7856 21.335 31.543 21.335C30.3003 21.335 29.293 22.3144 29.293 23.5225C29.293 24.7306 30.3003 25.71 31.543 25.71Z" fill="white"/>
<path d="M40.4668 33.585L43.0149 34.5612C43.0674 34.5813 43.1124 34.6163 43.1441 34.6617C43.1758 34.707 43.1928 34.7606 43.1928 34.8155C43.1928 34.8703 43.1758 34.9239 43.1441 34.9692C43.1124 35.0146 43.0674 35.0496 43.0149 35.0698L40.4668 36.0459C40.0157 36.2193 39.606 36.4808 39.263 36.8143C38.9201 37.1477 38.6511 37.5461 38.4727 37.9846L37.4687 40.4455C37.4479 40.4965 37.4119 40.5403 37.3652 40.5711C37.3186 40.602 37.2635 40.6185 37.2071 40.6185C37.1507 40.6185 37.0956 40.602 37.0489 40.5711C37.0023 40.5403 36.9663 40.4965 36.9455 40.4455L35.9415 37.9846C35.7636 37.5458 35.4947 37.1473 35.1517 36.8138C34.8087 36.4803 34.3987 36.2189 33.9474 36.0459L31.4162 35.0698C31.3637 35.0496 31.3187 35.0146 31.287 34.9692C31.2552 34.9239 31.2383 34.8703 31.2383 34.8155C31.2383 34.7606 31.2552 34.707 31.287 34.6617C31.3187 34.6163 31.3637 34.5813 31.4162 34.5612L33.9474 33.585C34.3987 33.412 34.8087 33.1507 35.1517 32.8172C35.4947 32.4836 35.7636 32.0851 35.9415 31.6463L36.9455 29.1854C36.9663 29.1344 37.0023 29.0906 37.0489 29.0598C37.0956 29.0289 37.1507 29.0125 37.2071 29.0125C37.2635 29.0125 37.3186 29.0289 37.3652 29.0598C37.4119 29.0906 37.4479 29.1344 37.4687 29.1854L38.4727 31.6463C38.6511 32.0849 38.9201 32.4832 39.263 32.8166C39.606 33.1501 40.0157 33.4116 40.4668 33.585Z" fill="white"/>
<defs>
<linearGradient id="paint0_linear_316_1496" x1="9.6133" y1="42.4929" x2="55.1146" y2="13.8638" gradientUnits="userSpaceOnUse">
<stop stop-color="#6F90B4"/>
<stop offset="0.567308" stop-color="#2E5A88"/>
<stop offset="1" stop-color="#87BBF3"/>
</linearGradient>
</defs>
</svg>
