<svg width="22" height="22" viewBox="0 0 22 22" fill="none" xmlns="http://www.w3.org/2000/svg">
<path d="M11.0007 1.83337C5.95898 1.83337 1.83398 5.95837 1.83398 11C1.83398 16.0417 5.95898 20.1667 11.0007 20.1667C16.0423 20.1667 20.1673 16.0417 20.1673 11C20.1673 5.95837 16.0423 1.83337 11.0007 1.83337ZM11.0007 18.3334C6.95815 18.3334 3.66732 15.0425 3.66732 11C3.66732 6.95754 6.95815 3.66671 11.0007 3.66671C15.0432 3.66671 18.334 6.95754 18.334 11C18.334 15.0425 15.0432 18.3334 11.0007 18.3334ZM15.2082 6.94837L9.16732 12.9892L6.79315 10.6242L5.50065 11.9167L9.16732 15.5834L16.5007 8.25004L15.2082 6.94837Z" fill="#00AB00"/>
</svg>
