<svg width="32" height="32" viewBox="0 0 32 32" fill="none" xmlns="http://www.w3.org/2000/svg">
<rect x="0.5" y="0.5" width="31" height="31" rx="3.5" stroke="white" stroke-opacity="0.08"/>
<g clip-path="url(#clip0_260_2035)">
<path d="M12.1739 21.837H8V11.0544H12.1739V21.837ZM8.69561 21.1414H11.4783V11.7501H8.69561V21.1414Z" fill="white"/>
<path d="M24 21.837H19.8261V15.924C19.8261 15.3477 19.3588 14.8805 18.7826 14.8805C18.2062 14.8805 17.7391 15.3477 17.7391 15.924V21.837H13.5652V11.0544H17.7391V11.7544C18.3691 11.2989 19.1269 11.0539 19.9043 11.0544C22.1608 11.0544 24 12.8849 24 15.137V21.837ZM20.5217 21.1414H23.3042V15.137C23.2995 13.2633 21.778 11.7476 19.9043 11.7501C19.0478 11.7501 18.2434 12.1109 17.6434 12.7631L17.0434 13.4196V11.7501H14.2608V21.1414H17.0434V15.924C17.0434 14.9634 17.822 14.1849 18.7826 14.1849C19.743 14.1849 20.5217 14.9634 20.5217 15.924V21.1414Z" fill="white"/>
<path d="M10.087 10.3587C8.93432 10.3587 8 9.42441 8 8.27177C8 7.11926 8.93432 6.18481 10.087 6.18481C11.2396 6.18481 12.1739 7.11926 12.1739 8.27177C12.1715 9.42339 11.2386 10.3564 10.087 10.3587ZM10.087 6.88055C9.31861 6.88055 8.69561 7.50343 8.69561 8.27177C8.69561 9.04024 9.31861 9.66312 10.087 9.66312C10.8553 9.66312 11.4783 9.04024 11.4783 8.27177C11.4783 7.50343 10.8553 6.88055 10.087 6.88055Z" fill="white"/>
</g>
<defs>
<clipPath id="clip0_260_2035">
<rect width="16" height="16" fill="white" transform="translate(8 6)"/>
</clipPath>
</defs>
</svg>
