<svg width="558" height="478" viewBox="0 0 558 478" fill="none" xmlns="http://www.w3.org/2000/svg">
<circle cx="252.358" cy="231.237" r="223.163" fill="#F6F8FB"/>
<path d="M133.041 398.271C171.438 425.869 218.253 439.222 265.432 436.033C312.61 432.844 357.202 413.312 391.536 380.798C425.87 348.284 447.799 304.82 453.549 257.885C459.3 210.95 448.514 163.478 423.046 123.636L251.718 233.155L133.041 398.271Z" fill="url(#paint0_linear_50_426)"/>
<circle cx="252.997" cy="230.597" r="163.056" stroke="#F1F1F1" stroke-width="1.27887"/>
<circle cx="252.997" cy="231.876" r="120.854" stroke="#F1F1F1" stroke-width="1.27887"/>
<circle cx="252.997" cy="226.761" r="72.2563" stroke="#F1F1F1" stroke-width="1.27887"/>
<g filter="url(#filter0_d_50_426)">
<mask id="path-6-inside-1_50_426" fill="white">
<path d="M479.358 232.516C479.358 357.884 377.726 459.516 252.358 459.516C126.989 459.516 25.3575 357.884 25.3575 232.516C25.3575 107.147 126.989 5.51562 252.358 5.51562C377.726 5.51562 479.358 107.147 479.358 232.516ZM49.9119 232.516C49.9119 344.323 140.55 434.961 252.358 434.961C364.165 434.961 454.803 344.323 454.803 232.516C454.803 120.708 364.165 30.07 252.358 30.07C140.55 30.07 49.9119 120.708 49.9119 232.516Z"/>
</mask>
<path d="M479.358 232.516C479.358 357.884 377.726 459.516 252.358 459.516C126.989 459.516 25.3575 357.884 25.3575 232.516C25.3575 107.147 126.989 5.51562 252.358 5.51562C377.726 5.51562 479.358 107.147 479.358 232.516ZM49.9119 232.516C49.9119 344.323 140.55 434.961 252.358 434.961C364.165 434.961 454.803 344.323 454.803 232.516C454.803 120.708 364.165 30.07 252.358 30.07C140.55 30.07 49.9119 120.708 49.9119 232.516Z" fill="white"/>
<path d="M479.358 232.516C479.358 357.884 377.726 459.516 252.358 459.516C126.989 459.516 25.3575 357.884 25.3575 232.516C25.3575 107.147 126.989 5.51562 252.358 5.51562C377.726 5.51562 479.358 107.147 479.358 232.516ZM49.9119 232.516C49.9119 344.323 140.55 434.961 252.358 434.961C364.165 434.961 454.803 344.323 454.803 232.516C454.803 120.708 364.165 30.07 252.358 30.07C140.55 30.07 49.9119 120.708 49.9119 232.516Z" stroke="#E6E6E6" stroke-width="2.55775" mask="url(#path-6-inside-1_50_426)"/>
</g>
<g filter="url(#filter1_d_50_426)">
<circle cx="252.358" cy="226.121" r="39.0056" fill="white"/>
</g>
<circle cx="252.358" cy="226.121" r="31.3324" fill="url(#paint1_linear_50_426)"/>
<path d="M260.41 228.559C259.869 229.647 259.202 230.765 258.391 231.867L263.609 240.947L264.981 238.559L264.943 238.494C263.02 235.137 265.442 230.96 269.308 230.96H269.356L270.742 228.559H260.407H260.41Z" fill="white"/>
<path d="M251.169 236.766C250.629 236.386 250.123 235.99 249.644 235.582L245.159 243.386H247.916C249.852 240.023 254.704 240.023 256.64 243.386H259.408L254.919 235.582C254.44 235.986 253.934 236.383 253.397 236.763C252.73 237.235 251.843 237.235 251.173 236.763L251.169 236.766Z" fill="white"/>
<path d="M233.817 228.559L235.196 230.961H235.227C239.1 230.961 241.522 235.151 239.589 238.504L239.565 238.542L240.944 240.943L246.168 231.86C245.357 230.755 244.693 229.64 244.149 228.552H233.814L233.817 228.559Z" fill="white"/>
<path d="M242.698 219.281C243.383 218.836 244.142 218.487 244.922 218.21L240.943 211.303L239.565 213.698L239.589 213.739C241.518 217.095 239.096 221.279 235.227 221.279H235.196L233.817 223.674H242.343C242.079 222.637 241.929 221.758 241.843 221.125C241.744 220.396 242.079 219.678 242.698 219.278V219.281Z" fill="white"/>
<path d="M252.206 217.187C252.257 217.187 252.305 217.187 252.353 217.187C252.599 217.177 253.444 217.159 254.584 217.235L259.404 208.856H256.646V208.863C254.707 212.226 249.852 212.223 247.919 208.863L245.162 208.86L249.979 217.242C251.118 217.163 251.966 217.183 252.213 217.194L252.206 217.187Z" fill="white"/>
<path d="M262.719 221.128C262.634 221.764 262.483 222.64 262.22 223.677H270.738L269.359 221.282H269.329C265.456 221.282 263.034 217.091 264.967 213.738L264.991 213.701L263.612 211.306L259.64 218.213C260.423 218.49 261.183 218.839 261.867 219.284C262.483 219.684 262.818 220.403 262.722 221.131L262.719 221.128Z" fill="white"/>
<g filter="url(#filter2_i_50_426)">
<rect x="245.324" y="344.417" width="16.6254" height="16.6254" rx="8.31268" fill="white"/>
<circle cx="253.637" cy="352.73" r="3.83662" fill="url(#paint2_linear_50_426)"/>
</g>
<g filter="url(#filter3_i_50_426)">
<rect x="347.634" y="294.541" width="16.6254" height="16.6254" rx="8.31268" fill="white"/>
<circle cx="355.946" cy="302.854" r="3.83662" fill="url(#paint3_linear_50_426)"/>
</g>
<g filter="url(#filter4_i_50_426)">
<rect x="408.358" y="239.516" width="16.6254" height="16.6254" rx="8.31268" fill="white"/>
<circle cx="416.67" cy="247.828" r="3.83662" fill="url(#paint4_linear_50_426)"/>
</g>
<g filter="url(#filter5_i_50_426)">
<rect x="180.101" y="369.994" width="16.6254" height="16.6254" rx="8.31268" fill="white"/>
<circle cx="188.414" cy="378.307" r="3.83662" fill="url(#paint5_linear_50_426)"/>
</g>
<g filter="url(#filter6_i_50_426)">
<rect x="316.941" y="369.994" width="16.6254" height="16.6254" rx="8.31268" fill="white"/>
<circle cx="325.253" cy="378.307" r="3.83662" fill="url(#paint6_linear_50_426)"/>
</g>
<g filter="url(#filter7_i_50_426)">
<rect x="316.941" y="235.713" width="16.6254" height="16.6254" rx="8.31268" fill="white"/>
<circle cx="325.253" cy="244.025" r="3.83662" fill="url(#paint7_linear_50_426)"/>
</g>
<g filter="url(#filter8_d_50_426)">
<rect x="135.47" y="66.6569" width="52.3801" height="52.8363" rx="12.0578" fill="#FEFEFE"/>
<path d="M167.407 95.0674H166.224L165.804 94.6628C167.323 92.9005 168.158 90.6507 168.157 88.3238C168.157 86.3973 167.585 84.5141 166.515 82.9122C165.445 81.3104 163.924 80.0619 162.144 79.3247C160.364 78.5874 158.405 78.3945 156.516 78.7704C154.626 79.1462 152.891 80.0739 151.528 81.4362C150.166 82.7984 149.238 84.534 148.863 86.4235C148.487 88.313 148.68 90.2716 149.417 92.0514C150.154 93.8313 151.403 95.3526 153.004 96.4229C154.606 97.4932 156.49 98.0645 158.416 98.0645C160.829 98.0645 163.047 97.1803 164.755 95.7117L165.16 96.1313V97.3152L172.652 104.793L174.885 102.56L167.407 95.0674ZM158.416 95.0674C154.685 95.0674 151.673 92.0553 151.673 88.3238C151.673 84.5924 154.685 81.5803 158.416 81.5803C162.147 81.5803 165.16 84.5924 165.16 88.3238C165.16 92.0553 162.147 95.0674 158.416 95.0674Z" fill="#2E5A88"/>
</g>
<g filter="url(#filter9_d_50_426)">
<rect x="87.5159" y="217.712" width="52.3801" height="52.8363" rx="12.0578" fill="#FEFEFE"/>
<path d="M118.404 254.314V241.726H106.935L109.173 243.964L107.215 245.922L101.62 240.328L107.215 234.733L109.173 236.691L106.935 238.929H118.404C119.174 238.929 119.832 239.203 120.381 239.752C120.929 240.3 121.203 240.958 121.202 241.726V254.314H118.404Z" fill="#2E5A88"/>
</g>
<g filter="url(#filter10_d_50_426)">
<rect x="34.7666" y="125.4" width="52.3801" height="52.8363" rx="12.0578" fill="#FEFEFE"/>
<path d="M72.3946 143.164L62.0435 137.969C61.6799 137.787 61.2383 137.787 60.8746 137.969L50.5236 143.164C50.121 143.359 49.8612 143.749 49.8093 144.19C49.7963 144.333 48.5625 158.178 60.9136 163.684C61.0806 163.761 61.2622 163.801 61.4461 163.801C61.6299 163.801 61.8116 163.761 61.9786 163.684C74.3297 158.165 73.1089 144.333 73.0829 144.19C73.0622 143.972 72.9855 143.763 72.8604 143.583C72.7353 143.404 72.5659 143.259 72.3686 143.164H72.3946ZM61.4591 161.074C52.7055 156.827 52.2899 147.749 52.3678 145.151L61.4591 140.593L70.5503 145.151C70.6023 147.736 70.1218 156.866 61.4591 161.087V161.074Z" fill="#2E5A88"/>
</g>
<g filter="url(#filter11_d_50_426)">
<rect x="369.358" y="94.1672" width="163" height="45.5699" rx="8.81408" fill="#6F90B4"/>
<path d="M392.995 105.675C393.676 105.281 394.515 105.281 395.197 105.675L402.675 109.992C403.356 110.386 403.777 111.113 403.777 111.899V120.536C403.777 121.323 403.356 122.05 402.675 122.443L395.197 126.761C394.515 127.154 393.676 127.154 392.995 126.761L385.515 122.443C384.834 122.05 384.414 121.323 384.413 120.536V111.899C384.413 111.113 384.834 110.386 385.515 109.992L392.995 105.675Z" stroke="white" stroke-width="1.88751"/>
<path d="M395.389 117.36V111.206C395.389 110.673 394.957 110.241 394.424 110.241C393.891 110.241 393.459 110.673 393.459 111.206V117.36C393.459 117.893 393.891 118.325 394.424 118.325C394.957 118.325 395.389 117.893 395.389 117.36Z" fill="white"/>
<path d="M394.424 120.25C393.714 120.25 393.137 120.827 393.137 121.537C393.137 122.247 393.714 122.824 394.424 122.824C395.134 122.824 395.711 122.247 395.711 121.537C395.711 120.827 395.134 120.25 394.424 120.25Z" fill="white"/>
<path d="M418.161 122.283C417.507 122.283 416.918 122.129 416.394 121.82C415.871 121.507 415.455 121.079 415.146 120.537C414.843 119.995 414.691 119.378 414.691 118.686V115.468C414.691 114.735 414.843 114.09 415.146 113.533C415.455 112.977 415.88 112.545 416.422 112.236C416.969 111.928 417.598 111.774 418.308 111.774C418.841 111.774 419.341 111.874 419.808 112.075C420.276 112.276 420.68 112.575 421.021 112.973L419.949 113.975C419.757 113.727 419.516 113.531 419.227 113.386C418.941 113.237 418.635 113.162 418.308 113.162C417.888 113.162 417.518 113.262 417.2 113.463C416.883 113.66 416.633 113.919 416.45 114.241C416.273 114.564 416.184 114.91 416.184 115.279V117.13L415.896 116.807C416.186 116.429 416.546 116.13 416.976 115.91C417.406 115.69 417.866 115.581 418.357 115.581C418.984 115.581 419.542 115.728 420.033 116.022C420.528 116.312 420.916 116.707 421.197 117.207C421.482 117.707 421.624 118.27 421.624 118.897C421.624 119.528 421.465 120.1 421.148 120.614C420.834 121.124 420.414 121.53 419.886 121.834C419.362 122.133 418.787 122.283 418.161 122.283ZM418.161 120.874C418.525 120.874 418.857 120.785 419.156 120.607C419.456 120.43 419.694 120.191 419.872 119.892C420.049 119.593 420.138 119.261 420.138 118.897C420.138 118.532 420.049 118.2 419.872 117.901C419.699 117.602 419.463 117.364 419.163 117.186C418.864 117.008 418.533 116.92 418.168 116.92C417.803 116.92 417.469 117.008 417.165 117.186C416.866 117.364 416.628 117.602 416.45 117.901C416.273 118.2 416.184 118.532 416.184 118.897C416.184 119.257 416.273 119.586 416.45 119.885C416.628 120.184 416.866 120.425 417.165 120.607C417.465 120.785 417.796 120.874 418.161 120.874ZM428.723 122.073V113.358H425.365V111.977H433.547V113.358H430.188V122.073H428.723ZM439.983 122.073V118.35C439.983 118.055 439.957 117.754 439.906 117.445C439.859 117.132 439.765 116.842 439.625 116.576C439.49 116.31 439.296 116.095 439.043 115.931C438.796 115.768 438.471 115.686 438.069 115.686C437.807 115.686 437.559 115.73 437.326 115.819C437.092 115.903 436.886 116.041 436.709 116.233C436.536 116.424 436.398 116.677 436.295 116.99C436.197 117.303 436.148 117.684 436.148 118.132L435.236 117.789C435.236 117.102 435.365 116.497 435.622 115.973C435.879 115.445 436.248 115.034 436.73 114.739C437.211 114.445 437.793 114.298 438.475 114.298C438.999 114.298 439.438 114.382 439.793 114.55C440.149 114.718 440.436 114.94 440.656 115.216C440.88 115.487 441.051 115.784 441.167 116.106C441.284 116.429 441.364 116.744 441.406 117.053C441.448 117.361 441.469 117.632 441.469 117.866V122.073H439.983ZM434.662 122.073V111.977H435.973V117.424H436.148V122.073H434.662ZM443.295 122.073V114.501H444.599V116.338L444.417 116.099C444.51 115.856 444.632 115.634 444.781 115.433C444.931 115.228 445.104 115.059 445.3 114.929C445.492 114.788 445.704 114.681 445.938 114.606C446.176 114.527 446.419 114.48 446.667 114.466C446.915 114.447 447.153 114.459 447.382 114.501V115.875C447.135 115.81 446.859 115.791 446.555 115.819C446.256 115.847 445.98 115.943 445.728 116.106C445.489 116.261 445.3 116.448 445.16 116.667C445.024 116.887 444.926 117.132 444.865 117.403C444.805 117.67 444.774 117.953 444.774 118.252V122.073H443.295ZM451.939 122.283C451.186 122.283 450.525 122.119 449.955 121.792C449.389 121.46 448.947 121 448.63 120.411C448.316 119.817 448.16 119.13 448.16 118.35C448.16 117.523 448.314 116.805 448.623 116.197C448.936 115.59 449.37 115.12 449.927 114.788C450.483 114.456 451.13 114.291 451.869 114.291C452.64 114.291 453.296 114.471 453.839 114.83C454.381 115.186 454.785 115.693 455.051 116.352C455.322 117.011 455.43 117.794 455.374 118.7H453.909V118.168C453.899 117.289 453.731 116.639 453.404 116.219C453.081 115.798 452.588 115.588 451.925 115.588C451.191 115.588 450.639 115.819 450.27 116.282C449.901 116.744 449.716 117.413 449.716 118.287C449.716 119.119 449.901 119.764 450.27 120.222C450.639 120.675 451.172 120.902 451.869 120.902C452.327 120.902 452.721 120.799 453.053 120.593C453.39 120.383 453.652 120.084 453.839 119.696L455.276 120.152C454.981 120.829 454.535 121.355 453.937 121.729C453.338 122.098 452.672 122.283 451.939 122.283ZM449.239 118.7V117.558H454.645V118.7H449.239ZM458.948 122.283C458.387 122.283 457.918 122.18 457.539 121.974C457.16 121.764 456.873 121.488 456.677 121.147C456.485 120.801 456.389 120.423 456.389 120.011C456.389 119.628 456.457 119.292 456.593 119.002C456.728 118.712 456.929 118.467 457.195 118.266C457.462 118.06 457.789 117.894 458.177 117.768C458.514 117.67 458.894 117.583 459.32 117.509C459.745 117.434 460.191 117.364 460.659 117.298C461.131 117.233 461.598 117.167 462.061 117.102L461.528 117.396C461.537 116.803 461.411 116.363 461.15 116.078C460.892 115.789 460.448 115.644 459.818 115.644C459.42 115.644 459.056 115.737 458.724 115.924C458.392 116.106 458.161 116.41 458.03 116.835L456.663 116.415C456.85 115.765 457.205 115.249 457.728 114.865C458.256 114.482 458.958 114.291 459.832 114.291C460.509 114.291 461.098 114.407 461.598 114.641C462.103 114.87 462.472 115.235 462.706 115.735C462.827 115.983 462.902 116.244 462.93 116.52C462.958 116.796 462.972 117.093 462.972 117.41V122.073H461.675V120.341L461.928 120.565C461.615 121.145 461.215 121.577 460.729 121.862C460.248 122.143 459.654 122.283 458.948 122.283ZM459.208 121.084C459.624 121.084 459.981 121.012 460.28 120.867C460.579 120.717 460.82 120.528 461.002 120.299C461.185 120.07 461.304 119.831 461.36 119.584C461.439 119.359 461.484 119.107 461.493 118.827C461.507 118.546 461.514 118.322 461.514 118.153L461.991 118.329C461.528 118.399 461.107 118.462 460.729 118.518C460.35 118.574 460.007 118.63 459.698 118.686C459.395 118.738 459.123 118.801 458.885 118.876C458.684 118.946 458.504 119.03 458.345 119.128C458.191 119.226 458.067 119.345 457.974 119.486C457.885 119.626 457.84 119.796 457.84 119.997C457.84 120.194 457.89 120.376 457.988 120.544C458.086 120.708 458.235 120.839 458.436 120.937C458.637 121.035 458.894 121.084 459.208 121.084ZM469.125 122.073C468.649 122.166 468.181 122.206 467.723 122.192C467.265 122.178 466.856 122.089 466.496 121.925C466.137 121.762 465.865 121.505 465.683 121.154C465.52 120.841 465.431 120.523 465.417 120.201C465.407 119.873 465.403 119.504 465.403 119.093V112.398H466.875V119.023C466.875 119.327 466.877 119.591 466.882 119.815C466.891 120.039 466.94 120.229 467.029 120.383C467.198 120.673 467.464 120.839 467.829 120.881C468.198 120.918 468.63 120.902 469.125 120.832V122.073ZM463.952 115.679V114.501H469.125V115.679H463.952ZM473.529 122.073V111.977H479.509V113.442H474.994V116.289H478.668V117.761H474.994V122.073H473.529ZM483.855 122.283C483.098 122.283 482.441 122.112 481.885 121.771C481.329 121.43 480.899 120.96 480.595 120.362C480.296 119.759 480.146 119.065 480.146 118.28C480.146 117.49 480.301 116.796 480.609 116.197C480.918 115.595 481.35 115.127 481.906 114.795C482.462 114.459 483.112 114.291 483.855 114.291C484.612 114.291 485.269 114.461 485.825 114.802C486.381 115.144 486.811 115.613 487.115 116.212C487.419 116.81 487.571 117.499 487.571 118.28C487.571 119.07 487.417 119.766 487.108 120.369C486.804 120.967 486.374 121.437 485.818 121.778C485.262 122.115 484.608 122.283 483.855 122.283ZM483.855 120.902C484.58 120.902 485.119 120.659 485.475 120.173C485.834 119.682 486.014 119.051 486.014 118.28C486.014 117.49 485.832 116.859 485.468 116.387C485.108 115.91 484.57 115.672 483.855 115.672C483.364 115.672 482.96 115.784 482.642 116.008C482.324 116.228 482.088 116.534 481.934 116.927C481.78 117.315 481.703 117.766 481.703 118.28C481.703 119.074 481.885 119.71 482.25 120.187C482.614 120.663 483.149 120.902 483.855 120.902ZM491.965 122.276C491.441 122.276 491.002 122.192 490.647 122.023C490.292 121.855 490.002 121.636 489.777 121.364C489.558 121.089 489.389 120.79 489.273 120.467C489.156 120.145 489.076 119.829 489.034 119.521C488.992 119.212 488.971 118.941 488.971 118.707V114.501H490.457V118.224C490.457 118.518 490.481 118.822 490.528 119.135C490.579 119.443 490.672 119.731 490.808 119.997C490.948 120.264 491.142 120.479 491.39 120.642C491.642 120.806 491.969 120.888 492.371 120.888C492.633 120.888 492.881 120.846 493.115 120.761C493.348 120.673 493.552 120.532 493.724 120.341C493.902 120.149 494.04 119.897 494.138 119.584C494.241 119.271 494.292 118.89 494.292 118.441L495.204 118.784C495.204 119.472 495.075 120.079 494.818 120.607C494.561 121.131 494.192 121.54 493.71 121.834C493.229 122.129 492.647 122.276 491.965 122.276ZM494.468 122.073V119.885H494.292V114.501H495.772V122.073H494.468ZM503.052 122.073V118.35C503.052 118.055 503.026 117.754 502.975 117.445C502.928 117.132 502.835 116.842 502.695 116.576C502.559 116.31 502.365 116.095 502.113 115.931C501.865 115.768 501.54 115.686 501.138 115.686C500.876 115.686 500.629 115.73 500.395 115.819C500.161 115.903 499.956 116.041 499.778 116.233C499.605 116.424 499.467 116.677 499.364 116.99C499.266 117.303 499.217 117.684 499.217 118.132L498.306 117.789C498.306 117.102 498.434 116.497 498.691 115.973C498.948 115.445 499.318 115.034 499.799 114.739C500.28 114.445 500.862 114.298 501.545 114.298C502.068 114.298 502.508 114.382 502.863 114.55C503.218 114.718 503.505 114.94 503.725 115.216C503.949 115.487 504.12 115.784 504.237 116.106C504.354 116.429 504.433 116.744 504.475 117.053C504.517 117.361 504.538 117.632 504.538 117.866V122.073H503.052ZM497.731 122.073V114.501H499.042V116.688H499.217V122.073H497.731ZM509.276 122.283C508.57 122.283 507.96 122.108 507.446 121.757C506.937 121.406 506.542 120.93 506.262 120.327C505.986 119.719 505.848 119.037 505.848 118.28C505.848 117.518 505.988 116.838 506.269 116.24C506.549 115.637 506.946 115.162 507.46 114.816C507.979 114.466 508.594 114.291 509.304 114.291C510.019 114.291 510.62 114.466 511.106 114.816C511.597 115.162 511.966 115.637 512.214 116.24C512.466 116.842 512.592 117.523 512.592 118.28C512.592 119.037 512.466 119.717 512.214 120.32C511.961 120.923 511.59 121.402 511.099 121.757C510.608 122.108 510.001 122.283 509.276 122.283ZM509.479 120.958C509.961 120.958 510.354 120.843 510.657 120.614C510.961 120.385 511.183 120.07 511.323 119.668C511.464 119.266 511.534 118.803 511.534 118.28C511.534 117.756 511.461 117.294 511.316 116.892C511.176 116.49 510.956 116.176 510.657 115.952C510.363 115.728 509.987 115.616 509.529 115.616C509.042 115.616 508.643 115.735 508.33 115.973C508.017 116.212 507.783 116.532 507.629 116.934C507.479 117.336 507.404 117.784 507.404 118.28C507.404 118.78 507.479 119.233 507.629 119.64C507.783 120.042 508.012 120.362 508.316 120.6C508.624 120.839 509.012 120.958 509.479 120.958ZM511.534 122.073V116.625H511.365V111.977H512.838V122.073H511.534Z" fill="white"/>
</g>
<defs>
<filter id="filter0_d_50_426" x="13.8477" y="9.53674e-06" width="477.02" height="477.02" filterUnits="userSpaceOnUse" color-interpolation-filters="sRGB">
<feFlood flood-opacity="0" result="BackgroundImageFix"/>
<feColorMatrix in="SourceAlpha" type="matrix" values="0 0 0 0 0 0 0 0 0 0 0 0 0 0 0 0 0 0 127 0" result="hardAlpha"/>
<feOffset dy="5.99424"/>
<feGaussianBlur stdDeviation="5.75493"/>
<feColorMatrix type="matrix" values="0 0 0 0 0.584314 0 0 0 0 0.615686 0 0 0 0 0.647059 0 0 0 0.09 0"/>
<feBlend mode="normal" in2="BackgroundImageFix" result="effect1_dropShadow_50_426"/>
<feBlend mode="normal" in="SourceGraphic" in2="effect1_dropShadow_50_426" result="shape"/>
</filter>
<filter id="filter1_d_50_426" x="203.121" y="180.721" width="98.4733" height="98.4733" filterUnits="userSpaceOnUse" color-interpolation-filters="sRGB">
<feFlood flood-opacity="0" result="BackgroundImageFix"/>
<feColorMatrix in="SourceAlpha" type="matrix" values="0 0 0 0 0 0 0 0 0 0 0 0 0 0 0 0 0 0 127 0" result="hardAlpha"/>
<feOffset dy="3.83662"/>
<feGaussianBlur stdDeviation="5.11549"/>
<feColorMatrix type="matrix" values="0 0 0 0 0.649038 0 0 0 0 0.649038 0 0 0 0 0.649038 0 0 0 0.24 0"/>
<feBlend mode="normal" in2="BackgroundImageFix" result="effect1_dropShadow_50_426"/>
<feBlend mode="normal" in="SourceGraphic" in2="effect1_dropShadow_50_426" result="shape"/>
</filter>
<filter id="filter2_i_50_426" x="245.324" y="344.417" width="16.6252" height="17.443" filterUnits="userSpaceOnUse" color-interpolation-filters="sRGB">
<feFlood flood-opacity="0" result="BackgroundImageFix"/>
<feBlend mode="normal" in="SourceGraphic" in2="BackgroundImageFix" result="shape"/>
<feColorMatrix in="SourceAlpha" type="matrix" values="0 0 0 0 0 0 0 0 0 0 0 0 0 0 0 0 0 0 127 0" result="hardAlpha"/>
<feOffset dy="0.81764"/>
<feGaussianBlur stdDeviation="1.98225"/>
<feComposite in2="hardAlpha" operator="arithmetic" k2="-1" k3="1"/>
<feColorMatrix type="matrix" values="0 0 0 0 0.435294 0 0 0 0 0.564706 0 0 0 0 0.705882 0 0 0 0.62 0"/>
<feBlend mode="normal" in2="shape" result="effect1_innerShadow_50_426"/>
</filter>
<filter id="filter3_i_50_426" x="347.634" y="294.541" width="16.6252" height="17.443" filterUnits="userSpaceOnUse" color-interpolation-filters="sRGB">
<feFlood flood-opacity="0" result="BackgroundImageFix"/>
<feBlend mode="normal" in="SourceGraphic" in2="BackgroundImageFix" result="shape"/>
<feColorMatrix in="SourceAlpha" type="matrix" values="0 0 0 0 0 0 0 0 0 0 0 0 0 0 0 0 0 0 127 0" result="hardAlpha"/>
<feOffset dy="0.81764"/>
<feGaussianBlur stdDeviation="1.98225"/>
<feComposite in2="hardAlpha" operator="arithmetic" k2="-1" k3="1"/>
<feColorMatrix type="matrix" values="0 0 0 0 0.435294 0 0 0 0 0.564706 0 0 0 0 0.705882 0 0 0 0.62 0"/>
<feBlend mode="normal" in2="shape" result="effect1_innerShadow_50_426"/>
</filter>
<filter id="filter4_i_50_426" x="408.358" y="239.516" width="16.6252" height="17.443" filterUnits="userSpaceOnUse" color-interpolation-filters="sRGB">
<feFlood flood-opacity="0" result="BackgroundImageFix"/>
<feBlend mode="normal" in="SourceGraphic" in2="BackgroundImageFix" result="shape"/>
<feColorMatrix in="SourceAlpha" type="matrix" values="0 0 0 0 0 0 0 0 0 0 0 0 0 0 0 0 0 0 127 0" result="hardAlpha"/>
<feOffset dy="0.81764"/>
<feGaussianBlur stdDeviation="1.98225"/>
<feComposite in2="hardAlpha" operator="arithmetic" k2="-1" k3="1"/>
<feColorMatrix type="matrix" values="0 0 0 0 0.435294 0 0 0 0 0.564706 0 0 0 0 0.705882 0 0 0 0.62 0"/>
<feBlend mode="normal" in2="shape" result="effect1_innerShadow_50_426"/>
</filter>
<filter id="filter5_i_50_426" x="180.101" y="369.994" width="16.6254" height="17.443" filterUnits="userSpaceOnUse" color-interpolation-filters="sRGB">
<feFlood flood-opacity="0" result="BackgroundImageFix"/>
<feBlend mode="normal" in="SourceGraphic" in2="BackgroundImageFix" result="shape"/>
<feColorMatrix in="SourceAlpha" type="matrix" values="0 0 0 0 0 0 0 0 0 0 0 0 0 0 0 0 0 0 127 0" result="hardAlpha"/>
<feOffset dy="0.81764"/>
<feGaussianBlur stdDeviation="1.98225"/>
<feComposite in2="hardAlpha" operator="arithmetic" k2="-1" k3="1"/>
<feColorMatrix type="matrix" values="0 0 0 0 0.435294 0 0 0 0 0.564706 0 0 0 0 0.705882 0 0 0 0.62 0"/>
<feBlend mode="normal" in2="shape" result="effect1_innerShadow_50_426"/>
</filter>
<filter id="filter6_i_50_426" x="316.941" y="369.994" width="16.6252" height="17.443" filterUnits="userSpaceOnUse" color-interpolation-filters="sRGB">
<feFlood flood-opacity="0" result="BackgroundImageFix"/>
<feBlend mode="normal" in="SourceGraphic" in2="BackgroundImageFix" result="shape"/>
<feColorMatrix in="SourceAlpha" type="matrix" values="0 0 0 0 0 0 0 0 0 0 0 0 0 0 0 0 0 0 127 0" result="hardAlpha"/>
<feOffset dy="0.81764"/>
<feGaussianBlur stdDeviation="1.98225"/>
<feComposite in2="hardAlpha" operator="arithmetic" k2="-1" k3="1"/>
<feColorMatrix type="matrix" values="0 0 0 0 0.435294 0 0 0 0 0.564706 0 0 0 0 0.705882 0 0 0 0.62 0"/>
<feBlend mode="normal" in2="shape" result="effect1_innerShadow_50_426"/>
</filter>
<filter id="filter7_i_50_426" x="316.941" y="235.713" width="16.6252" height="17.443" filterUnits="userSpaceOnUse" color-interpolation-filters="sRGB">
<feFlood flood-opacity="0" result="BackgroundImageFix"/>
<feBlend mode="normal" in="SourceGraphic" in2="BackgroundImageFix" result="shape"/>
<feColorMatrix in="SourceAlpha" type="matrix" values="0 0 0 0 0 0 0 0 0 0 0 0 0 0 0 0 0 0 127 0" result="hardAlpha"/>
<feOffset dy="0.81764"/>
<feGaussianBlur stdDeviation="1.98225"/>
<feComposite in2="hardAlpha" operator="arithmetic" k2="-1" k3="1"/>
<feColorMatrix type="matrix" values="0 0 0 0 0.435294 0 0 0 0 0.564706 0 0 0 0 0.705882 0 0 0 0.62 0"/>
<feBlend mode="normal" in2="shape" result="effect1_innerShadow_50_426"/>
</filter>
<filter id="filter8_d_50_426" x="100.703" y="40.2822" width="121.913" height="122.37" filterUnits="userSpaceOnUse" color-interpolation-filters="sRGB">
<feFlood flood-opacity="0" result="BackgroundImageFix"/>
<feColorMatrix in="SourceAlpha" type="matrix" values="0 0 0 0 0 0 0 0 0 0 0 0 0 0 0 0 0 0 127 0" result="hardAlpha"/>
<feOffset dy="8.39194"/>
<feGaussianBlur stdDeviation="17.3833"/>
<feColorMatrix type="matrix" values="0 0 0 0 0.392157 0 0 0 0 0.392157 0 0 0 0 0.435294 0 0 0 0.15 0"/>
<feBlend mode="normal" in2="BackgroundImageFix" result="effect1_dropShadow_50_426"/>
<feBlend mode="normal" in="SourceGraphic" in2="effect1_dropShadow_50_426" result="shape"/>
</filter>
<filter id="filter9_d_50_426" x="52.7493" y="191.337" width="121.913" height="122.37" filterUnits="userSpaceOnUse" color-interpolation-filters="sRGB">
<feFlood flood-opacity="0" result="BackgroundImageFix"/>
<feColorMatrix in="SourceAlpha" type="matrix" values="0 0 0 0 0 0 0 0 0 0 0 0 0 0 0 0 0 0 127 0" result="hardAlpha"/>
<feOffset dy="8.39194"/>
<feGaussianBlur stdDeviation="17.3833"/>
<feColorMatrix type="matrix" values="0 0 0 0 0.392157 0 0 0 0 0.392157 0 0 0 0 0.435294 0 0 0 0.15 0"/>
<feBlend mode="normal" in2="BackgroundImageFix" result="effect1_dropShadow_50_426"/>
<feBlend mode="normal" in="SourceGraphic" in2="effect1_dropShadow_50_426" result="shape"/>
</filter>
<filter id="filter10_d_50_426" x="-1.52588e-05" y="99.0257" width="121.913" height="122.37" filterUnits="userSpaceOnUse" color-interpolation-filters="sRGB">
<feFlood flood-opacity="0" result="BackgroundImageFix"/>
<feColorMatrix in="SourceAlpha" type="matrix" values="0 0 0 0 0 0 0 0 0 0 0 0 0 0 0 0 0 0 127 0" result="hardAlpha"/>
<feOffset dy="8.39194"/>
<feGaussianBlur stdDeviation="17.3833"/>
<feColorMatrix type="matrix" values="0 0 0 0 0.392157 0 0 0 0 0.392157 0 0 0 0 0.435294 0 0 0 0.15 0"/>
<feBlend mode="normal" in2="BackgroundImageFix" result="effect1_dropShadow_50_426"/>
<feBlend mode="normal" in="SourceGraphic" in2="effect1_dropShadow_50_426" result="shape"/>
</filter>
<filter id="filter11_d_50_426" x="343.944" y="74.8877" width="213.828" height="96.3978" filterUnits="userSpaceOnUse" color-interpolation-filters="sRGB">
<feFlood flood-opacity="0" result="BackgroundImageFix"/>
<feColorMatrix in="SourceAlpha" type="matrix" values="0 0 0 0 0 0 0 0 0 0 0 0 0 0 0 0 0 0 127 0" result="hardAlpha"/>
<feOffset dy="6.13441"/>
<feGaussianBlur stdDeviation="12.707"/>
<feColorMatrix type="matrix" values="0 0 0 0 0.392157 0 0 0 0 0.392157 0 0 0 0 0.435294 0 0 0 0.14 0"/>
<feBlend mode="normal" in2="BackgroundImageFix" result="effect1_dropShadow_50_426"/>
<feBlend mode="normal" in="SourceGraphic" in2="effect1_dropShadow_50_426" result="shape"/>
</filter>
<linearGradient id="paint0_linear_50_426" x1="475.125" y1="249.208" x2="111.252" y2="453.887" gradientUnits="userSpaceOnUse">
<stop offset="0.158605" stop-color="white" stop-opacity="0"/>
<stop offset="0.636449" stop-color="#6F90B4" stop-opacity="0.61"/>
<stop offset="1" stop-color="#2E5A88"/>
</linearGradient>
<linearGradient id="paint1_linear_50_426" x1="232.741" y1="246.574" x2="288.193" y2="211.684" gradientUnits="userSpaceOnUse">
<stop stop-color="#6F90B4"/>
<stop offset="0.567308" stop-color="#2E5A88"/>
<stop offset="1" stop-color="#87BBF3"/>
</linearGradient>
<linearGradient id="paint2_linear_50_426" x1="250.456" y1="356.521" x2="256.132" y2="350.197" gradientUnits="userSpaceOnUse">
<stop stop-color="#6F90B4"/>
<stop offset="1" stop-color="#2E5A88"/>
</linearGradient>
<linearGradient id="paint3_linear_50_426" x1="352.766" y1="306.645" x2="358.441" y2="300.32" gradientUnits="userSpaceOnUse">
<stop stop-color="#6F90B4"/>
<stop offset="1" stop-color="#2E5A88"/>
</linearGradient>
<linearGradient id="paint4_linear_50_426" x1="413.49" y1="251.619" x2="419.165" y2="245.295" gradientUnits="userSpaceOnUse">
<stop stop-color="#6F90B4"/>
<stop offset="1" stop-color="#2E5A88"/>
</linearGradient>
<linearGradient id="paint5_linear_50_426" x1="185.233" y1="382.098" x2="190.909" y2="375.774" gradientUnits="userSpaceOnUse">
<stop stop-color="#6F90B4"/>
<stop offset="1" stop-color="#2E5A88"/>
</linearGradient>
<linearGradient id="paint6_linear_50_426" x1="322.073" y1="382.098" x2="327.748" y2="375.774" gradientUnits="userSpaceOnUse">
<stop stop-color="#6F90B4"/>
<stop offset="1" stop-color="#2E5A88"/>
</linearGradient>
<linearGradient id="paint7_linear_50_426" x1="322.073" y1="247.816" x2="327.748" y2="241.492" gradientUnits="userSpaceOnUse">
<stop stop-color="#6F90B4"/>
<stop offset="1" stop-color="#2E5A88"/>
</linearGradient>
</defs>
</svg>
