<svg width="45" height="45" viewBox="0 0 45 45" fill="none" xmlns="http://www.w3.org/2000/svg">
<rect width="45" height="45" rx="10.2987" fill="url(#paint0_linear_260_3263)"/>
<path fill-rule="evenodd" clip-rule="evenodd" d="M22.3616 11.1986C22.4644 11.138 22.5759 11.1427 22.6574 11.1894L22.3616 11.1986ZM22.6574 11.1894C22.9554 11.3604 23.2547 11.5374 23.56 11.7179C25.7825 13.0324 28.3257 14.5365 33.0699 15.3103C33.2675 15.3425 33.387 15.5066 33.3859 15.6613C33.3428 22.0495 32.904 25.4908 31.4475 28.0574C29.9933 30.6199 27.4483 32.4508 22.6707 35.3556C22.5687 35.4176 22.4309 35.4176 22.3288 35.3556C17.5472 32.4484 15.0019 30.6167 13.5483 28.0508C12.0922 25.4804 11.6552 22.0326 11.6133 15.6295C11.6123 15.4764 11.7279 15.3164 11.9171 15.2806C16.912 14.3368 19.8813 12.6622 22.3616 11.1986M21.363 9.47164C22.0532 9.06444 22.9181 9.03891 23.6352 9.4503C23.947 9.62919 24.2547 9.81092 24.5637 9.9935C26.7519 11.2859 29.0161 12.6232 33.3854 13.3359C34.5007 13.5177 35.3741 14.4865 35.3659 15.6752C35.3659 15.6752 35.3659 15.6753 35.3659 15.6752C35.323 22.0306 34.9113 25.9754 33.1654 29.0519C31.4172 32.1326 28.4078 34.2019 23.6919 37.0691C22.9615 37.5131 22.038 37.5131 21.3077 37.0691C16.5877 34.1994 13.5774 32.1291 11.8298 29.0442C10.0847 25.9636 9.67508 22.012 9.63335 15.6427C9.62575 14.4809 10.4625 13.5208 11.553 13.3147C16.2213 12.4326 18.9615 10.8887 21.363 9.47164Z" fill="white"/>
<defs>
<linearGradient id="paint0_linear_260_3263" x1="8.41304" y1="37.1875" x2="48.2333" y2="12.1328" gradientUnits="userSpaceOnUse">
<stop stop-color="#6F90B4"/>
<stop offset="0.567308" stop-color="#2E5A88"/>
<stop offset="1" stop-color="#87BBF3"/>
</linearGradient>
</defs>
</svg>
