<svg width="45" height="45" viewBox="0 0 45 45" fill="none" xmlns="http://www.w3.org/2000/svg">
<rect width="45" height="45" rx="10.2987" fill="url(#paint0_linear_260_3303)"/>
<g clip-path="url(#clip0_260_3303)">
<path d="M35.8157 21.9331C34.1768 19.7859 32.2085 17.9116 29.9837 16.3798L33.7888 12.5747C34.1719 12.2048 34.1825 11.5943 33.8125 11.2113C33.4425 10.8282 32.8321 10.8176 32.449 11.1875C32.441 11.1953 32.4331 11.2032 32.4253 11.2113L28.2683 15.3644C26.4989 14.3906 24.5193 13.8611 22.5 13.8215C15.1715 13.8215 9.42538 21.6013 9.18429 21.933C8.93857 22.271 8.93857 22.7289 9.18429 23.067C10.8231 25.2141 12.7915 27.0884 15.0162 28.6202L11.2112 32.4253C10.8281 32.7952 10.8175 33.4057 11.1875 33.7887C11.5574 34.1718 12.1679 34.1824 12.5509 33.8125C12.559 33.8047 12.5669 33.7968 12.5747 33.7887L16.7316 29.6356C18.5011 30.6095 20.4806 31.1389 22.5 31.1785C29.8285 31.1785 35.5746 23.3987 35.8157 23.067C36.0615 22.729 36.0615 22.2711 35.8157 21.9331ZM16.4183 27.2211C14.4539 25.9128 12.6931 24.322 11.1929 22.5C12.6123 20.7807 17.2157 15.7501 22.5 15.7501C24.0034 15.7805 25.4816 16.1427 26.8286 16.8108L25.1546 18.4848C22.9398 17.0143 19.9523 17.6178 18.4819 19.8326C17.4107 21.446 17.4107 23.5442 18.4819 25.1575L16.4183 27.2211ZM25.1036 21.2609C25.2923 21.6468 25.3912 22.0705 25.3928 22.5C25.3928 24.0977 24.0977 25.3929 22.5 25.3929C22.0704 25.3912 21.6468 25.2923 21.2609 25.1036L25.1036 21.2609ZM19.8965 23.7391C19.7078 23.3532 19.6088 22.9296 19.6072 22.5C19.6072 20.9023 20.9023 19.6072 22.5 19.6072C22.9296 19.6088 23.3532 19.7077 23.7391 19.8964L19.8965 23.7391ZM22.5 29.2499C20.9966 29.2195 19.5185 28.8573 18.1714 28.1893L19.8454 26.5153C22.0602 27.9857 25.0477 27.3823 26.5182 25.1674C27.5893 23.5541 27.5893 21.4558 26.5182 19.8425L28.5817 17.7789C30.5461 19.0872 32.3069 20.6781 33.8071 22.5C32.3877 24.2194 27.7842 29.2499 22.5 29.2499Z" fill="white"/>
</g>
<defs>
<linearGradient id="paint0_linear_260_3303" x1="8.41304" y1="37.1875" x2="48.2333" y2="12.1328" gradientUnits="userSpaceOnUse">
<stop stop-color="#6F90B4"/>
<stop offset="0.567308" stop-color="#2E5A88"/>
<stop offset="1" stop-color="#87BBF3"/>
</linearGradient>
<clipPath id="clip0_260_3303">
<rect width="27" height="27" fill="white" transform="translate(9 9)"/>
</clipPath>
</defs>
</svg>
