<svg width="45" height="45" viewBox="0 0 45 45" fill="none" xmlns="http://www.w3.org/2000/svg">
<rect width="45" height="45" rx="10.2987" fill="url(#paint0_linear_260_3311)"/>
<g clip-path="url(#clip0_260_3311)">
<path d="M22.5 23.2812C22.0955 23.2812 21.7676 23.6092 21.7676 24.0137V28.4082C21.7676 28.8127 22.0955 29.1406 22.5 29.1406C22.9045 29.1406 23.2324 28.8127 23.2324 28.4082V24.0137C23.2324 23.6092 22.9045 23.2812 22.5 23.2812Z" fill="white"/>
<path d="M22.5 32.0703C22.9045 32.0703 23.2324 31.7424 23.2324 31.3379C23.2324 30.9334 22.9045 30.6055 22.5 30.6055C22.0955 30.6055 21.7676 30.9334 21.7676 31.3379C21.7676 31.7424 22.0955 32.0703 22.5 32.0703Z" fill="white"/>
<path d="M31.3389 13.6611C28.9779 11.3002 25.8389 10 22.5 10C19.1611 10 16.0221 11.3002 13.6611 13.6611C11.3002 16.0221 10 19.1611 10 22.5C10 22.9045 10.3279 23.2324 10.7324 23.2324H15.6641C16.0686 23.2324 16.3965 22.9045 16.3965 22.5C16.3965 19.1345 19.1345 16.3965 22.5 16.3965C25.8655 16.3965 28.6035 19.1345 28.6035 22.5C28.6035 22.9045 28.9314 23.2324 29.3359 23.2324H34.2676C34.6721 23.2324 35 22.9045 35 22.5C35 19.1611 33.6998 16.0221 31.3389 13.6611ZM14.9668 21.7676H11.4889C11.6531 19.2752 12.6489 17.0064 14.2002 15.2361L16.6582 17.694C15.7262 18.8248 15.1152 20.2295 14.9668 21.7676ZM21.7676 14.9668C20.2295 15.1152 18.8248 15.7262 17.6939 16.6582L15.2361 14.2004C17.0064 12.649 19.2752 11.6537 21.7676 11.4896V14.9668ZM23.2324 14.9668V11.4896C25.7248 11.6538 27.9935 12.6491 29.7638 14.2004L27.3061 16.6582C26.1752 15.7262 24.7705 15.1152 23.2324 14.9668ZM30.0332 21.7676C29.8848 20.2295 29.2738 18.8248 28.3418 17.6939L30.7997 15.236C32.3511 17.0064 33.3469 19.2751 33.5111 21.7676H30.0332Z" fill="white"/>
<path d="M24.4027 20.4736C23.557 19.0088 21.4427 19.0088 20.597 20.4736L14.1131 31.7041C13.2674 33.1689 14.3245 35 16.016 35H28.9837C30.6752 35 31.7324 33.1689 30.8866 31.7041L24.4027 20.4736ZM28.9838 33.5352H16.0159C15.4521 33.5352 15.0997 32.9248 15.3816 32.4365L21.8656 21.2061C22.1475 20.7178 22.8522 20.7178 23.1342 21.2061L29.6181 32.4365C29.9 32.9248 29.5476 33.5352 28.9838 33.5352Z" fill="white"/>
</g>
<defs>
<linearGradient id="paint0_linear_260_3311" x1="8.41304" y1="37.1875" x2="48.2333" y2="12.1328" gradientUnits="userSpaceOnUse">
<stop stop-color="#6F90B4"/>
<stop offset="0.567308" stop-color="#2E5A88"/>
<stop offset="1" stop-color="#87BBF3"/>
</linearGradient>
<clipPath id="clip0_260_3311">
<rect width="25" height="25" fill="white" transform="translate(10 10)"/>
</clipPath>
</defs>
</svg>
