<svg width="45" height="45" viewBox="0 0 45 45" fill="none" xmlns="http://www.w3.org/2000/svg">
<rect width="45" height="45" rx="10.2987" fill="url(#paint0_linear_260_3295)"/>
<g clip-path="url(#clip0_260_3295)">
<path d="M35.5 17.3584C35.5 16.0984 34.4749 15.0732 33.2148 15.0732H29.1523V13.4342C29.1523 12.1119 28.0766 11.0361 26.7544 11.0361H18.2457C16.9234 11.0361 15.8477 12.1119 15.8477 13.4342V15.0732H11.7852C10.5251 15.0732 9.5 16.0984 9.5 17.3584V20.9637C9.5 21.6356 9.71877 22.4734 10.5156 23.2952V31.6787C10.5156 32.9387 11.5407 33.9639 12.8008 33.9639H32.1992C33.4593 33.9639 34.4844 32.9387 34.4844 31.6787V23.2952C35.2809 22.4738 35.5 21.6363 35.5 20.9637V17.3584ZM17.3711 13.4342C17.3711 12.9519 17.7634 12.5596 18.2457 12.5596H26.7544C27.2366 12.5596 27.629 12.9519 27.629 13.4342V15.0732H17.3711V13.4342ZM11.0234 17.3584C11.0234 16.9384 11.3651 16.5967 11.7852 16.5967H33.2148C33.6349 16.5967 33.9766 16.9384 33.9766 17.3584V20.9637C33.9766 22.8379 30.3808 24.3674 25.1406 24.7681V24.0615C25.1406 23.6409 24.7996 23.2998 24.3789 23.2998H20.6211C20.2004 23.2998 19.8594 23.6409 19.8594 24.0615V24.7679C14.6239 24.3667 11.0234 22.8332 11.0234 20.9637V17.3584ZM23.6172 24.8232V25.8135C23.6172 26.3595 23.173 26.8037 22.627 26.8037H22.373C21.827 26.8037 21.3828 26.3595 21.3828 25.8135V24.8232H23.6172ZM32.1992 32.4404H12.8008C12.3808 32.4404 12.0391 32.0987 12.0391 31.6787V24.4132C14.3072 25.5754 16.6907 26.0236 19.9069 26.2991C20.1338 27.4535 21.1532 28.3271 22.373 28.3271H22.627C23.8469 28.3271 24.8663 27.4534 25.0931 26.2989C27.7499 26.1065 30.1482 25.6188 31.8994 24.9102C32.2932 24.7509 32.6455 24.5844 32.9609 24.413V31.6787C32.9609 32.0987 32.6192 32.4404 32.1992 32.4404Z" fill="white"/>
</g>
<defs>
<linearGradient id="paint0_linear_260_3295" x1="8.41304" y1="37.1875" x2="48.2333" y2="12.1328" gradientUnits="userSpaceOnUse">
<stop stop-color="#6F90B4"/>
<stop offset="0.567308" stop-color="#2E5A88"/>
<stop offset="1" stop-color="#87BBF3"/>
</linearGradient>
<clipPath id="clip0_260_3295">
<rect width="26" height="26" fill="white" transform="translate(9.5 9.5)"/>
</clipPath>
</defs>
</svg>
