<svg width="52" height="52" viewBox="0 0 52 52" fill="none" xmlns="http://www.w3.org/2000/svg">
<rect width="51.42" height="51.4244" rx="6.26032" fill="url(#paint0_linear_266_719)"/>
<g clip-path="url(#clip0_266_719)">
<path d="M15.2268 14.9622C15.2268 14.3573 15.7069 13.8653 16.297 13.8653H19.5075V11.6714H16.297C14.5267 11.6714 13.0864 13.1476 13.0864 14.9622V18.253H15.2268V14.9622Z" fill="white"/>
<path d="M37.2721 11.6714H34.0615V13.8653H37.2721C37.8622 13.8653 38.3422 14.3573 38.3422 14.9622V18.253H40.4826V14.9622C40.4826 13.1476 39.0424 11.6714 37.2721 11.6714Z" fill="white"/>
<path d="M15.2268 36.4622V33.1714H13.0864V36.4622C13.0864 38.2767 14.5267 39.753 16.297 39.753H19.5075V37.5591H16.297C15.7069 37.5591 15.2268 37.067 15.2268 36.4622Z" fill="white"/>
<path d="M38.3422 36.4622C38.3422 37.067 37.8622 37.5591 37.2721 37.5591H34.0615V39.753H37.2721C39.0424 39.753 40.4826 38.2767 40.4826 36.4622V33.1714H38.3422V36.4622Z" fill="white"/>
<path d="M19.2939 30.0999V35.5846H34.2765V30.0999C34.2765 27.0757 31.8761 24.6152 28.9256 24.6152H26.7852H24.6449C21.6944 24.6152 19.2939 27.0757 19.2939 30.0999ZM28.9256 26.8091C30.6959 26.8091 32.1361 28.2854 32.1361 30.0999V33.3907H21.4343V30.0999C21.4343 28.2854 22.8746 26.8091 24.6449 26.8091H28.9256Z" fill="white"/>
<path d="M31.0658 20.2275C31.0658 17.8081 29.1455 15.8397 26.7851 15.8397C24.4247 15.8397 22.5044 17.8081 22.5044 20.2275C22.5044 22.6469 24.4247 24.6152 26.7851 24.6152C29.1455 24.6152 31.0658 22.6469 31.0658 20.2275ZM26.7851 22.4213C25.6049 22.4213 24.6448 21.4372 24.6448 20.2275C24.6448 19.0178 25.6049 18.0336 26.7851 18.0336C27.9653 18.0336 28.9255 19.0178 28.9255 20.2275C28.9255 21.4372 27.9653 22.4213 26.7851 22.4213Z" fill="white"/>
</g>
<defs>
<linearGradient id="paint0_linear_266_719" x1="9.6133" y1="42.4966" x2="55.1168" y2="13.8685" gradientUnits="userSpaceOnUse">
<stop stop-color="#6F90B4"/>
<stop offset="0.567308" stop-color="#2E5A88"/>
<stop offset="1" stop-color="#87BBF3"/>
</linearGradient>
<clipPath id="clip0_266_719">
<rect width="27.3966" height="28.0816" fill="white" transform="translate(13.0864 11.6714)"/>
</clipPath>
</defs>
</svg>
