<svg width="52" height="52" viewBox="0 0 52 52" fill="none" xmlns="http://www.w3.org/2000/svg">
<rect width="51.42" height="51.4244" rx="6.26032" fill="url(#paint0_linear_259_1135)"/>
<path fill-rule="evenodd" clip-rule="evenodd" d="M26.6598 14.7491C26.7525 14.6942 26.8531 14.6984 26.9265 14.7407L26.6598 14.7491ZM26.9265 14.7407C27.1953 14.8957 27.4651 15.0562 27.7403 15.2199C29.7442 16.4115 32.0373 17.7751 36.3148 18.4766C36.493 18.5058 36.6007 18.6546 36.5997 18.7948C36.5608 24.5861 36.1652 27.7059 34.852 30.0326C33.5408 32.3557 31.2462 34.0155 26.9385 36.6489C26.8465 36.7051 26.7223 36.7051 26.6303 36.6489C22.319 34.0134 20.0241 32.3528 18.7135 30.0267C17.4007 27.6964 17.0066 24.5707 16.9688 18.766C16.9679 18.6271 17.0722 18.4821 17.2427 18.4497C21.7463 17.594 24.4235 16.0759 26.6598 14.7491M25.7594 13.1835C26.3818 12.8143 27.1616 12.7912 27.8082 13.1641C28.0893 13.3263 28.3667 13.491 28.6453 13.6565C30.6183 14.8282 32.6597 16.0406 36.5993 16.6866C37.6048 16.8515 38.3923 17.7297 38.385 18.8074C38.385 18.8074 38.385 18.8074 38.385 18.8074C38.3463 24.5689 37.9751 28.1451 36.4009 30.9342C34.8246 33.727 32.1113 35.603 27.8592 38.2023C27.2007 38.6048 26.3681 38.6048 25.7096 38.2023C21.4539 35.6007 18.7397 33.7239 17.164 30.9272C15.5906 28.1345 15.2213 24.5521 15.1836 18.778C15.1768 17.7247 15.9313 16.8543 16.9145 16.6675C21.1235 15.8678 23.5942 14.4681 25.7594 13.1835Z" fill="white"/>
<defs>
<linearGradient id="paint0_linear_259_1135" x1="9.6133" y1="42.4966" x2="55.1168" y2="13.8685" gradientUnits="userSpaceOnUse">
<stop stop-color="#6F90B4"/>
<stop offset="0.567308" stop-color="#2E5A88"/>
<stop offset="1" stop-color="#87BBF3"/>
</linearGradient>
</defs>
</svg>
