<svg width="52" height="52" viewBox="0 0 52 52" fill="none" xmlns="http://www.w3.org/2000/svg">
<rect width="51.4241" height="51.4241" rx="5.92264" fill="url(#paint0_linear_266_730)"/>
<path d="M33.6777 31.4123L32.5086 32.5904L32.2458 32.3185C32.0751 32.1479 31.8437 32.052 31.6023 32.052C31.361 32.052 31.1296 32.1479 30.9589 32.3185C30.7883 32.4892 30.6924 32.7206 30.6924 32.962C30.6924 33.2033 30.7883 33.4347 30.9589 33.6054L31.8652 34.5116C31.9494 34.5966 32.0496 34.664 32.1601 34.71C32.2705 34.756 32.389 34.7797 32.5086 34.7797C32.6282 34.7797 32.7467 34.756 32.8571 34.71C32.9675 34.664 33.0678 34.5966 33.152 34.5116L34.9645 32.6991C35.1352 32.5285 35.231 32.297 35.231 32.0557C35.231 31.8144 35.1352 31.5829 34.9645 31.4123C34.7939 31.2416 34.5624 31.1458 34.3211 31.1458C34.0798 31.1458 33.8483 31.2416 33.6777 31.4123Z" fill="white"/>
<path d="M32.9624 27.5245C31.887 27.5245 30.8357 27.8434 29.9415 28.4409C29.0473 29.0384 28.3504 29.8876 27.9388 30.8812C27.5273 31.8748 27.4196 32.9681 27.6294 34.0228C27.8392 35.0776 28.3571 36.0465 29.1175 36.8069C29.878 37.5674 30.8468 38.0853 31.9016 38.2951C32.9564 38.5049 34.0497 38.3972 35.0432 37.9856C36.0368 37.5741 36.886 36.8771 37.4835 35.983C38.081 35.0888 38.3999 34.0375 38.3999 32.962C38.3999 31.5199 37.827 30.1369 36.8073 29.1171C35.7876 28.0974 34.4045 27.5245 32.9624 27.5245ZM32.9624 36.587C32.2454 36.587 31.5446 36.3744 30.9485 35.9761C30.3523 35.5778 29.8877 35.0116 29.6133 34.3493C29.339 33.6869 29.2672 32.958 29.4071 32.2548C29.5469 31.5517 29.8922 30.9057 30.3991 30.3988C30.9061 29.8918 31.552 29.5466 32.2552 29.4067C32.9584 29.2668 33.6873 29.3386 34.3496 29.613C35.012 29.8873 35.5782 30.352 35.9765 30.9481C36.3748 31.5442 36.5874 32.2451 36.5874 32.962C36.5874 33.9234 36.2055 34.8455 35.5257 35.5253C34.8458 36.2051 33.9238 36.587 32.9624 36.587Z" fill="white"/>
<path d="M28.3587 27.3705C28.4504 27.2944 28.5263 27.201 28.5819 27.0955C28.6375 26.9901 28.6717 26.8747 28.6827 26.756C28.6936 26.6373 28.681 26.5177 28.6456 26.4038C28.6103 26.29 28.5528 26.1843 28.4765 26.0927C28.0946 25.6446 27.6094 25.2962 27.0627 25.0777C27.6474 24.3611 27.9675 23.465 27.969 22.5402C27.9731 21.8867 27.8201 21.2418 27.5229 20.6598C27.2257 20.0778 26.7929 19.5757 26.2611 19.1959C25.7293 18.8161 25.1141 18.5696 24.4671 18.4773C23.8202 18.385 23.1605 18.4495 22.5437 18.6654C21.9269 18.8812 21.371 19.2422 20.9228 19.7178C20.4747 20.1934 20.1474 20.7698 19.9685 21.3983C19.7897 22.0269 19.7645 22.6892 19.8951 23.3295C20.0257 23.9698 20.3082 24.5694 20.719 25.0777C20.0524 25.3494 19.4819 25.8134 19.08 26.4106C18.6781 27.0077 18.4631 27.711 18.4624 28.4308V29.3371C18.4624 29.5774 18.5579 29.8079 18.7278 29.9779C18.8978 30.1478 19.1283 30.2433 19.3687 30.2433C19.609 30.2433 19.8395 30.1478 20.0095 29.9779C20.1794 29.8079 20.2749 29.5774 20.2749 29.3371V28.4308C20.2749 27.9501 20.4659 27.4891 20.8058 27.1492C21.1457 26.8093 21.6067 26.6183 22.0874 26.6183H25.7124C25.9733 26.6159 26.2314 26.6716 26.4681 26.7813C26.7048 26.891 26.9141 27.052 27.0808 27.2527C27.1569 27.3445 27.2504 27.4203 27.3558 27.4759C27.4612 27.5315 27.5766 27.5658 27.6953 27.5767C27.814 27.5877 27.9337 27.5751 28.0475 27.5397C28.1613 27.5043 28.2671 27.4468 28.3587 27.3705ZM23.8999 20.2746C24.348 20.2746 24.786 20.4074 25.1586 20.6564C25.5312 20.9053 25.8216 21.2592 25.9931 21.6732C26.1645 22.0872 26.2094 22.5427 26.122 22.9822C26.0346 23.4217 25.8188 23.8254 25.5019 24.1422C25.1851 24.4591 24.7814 24.6749 24.3419 24.7623C23.9024 24.8497 23.4469 24.8048 23.0329 24.6334C22.6189 24.4619 22.2651 24.1715 22.0161 23.7989C21.7672 23.4263 21.6343 22.9883 21.6343 22.5402C21.6343 21.9393 21.873 21.363 22.2979 20.9382C22.7228 20.5133 23.299 20.2746 23.8999 20.2746Z" fill="white"/>
<path d="M25.4133 35.9889C24.923 36.2223 24.4173 36.4221 23.8999 36.587C21.284 35.8071 18.9893 34.2043 17.3567 32.0166C15.7241 29.8289 14.8406 27.173 14.8374 24.4433V18.1901L23.8999 14.8914L32.9624 18.1901V24.4433C32.9669 24.5066 32.9669 24.5702 32.9624 24.6336V24.8058C32.9624 25.0461 33.0579 25.2766 33.2278 25.4466C33.3978 25.6165 33.6283 25.712 33.8687 25.712C34.109 25.712 34.3395 25.6165 34.5095 25.4466C34.6794 25.2766 34.7749 25.0461 34.7749 24.8058V24.6608C34.7749 24.5611 34.7749 24.4614 34.7749 24.3617V17.5558C34.7748 17.3695 34.7174 17.1878 34.6103 17.0354C34.5033 16.883 34.3519 16.7672 34.1768 16.7039L24.208 13.0789C24.0089 13.0069 23.7909 13.0069 23.5918 13.0789L13.623 16.7039C13.4479 16.7672 13.2965 16.883 13.1895 17.0354C13.0824 17.1878 13.025 17.3695 13.0249 17.5558V24.4433C13.0294 27.6126 14.0721 30.6932 15.9935 33.2137C17.915 35.7342 20.6093 37.5557 23.6643 38.3995C23.8176 38.4481 23.9822 38.4481 24.1355 38.3995C24.822 38.2173 25.4919 37.9779 26.1383 37.6836C26.2535 37.6403 26.3587 37.574 26.4474 37.4888C26.5361 37.4036 26.6066 37.3012 26.6544 37.1878C26.7023 37.0745 26.7266 36.9526 26.7258 36.8296C26.725 36.7065 26.6992 36.585 26.65 36.4722C26.6007 36.3595 26.529 36.258 26.4392 36.1739C26.3494 36.0898 26.2434 36.0248 26.1277 35.983C26.012 35.9411 25.889 35.9233 25.7662 35.9306C25.6434 35.9378 25.5233 35.97 25.4133 36.0251V35.9889Z" fill="white"/>
<defs>
<linearGradient id="paint0_linear_266_730" x1="9.61408" y1="42.4963" x2="55.119" y2="13.8649" gradientUnits="userSpaceOnUse">
<stop stop-color="#6F90B4"/>
<stop offset="0.567308" stop-color="#2E5A88"/>
<stop offset="1" stop-color="#87BBF3"/>
</linearGradient>
</defs>
</svg>
