<svg width="52" height="52" viewBox="0 0 52 52" fill="none" xmlns="http://www.w3.org/2000/svg">
<rect width="51.42" height="51.42" rx="6.16737" fill="url(#paint0_linear_259_1296)"/>
<path d="M36.4544 24.6338V20.3286C36.4544 18.3284 35.0773 16.6575 33.2255 16.1762V13.8708C33.2255 12.0902 31.7771 10.6418 29.9966 10.6418H17.081C15.3004 10.6418 13.8521 12.0902 13.8521 13.8708V37.5494C13.8521 39.3299 15.3004 40.7783 17.081 40.7783H29.9966C31.7771 40.7783 33.2255 39.3299 33.2255 37.5494C33.2255 37.5199 33.2111 37.495 33.2087 37.466C36.8615 36.9481 39.6833 33.8092 39.6833 30.0153V27.8627C39.6833 26.0822 38.2349 24.6338 36.4544 24.6338ZM34.3018 20.3286V24.6338H29.9966V20.3286C29.9966 19.1414 30.9625 18.176 32.1492 18.176C33.3359 18.176 34.3018 19.1414 34.3018 20.3286ZM29.9966 38.6257H17.081C16.4871 38.6257 16.0047 38.1428 16.0047 37.5494V13.8708C16.0047 13.2774 16.4871 12.7945 17.081 12.7945H21.3862C21.3862 13.9816 22.3521 14.9471 23.5388 14.9471C24.7254 14.9471 25.6914 13.9816 25.6914 12.7945H29.9966C30.5905 12.7945 31.0729 13.2774 31.0729 13.8708V16.1762C29.2211 16.6575 27.844 18.3284 27.844 20.3286V24.6338C26.0635 24.6338 24.6151 26.0822 24.6151 27.8627V30.0153C24.6151 33.8092 27.4369 36.9482 31.0897 37.466C31.0874 37.495 31.0729 37.5199 31.0729 37.5494C31.0729 38.1428 30.5905 38.6257 29.9966 38.6257ZM37.5307 30.0153C37.5307 32.9825 35.1164 35.3968 32.1492 35.3968C29.182 35.3968 26.7677 32.9825 26.7677 30.0153V27.8627C26.7677 27.2694 27.2501 26.7864 27.844 26.7864H36.4544C37.0483 26.7864 37.5307 27.2694 37.5307 27.8627V30.0153Z" fill="white"/>
<path d="M32.1495 28.939C31.5546 28.939 31.0732 29.4209 31.0732 30.0153V32.1679C31.0732 32.7623 31.5546 33.2442 32.1495 33.2442C32.7445 33.2442 33.2258 32.7623 33.2258 32.1679V30.0153C33.2258 29.4209 32.7445 28.939 32.1495 28.939Z" fill="white"/>
<defs>
<linearGradient id="paint0_linear_259_1296" x1="9.6133" y1="42.4929" x2="55.1146" y2="13.8638" gradientUnits="userSpaceOnUse">
<stop stop-color="#6F90B4"/>
<stop offset="0.567308" stop-color="#2E5A88"/>
<stop offset="1" stop-color="#87BBF3"/>
</linearGradient>
</defs>
</svg>
