<svg width="52" height="52" viewBox="0 0 52 52" fill="none" xmlns="http://www.w3.org/2000/svg">
<rect width="51.42" height="51.42" rx="7.75686" fill="url(#paint0_linear_259_1128)"/>
<g clip-path="url(#clip0_259_1128)">
<path d="M38.3434 25.7849C37.1217 25.5653 35.9591 24.8456 35.5157 24.5463C35.0535 24.2341 34.5156 24.0692 33.9601 24.0692C33.4047 24.0692 32.8668 24.2341 32.4044 24.5463C31.9612 24.8454 30.7986 25.5653 29.5769 25.7849C28.5926 25.9618 27.8783 26.8156 27.8783 27.8149V30.4657C27.8783 35.2274 33.3155 37.7093 33.547 37.8127L33.9601 37.9972L34.3733 37.8127C34.6048 37.7093 40.042 35.2274 40.042 30.4657V27.8149C40.042 26.8156 39.3277 25.9618 38.3434 25.7849ZM38.0147 30.4657C38.0147 33.2747 35.0672 35.1465 33.9601 35.7503C32.8517 35.1455 29.9056 33.2741 29.9056 30.4657V27.8149C29.9056 27.7977 29.9179 27.7834 29.9357 27.7802C31.4798 27.5025 32.856 26.6874 33.5388 26.2264C33.6648 26.1413 33.8104 26.0965 33.9601 26.0965C34.1099 26.0965 34.2555 26.1415 34.3815 26.2264C35.0642 26.6876 36.4405 27.5025 37.9846 27.7802C38.0024 27.7834 38.0147 27.7977 38.0147 27.8149V30.4657ZM27.0166 25.2771L37.9639 17.1344V23.5691C38.2276 23.6737 38.4783 23.7495 38.702 23.7895L38.7022 23.7897C39.1664 23.873 39.5996 24.0333 39.9914 24.2545V16.5127C39.9914 14.836 38.6273 13.4718 36.9505 13.4718H17.0829C15.4061 13.4718 14.042 14.836 14.042 16.5127V29.4873C14.042 31.1641 15.4061 32.5283 17.0829 32.5283H26.1174C25.9442 31.8675 25.8544 31.1903 25.8514 30.501H17.0829C16.5239 30.501 16.0693 30.0463 16.0693 29.4873V17.1344L27.0166 25.2771ZM17.2678 15.4991H36.7656L27.0166 22.7505L17.2678 15.4991Z" fill="white"/>
</g>
<defs>
<linearGradient id="paint0_linear_259_1128" x1="9.6133" y1="42.4929" x2="55.1146" y2="13.8638" gradientUnits="userSpaceOnUse">
<stop stop-color="#6F90B4"/>
<stop offset="0.567308" stop-color="#2E5A88"/>
<stop offset="1" stop-color="#87BBF3"/>
</linearGradient>
<clipPath id="clip0_259_1128">
<rect width="26" height="26" fill="white" transform="translate(14.042 12.71)"/>
</clipPath>
</defs>
</svg>
