<svg width="52" height="52" viewBox="0 0 52 52" fill="none" xmlns="http://www.w3.org/2000/svg">
<rect width="51.42" height="51.42" rx="6.16737" fill="url(#paint0_linear_266_738)"/>
<path d="M26.7224 13.767C26.7268 13.7661 26.7312 13.7648 26.7357 13.7641C27.2444 13.6796 32.082 14.8238 32.9253 14.9959C33.3176 15.0759 33.7209 15.1062 34.1159 15.1722C34.502 15.2367 34.8788 15.3414 35.2615 15.4234C35.7059 15.5187 36.1612 15.5906 36.5991 15.7119C36.7367 15.7501 36.8644 15.8424 36.9835 15.9197C37.0882 16.3688 37.0544 17.126 37.052 17.6085L37.0491 19.6538L37.0523 22.9761C37.0559 23.7143 37.097 24.6157 37.0256 25.343C36.8432 27.1949 36.3094 29.228 35.4544 30.8893C34.1832 33.3594 31.9509 35.4524 29.5715 36.8535C28.9587 37.2144 28.002 37.6396 27.3279 37.8064C26.383 37.9693 24.4077 36.9606 23.6098 36.4352C23.0189 36.0462 22.243 35.5342 21.6711 35.1046C21.2766 34.8083 20.7371 34.1637 20.3934 33.7868C19.1965 32.4742 18.3445 31.1474 17.7609 29.4624C17.5236 28.777 17.2875 28.2193 17.1538 27.4684C17.0405 26.8323 16.8682 26.2344 16.85 25.571C16.8079 24.0395 16.8288 22.486 16.8294 20.953L16.8248 17.8894C16.8242 17.5336 16.7794 16.2414 16.8913 15.8818C16.9137 15.8097 17.5313 15.6318 17.6725 15.6018C18.3162 15.4648 19.0028 15.307 19.6535 15.1833C20.0462 15.1086 20.4599 15.073 20.8475 14.9885L24.2495 14.2547C25.0277 14.0864 25.9446 13.869 26.7224 13.767ZM17.7998 16.6495L17.7919 22.0037C17.7917 23.1394 17.7959 24.2603 17.8625 25.3945C17.8957 25.9597 17.927 26.5307 18.0322 27.0881C18.2916 28.4635 18.8715 29.7953 19.5886 30.9914C20.0997 31.8439 20.7125 32.711 21.4107 33.4233C22.8944 34.9372 24.781 36.1864 26.8247 36.8058C26.9266 36.7828 27.0345 36.7602 27.135 36.7337C28.2623 36.3292 29.333 35.7826 30.321 35.1072C32.7194 33.4725 34.96 30.3655 35.6 27.5231C35.9379 26.0229 36.0094 24.6976 36.0103 23.1747V20.3681C36.0097 19.2438 36.0526 17.7363 35.9959 16.6316C35.1617 16.3991 27.1974 14.6845 26.7 14.7906C26.446 14.8323 26.1815 14.9173 25.9403 14.9533C24.9855 15.0956 24.0746 15.3077 23.1368 15.5115L20.966 15.9639C20.5756 16.0485 20.179 16.1443 19.79 16.2236C19.1538 16.3534 18.4259 16.4727 17.7998 16.6495Z" fill="white"/>
<path d="M26.7875 16.2817C27.1353 16.2513 29.5692 16.8286 30.068 16.9347L32.8644 17.5386C33.1977 17.6116 34.3883 17.7197 34.4465 18.1274C34.4918 18.4429 34.4785 18.9337 34.4777 19.2645L34.4747 21.1394L34.4774 23.9495C34.4777 24.3767 34.5044 25.1878 34.4553 25.5765C34.2121 27.5617 33.4841 29.3346 32.3921 31.0068C31.6797 32.0979 30.5638 33.0586 29.5722 33.9105C28.9938 34.4074 27.7621 35.0509 27.0291 35.1959C26.428 35.1542 25.9687 34.8685 25.4523 34.6005C24.6654 34.2402 24.0884 33.7105 23.4299 33.1954C22.1698 32.2096 21.2602 31.0152 20.573 29.5752C20.2984 28.9997 20.0046 28.3811 19.8347 27.7499C19.6928 27.2227 19.544 26.6311 19.4616 26.0897C19.2456 23.5339 19.368 20.9523 19.3422 18.389C19.3387 18.0414 19.4745 17.8437 19.8212 17.7683C20.6361 17.5914 21.4581 17.4004 22.2776 17.2403C23.7538 16.8763 25.3216 16.645 26.7875 16.2817ZM20.3592 18.6618L20.3511 22.9629C20.3514 23.979 20.3332 25.1042 20.4901 26.1074C20.5686 26.6092 20.8529 27.7073 21.0315 28.1968C21.567 29.6647 22.663 31.0668 23.778 32.1474C23.8652 32.2308 24.0111 32.3877 24.1449 32.4778C24.9709 33.0346 25.946 33.7441 26.9008 34.0475C26.9196 34.0534 27.0418 34.0304 27.0629 34.026C27.7696 33.6828 28.5844 33.2381 29.2063 32.7577C29.5127 32.521 30.1079 31.9832 30.3809 31.7007C31.6524 30.385 32.438 29.1114 33.0009 27.3763C33.525 25.7604 33.4533 24.4726 33.4518 22.8066C33.4456 21.4174 33.4536 20.0282 33.475 18.6391C32.6877 18.5654 31.6933 18.2009 30.8803 18.1043C30.5409 18.064 30.1904 17.9907 29.8513 17.9401C29.3287 17.8529 27.1173 17.3063 26.7484 17.3693C26.1567 17.472 25.5923 17.6369 24.9995 17.7239C24.6241 17.779 24.2485 17.9047 23.8775 17.9628C23.0133 18.0981 22.1622 18.2348 21.3122 18.4454C20.9966 18.5235 20.67 18.5472 20.3592 18.6618Z" fill="white"/>
<path d="M25.2766 19.4828C26.3966 19.4509 27.5445 19.5207 28.6671 19.4754C29.3695 19.447 29.126 20.4964 29.0638 20.955C28.7701 23.121 28.5434 25.3013 28.2266 27.4628C28.1126 27.6642 27.8528 27.778 27.6253 27.7642C27.022 27.7276 26.3875 27.8341 25.7988 27.6978C25.5748 27.6459 25.5531 27.3069 25.4961 27.1195C25.3716 26.5191 25.3497 25.9012 25.2694 25.299L24.6836 20.894C24.6519 20.6644 24.531 19.8185 24.65 19.6328C24.7369 19.497 25.1117 19.4926 25.2766 19.4828ZM25.6081 20.3901C25.6693 20.6799 25.6621 20.9532 25.709 21.2498C25.8442 22.1052 25.925 22.952 26.0238 23.8077C26.1374 24.7922 26.3629 25.824 26.393 26.8233C26.6085 26.7986 27.3635 26.8173 27.4556 26.7332C27.4699 26.6427 27.4754 26.5856 27.4805 26.4945C27.5488 26.1136 27.5378 25.7947 27.5847 25.4351C27.6456 24.9677 27.7047 24.4966 27.7651 24.0295L28.1075 21.3455C28.1463 21.0347 28.2198 20.7148 28.2425 20.4063C27.6502 20.3733 26.6742 20.3561 26.0807 20.3908C25.886 20.4051 25.8026 20.4053 25.6081 20.3901Z" fill="white"/>
<path d="M25.9736 28.6488C26.4978 28.6087 27.3323 28.6344 27.8726 28.6503C27.9343 28.6521 28.0951 28.7166 28.158 28.7429C28.3407 29.2416 28.3472 30.7008 28.2769 31.2059C28.1366 31.3226 28.0514 31.3757 27.8758 31.4182C27.6178 31.4347 25.8227 31.5122 25.7081 31.3609C25.3681 30.9119 25.4865 29.3713 25.6244 28.8025C25.6455 28.7155 25.8972 28.6645 25.9736 28.6488ZM26.5007 30.4895C26.7799 30.4846 27.0426 30.4814 27.3215 30.4578C27.3412 30.424 27.322 29.7369 27.3436 29.5807C27.119 29.5903 26.7406 29.6134 26.5299 29.5768C26.5009 29.8763 26.5396 30.2031 26.5007 30.4895Z" fill="white"/>
<path d="M7.33398 23.4957C7.71678 23.4278 8.12951 23.6379 8.44281 23.8386C8.73513 24.0258 8.86475 24.2615 9.03813 24.5467C10.6364 24.4955 12.2603 24.558 13.8618 24.5343C14.5685 24.5238 15.4675 24.4828 16.1429 24.6344C16.2885 25.0648 16.361 25.193 16.0588 25.5639C15.6372 25.7205 14.2522 25.658 13.7237 25.6612C13.2319 25.6463 9.24419 25.601 9.08219 25.6815C8.77325 25.835 8.69031 26.4053 7.98636 26.661C7.57786 26.8094 7.12566 26.7751 6.73442 26.5915C6.36448 26.4179 6.1166 26.1361 5.98375 25.753C5.75481 25.0928 5.91466 24.5351 6.20969 23.9279C6.60834 23.7182 6.88581 23.5333 7.33398 23.4957ZM7.03801 24.7038C6.84569 25.1754 6.94519 25.6142 7.53145 25.6256C8.26825 25.3449 8.01239 24.558 7.40995 24.565L7.03801 24.7038Z" fill="white"/>
<path d="M46.3167 23.4941C47.0567 23.4105 47.7603 23.9474 47.9814 24.6355C48.4138 25.9818 46.9947 27.2536 45.7117 26.5546C45.352 26.3587 45.0209 26.055 44.8967 25.6569C44.4682 25.6735 43.9064 25.6554 43.4659 25.6552L40.497 25.6548C39.7391 25.6578 38.9606 25.6873 38.2073 25.6309C37.4347 25.5729 37.4209 24.5832 38.2144 24.5548C40.4061 24.4762 42.6273 24.6006 44.8176 24.5246C44.9132 24.4606 45.05 24.2119 45.1432 24.1007C45.4217 23.7693 45.892 23.5449 46.3167 23.4941ZM46.6288 25.6508C46.8629 25.5409 46.945 25.405 47.0729 25.1767C46.9606 24.8057 46.8017 24.5537 46.3576 24.5711C46.1782 24.6531 46.0441 24.7218 45.9738 24.9191C45.9209 25.063 45.9311 25.2224 46.0017 25.3585C46.1273 25.6048 46.3673 25.691 46.6288 25.6508Z" fill="white"/>
<path d="M11.7606 30.4877C11.9303 30.4888 12.5752 30.5113 12.6803 30.3644C12.9593 29.9747 13.5098 29.3874 13.8996 29.1213C14.0295 29.0322 14.1734 28.9655 14.3255 28.9238C14.8277 28.7881 15.6494 28.8084 16.144 28.9995C16.6372 30.1738 15.3873 29.8836 14.642 29.9637C14.3181 30.3011 13.9882 30.6452 13.6632 30.9803C13.2432 31.4133 13.0996 31.5818 12.4731 31.5958C12.2231 31.6005 11.9731 31.604 11.7231 31.6063C11.4287 32.0872 11.1618 32.4627 10.5711 32.6105C9.68198 32.8329 8.81727 32.3193 8.61645 31.4226C8.56992 31.2191 8.55636 31.0095 8.5763 30.8017C8.59509 30.756 8.66553 30.3848 8.68853 30.2985C8.84795 29.9392 9.01968 29.7348 9.40142 29.5888C9.91048 29.3967 10.4752 29.4133 10.972 29.635C11.376 29.816 11.5352 30.1185 11.7606 30.4877ZM10.2582 31.5373C10.5335 31.4241 10.5679 31.286 10.722 31.0222C10.6614 30.8738 10.6199 30.7431 10.5027 30.6324L10.4901 30.6203C10.3789 30.5154 10.1589 30.4505 10.0102 30.4549C9.29468 30.8066 9.59636 31.6016 10.2582 31.5373Z" fill="white"/>
<path d="M43.4615 17.6329C43.6791 17.6153 43.9247 17.6011 44.1333 17.6588C44.5112 17.7679 44.9468 18.0471 45.1341 18.4025C45.8115 19.6879 44.7018 21.2457 43.2374 20.7757C42.6465 20.586 42.4132 20.2597 42.1388 19.7495C41.8365 19.7335 41.6074 19.7356 41.31 19.7858C40.9068 20.1846 40.6035 20.5339 40.1641 20.942C39.6191 21.4474 39.1471 21.4009 38.4662 21.3796C37.7924 21.3585 37.2621 20.9184 37.9503 20.3783C38.2109 20.3229 39.1335 20.3459 39.2188 20.2595C40.4268 19.0371 40.3153 18.6021 42.1832 18.6278C42.4535 18.0503 42.848 17.7829 43.4615 17.6329ZM43.4112 19.6742C43.5771 19.7539 43.6533 19.7923 43.8385 19.796C44.5638 19.5562 44.3377 18.6313 43.7135 18.6854C43.2006 18.8704 43.075 19.2396 43.4112 19.6742Z" fill="white"/>
<path d="M38.5069 28.8575C39.2904 28.7991 39.6575 28.8019 40.2198 29.41C40.4881 29.7001 41.0095 30.1419 41.3022 30.4376C41.4142 30.5507 41.9931 30.464 42.1837 30.4407C42.2904 30.2518 42.321 30.0914 42.4901 29.9027C42.7442 29.6193 43.2981 29.4822 43.6663 29.4584C44.0422 29.4399 44.5687 29.5594 44.8419 29.8225C45.4325 30.3907 45.5222 31.47 44.9528 32.0802C44.1857 33.0535 42.636 32.7451 42.2051 31.5936C41.939 31.583 41.041 31.6098 40.861 31.4873C40.2842 31.0951 39.726 30.4614 39.2316 29.9609C38.9148 29.951 37.8766 29.9496 37.7687 29.7835C37.2407 28.9693 38.2028 28.8815 38.5069 28.8575ZM43.8631 31.5699C44.0475 31.5063 44.1701 31.446 44.2598 31.2582C44.321 31.1294 44.3257 30.9809 44.2722 30.8487C44.1795 30.6142 43.9801 30.5199 43.744 30.4927C43.5554 30.5218 43.4648 30.5292 43.3463 30.6898C43.2528 30.8162 43.2148 30.9753 43.2419 31.1301C43.2663 31.2785 43.3498 31.4108 43.4737 31.4969C43.5913 31.5788 43.7219 31.5734 43.8631 31.5699Z" fill="white"/>
<path d="M9.93457 17.6344C10.7362 17.578 11.3939 17.8961 11.7207 18.6533C12.0819 18.6175 12.5598 18.5806 12.9068 18.694C13.3698 18.8453 14.2053 19.9464 14.7138 20.3218C15.2996 20.315 16.7582 20.1993 16.1023 21.2345C15.7681 21.4024 15.5046 21.3902 15.1408 21.3877C14.7144 21.3847 14.4281 21.4244 14.0613 21.1777C13.4546 20.7661 12.958 20.0198 12.4742 19.7414C11.7114 19.727 11.7632 19.688 11.3249 20.3148C10.8748 20.9585 9.78004 21.0165 9.1743 20.5303C8.44239 19.9428 8.29468 18.597 9.09313 17.9967C9.36621 17.7937 9.59839 17.6759 9.93457 17.6344ZM9.6676 19.4817C9.87368 19.6843 9.93504 19.7483 10.2348 19.7265C10.6404 19.5487 10.7541 19.3143 10.5627 18.9125C10.5502 18.8861 10.5372 18.8599 10.524 18.8339C10.3262 18.7083 10.2729 18.6738 10.0341 18.6547C9.61812 18.824 9.51995 19.063 9.6676 19.4817Z" fill="white"/>
<defs>
<linearGradient id="paint0_linear_266_738" x1="9.6133" y1="42.4929" x2="55.1146" y2="13.8638" gradientUnits="userSpaceOnUse">
<stop stop-color="#6F90B4"/>
<stop offset="0.567308" stop-color="#2E5A88"/>
<stop offset="1" stop-color="#87BBF3"/>
</linearGradient>
</defs>
</svg>
