<svg width="52" height="52" viewBox="0 0 52 52" fill="none" xmlns="http://www.w3.org/2000/svg">
<rect width="51.4241" height="51.4241" rx="5.92264" fill="url(#paint0_linear_259_1120)"/>
<g clip-path="url(#clip0_259_1120)">
<path d="M34.2048 17.5946C33.6996 15.913 32.6933 14.3994 31.323 13.2778C29.7461 11.9871 27.7534 11.2762 25.7121 11.2762C23.6708 11.2762 21.6781 11.9871 20.1011 13.2778C18.7308 14.3994 17.7245 15.9131 17.2193 17.5946C13.5198 17.8299 10.582 20.9145 10.582 24.6724C10.582 28.583 13.7636 31.7646 17.6742 31.7646H18.679V32.2963C18.679 36.2585 21.6538 39.6306 25.5985 40.1402C25.6362 40.1451 25.6742 40.1475 25.7121 40.1475C25.75 40.1475 25.788 40.1451 25.8257 40.1402C29.7704 39.6306 32.7452 36.2585 32.7452 32.2963V31.7625C32.7596 31.7632 32.7738 31.7647 32.7884 31.7647H33.7499C37.6606 31.7647 40.8422 28.5831 40.8422 24.6724C40.8422 20.9145 37.9044 17.8299 34.2048 17.5946ZM30.9722 32.2963C30.9722 35.3318 28.719 37.9211 25.7121 38.366C22.7052 37.9211 20.452 35.3318 20.452 32.2963V27.1062L25.7121 25.2481L30.9722 27.1062V32.2963ZM33.7499 29.9915H32.7884C32.7738 29.9915 32.7596 29.993 32.7452 29.9937V26.4791C32.7452 26.1034 32.5083 25.7684 32.154 25.6432L26.0074 23.4719C25.8164 23.4044 25.6078 23.4044 25.4168 23.4719L19.2702 25.6432C18.9159 25.7684 18.679 26.1033 18.679 26.4791V29.9915H17.6742C14.7413 29.9915 12.3551 27.6054 12.3551 24.6724C12.3551 21.7394 14.7413 19.3532 17.6742 19.3532H17.91C18.3282 19.3532 18.6896 19.0609 18.777 18.6519C19.4705 15.4056 22.3871 13.0493 25.7121 13.0493C29.037 13.0493 31.9537 15.4056 32.6472 18.6519C32.7346 19.0609 33.096 19.3532 33.5142 19.3532H33.7499C36.6829 19.3532 39.0691 21.7394 39.0691 24.6724C39.0691 27.6054 36.6829 29.9915 33.7499 29.9915Z" fill="white"/>
<path d="M24.422 31.2451C24.0751 30.8999 23.5137 30.9011 23.1683 31.2482C22.8229 31.5952 22.8243 32.1565 23.1713 32.5019L24.5076 33.8317C24.6805 34.0038 24.9067 34.0898 25.1329 34.0898C25.3591 34.0898 25.5853 34.0038 25.7583 33.8317L28.2525 31.3494C28.5996 31.004 28.601 30.4427 28.2556 30.0957C27.9102 29.7486 27.3488 29.7473 27.0018 30.0927L25.1329 31.9526L24.422 31.2451Z" fill="white"/>
</g>
<defs>
<linearGradient id="paint0_linear_259_1120" x1="9.61408" y1="42.4963" x2="55.119" y2="13.8649" gradientUnits="userSpaceOnUse">
<stop stop-color="#6F90B4"/>
<stop offset="0.567308" stop-color="#2E5A88"/>
<stop offset="1" stop-color="#87BBF3"/>
</linearGradient>
<clipPath id="clip0_259_1120">
<rect width="30.2601" height="30.2601" fill="white" transform="translate(10.582 10.582)"/>
</clipPath>
</defs>
</svg>
