<svg width="282" height="255" viewBox="0 0 282 255" fill="none" xmlns="http://www.w3.org/2000/svg">
<g clip-path="url(#clip0_259_1163)">
<path opacity="0.5" d="M193.352 0.000213623C144.466 0.000213623 104.71 39.8257 104.71 88.776C104.71 137.726 144.466 177.558 193.365 177.558C242.264 177.558 282.013 137.746 282.013 88.776C282.013 39.8064 242.232 0.000213623 193.352 0.000213623ZM193.352 176.788C144.889 176.788 105.467 137.309 105.467 88.776C105.467 40.2431 144.889 0.764361 193.352 0.764361C241.815 0.764361 281.231 40.2752 281.231 88.776C281.231 137.277 241.809 176.788 193.352 176.788ZM193.352 26.4243C181.036 26.423 168.996 30.0793 158.755 36.9308C148.514 43.7823 140.532 53.5213 135.818 64.916C131.105 76.3107 129.871 88.8494 132.273 100.946C134.676 113.043 140.606 124.155 149.315 132.876C158.024 141.598 169.12 147.537 181.199 149.943C193.279 152.349 205.799 151.113 217.178 146.393C228.556 141.672 238.281 133.678 245.123 123.423C251.964 113.167 255.615 101.11 255.614 88.776C255.595 72.245 249.03 56.3965 237.357 44.7073C225.685 33.0181 209.859 26.4429 193.352 26.4243ZM193.352 150.357C181.187 150.358 169.295 146.747 159.18 139.98C149.064 133.213 141.18 123.593 136.524 112.339C131.868 101.084 130.649 88.6992 133.021 76.7507C135.394 64.8022 141.251 53.8266 149.853 45.2119C158.454 36.5972 169.413 30.7303 181.344 28.3531C193.275 25.976 205.642 27.1954 216.881 31.8571C228.12 36.5188 237.726 44.4135 244.485 54.5427C251.244 64.6719 254.851 76.5807 254.851 88.7631C254.841 105.096 248.359 120.757 236.828 132.308C225.298 143.858 209.661 150.355 193.352 150.37V150.357ZM194.115 18.9626H192.557V7.74442H194.089L194.115 18.9626ZM192.583 156.38H194.115V167.605H192.557L192.583 156.38ZM186.606 19.3029L185.632 8.11686L187.151 7.98201L188.133 19.1745L186.606 19.3029ZM200.072 156.079L201.047 167.265L199.527 167.393L198.546 156.207L200.072 156.079ZM180.682 20.1506L178.758 9.09291L180.265 8.82963L182.188 19.8873L180.682 20.1506ZM206.022 155.218L207.946 166.282L206.439 166.546L204.516 155.488L206.022 155.218ZM174.853 21.5183L171.948 10.6662L173.423 10.2744L176.328 21.1202L174.853 21.5183ZM211.845 153.87L214.749 164.715L213.275 165.114L210.37 154.268L211.845 153.87ZM169.159 23.3805L165.312 12.8302L166.748 12.3036L170.595 22.8604L169.159 23.3805ZM217.564 152.007L221.412 162.564L219.975 163.084L216.128 152.534L217.564 152.007ZM163.702 25.7436L158.964 15.5657L160.349 14.9235L165.087 25.1014L163.702 25.7436ZM223.085 149.676L227.824 159.854L226.439 160.497L221.7 150.319L223.085 149.676ZM158.38 28.5626L152.802 18.8406L154.084 18.0764L159.688 27.7984L158.38 28.5626ZM228.317 146.819L233.928 156.547L232.601 157.312L226.997 147.59L228.317 146.819ZM153.366 31.876L146.954 22.6742L148.236 21.7944L154.648 30.9963L153.366 31.876ZM233.332 143.608L239.744 152.804L238.494 153.683L232.081 144.488L233.332 143.608ZM148.691 35.6068L141.446 26.9444L142.619 25.9555L149.826 34.5602L148.691 35.6068ZM238.038 139.839L245.246 148.444L244.079 149.439L236.871 140.841L238.038 139.839ZM144.286 39.6331L136.361 31.7026L137.412 30.6431L145.344 38.58L144.286 39.6331ZM242.392 135.729L250.337 143.66L249.26 144.738L241.328 136.802L242.392 135.729ZM140.291 44.128L131.706 36.8911L132.687 35.716L141.26 42.9337L140.291 44.128ZM246.419 131.279L254.992 138.523L254.011 139.691L245.419 132.474L246.419 131.279ZM136.701 48.9056L127.518 42.4842L128.391 41.1999L137.579 47.6213L136.701 48.9056ZM249.997 126.482L259.179 132.904L258.307 134.156L249.118 127.735L249.997 126.482ZM133.565 53.9977L123.857 48.3854L124.62 47.0562L134.335 52.6685L133.565 53.9977ZM253.184 121.422L262.892 127.035L262.129 128.364L252.414 122.745L253.184 121.422ZM130.84 59.3467L120.677 54.6013L121.318 53.2143L131.481 57.9597L130.84 59.3467ZM255.877 116.041L266.04 120.787L265.399 122.174L255.236 117.428L255.877 116.041ZM128.609 64.9077L118.073 61.0548L118.593 59.6164L129.128 63.4693L128.609 64.9077ZM258.089 110.5L268.624 114.352L268.105 115.791L257.57 111.938L258.089 110.5ZM126.871 70.6869L116.041 67.778L116.438 66.3011L127.268 69.1715L126.871 70.6869ZM259.827 104.778L270.657 107.681L270.259 109.164L259.429 106.255L259.827 104.778ZM125.64 76.5175L114.598 74.5911L114.861 73.0821L125.909 75.0085L125.64 76.5175ZM261.058 98.8704L272.1 100.797L271.837 102.306L260.795 100.379L261.058 98.8704ZM124.928 82.4638L113.758 81.4877L113.886 79.9594L125.056 80.9419L124.928 82.4638ZM261.77 92.9306L272.946 93.9131L272.811 95.435L261.641 94.4589L261.77 92.9306ZM124.729 88.4357H113.514V86.9009H124.729V88.4357ZM273.183 86.9009V88.4357H261.968V86.9009H273.183ZM125.063 94.4204L113.893 95.3964L113.764 93.8746L124.928 92.9306L125.063 94.4204ZM261.641 80.9355L272.811 79.953L272.946 81.4813L261.77 82.4573L261.641 80.9355ZM125.909 100.379L114.861 102.306L114.598 100.797L125.64 98.8704L125.909 100.379ZM260.795 75.0085L271.837 73.0821L272.1 74.5911L261.058 76.5175L260.795 75.0085ZM127.268 106.216L116.438 109.125L116.041 107.642L126.871 104.74L127.268 106.216ZM259.429 69.1715L270.259 66.2626L270.657 67.7395L259.827 70.6484L259.429 69.1715ZM129.128 111.912L118.593 115.765L118.073 114.327L128.609 110.474L129.128 111.912ZM257.57 63.4693L268.105 59.6164L268.624 61.0548L258.089 64.9077L257.57 63.4693ZM131.481 117.409L121.318 122.154L120.677 120.767L130.84 116.048L131.481 117.409ZM255.236 57.9405L265.399 53.195L266.04 54.5821L255.877 59.3275L255.236 57.9405ZM134.309 122.713L124.588 128.332L123.825 127.003L133.565 121.39L134.309 122.713ZM252.389 52.6685L262.103 47.0562L262.866 48.3854L253.158 53.9977L252.389 52.6685ZM137.611 127.735L128.423 134.156L127.551 132.904L136.733 126.482L137.611 127.735ZM249.183 47.6534L258.371 41.232L259.243 42.5163L250.061 48.9377L249.183 47.6534ZM141.26 132.448L132.674 139.666L131.706 138.523L140.291 131.305L141.26 132.448ZM245.406 42.9337L253.998 35.716L254.979 36.8911L246.419 44.128L245.406 42.9337ZM145.376 136.827L137.412 144.764L136.361 143.66L144.286 135.716L145.376 136.827ZM241.334 38.58L249.26 30.6431L250.337 31.7219L242.411 39.6331L241.334 38.58ZM149.826 140.828L142.619 149.439L141.446 148.456L148.659 139.852L149.826 140.828ZM236.871 34.5602L244.079 25.9555L245.246 26.9444L238.038 35.5426L236.871 34.5602ZM154.616 144.424L148.204 153.619L146.922 152.74L153.334 143.544L154.616 144.424ZM232.081 30.9642L238.494 21.7623L239.744 22.6421L233.332 31.8439L232.081 30.9642ZM159.701 147.59L154.084 157.312L152.802 156.547L158.412 146.819L159.701 147.59ZM227.029 27.7984L232.633 18.0764L233.96 18.8406L228.35 28.5626L227.029 27.7984ZM163.657 149.651L165.042 150.293L160.304 160.471L158.919 159.829L163.657 149.651ZM223.04 25.7179L221.655 25.0758L226.394 14.9043L227.779 15.5464L223.04 25.7179ZM169.159 152.007L170.602 152.534L166.754 163.084L165.318 162.564L169.159 152.007ZM217.564 23.3805L216.128 22.8604L219.975 12.3036L221.412 12.8302L217.564 23.3805ZM174.853 153.87L176.328 154.268L173.423 165.114L171.948 164.715L174.853 153.87ZM211.845 21.5183L210.37 21.1202L213.275 10.2744L214.749 10.6662L211.845 21.5183ZM180.682 155.218L182.188 155.488L180.265 166.546L178.758 166.282L180.682 155.218ZM206.022 20.1506L204.516 19.8873L206.439 8.82963L207.946 9.09291L206.022 20.1506ZM186.606 156.085L188.133 156.213L187.151 167.419L185.632 167.29L186.606 156.085ZM200.072 19.3093L198.546 19.1809L199.527 7.98843L201.047 8.12328L200.072 19.3093Z" fill="url(#paint0_linear_259_1163)"/>
<path d="M78.2803 128.183C68.7279 128.182 59.3897 131.018 51.4465 136.331C43.5034 141.645 37.3122 149.199 33.6557 158.036C29.9993 166.874 29.042 176.599 30.9048 185.981C32.7676 195.364 37.3668 203.982 44.121 210.747C50.8751 217.512 59.4806 222.119 68.8494 223.986C78.2181 225.852 87.9292 224.895 96.7546 221.234C105.58 217.574 113.123 211.375 118.43 203.421C123.738 195.467 126.57 186.116 126.57 176.549C126.555 163.728 121.463 151.436 112.41 142.369C103.357 133.302 91.0835 128.2 78.2803 128.183ZM89.7388 174.642C89.6939 170.289 89.5015 165.145 89.0976 159.873C93.6515 159.51 98.1758 158.84 102.64 157.87C104.141 163.334 104.964 168.963 105.089 174.629L89.7388 174.642ZM70.6178 174.642C70.6627 169.319 70.8807 164.49 71.2269 160.149C73.4584 160.265 75.8052 160.329 78.2803 160.329C80.7554 160.329 83.0958 160.265 85.3337 160.149C85.6799 164.49 85.8979 169.319 85.9428 174.642H70.6178ZM85.9364 178.45C85.8915 183.773 85.6735 188.609 85.3272 192.943C83.0958 192.828 80.749 192.763 78.2739 192.763C75.7988 192.763 73.4519 192.828 71.2205 192.943C70.8743 188.609 70.6562 183.773 70.6114 178.45H85.9364ZM88.7449 156.091C87.8472 147.011 86.2506 138.111 83.6537 132.897C91.2521 135.465 97.6963 143.415 101.479 154.222C97.2788 155.117 93.0253 155.741 88.7449 156.091ZM84.9874 156.348C82.865 156.457 80.6271 156.521 78.2803 156.521C75.9334 156.521 73.6956 156.457 71.5732 156.348C73.2275 140.243 76.5875 131.998 78.2803 131.998C79.9731 131.998 83.3331 140.243 84.9874 156.348ZM72.9069 132.897C70.3036 138.117 68.7134 147.024 67.7772 156.084C63.4985 155.736 59.2468 155.109 55.0491 154.209C58.8707 143.409 65.3021 135.472 72.9069 132.897ZM67.4758 159.867C67.059 165.126 66.8346 170.269 66.8346 174.636H51.4903C51.6141 168.97 52.4346 163.341 53.9334 157.876C58.3976 158.848 62.9219 159.52 67.4758 159.886V159.867ZM47.6751 174.636H33.8377C34.1391 167.129 36.346 159.823 40.2498 153.407C43.4648 154.907 46.8111 156.106 50.2464 156.99C48.6637 162.745 47.8 168.674 47.6751 174.642V174.636ZM47.6751 178.444C47.7984 184.409 48.6599 190.336 50.24 196.09C46.8034 196.972 43.4566 198.173 40.2434 199.679C36.3406 193.261 34.1339 185.953 33.8313 178.444H47.6751ZM51.4839 178.444H66.8154C66.8602 182.797 67.059 187.941 67.4566 193.213C62.9006 193.577 58.3742 194.246 53.9077 195.216C52.4171 189.748 51.6052 184.117 51.4903 178.45L51.4839 178.444ZM67.8092 196.995C68.7134 206.075 70.3036 214.975 72.939 220.196C65.3342 217.627 58.8964 209.671 55.1132 198.864C59.3011 197.972 63.5418 197.35 67.8092 197.002V196.995ZM71.5732 196.738C73.6956 196.629 75.927 196.565 78.2803 196.565C80.6335 196.565 82.8586 196.629 84.9874 196.738C83.3331 212.843 79.9667 221.095 78.2803 221.095C76.5939 221.095 73.2275 212.85 71.5732 196.745V196.738ZM83.6537 220.196C86.2506 214.969 87.8472 206.069 88.7449 197.002C93.0345 197.351 97.2969 197.98 101.505 198.883C97.6899 209.684 91.2457 217.621 83.6537 220.202V220.196ZM89.0848 193.226C89.5016 187.967 89.726 182.823 89.726 178.457H105.064C104.938 184.123 104.115 189.752 102.614 195.216C98.1545 194.244 93.6345 193.572 89.0848 193.207V193.226ZM108.879 178.457H122.716C122.412 185.965 120.205 193.273 116.304 199.692C113.088 198.188 109.74 196.986 106.301 196.103C107.892 190.349 108.758 184.419 108.879 178.45V178.457ZM108.879 174.649C108.752 168.681 107.879 162.753 106.282 157.003C109.719 156.118 113.067 154.918 116.285 153.42C120.185 159.837 122.392 167.142 122.697 174.649H108.879ZM114.131 150.215C111.231 151.509 108.228 152.558 105.154 153.349C102.467 145.643 98.4786 139.177 93.6566 134.727C101.845 137.774 108.963 143.156 114.131 150.209V150.215ZM62.9168 134.746C58.0948 139.164 54.1065 145.585 51.4198 153.33C48.3463 152.538 45.3436 151.492 42.4428 150.202C47.6129 143.156 54.7306 137.781 62.9168 134.74V134.746ZM42.3979 202.89C45.2979 201.599 48.3007 200.553 51.3749 199.763C54.0616 207.468 58.0564 213.928 62.8719 218.385C54.6909 215.328 47.5825 209.939 42.4235 202.884L42.3979 202.89ZM93.6181 218.366C98.4337 213.935 102.422 207.494 105.115 199.776C108.189 200.563 111.192 201.607 114.092 202.896C108.93 209.94 101.822 215.316 93.6438 218.359L93.6181 218.366Z" fill="#DCE4ED"/>
<path d="M144.465 255.001C217.959 255.001 277.537 251.12 277.537 246.332C277.537 241.544 217.959 237.663 144.465 237.663C70.9721 237.663 11.394 241.544 11.394 246.332C11.394 251.12 70.9721 255.001 144.465 255.001Z" fill="url(#paint1_radial_259_1163)" style="mix-blend-mode:multiply"/>
<path d="M212.876 46.697C212.876 46.697 184.099 31.1315 144.465 29.1088C104.832 31.1315 76.054 46.697 76.054 46.697C76.054 46.697 71.3667 78.0269 47.5327 78.0269C47.5327 223.504 144.465 237.663 144.465 237.663C144.465 237.663 241.398 223.504 241.398 78.0269C217.564 78.0269 212.876 46.697 212.876 46.697Z" fill="url(#paint2_linear_259_1163)"/>
<path d="M211.403 48.5841C211.403 48.5841 183.24 33.3397 144.466 31.3555C105.692 33.3397 77.5297 48.5841 77.5297 48.5841C77.5297 48.5841 72.9643 79.2205 49.624 79.2205C49.624 221.564 144.466 235.415 144.466 235.415C144.466 235.415 239.308 221.564 239.308 79.2205C215.968 79.2205 211.403 48.5841 211.403 48.5841Z" fill="url(#paint3_linear_259_1163)"/>
<path d="M209.671 50.7802C209.671 50.7802 182.239 35.9275 144.465 34.0011C106.691 35.9275 79.2602 50.7802 79.2602 50.7802C79.2602 50.7802 74.8166 80.6204 52.0791 80.6204C52.0791 219.278 144.465 232.769 144.465 232.769C144.465 232.769 236.852 219.284 236.852 80.6204C214.114 80.6204 209.671 50.7802 209.671 50.7802Z" fill="url(#paint4_linear_259_1163)"/>
<path d="M203.894 58.0945C203.894 58.0945 178.887 44.5582 144.466 42.7988C110.039 44.5582 85.0383 58.0945 85.0383 58.0945C85.0383 58.0945 80.9858 85.2891 60.2617 85.2891C60.2617 211.675 144.466 223.991 144.466 223.991C144.466 223.991 228.67 211.694 228.67 85.2891C207.946 85.2891 203.894 58.0945 203.894 58.0945Z" fill="url(#paint5_linear_259_1163)"/>
<path d="M202.246 60.1823C202.246 60.1823 177.937 47.0249 144.466 45.3168C110.995 47.0249 86.6862 60.1823 86.6862 60.1823C86.6862 60.1823 82.7427 86.6256 62.5957 86.6256C62.5957 209.499 144.466 221.475 144.466 221.475C144.466 221.475 226.336 209.518 226.336 86.6256C206.189 86.6256 202.246 60.1823 202.246 60.1823Z" fill="url(#paint6_linear_259_1163)"/>
<path d="M144.466 218.944V47.8265C111.95 49.4896 88.334 62.2746 88.334 62.2746C88.334 62.2746 84.4867 87.9602 64.936 87.9602C64.9553 207.328 144.466 218.944 144.466 218.944Z" fill="url(#paint7_linear_259_1163)"/>
<path d="M144.465 218.944V47.8265C176.981 49.4896 200.597 62.2746 200.597 62.2746C200.597 62.2746 204.444 87.9602 223.995 87.9602C223.976 207.328 144.465 218.944 144.465 218.944Z" fill="url(#paint8_linear_259_1163)"/>
<path d="M194.519 182.136C208.702 163.553 220.372 134.702 220.372 90.0279C201.694 90.0279 198.039 65.511 198.039 65.511C198.039 65.511 175.5 53.3104 144.465 51.7243C113.431 53.3104 90.8919 65.511 90.8919 65.511C90.8919 65.511 87.237 90.0279 68.5584 90.0279C68.4976 102.03 69.4587 114.015 71.431 125.853C99.8881 161.241 161.137 181.135 194.519 182.136Z" fill="url(#paint9_linear_259_1163)" style="mix-blend-mode:screen"/>
<path d="M177.456 123.593H111.468C108.015 123.593 105.216 126.396 105.216 129.854V175.876C105.216 179.333 108.015 182.137 111.468 182.137H177.456C180.908 182.137 183.707 179.333 183.707 175.876V129.854C183.707 126.396 180.908 123.593 177.456 123.593Z" fill="url(#paint10_linear_259_1163)"/>
<path d="M129.296 123.592V108.399C129.296 104.37 130.894 100.505 133.739 97.6561C136.584 94.8068 140.443 93.2062 144.467 93.2062C148.491 93.2062 152.349 94.8068 155.195 97.6561C158.04 100.505 159.638 104.37 159.638 108.399V123.592H171.86V108.399C171.86 101.124 168.974 94.1462 163.837 89.0017C158.699 83.8572 151.732 80.967 144.467 80.967C137.202 80.967 130.234 83.8572 125.097 89.0017C119.96 94.1462 117.074 101.124 117.074 108.399V123.592H129.296Z" fill="url(#paint11_linear_259_1163)"/>
<g style="mix-blend-mode:screen" opacity="0.8">
<path d="M144.1 169.969L123.741 150.094L130.141 143.519L143.324 156.394L160.265 135.588L167.369 141.387L144.1 169.969Z" fill="white"/>
</g>
</g>
<defs>
<linearGradient id="paint0_linear_259_1163" x1="119.867" y1="176.502" x2="251.221" y2="30.3471" gradientUnits="userSpaceOnUse">
<stop stop-color="#6F90B4"/>
<stop offset="1" stop-color="#2E5A88"/>
</linearGradient>
<radialGradient id="paint1_radial_259_1163" cx="0" cy="0" r="1" gradientUnits="userSpaceOnUse" gradientTransform="translate(142.944 246.118) rotate(-0.0655047) scale(103.556 5.96388)">
<stop stop-color="#BCBCBC"/>
<stop offset="1" stop-color="#C3C3C3" stop-opacity="0"/>
</radialGradient>
<linearGradient id="paint2_linear_259_1163" x1="47.5327" y1="133.386" x2="241.398" y2="133.386" gradientUnits="userSpaceOnUse">
<stop stop-color="#D0E7FD"/>
<stop offset="0.06" stop-color="#D8EBFC"/>
<stop offset="0.28" stop-color="#F1F6FB"/>
<stop offset="0.41" stop-color="#FAFAFA"/>
<stop offset="0.52" stop-color="#F1F6FB"/>
<stop offset="0.71" stop-color="#D9EBFC"/>
<stop offset="0.77" stop-color="#D0E7FD"/>
<stop offset="1" stop-color="#FAFAFA"/>
</linearGradient>
<linearGradient id="paint3_linear_259_1163" x1="49.624" y1="133.385" x2="239.308" y2="133.385" gradientUnits="userSpaceOnUse">
<stop stop-color="#ADD1F4"/>
<stop offset="0.08" stop-color="#8CB4E3"/>
<stop offset="0.2" stop-color="#5685C8"/>
<stop offset="0.24" stop-color="#5C8ACB"/>
<stop offset="0.29" stop-color="#6D99D2"/>
<stop offset="0.34" stop-color="#8AB1DE"/>
<stop offset="0.4" stop-color="#B1D2EE"/>
<stop offset="0.42" stop-color="#BFDDF4"/>
<stop offset="0.52" stop-color="#95BCE2"/>
<stop offset="0.63" stop-color="#6A9CD1"/>
<stop offset="0.69" stop-color="#5A8FCA"/>
<stop offset="0.72" stop-color="#689AD0"/>
<stop offset="0.79" stop-color="#8DB6DF"/>
<stop offset="0.86" stop-color="#BFDDF4"/>
<stop offset="0.89" stop-color="#BBDAF2"/>
<stop offset="0.92" stop-color="#AFD1ED"/>
<stop offset="0.94" stop-color="#9CC2E5"/>
<stop offset="0.97" stop-color="#80ACDA"/>
<stop offset="1" stop-color="#5A8FCA"/>
</linearGradient>
<linearGradient id="paint4_linear_259_1163" x1="86.6235" y1="198.261" x2="256.68" y2="98.7958" gradientUnits="userSpaceOnUse">
<stop stop-color="#6F90B4"/>
<stop offset="0.567308" stop-color="#2E5A88"/>
<stop offset="1" stop-color="#87BBF3"/>
</linearGradient>
<linearGradient id="paint5_linear_259_1163" x1="60.2617" y1="-27.1495" x2="228.67" y2="-27.1495" gradientUnits="userSpaceOnUse">
<stop stop-color="#ADD1F4"/>
<stop offset="0.08" stop-color="#8CB4E3"/>
<stop offset="0.2" stop-color="#5685C8"/>
<stop offset="0.24" stop-color="#5C8ACB"/>
<stop offset="0.29" stop-color="#6D99D2"/>
<stop offset="0.34" stop-color="#8AB1DE"/>
<stop offset="0.4" stop-color="#B1D2EE"/>
<stop offset="0.42" stop-color="#BFDDF4"/>
<stop offset="0.52" stop-color="#95BCE2"/>
<stop offset="0.63" stop-color="#6A9CD1"/>
<stop offset="0.69" stop-color="#5A8FCA"/>
<stop offset="0.72" stop-color="#689AD0"/>
<stop offset="0.79" stop-color="#8DB6DF"/>
<stop offset="0.86" stop-color="#BFDDF4"/>
<stop offset="0.89" stop-color="#BBDAF2"/>
<stop offset="0.92" stop-color="#AFD1ED"/>
<stop offset="0.94" stop-color="#9CC2E5"/>
<stop offset="0.97" stop-color="#80ACDA"/>
<stop offset="1" stop-color="#5A8FCA"/>
</linearGradient>
<linearGradient id="paint6_linear_259_1163" x1="62.5957" y1="-27.1487" x2="226.336" y2="-27.1487" gradientUnits="userSpaceOnUse">
<stop stop-color="#D0E7FD"/>
<stop offset="0.06" stop-color="#D8EBFC"/>
<stop offset="0.28" stop-color="#F1F6FB"/>
<stop offset="0.41" stop-color="#FAFAFA"/>
<stop offset="0.52" stop-color="#F1F6FB"/>
<stop offset="0.71" stop-color="#D9EBFC"/>
<stop offset="0.77" stop-color="#D0E7FD"/>
<stop offset="1" stop-color="#FAFAFA"/>
</linearGradient>
<linearGradient id="paint7_linear_259_1163" x1="124.639" y1="-27.1154" x2="-15.6661" y2="59.9223" gradientUnits="userSpaceOnUse">
<stop stop-color="#87BBF3" stop-opacity="0.55"/>
<stop offset="0.433197" stop-color="#6F90B4" stop-opacity="0.33"/>
<stop offset="1" stop-color="#FDFDFD" stop-opacity="0"/>
</linearGradient>
<linearGradient id="paint8_linear_259_1163" x1="204.168" y1="-27.1154" x2="63.8627" y2="59.9223" gradientUnits="userSpaceOnUse">
<stop stop-color="#87BBF3" stop-opacity="0.36"/>
<stop offset="0.433197" stop-color="#6F90B4" stop-opacity="0.07"/>
<stop offset="1" stop-color="#FDFDFD" stop-opacity="0"/>
</linearGradient>
<linearGradient id="paint9_linear_259_1163" x1="68.5584" y1="116.927" x2="220.372" y2="116.927" gradientUnits="userSpaceOnUse">
<stop stop-color="#FAFAFA"/>
<stop offset="0.01" stop-color="#FAFAFA" stop-opacity="0.98"/>
<stop offset="0.08" stop-color="#FAFAFA" stop-opacity="0.78"/>
<stop offset="0.16" stop-color="#FAFAFA" stop-opacity="0.6"/>
<stop offset="0.25" stop-color="#FAFAFA" stop-opacity="0.44"/>
<stop offset="0.34" stop-color="#FAFAFA" stop-opacity="0.3"/>
<stop offset="0.44" stop-color="#FAFAFA" stop-opacity="0.19"/>
<stop offset="0.54" stop-color="#FAFAFA" stop-opacity="0.11"/>
<stop offset="0.66" stop-color="#FAFAFA" stop-opacity="0.05"/>
<stop offset="0.79" stop-color="#FAFAFA" stop-opacity="0.01"/>
<stop offset="1" stop-color="#FAFAFA" stop-opacity="0"/>
</linearGradient>
<linearGradient id="paint10_linear_259_1163" x1="119.891" y1="171.973" x2="176.535" y2="124.189" gradientUnits="userSpaceOnUse">
<stop stop-color="#6F90B4"/>
<stop offset="0.567308" stop-color="#2E5A88"/>
<stop offset="1" stop-color="#87BBF3"/>
</linearGradient>
<linearGradient id="paint11_linear_259_1163" x1="127.317" y1="116.192" x2="168.231" y2="83.1049" gradientUnits="userSpaceOnUse">
<stop stop-color="#6F90B4"/>
<stop offset="0.567308" stop-color="#2E5A88"/>
<stop offset="1" stop-color="#87BBF3"/>
</linearGradient>
<clipPath id="clip0_259_1163">
<rect width="282" height="255" fill="white"/>
</clipPath>
</defs>
</svg>
