<svg width="46" height="45" viewBox="0 0 46 45" fill="none" xmlns="http://www.w3.org/2000/svg">
<rect width="46" height="45" rx="10.2987" fill="url(#paint0_linear_345_2117)"/>
<g clip-path="url(#clip0_345_2117)">
<path d="M32.8984 25.0137C32.8882 25.0078 32.8779 25.0024 32.8677 24.9967C32.8914 24.7178 32.9042 24.4357 32.9042 24.1507C32.9042 20.1905 30.5676 16.7664 27.2009 15.183C27.201 15.1709 27.2018 15.159 27.2018 15.1469C27.2018 12.8263 25.3206 10.9451 23 10.9451C20.6794 10.9451 18.7983 12.8263 18.7983 15.1469C18.7983 15.1589 18.7991 15.1709 18.7992 15.183C15.4325 16.7664 13.0958 20.1906 13.0958 24.1507C13.0958 24.4357 13.1086 24.7177 13.1323 24.9966C13.1221 25.0024 13.1117 25.0079 13.1015 25.0137C11.0919 26.174 10.4033 28.7438 11.5636 30.7534C12.3419 32.1014 13.7542 32.855 15.2065 32.855C15.9192 32.855 16.6417 32.6734 17.3034 32.2914C17.3147 32.2848 17.3255 32.2777 17.3367 32.2711C18.9427 33.3946 20.8956 34.0549 23.0001 34.0549C25.1046 34.0549 27.0574 33.3946 28.6635 32.2711C28.6748 32.2777 28.6854 32.2848 28.6967 32.2914C29.3584 32.6735 30.0808 32.8551 30.7937 32.8551C32.2458 32.8551 33.6582 32.1014 34.4364 30.7535C35.5966 28.7439 34.9081 26.174 32.8984 25.0137ZM23 12.7459C24.324 12.7459 25.4011 13.8229 25.4011 15.1469C25.4011 16.4709 24.324 17.5479 23 17.5479C21.6761 17.5479 20.599 16.4709 20.599 15.1469C20.5991 13.8229 21.6761 12.7459 23 12.7459ZM17.5217 29.274C17.3557 29.8935 16.9584 30.4113 16.403 30.732C16.0378 30.9429 15.624 31.0543 15.2065 31.0543C14.3492 31.0543 13.5509 30.5941 13.1231 29.8531C12.4611 28.7065 12.8554 27.2352 14.002 26.5732C14.3672 26.3623 14.781 26.2509 15.1985 26.2509H15.1987C16.0558 26.2509 16.8541 26.7111 17.2819 27.4521C17.6025 28.0075 17.6877 28.6545 17.5217 29.274ZM27.316 31.006C26.0656 31.7961 24.5854 32.2541 23.0001 32.2541C21.4146 32.2541 19.9344 31.7961 18.6839 31.006C19.5547 29.7159 19.6719 27.9903 18.8413 26.5517C18.0631 25.2037 16.6508 24.4501 15.1987 24.4501C15.1987 24.4501 15.1986 24.4501 15.1985 24.4501C15.1001 24.4501 15.0016 24.4539 14.903 24.4609C14.8992 24.3579 14.8966 24.2546 14.8966 24.1507C14.8966 21.0465 16.6513 18.3449 19.2207 16.9844C19.9024 18.3839 21.3385 19.3486 23 19.3486C24.6616 19.3486 26.0976 18.384 26.7794 16.9844C29.3488 18.3449 31.1035 21.0464 31.1035 24.1507C31.1035 24.2545 31.1009 24.3578 31.097 24.4608C30.9986 24.4539 30.9001 24.45 30.8019 24.45C30.8018 24.45 30.8017 24.45 30.8015 24.45C29.3494 24.4501 27.9369 25.2038 27.1587 26.5517C26.3281 27.9904 26.4453 29.7159 27.316 31.006ZM32.8769 29.8531C32.4491 30.5941 31.6508 31.0543 30.7936 31.0543C30.376 31.0543 29.9623 30.9429 29.5969 30.7319C28.4504 30.07 28.0561 28.5986 28.7181 27.4521C29.1459 26.7111 29.9442 26.2509 30.8015 26.2508H30.8018C31.2191 26.2508 31.6328 26.3622 31.998 26.5731C33.1447 27.2351 33.5388 28.7065 32.8769 29.8531Z" fill="white"/>
</g>
<defs>
<linearGradient id="paint0_linear_345_2117" x1="8.6" y1="37.1875" x2="48.7929" y2="11.3364" gradientUnits="userSpaceOnUse">
<stop stop-color="#6F90B4"/>
<stop offset="0.567308" stop-color="#2E5A88"/>
<stop offset="1" stop-color="#87BBF3"/>
</linearGradient>
<clipPath id="clip0_345_2117">
<rect width="24" height="24" fill="white" transform="translate(11 10.5)"/>
</clipPath>
</defs>
</svg>
