<svg width="45" height="45" viewBox="0 0 45 45" fill="none" xmlns="http://www.w3.org/2000/svg">
<rect width="45" height="45" rx="10.2987" fill="url(#paint0_linear_345_2092)"/>
<g clip-path="url(#clip0_345_2092)">
<path d="M34.2338 15.467C34.2194 14.6841 34.2057 13.9444 34.2057 13.2289C34.2057 12.6683 33.767 12.2138 33.2256 12.2138C29.0342 12.2138 25.8429 10.9662 23.1829 8.28748C22.8023 7.90419 22.1968 7.90432 21.8164 8.28748C19.1566 10.9662 15.9659 12.2138 11.7747 12.2138C11.2334 12.2138 10.7946 12.6683 10.7946 13.2289C10.7946 13.9446 10.781 14.6845 10.7665 15.4676C10.6322 22.7539 10.4482 32.7329 22.1786 36.9441C22.2826 36.9815 22.3911 37.0001 22.4996 37.0001C22.608 37.0001 22.7166 36.9815 22.8205 36.9441C34.5518 32.7328 34.3681 22.7535 34.2338 15.467ZM22.4997 34.9079C12.4393 31.1227 12.5914 22.8309 12.7264 15.5063C12.7345 15.0667 12.7424 14.6406 12.7479 14.223C16.6734 14.0513 19.8125 12.8193 22.4997 10.3948C25.1872 12.8193 28.3268 14.0515 32.2526 14.223C32.2581 14.6405 32.2659 15.0663 32.274 15.5056C32.4089 22.8305 32.5609 31.1226 22.4997 34.9079Z" fill="white"/>
<path d="M25.875 18.9739L21.1447 23.8729L19.1261 21.7823C18.7434 21.386 18.1228 21.386 17.7402 21.7823C17.3574 22.1788 17.3574 22.8215 17.7402 23.2179L20.4517 26.0262C20.643 26.2244 20.8939 26.3235 21.1447 26.3235C21.3955 26.3235 21.6464 26.2244 21.8377 26.0262L27.2609 20.4095C27.6437 20.0131 27.6437 19.3703 27.261 18.974C26.8784 18.5776 26.2578 18.5775 25.875 18.9739Z" fill="white"/>
</g>
<defs>
<linearGradient id="paint0_linear_345_2092" x1="8.41304" y1="37.1875" x2="48.2333" y2="12.1328" gradientUnits="userSpaceOnUse">
<stop stop-color="#6F90B4"/>
<stop offset="0.567308" stop-color="#2E5A88"/>
<stop offset="1" stop-color="#87BBF3"/>
</linearGradient>
<clipPath id="clip0_345_2092">
<rect width="28" height="29" fill="white" transform="translate(8.5 8)"/>
</clipPath>
</defs>
</svg>
