<svg width="45" height="45" viewBox="0 0 45 45" fill="none" xmlns="http://www.w3.org/2000/svg">
<rect width="45" height="45" rx="10.2987" fill="url(#paint0_linear_345_2139)"/>
<path d="M29.7107 11.9238H27.3342V10.9766C27.3342 10.4372 26.897 10 26.3576 10H18.675C18.1356 10 17.6984 10.4372 17.6984 10.9766V11.9238H15.3223C13.9761 11.9238 12.8809 13.019 12.8809 14.3652V32.5586C12.8809 33.9048 13.9761 35 15.3223 35H29.7107C31.0569 35 32.1521 33.9048 32.1521 32.5586V14.3652C32.1521 13.019 31.0567 11.9238 29.7107 11.9238ZM25.3811 11.9531V13.8477H19.6514C19.6514 13.1986 19.6514 12.6625 19.6514 11.9531H25.3811ZM30.199 32.5586C30.199 32.8279 29.9799 33.0469 29.7107 33.0469H15.3223C15.0529 33.0469 14.834 32.8279 14.834 32.5586V14.3652C14.834 14.096 15.0529 13.8769 15.3223 13.8769H17.6982V14.8243C17.6982 15.3637 18.1356 15.8008 18.6748 15.8008H26.3576C26.8968 15.8008 27.3342 15.3637 27.3342 14.8243V13.8769H29.7107C29.9799 13.8769 30.199 14.096 30.199 14.3652V32.5586ZM27.0479 21.4023C27.4294 21.7838 27.4294 22.4022 27.0479 22.7834L21.916 27.9153C21.5347 28.2968 20.9163 28.2968 20.5349 27.9153L17.9845 25.365C17.6033 24.9837 17.6033 24.3654 17.9845 23.9839C18.366 23.6026 18.9842 23.6026 19.3657 23.9839L21.2255 25.8438L25.6668 21.4025C26.0482 21.021 26.6664 21.021 27.0479 21.4023Z" fill="white"/>
<defs>
<linearGradient id="paint0_linear_345_2139" x1="8.41304" y1="37.1875" x2="48.2333" y2="12.1328" gradientUnits="userSpaceOnUse">
<stop stop-color="#6F90B4"/>
<stop offset="0.567308" stop-color="#2E5A88"/>
<stop offset="1" stop-color="#87BBF3"/>
</linearGradient>
</defs>
</svg>
