<svg width="478" height="261" viewBox="0 0 478 261" fill="none" xmlns="http://www.w3.org/2000/svg">
<line x1="-6.26709" y1="37.9965" x2="484.466" y2="37.9965" stroke="#A7A7A7" stroke-opacity="0.08" stroke-width="1.21939"/>
<line x1="-6.26709" y1="80.6752" x2="484.466" y2="80.6752" stroke="#A7A7A7" stroke-opacity="0.08" stroke-width="1.21939"/>
<line x1="-6.26709" y1="123.354" x2="484.466" y2="123.354" stroke="#A7A7A7" stroke-opacity="0.08" stroke-width="1.21939"/>
<line x1="-6.26709" y1="166.033" x2="484.466" y2="166.033" stroke="#A7A7A7" stroke-opacity="0.08" stroke-width="1.21939"/>
<line x1="-6.26709" y1="208.712" x2="484.466" y2="208.712" stroke="#A7A7A7" stroke-opacity="0.08" stroke-width="1.21939"/>
<line x1="-6.26709" y1="251.39" x2="484.466" y2="251.39" stroke="#A7A7A7" stroke-opacity="0.08" stroke-width="1.21939"/>
<line x1="29.8019" y1="261" x2="29.8019" y2="-79" stroke="#A7A7A7" stroke-opacity="0.08" stroke-width="1.21939"/>
<line x1="72.4806" y1="261" x2="72.4806" y2="-79" stroke="#A7A7A7" stroke-opacity="0.08" stroke-width="1.21939"/>
<line x1="115.159" y1="261" x2="115.159" y2="-79" stroke="#A7A7A7" stroke-opacity="0.08" stroke-width="1.21939"/>
<line x1="157.838" y1="261" x2="157.838" y2="-79" stroke="#A7A7A7" stroke-opacity="0.08" stroke-width="1.21939"/>
<line x1="200.517" y1="261" x2="200.517" y2="-79" stroke="#A7A7A7" stroke-opacity="0.08" stroke-width="1.21939"/>
<line x1="243.195" y1="261" x2="243.195" y2="-79" stroke="#A7A7A7" stroke-opacity="0.08" stroke-width="1.21939"/>
<line x1="285.874" y1="261" x2="285.874" y2="-79" stroke="#A7A7A7" stroke-opacity="0.08" stroke-width="1.21939"/>
<line x1="328.553" y1="261" x2="328.553" y2="-79" stroke="#A7A7A7" stroke-opacity="0.08" stroke-width="1.21939"/>
<line x1="371.232" y1="261" x2="371.232" y2="-79" stroke="#A7A7A7" stroke-opacity="0.08" stroke-width="1.21939"/>
<line x1="413.911" y1="261" x2="413.911" y2="-79" stroke="#A7A7A7" stroke-opacity="0.08" stroke-width="1.21939"/>
<line x1="456.59" y1="261" x2="456.59" y2="-79" stroke="#A7A7A7" stroke-opacity="0.08" stroke-width="1.21939"/>
<g filter="url(#filter0_d_3008_3193)">
<rect x="91" y="56.0818" width="52.3801" height="52.8363" rx="12.0578" fill="#FEFEFE"/>
<rect x="91.1553" y="56.2371" width="52.0695" height="52.5257" rx="11.9025" stroke="#2E5A88" stroke-width="0.310574"/>
<path d="M121.692 90.4951V88.4951C121.692 87.4343 121.271 86.4168 120.521 85.6667C119.771 84.9165 118.753 84.4951 117.692 84.4951H111.692C110.632 84.4951 109.614 84.9165 108.864 85.6667C108.114 86.4168 107.692 87.4343 107.692 88.4951V90.4951" stroke="#2E5A88" stroke-width="2" stroke-linecap="round" stroke-linejoin="round"/>
<path d="M114.692 80.4951C116.902 80.4951 118.692 78.7043 118.692 76.4951C118.692 74.286 116.902 72.4951 114.692 72.4951C112.483 72.4951 110.692 74.286 110.692 76.4951C110.692 78.7043 112.483 80.4951 114.692 80.4951Z" stroke="#2E5A88" stroke-width="2" stroke-linecap="round" stroke-linejoin="round"/>
<path d="M127.692 90.4951V88.4951C127.692 87.6088 127.397 86.7479 126.854 86.0474C126.311 85.347 125.551 84.8467 124.692 84.6251" stroke="#2E5A88" stroke-width="2" stroke-linecap="round" stroke-linejoin="round"/>
<path d="M121.692 72.6251C122.553 72.8454 123.315 73.3458 123.86 74.0474C124.405 74.749 124.7 75.612 124.7 76.5001C124.7 77.3883 124.405 78.2512 123.86 78.9528C123.315 79.6544 122.553 80.1548 121.692 80.3751" stroke="#2E5A88" stroke-width="2" stroke-linecap="round" stroke-linejoin="round"/>
</g>
<line x1="148.38" y1="82" x2="204.38" y2="82" stroke="url(#paint0_linear_3008_3193)" stroke-dasharray="2 1"/>
<g filter="url(#filter1_d_3008_3193)">
<rect x="209.38" y="53" width="59" height="59" rx="15.1093" fill="url(#paint1_linear_3008_3193)"/>
<path d="M251.92 83.9999C251.92 91.4999 246.816 95.2499 240.749 97.4249C240.432 97.5357 240.087 97.5304 239.772 97.4099C233.691 95.2499 228.587 91.4999 228.587 83.9999V73.4999C228.587 73.1021 228.741 72.7206 229.014 72.4393C229.288 72.158 229.658 71.9999 230.045 71.9999C232.962 71.9999 236.608 70.1999 239.145 67.9199C239.454 67.6484 239.847 67.4993 240.254 67.4993C240.66 67.4993 241.053 67.6484 241.362 67.9199C243.914 70.2149 247.545 71.9999 250.462 71.9999C250.849 71.9999 251.22 72.158 251.493 72.4393C251.767 72.7206 251.92 73.1021 251.92 73.4999V83.9999Z" stroke="white" stroke-width="2" stroke-linecap="round" stroke-linejoin="round"/>
</g>
<line x1="273.38" y1="82" x2="329.38" y2="82" stroke="url(#paint2_linear_3008_3193)" stroke-dasharray="2 1"/>
<g filter="url(#filter2_d_3008_3193)">
<rect x="334.38" y="56.0818" width="52.3801" height="52.8363" rx="12.0578" fill="#FEFEFE"/>
<rect x="334.535" y="56.2371" width="52.0695" height="52.5257" rx="11.9025" stroke="#2E5A88" stroke-width="0.310574"/>
<path d="M372.037 85.9468V84.8689C372.037 83.0083 370.524 81.4951 368.663 81.4951C366.803 81.4951 365.29 83.0083 365.29 84.8689V85.9468C364.788 86.2395 364.446 86.7776 364.446 87.3992V91.6165C364.446 92.5468 365.203 93.3033 366.133 93.3033H371.194C372.124 93.3033 372.881 92.5468 372.881 91.6165V87.3992C372.881 86.7776 372.539 86.2395 372.037 85.9468ZM368.663 83.182C369.594 83.182 370.35 83.9394 370.35 84.8689V85.7123H366.977V84.8689C366.977 83.9394 367.733 83.182 368.663 83.182ZM371.194 91.6165H366.133V87.3992H371.194V91.6165ZM361.072 69.7965C360.246 69.7206 359.385 69.6869 358.542 69.6869C354.072 69.6869 349.264 70.7412 349.264 73.0607V88.2427C349.264 90.5621 354.072 91.6165 358.542 91.6165C359.385 91.6165 360.246 91.5827 361.072 91.5068V89.8115C360.313 89.8874 359.47 89.9296 358.542 89.9296C353.608 89.9296 351.078 88.6981 350.951 88.2427V85.2316C352.748 86.1341 355.708 86.5558 358.542 86.5558C359.385 86.5558 360.246 86.522 361.072 86.4461V84.7508C360.313 84.8267 359.47 84.8689 358.542 84.8689C353.608 84.8689 351.078 83.6375 350.951 83.182V80.1709C352.748 81.0734 355.708 81.4951 358.542 81.4951C359.385 81.4951 360.246 81.4614 361.072 81.3855C364.657 81.0481 367.82 80.0022 367.82 78.1213V73.0607C367.82 71.1798 364.657 70.1339 361.072 69.7965ZM366.133 78.1129C366.023 78.4925 364.337 79.3696 361.072 79.6901C360.313 79.7661 359.47 79.8082 358.542 79.8082C353.608 79.8082 351.078 78.5768 350.951 78.1213V75.1102C352.748 76.0127 355.708 76.4344 358.542 76.4344C359.385 76.4344 360.237 76.4007 361.072 76.3164C363.038 76.1392 364.868 75.7428 366.133 75.1102V78.1129ZM361.072 74.6295C360.313 74.7054 359.47 74.7476 358.542 74.7476C353.616 74.7476 351.086 73.5161 350.951 73.0775V73.0691C351.086 72.6052 353.616 71.3738 358.542 71.3738C359.47 71.3738 360.313 71.416 361.072 71.4919C364.311 71.8039 365.998 72.6727 366.133 73.0607C365.998 73.4487 364.311 74.3174 361.072 74.6295Z" fill="#2E5A88"/>
</g>
<g filter="url(#filter3_d_3008_3193)">
<rect x="141" y="195" width="42.3" height="42.6684" rx="21.15" fill="#FEFEFE"/>
<path d="M156.556 225.523H168.556C169.656 225.523 170.556 224.623 170.556 223.523V214.523C170.556 213.423 169.656 212.523 168.556 212.523H167.556V210.523C167.556 207.763 165.316 205.523 162.556 205.523C159.796 205.523 157.556 207.763 157.556 210.523V212.523H156.556C155.456 212.523 154.556 213.423 154.556 214.523V223.523C154.556 224.623 155.456 225.523 156.556 225.523ZM159.556 210.523C159.556 208.873 160.906 207.523 162.556 207.523C164.206 207.523 165.556 208.873 165.556 210.523V212.523H159.556V210.523ZM156.556 214.523H168.556V223.523H156.556V214.523Z" fill="#585858"/>
</g>
<g filter="url(#filter4_d_3008_3193)">
<rect x="218" y="195" width="42.3" height="42.6684" rx="21.15" fill="#FEFEFE"/>
<path d="M232.474 207.479C232.345 207.354 232.171 207.284 231.991 207.286C231.811 207.288 231.638 207.36 231.511 207.487C231.383 207.615 231.311 207.787 231.309 207.968C231.308 208.148 231.377 208.321 231.502 208.451L246.627 223.576C246.757 223.701 246.931 223.771 247.111 223.769C247.291 223.768 247.464 223.695 247.591 223.568C247.719 223.44 247.791 223.268 247.792 223.088C247.794 222.907 247.725 222.734 247.599 222.604L232.474 207.479ZM249.181 216.733C248.584 217.55 247.964 218.273 247.324 218.919L246.352 217.947C246.943 217.357 247.516 216.683 248.071 215.926C248.144 215.825 248.189 215.707 248.2 215.583C248.212 215.46 248.189 215.335 248.136 215.223L248.074 215.12C245.668 211.82 242.959 210.142 239.92 210.032L239.568 210.026C239.206 210.024 238.845 210.046 238.486 210.092L237.301 208.906C238.045 208.735 238.806 208.648 239.569 208.649C243.227 208.649 246.444 210.56 249.181 214.314C249.439 214.667 249.578 215.094 249.578 215.531C249.578 215.968 249.439 216.395 249.181 216.748V216.733Z" fill="black"/>
<path d="M243.681 215.289C243.623 214.276 243.194 213.319 242.476 212.602C241.759 211.884 240.802 211.456 239.789 211.398L243.681 215.289ZM230.233 213.914C230.738 213.254 231.261 212.658 231.801 212.126L232.773 213.099C232.182 213.689 231.609 214.363 231.054 215.12L230.989 215.228C230.945 215.321 230.922 215.423 230.922 215.525C230.922 215.628 230.945 215.73 230.989 215.822L231.05 215.924C233.456 219.224 236.165 220.902 239.204 221.012L239.556 221.019C239.921 221.019 240.282 220.997 240.638 220.953L241.822 222.135C241.078 222.307 240.316 222.394 239.553 222.394C235.895 222.394 232.678 220.482 229.942 216.729L229.829 216.557C229.625 216.21 229.527 215.811 229.547 215.409C229.567 215.007 229.704 214.62 229.942 214.295L230.237 213.9L230.233 213.914Z" fill="black"/>
<path d="M239.322 219.648C238.309 219.59 237.352 219.161 236.635 218.443C235.917 217.726 235.489 216.77 235.431 215.756L239.322 219.648Z" fill="black"/>
</g>
<g filter="url(#filter5_d_3008_3193)">
<rect x="300" y="195" width="42.3" height="42.6684" rx="21.15" fill="#FEFEFE"/>
<path d="M329.556 215.522V214.179C329.556 213.361 329.556 212.953 329.404 212.585C329.252 212.218 328.963 211.929 328.384 211.35L323.648 206.614C323.149 206.115 322.9 205.866 322.59 205.718C322.526 205.687 322.46 205.66 322.393 205.636C322.07 205.522 321.717 205.522 321.012 205.522C317.767 205.522 316.144 205.522 315.045 206.408C314.823 206.587 314.621 206.789 314.442 207.011C313.556 208.111 313.556 209.733 313.556 212.978V217.522C313.556 221.293 313.556 223.179 314.728 224.35C315.9 225.521 317.785 225.523 321.556 225.523M322.556 206.023V206.523C322.556 209.351 322.556 210.766 323.435 211.644C324.313 212.523 325.728 212.523 328.556 212.523H329.056" stroke="black" stroke-width="1.5" stroke-linecap="round" stroke-linejoin="round"/>
<path d="M329.556 221.144V219.174C329.555 219.026 329.502 218.882 329.406 218.769C329.311 218.656 329.179 218.58 329.033 218.554C328.102 218.377 327.204 218.057 326.373 217.604C326.275 217.55 326.166 217.523 326.056 217.523C325.945 217.523 325.836 217.55 325.739 217.604C324.907 218.057 324.009 218.377 323.079 218.554C322.933 218.58 322.801 218.656 322.705 218.769C322.609 218.882 322.557 219.026 322.556 219.174V221.144C322.556 223.716 325.098 225.118 325.85 225.477C325.982 225.54 326.13 225.54 326.262 225.477C327.014 225.118 329.556 223.717 329.556 221.144Z" stroke="black" stroke-width="1.5" stroke-linecap="round"/>
</g>
<path d="M223.359 142.858C223.359 145.935 220.863 148.429 217.786 148.429H161.126C158.839 148.429 156.985 150.284 156.985 152.571V180H155.555V152.571C155.555 149.494 158.049 147 161.126 147H217.786C220.074 146.999 221.928 145.145 221.928 142.858V129.907H223.359V142.858ZM222.643 125.05C223.984 125.05 225.072 126.138 225.072 127.479C225.071 128.82 223.984 129.907 222.643 129.907C221.302 129.907 220.215 128.82 220.215 127.479C220.215 126.138 221.302 125.05 222.643 125.05Z" fill="#AEAEAE" fill-opacity="0.43"/>
<path d="M239.429 125.455C240.77 125.455 241.856 126.542 241.856 127.883C241.856 129.009 241.089 129.954 240.049 130.228V179.693H238.619V130.169C237.677 129.836 237 128.94 237 127.883C237 126.542 238.088 125.455 239.429 125.455Z" fill="#AEAEAE" fill-opacity="0.43"/>
<path d="M255.641 142.858C255.641 145.935 258.136 148.429 261.213 148.429H317.873C320.161 148.429 322.015 150.284 322.015 152.571V180H323.445V152.571C323.445 149.494 320.95 147 317.873 147H261.213C258.926 146.999 257.072 145.145 257.072 142.858V129.907H255.641V142.858ZM256.357 125.05C255.016 125.05 253.928 126.138 253.928 127.479C253.928 128.82 255.016 129.907 256.357 129.907C257.697 129.907 258.784 128.82 258.784 127.479C258.784 126.138 257.698 125.051 256.357 125.05Z" fill="#AEAEAE" fill-opacity="0.43"/>
<rect x="181" y="142" width="11" height="11" rx="5.5" fill="#58A90C"/>
<path d="M189.013 145.7C188.863 145.55 188.637 145.55 188.487 145.7L185.675 148.513L184.512 147.35C184.362 147.2 184.138 147.2 183.988 147.35C183.838 147.5 183.838 147.725 183.988 147.875L185.413 149.3C185.488 149.375 185.563 149.413 185.675 149.413C185.788 149.413 185.862 149.375 185.938 149.3L189.013 146.225C189.163 146.075 189.163 145.85 189.013 145.7Z" fill="white"/>
<rect x="234" y="142" width="11" height="11" rx="5.5" fill="#58A90C"/>
<path d="M242.013 145.7C241.863 145.55 241.637 145.55 241.487 145.7L238.675 148.513L237.512 147.35C237.362 147.2 237.138 147.2 236.988 147.35C236.838 147.5 236.838 147.725 236.988 147.875L238.413 149.3C238.488 149.375 238.563 149.413 238.675 149.413C238.788 149.413 238.862 149.375 238.938 149.3L242.013 146.225C242.163 146.075 242.163 145.85 242.013 145.7Z" fill="white"/>
<rect x="290" y="142" width="11" height="11" rx="5.5" fill="#58A90C"/>
<path d="M298.013 145.7C297.863 145.55 297.637 145.55 297.487 145.7L294.675 148.513L293.512 147.35C293.362 147.2 293.138 147.2 292.988 147.35C292.838 147.5 292.838 147.725 292.988 147.875L294.413 149.3C294.488 149.375 294.563 149.413 294.675 149.413C294.788 149.413 294.862 149.375 294.938 149.3L298.013 146.225C298.163 146.075 298.163 145.85 298.013 145.7Z" fill="white"/>
<defs>
<filter id="filter0_d_3008_3193" x="70.23" y="37.7018" width="93.9201" height="94.3763" filterUnits="userSpaceOnUse" color-interpolation-filters="sRGB">
<feFlood flood-opacity="0" result="BackgroundImageFix"/>
<feColorMatrix in="SourceAlpha" type="matrix" values="0 0 0 0 0 0 0 0 0 0 0 0 0 0 0 0 0 0 127 0" result="hardAlpha"/>
<feOffset dy="2.39"/>
<feGaussianBlur stdDeviation="10.385"/>
<feColorMatrix type="matrix" values="0 0 0 0 0.392157 0 0 0 0 0.392157 0 0 0 0 0.435294 0 0 0 0.1 0"/>
<feBlend mode="normal" in2="BackgroundImageFix" result="effect1_dropShadow_3008_3193"/>
<feBlend mode="normal" in="SourceGraphic" in2="effect1_dropShadow_3008_3193" result="shape"/>
</filter>
<filter id="filter1_d_3008_3193" x="161.854" y="16.9459" width="154.052" height="154.052" filterUnits="userSpaceOnUse" color-interpolation-filters="sRGB">
<feFlood flood-opacity="0" result="BackgroundImageFix"/>
<feColorMatrix in="SourceAlpha" type="matrix" values="0 0 0 0 0 0 0 0 0 0 0 0 0 0 0 0 0 0 127 0" result="hardAlpha"/>
<feOffset dy="11.4717"/>
<feGaussianBlur stdDeviation="23.7629"/>
<feColorMatrix type="matrix" values="0 0 0 0 0.392157 0 0 0 0 0.392157 0 0 0 0 0.435294 0 0 0 0.2 0"/>
<feBlend mode="normal" in2="BackgroundImageFix" result="effect1_dropShadow_3008_3193"/>
<feBlend mode="normal" in="SourceGraphic" in2="effect1_dropShadow_3008_3193" result="shape"/>
</filter>
<filter id="filter2_d_3008_3193" x="313.61" y="37.7018" width="93.9201" height="94.3763" filterUnits="userSpaceOnUse" color-interpolation-filters="sRGB">
<feFlood flood-opacity="0" result="BackgroundImageFix"/>
<feColorMatrix in="SourceAlpha" type="matrix" values="0 0 0 0 0 0 0 0 0 0 0 0 0 0 0 0 0 0 127 0" result="hardAlpha"/>
<feOffset dy="2.39"/>
<feGaussianBlur stdDeviation="10.385"/>
<feColorMatrix type="matrix" values="0 0 0 0 0.392157 0 0 0 0 0.392157 0 0 0 0 0.435294 0 0 0 0.1 0"/>
<feBlend mode="normal" in2="BackgroundImageFix" result="effect1_dropShadow_3008_3193"/>
<feBlend mode="normal" in="SourceGraphic" in2="effect1_dropShadow_3008_3193" result="shape"/>
</filter>
<filter id="filter3_d_3008_3193" x="134.54" y="190.962" width="55.221" height="55.5893" filterUnits="userSpaceOnUse" color-interpolation-filters="sRGB">
<feFlood flood-opacity="0" result="BackgroundImageFix"/>
<feColorMatrix in="SourceAlpha" type="matrix" values="0 0 0 0 0 0 0 0 0 0 0 0 0 0 0 0 0 0 127 0" result="hardAlpha"/>
<feOffset dy="2.42267"/>
<feGaussianBlur stdDeviation="3.23023"/>
<feColorMatrix type="matrix" values="0 0 0 0 0.616346 0 0 0 0 0.616346 0 0 0 0 0.616346 0 0 0 0.24 0"/>
<feBlend mode="normal" in2="BackgroundImageFix" result="effect1_dropShadow_3008_3193"/>
<feBlend mode="normal" in="SourceGraphic" in2="effect1_dropShadow_3008_3193" result="shape"/>
</filter>
<filter id="filter4_d_3008_3193" x="211.54" y="190.962" width="55.221" height="55.5893" filterUnits="userSpaceOnUse" color-interpolation-filters="sRGB">
<feFlood flood-opacity="0" result="BackgroundImageFix"/>
<feColorMatrix in="SourceAlpha" type="matrix" values="0 0 0 0 0 0 0 0 0 0 0 0 0 0 0 0 0 0 127 0" result="hardAlpha"/>
<feOffset dy="2.42267"/>
<feGaussianBlur stdDeviation="3.23023"/>
<feColorMatrix type="matrix" values="0 0 0 0 0.616346 0 0 0 0 0.616346 0 0 0 0 0.616346 0 0 0 0.24 0"/>
<feBlend mode="normal" in2="BackgroundImageFix" result="effect1_dropShadow_3008_3193"/>
<feBlend mode="normal" in="SourceGraphic" in2="effect1_dropShadow_3008_3193" result="shape"/>
</filter>
<filter id="filter5_d_3008_3193" x="293.54" y="190.962" width="55.221" height="55.5893" filterUnits="userSpaceOnUse" color-interpolation-filters="sRGB">
<feFlood flood-opacity="0" result="BackgroundImageFix"/>
<feColorMatrix in="SourceAlpha" type="matrix" values="0 0 0 0 0 0 0 0 0 0 0 0 0 0 0 0 0 0 127 0" result="hardAlpha"/>
<feOffset dy="2.42267"/>
<feGaussianBlur stdDeviation="3.23023"/>
<feColorMatrix type="matrix" values="0 0 0 0 0.616346 0 0 0 0 0.616346 0 0 0 0 0.616346 0 0 0 0.24 0"/>
<feBlend mode="normal" in2="BackgroundImageFix" result="effect1_dropShadow_3008_3193"/>
<feBlend mode="normal" in="SourceGraphic" in2="effect1_dropShadow_3008_3193" result="shape"/>
</filter>
<linearGradient id="paint0_linear_3008_3193" x1="148.38" y1="83" x2="204.38" y2="83" gradientUnits="userSpaceOnUse">
<stop offset="0.0192308" stop-color="#2E5A88" stop-opacity="0"/>
<stop offset="0.495192" stop-color="#2E5A88"/>
<stop offset="1" stop-color="#2E5A88" stop-opacity="0"/>
</linearGradient>
<linearGradient id="paint1_linear_3008_3193" x1="220.411" y1="101.757" x2="272.619" y2="68.9075" gradientUnits="userSpaceOnUse">
<stop stop-color="#6F90B4"/>
<stop offset="0.567308" stop-color="#2E5A88"/>
<stop offset="1" stop-color="#87BBF3"/>
</linearGradient>
<linearGradient id="paint2_linear_3008_3193" x1="273.38" y1="83" x2="329.38" y2="83" gradientUnits="userSpaceOnUse">
<stop offset="0.0192308" stop-color="#2E5A88" stop-opacity="0"/>
<stop offset="0.495192" stop-color="#2E5A88"/>
<stop offset="1" stop-color="#2E5A88" stop-opacity="0"/>
</linearGradient>
</defs>
</svg>
