<svg width="183" height="41" viewBox="0 0 183 41" fill="none" xmlns="http://www.w3.org/2000/svg">
<path d="M31.1921 23.1072C30.5582 24.3831 29.7758 25.6952 28.8248 26.9872L34.9437 37.636L36.5527 34.8353L36.5085 34.7591C34.2536 30.823 37.0943 25.9239 41.6283 25.9239H41.6845L43.3095 23.1072H31.1881H31.1921Z" fill="white"/>
<path d="M20.3547 32.7329C19.7207 32.2875 19.1269 31.8221 18.5651 31.3446L13.3049 40.4968H16.5389C18.8099 36.5527 24.4994 36.5527 26.7704 40.4968H30.0164L24.7522 31.3446C24.1905 31.8181 23.5967 32.2835 22.9667 32.7289C22.1843 33.2826 21.1451 33.2826 20.3587 32.7289L20.3547 32.7329Z" fill="white"/>
<path d="M0.00401628 23.1072L1.62099 25.9239H1.65711C6.19911 25.9239 9.03986 30.839 6.77288 34.7712L6.74479 34.8153L8.36176 37.632L14.4886 26.9792C13.5377 25.6832 12.7593 24.3751 12.1213 23.0992H0L0.00401628 23.1072Z" fill="white"/>
<path d="M10.4201 12.2257C11.2226 11.7041 12.1133 11.2948 13.0282 10.9698L8.36177 2.86884L6.7448 5.67749L6.77289 5.72565C9.03586 9.66178 6.19511 14.5689 1.65712 14.5689H1.621L0.00402832 17.3776H10.0028C9.69389 16.1618 9.51733 15.1306 9.41702 14.3883C9.30067 13.5337 9.69388 12.6911 10.4201 12.2217V12.2257Z" fill="white"/>
<path d="M21.5704 9.77011C21.6306 9.77011 21.6868 9.77011 21.743 9.77011C22.0319 9.75808 23.0229 9.73802 24.359 9.82629L30.0124 0H26.7785V0.00803257C24.5035 3.95219 18.8099 3.94818 16.5429 0.00803257L13.309 0.00401628L18.9584 9.83431C20.2945 9.74203 21.2895 9.7661 21.5784 9.77813L21.5704 9.77011Z" fill="white"/>
<path d="M33.9004 14.3924C33.8001 15.1387 33.6236 16.1658 33.3146 17.3816H43.3054L41.6884 14.5729H41.6523C37.1103 14.5729 34.2696 9.65778 36.5366 5.72566L36.5647 5.68152L34.9477 2.87286L30.2893 10.9738C31.2081 11.2988 32.0989 11.7081 32.9014 12.2297C33.6236 12.6992 34.0168 13.5418 33.9045 14.3964L33.9004 14.3924Z" fill="white"/>
<path d="M69.0729 20.0017C67.9735 20.7961 66.6213 21.1933 65.0124 21.1933C63.913 21.1933 62.946 21.0048 62.1114 20.6356C61.2769 20.2625 60.5747 19.7368 60.0049 19.0588C59.4352 18.3807 59.0099 17.5902 58.725 16.6875C58.4401 15.7847 58.2997 14.8016 58.2997 13.7424C58.2997 12.6831 58.4401 11.672 58.725 10.7692C59.0099 9.86644 59.4272 9.08002 59.9769 8.41396C60.5266 7.74791 61.2127 7.2263 62.0392 6.85315C62.8618 6.48 63.7966 6.29542 64.8358 6.29542C65.875 6.29542 66.8139 6.47197 67.6485 6.82506C68.4831 7.17815 69.1692 7.68772 69.7109 8.35779C70.2485 9.02384 70.5896 9.85038 70.726 10.8294H74.9671C74.7905 9.14019 74.2689 7.66767 73.4063 6.4118C72.5436 5.15593 71.384 4.17289 69.9315 3.46671C68.4791 2.76053 66.7818 2.40744 64.8398 2.40744C62.8979 2.40744 61.3611 2.72843 59.9969 3.36239C58.6327 4.00035 57.5133 4.84698 56.6426 5.91025C55.7679 6.96952 55.1219 8.14915 54.7006 9.44113C54.2793 10.7371 54.0667 12.0532 54.0667 13.3853V14.0313C54.0667 15.247 54.2713 16.4989 54.6845 17.7828C55.0978 19.0708 55.7398 20.2665 56.6145 21.3739C57.4892 22.4813 58.6167 23.3761 60.0009 24.0542C61.3852 24.7322 63.0584 25.0693 65.0204 25.0693C66.9825 25.0693 68.8201 24.6881 70.2886 23.9217C71.7612 23.1554 72.9167 22.1362 73.7633 20.8603C74.6059 19.5844 75.1276 18.1801 75.3242 16.6513H71.0831C70.8464 18.0838 70.1803 19.1992 69.0809 19.9936L69.0729 20.0017Z" fill="white"/>
<path d="M84.7171 20.9285H84.0992L80.2032 8.53433H76.0825L81.2625 24.1665H83.8785L83.6498 25.0492C83.5134 25.619 83.3168 26.0644 83.06 26.3894C82.8032 26.7144 82.4863 26.9471 82.1051 27.0955C81.7239 27.244 81.2464 27.3162 80.6767 27.3162H77.6754V30.819H80.2955C81.6116 30.819 82.715 30.6625 83.6057 30.3496C84.5005 30.0366 85.2307 29.519 85.8005 28.8048C86.3702 28.0866 86.8116 27.1316 87.1246 25.936L91.8632 8.53835H87.9471L84.7211 20.9326L84.7171 20.9285Z" fill="white"/>
<path d="M108.875 22.6498C109.542 21.8955 110.051 21.0168 110.408 20.0137C110.761 19.0146 110.938 17.9353 110.938 16.7757V16.1578C110.938 15.0023 110.765 13.931 110.424 12.9479C110.079 11.9689 109.586 11.1063 108.936 10.372C108.286 9.63773 107.511 9.06395 106.608 8.65067C105.706 8.2374 104.707 8.03278 103.607 8.03278C102.371 8.03278 101.26 8.30963 100.281 8.85933C99.3541 9.38093 98.6118 10.1513 98.0421 11.1624V3.02936H93.9495V24.5196H97.1874V21.0449C97.2837 21.2936 97.3881 21.5384 97.5124 21.7671C98.0822 22.8384 98.8686 23.6529 99.8677 24.2106C100.867 24.7684 102.026 25.0492 103.342 25.0492C104.502 25.0492 105.545 24.8366 106.476 24.4153C107.407 23.994 108.209 23.4041 108.875 22.6498ZM106.267 19.131C105.902 19.8973 105.389 20.4992 104.723 20.9406C104.057 21.3819 103.29 21.6026 102.428 21.6026C101.661 21.6026 100.935 21.4261 100.249 21.073C99.5628 20.7199 99.001 20.2183 98.5717 19.5723C98.1384 18.9264 97.9257 18.1399 97.9257 17.2171V16.0375C97.9257 15.0745 98.1384 14.256 98.5597 13.5779C98.981 12.8998 99.5307 12.3822 100.209 12.0171C100.887 11.6519 101.625 11.4714 102.432 11.4714C103.294 11.4714 104.057 11.676 104.715 12.0893C105.373 12.5025 105.886 13.0843 106.259 13.8427C106.633 14.597 106.817 15.4757 106.817 16.4788C106.817 17.4819 106.637 18.3606 106.271 19.127L106.267 19.131Z" fill="white"/>
<path d="M125.11 9.10811C123.942 8.35379 122.494 7.97662 120.768 7.97662C119.452 7.97662 118.289 8.20933 117.281 8.67075C116.27 9.13218 115.432 9.7501 114.766 10.5245C114.1 11.2989 113.594 12.1816 113.249 13.1726C112.904 14.1637 112.735 15.1909 112.735 16.2501V16.8078C112.735 17.827 112.908 18.8301 113.249 19.8131C113.59 20.7961 114.104 21.6829 114.782 22.4773C115.46 23.2718 116.315 23.9057 117.342 24.3752C118.369 24.8446 119.573 25.0813 120.949 25.0813C122.325 25.0813 123.436 24.8566 124.468 24.4032C125.499 23.9539 126.345 23.3159 127.015 22.4893C127.682 21.6628 128.135 20.7038 128.372 19.6045H124.576C124.399 20.1943 123.998 20.6878 123.368 21.089C122.738 21.4903 121.936 21.6909 120.953 21.6909C119.97 21.6909 119.127 21.4702 118.481 21.0289C117.835 20.5875 117.354 19.9776 117.037 19.2032C116.832 18.6977 116.7 18.14 116.631 17.5421H128.637V16.0415C128.637 14.6291 128.344 13.309 127.754 12.0813C127.164 10.8535 126.285 9.86244 125.118 9.10811H125.11ZM118.473 11.993C119.099 11.5717 119.865 11.359 120.768 11.359C121.671 11.359 122.417 11.5557 123.007 11.9489C123.597 12.3421 124.042 12.8998 124.347 13.626C124.52 14.0393 124.636 14.5048 124.712 15.0103H116.688C116.768 14.5609 116.888 14.1476 117.045 13.7745C117.37 13.0081 117.843 12.4143 118.473 11.993Z" fill="white"/>
<path d="M140.846 11.8887V8.32568H140.256C138.35 8.32568 136.91 8.91951 135.927 10.1072C135.185 11.0059 134.723 12.2177 134.543 13.7384V8.53032H131.305V24.5156H135.397V16.214C135.397 14.8217 135.774 13.7504 136.529 13.0041C137.283 12.2578 138.35 11.8847 139.723 11.8847H140.842L140.846 11.8887Z" fill="white"/>
<path d="M147.763 24.5196H149.38H150.56H152.089H153.12L157.449 8.53433H153.501L150.247 21.1653H149.553L145.761 8.53433H141.552L146.556 24.5196H147.763Z" fill="white"/>
<path d="M170.843 24.4032C171.922 23.9538 172.833 23.344 173.579 22.5776C174.325 21.8112 174.891 20.9406 175.272 19.9575C175.653 18.9745 175.846 17.9473 175.846 16.868V16.2501C175.846 15.1507 175.649 14.1075 175.256 13.1164C174.863 12.1254 174.289 11.2427 173.535 10.4683C172.781 9.69391 171.862 9.08403 170.782 8.64267C169.703 8.20131 168.487 7.98062 167.131 7.98062C165.775 7.98062 164.555 8.20131 163.468 8.64267C162.376 9.08403 161.458 9.69391 160.699 10.4683C159.945 11.2427 159.371 12.1294 158.978 13.1164C158.585 14.1075 158.388 15.1547 158.388 16.2501V16.868C158.388 17.9473 158.581 18.9785 158.962 19.9575C159.343 20.9365 159.909 21.8112 160.655 22.5776C161.401 23.344 162.312 23.9498 163.392 24.4032C164.471 24.8526 165.719 25.0813 167.131 25.0813C168.543 25.0813 169.759 24.8566 170.839 24.4032H170.843ZM163.027 19.119C162.661 18.3646 162.481 17.506 162.481 16.543C162.481 15.5801 162.665 14.7174 163.039 13.951C163.412 13.1847 163.945 12.5828 164.643 12.1414C165.342 11.7001 166.168 11.4794 167.131 11.4794C168.094 11.4794 168.917 11.7001 169.603 12.1414C170.289 12.5828 170.819 13.1847 171.192 13.951C171.565 14.7174 171.749 15.5801 171.749 16.543C171.749 17.506 171.569 18.3646 171.204 19.119C170.839 19.8733 170.317 20.4751 169.627 20.9165C168.941 21.3578 168.106 21.5785 167.123 21.5785C166.14 21.5785 165.277 21.3578 164.591 20.9165C163.905 20.4751 163.38 19.8773 163.014 19.119H163.027Z" fill="white"/>
<path d="M178.907 3.02936H176.905V6.09078H178.907V24.5196H183V6.09078V3.02936H178.907Z" fill="white"/>
<path d="M99.2178 31.3928C99.0132 31.1601 98.7644 30.9755 98.4755 30.8431C98.1866 30.7107 97.8697 30.6465 97.5166 30.6465C97.1234 30.6465 96.7703 30.7348 96.4573 30.9113C96.1604 31.0758 95.9237 31.3286 95.7431 31.6536V29.0536H94.4391V35.9067H95.4703V34.7511C95.5064 34.8434 95.5305 34.9437 95.5746 35.028C95.7551 35.369 96.0079 35.6298 96.3249 35.8064C96.6459 35.9829 97.015 36.0752 97.4323 36.0752C97.8015 36.0752 98.1345 36.007 98.4314 35.8746C98.7283 35.7422 98.9851 35.5536 99.1977 35.3129C99.4104 35.0721 99.5749 34.7913 99.6873 34.4743C99.7996 34.1533 99.8558 33.8123 99.8558 33.4431V33.2465C99.8558 32.8774 99.7996 32.5363 99.6913 32.2233C99.5829 31.9104 99.4224 31.6375 99.2178 31.4008V31.3928ZM98.3672 34.1894C98.2508 34.4342 98.0863 34.6268 97.8737 34.7672C97.661 34.9076 97.4163 34.9798 97.1394 34.9798C96.8946 34.9798 96.6619 34.9237 96.4453 34.8113C96.2246 34.699 96.048 34.5385 95.9116 34.3298C95.7752 34.1252 95.707 33.8724 95.707 33.5795V33.2064C95.707 32.9014 95.7752 32.6366 95.9076 32.424C96.044 32.2073 96.2166 32.0428 96.4332 31.9264C96.6499 31.8101 96.8866 31.7539 97.1434 31.7539C97.4203 31.7539 97.661 31.8181 97.8697 31.9505C98.0783 32.0829 98.2428 32.2675 98.3632 32.5082C98.4835 32.749 98.5397 33.0298 98.5397 33.3468C98.5397 33.6638 98.4795 33.9487 98.3672 34.1934V34.1894Z" fill="white"/>
<path d="M102.753 34.7591H102.556L101.312 30.807H99.9961L101.649 35.7943H102.484L102.412 36.0752C102.367 36.2558 102.303 36.4002 102.223 36.5005C102.143 36.6048 102.038 36.6771 101.918 36.7252C101.798 36.7734 101.645 36.7974 101.461 36.7974H100.502V37.9129H101.336C101.754 37.9129 102.107 37.8647 102.391 37.7644C102.676 37.6641 102.909 37.4996 103.09 37.2709C103.27 37.0422 103.411 36.7372 103.511 36.3561L105.024 30.807H103.776L102.749 34.7591H102.753Z" fill="white"/>
<path d="M111.564 33.3749C111.965 33.2144 112.274 32.9696 112.499 32.6406C112.723 32.3116 112.832 31.8983 112.832 31.3968V31.2443C112.832 30.7387 112.723 30.3215 112.503 29.9924C112.282 29.6634 111.973 29.4147 111.568 29.2502C111.163 29.0857 110.685 29.0014 110.135 29.0014H107.592V35.9027H108.924V33.6116H110.135C110.135 33.6116 110.147 33.6116 110.155 33.6116L111.768 35.9027H113.337L111.504 33.3869C111.504 33.3869 111.544 33.3789 111.56 33.3709L111.564 33.3749ZM108.928 30.1409H110.28C110.525 30.1409 110.733 30.1931 110.914 30.2974C111.09 30.4017 111.231 30.5421 111.327 30.7187C111.423 30.8952 111.472 31.1039 111.472 31.3446C111.472 31.5854 111.423 31.79 111.327 31.9705C111.231 32.1511 111.09 32.2875 110.914 32.3878C110.737 32.4882 110.525 32.5403 110.28 32.5403H108.928V30.1449V30.1409Z" fill="white"/>
<path d="M118.417 31.4208C118.176 31.1721 117.883 30.9795 117.538 30.839C117.193 30.6986 116.804 30.6264 116.375 30.6264C115.945 30.6264 115.552 30.6986 115.207 30.839C114.858 30.9795 114.565 31.1721 114.324 31.4208C114.084 31.6696 113.899 31.9505 113.775 32.2675C113.65 32.5844 113.586 32.9175 113.586 33.2665V33.4631C113.586 33.8082 113.646 34.1372 113.771 34.4502C113.891 34.7631 114.072 35.044 114.312 35.2848C114.549 35.5295 114.842 35.7221 115.187 35.8666C115.532 36.011 115.929 36.0832 116.379 36.0832C116.828 36.0832 117.217 36.011 117.562 35.8666C117.907 35.7221 118.196 35.5295 118.437 35.2848C118.674 35.04 118.854 34.7631 118.979 34.4502C119.099 34.1372 119.163 33.8082 119.163 33.4631V33.2665C119.163 32.9175 119.099 32.5804 118.975 32.2675C118.85 31.9505 118.666 31.6696 118.425 31.4208H118.417ZM117.675 34.1814C117.558 34.4221 117.39 34.6147 117.173 34.7551C116.952 34.8956 116.688 34.9678 116.375 34.9678C116.062 34.9678 115.785 34.8956 115.568 34.7551C115.347 34.6147 115.183 34.4221 115.067 34.1814C114.95 33.9406 114.894 33.6678 114.894 33.3588C114.894 33.0499 114.954 32.777 115.071 32.5323C115.191 32.2875 115.36 32.0949 115.584 31.9545C115.805 31.8141 116.07 31.7418 116.379 31.7418C116.688 31.7418 116.948 31.8101 117.169 31.9545C117.39 32.0949 117.558 32.2875 117.675 32.5323C117.795 32.777 117.851 33.0499 117.851 33.3588C117.851 33.6678 117.791 33.9406 117.679 34.1814H117.675Z" fill="white"/>
<path d="M121.442 29.3705H120.211V30.807H119.404V31.7659H120.211V33.9928C120.211 34.4863 120.283 34.8795 120.431 35.1724C120.58 35.4653 120.804 35.67 121.109 35.7943C121.414 35.9147 121.803 35.9789 122.277 35.9789H123.011V34.8635H122.213C121.964 34.8635 121.771 34.7953 121.635 34.6629C121.498 34.5304 121.434 34.3379 121.434 34.0851V31.7739H123.011V30.815H121.438V29.3786L121.442 29.3705Z" fill="white"/>
<path d="M126.077 34.8354H125.856L124.644 30.807H123.304L124.897 35.9067H125.282H125.8H126.177H126.662H126.991L128.372 30.807H127.116L126.077 34.8354Z" fill="white"/>
<path d="M133.504 31.4208C133.263 31.1721 132.97 30.9795 132.625 30.839C132.28 30.6986 131.891 30.6264 131.461 30.6264C131.032 30.6264 130.639 30.6986 130.294 30.839C129.945 30.9795 129.652 31.1721 129.411 31.4208C129.17 31.6696 128.986 31.9505 128.861 32.2675C128.737 32.5844 128.673 32.9175 128.673 33.2665V33.4631C128.673 33.8082 128.733 34.1372 128.857 34.4502C128.978 34.7631 129.158 35.044 129.399 35.2848C129.636 35.5295 129.928 35.7221 130.274 35.8666C130.619 36.011 131.016 36.0832 131.465 36.0832C131.915 36.0832 132.304 36.011 132.649 35.8666C132.994 35.7221 133.283 35.5295 133.524 35.2848C133.76 35.04 133.941 34.7631 134.065 34.4502C134.186 34.1372 134.25 33.8082 134.25 33.4631V33.2665C134.25 32.9175 134.186 32.5804 134.061 32.2675C133.937 31.9505 133.752 31.6696 133.511 31.4208H133.504ZM132.761 34.1814C132.645 34.4221 132.476 34.6147 132.26 34.7551C132.039 34.8956 131.774 34.9678 131.461 34.9678C131.148 34.9678 130.871 34.8956 130.655 34.7551C130.434 34.6147 130.27 34.4221 130.153 34.1814C130.037 33.9406 129.981 33.6678 129.981 33.3588C129.981 33.0499 130.041 32.777 130.157 32.5323C130.278 32.2875 130.446 32.0949 130.671 31.9545C130.891 31.8141 131.156 31.7418 131.465 31.7418C131.774 31.7418 132.035 31.8101 132.256 31.9545C132.476 32.0949 132.645 32.2875 132.761 32.5323C132.882 32.777 132.938 33.0499 132.938 33.3588C132.938 33.6678 132.878 33.9406 132.765 34.1814H132.761Z" fill="white"/>
<path d="M134.579 29.0496V30.0286H135.217V35.9067H136.525V30.0286V29.0496H135.217H134.579Z" fill="white"/>
<path d="M143.615 32.1792C143.25 32.0107 142.816 31.9063 142.323 31.8702L141.733 31.8141C141.396 31.79 141.147 31.6977 140.991 31.5372C140.834 31.3767 140.754 31.1922 140.754 30.9795C140.754 30.803 140.798 30.6424 140.886 30.494C140.974 30.3455 141.103 30.2292 141.275 30.1369C141.448 30.0446 141.665 30.0005 141.929 30.0005C142.194 30.0005 142.435 30.0526 142.616 30.153C142.796 30.2533 142.933 30.3816 143.021 30.5421C143.109 30.7026 143.153 30.8712 143.153 31.0557H144.457C144.457 30.6104 144.357 30.2252 144.152 29.8962C143.948 29.5671 143.659 29.3144 143.278 29.1298C142.9 28.9492 142.451 28.857 141.929 28.857C141.408 28.857 140.991 28.9452 140.621 29.1137C140.248 29.2863 139.959 29.531 139.751 29.848C139.546 30.165 139.442 30.5421 139.442 30.9795C139.442 31.5613 139.638 32.0307 140.028 32.3838C140.417 32.7369 140.942 32.9415 141.6 32.9977L142.202 33.0539C142.64 33.09 142.965 33.1823 143.169 33.3307C143.374 33.4792 143.478 33.6718 143.478 33.9085C143.478 34.1011 143.422 34.2777 143.314 34.4301C143.205 34.5826 143.041 34.707 142.824 34.8033C142.608 34.8956 142.335 34.9437 142.002 34.9437C141.645 34.9437 141.356 34.8915 141.135 34.7832C140.914 34.6749 140.75 34.5385 140.649 34.3659C140.549 34.1934 140.501 34.0169 140.501 33.8363H139.197C139.197 34.2696 139.305 34.6548 139.522 34.9959C139.739 35.3369 140.056 35.6058 140.477 35.7984C140.898 35.9909 141.408 36.0912 142.006 36.0912C142.575 36.0912 143.069 35.999 143.486 35.8184C143.904 35.6379 144.225 35.381 144.449 35.052C144.674 34.723 144.786 34.3419 144.786 33.9125C144.786 33.5073 144.682 33.1582 144.477 32.8693C144.273 32.5804 143.984 32.3517 143.619 32.1832L143.615 32.1792Z" fill="white"/>
<path d="M150.163 31.4208C149.922 31.1721 149.629 30.9795 149.284 30.839C148.939 30.6986 148.55 30.6264 148.12 30.6264C147.691 30.6264 147.298 30.6986 146.953 30.839C146.604 30.9795 146.311 31.1721 146.07 31.4208C145.829 31.6696 145.645 31.9505 145.52 32.2675C145.396 32.5844 145.332 32.9175 145.332 33.2665V33.4631C145.332 33.8082 145.392 34.1372 145.516 34.4502C145.637 34.7631 145.817 35.044 146.058 35.2848C146.295 35.5295 146.588 35.7221 146.933 35.8666C147.278 36.011 147.675 36.0832 148.125 36.0832C148.574 36.0832 148.963 36.011 149.308 35.8666C149.653 35.7221 149.942 35.5295 150.183 35.2848C150.42 35.04 150.6 34.7631 150.725 34.4502C150.845 34.1372 150.909 33.8082 150.909 33.4631V33.2665C150.909 32.9175 150.845 32.5804 150.72 32.2675C150.596 31.9505 150.412 31.6696 150.171 31.4208H150.163ZM149.42 34.1814C149.304 34.4221 149.136 34.6147 148.919 34.7551C148.698 34.8956 148.433 34.9678 148.12 34.9678C147.808 34.9678 147.531 34.8956 147.314 34.7551C147.093 34.6147 146.929 34.4221 146.812 34.1814C146.696 33.9406 146.64 33.6678 146.64 33.3588C146.64 33.0499 146.7 32.777 146.816 32.5323C146.937 32.2875 147.105 32.0949 147.33 31.9545C147.551 31.8141 147.816 31.7418 148.125 31.7418C148.433 31.7418 148.694 31.8101 148.915 31.9545C149.136 32.0949 149.304 32.2875 149.42 32.5323C149.541 32.777 149.597 33.0499 149.597 33.3588C149.597 33.6678 149.537 33.9406 149.425 34.1814H149.42Z" fill="white"/>
<path d="M151.234 29.0496V30.0286H151.876V35.9067H153.18V30.0286V29.0496H151.876H151.234Z" fill="white"/>
<path d="M157.63 33.8122C157.63 34.1452 157.534 34.406 157.345 34.6026C157.152 34.7952 156.908 34.8956 156.607 34.8956C156.306 34.8956 156.069 34.8033 155.892 34.6187C155.716 34.4341 155.628 34.1854 155.628 33.8724V30.8029H154.324V33.7601C154.324 34.5304 154.484 35.1082 154.801 35.4934C155.122 35.8786 155.576 36.0712 156.173 36.0712H156.229C156.623 36.0712 156.952 35.9869 157.213 35.8144C157.473 35.6419 157.67 35.3851 157.802 35.04C157.846 34.9277 157.871 34.7912 157.903 34.6588V35.9107H158.934V30.8029H157.63V33.8162V33.8122Z" fill="white"/>
<path d="M161.582 29.3705H160.35V30.807H159.544V31.7659H160.35V33.9928C160.35 34.4863 160.422 34.8795 160.571 35.1724C160.719 35.4653 160.944 35.67 161.249 35.7943C161.554 35.9147 161.943 35.9789 162.417 35.9789H163.151V34.8635H162.352C162.104 34.8635 161.911 34.7953 161.775 34.6629C161.638 34.5304 161.574 34.3379 161.574 34.0851V31.7739H163.151V30.815H161.578V29.3786L161.582 29.3705Z" fill="white"/>
<path d="M163.544 30.807V31.786H164.258V35.9067H165.562V31.786V30.807H164.258H163.544Z" fill="white"/>
<path d="M164.17 28.9773C164.05 29.1097 163.985 29.2782 163.985 29.4869C163.985 29.6955 164.046 29.8721 164.17 30.0045C164.29 30.1369 164.483 30.2011 164.74 30.2011C164.996 30.2011 165.185 30.1369 165.301 30.0045C165.422 29.8721 165.478 29.6995 165.478 29.4869C165.478 29.2742 165.418 29.1097 165.301 28.9773C165.181 28.8449 164.996 28.7807 164.74 28.7807C164.483 28.7807 164.294 28.8449 164.17 28.9773Z" fill="white"/>
<path d="M171.324 31.4208C171.083 31.1721 170.79 30.9795 170.445 30.839C170.1 30.6986 169.711 30.6264 169.282 30.6264C168.852 30.6264 168.459 30.6986 168.114 30.839C167.765 30.9795 167.472 31.1721 167.231 31.4208C166.991 31.6696 166.806 31.9505 166.682 32.2675C166.557 32.5844 166.493 32.9175 166.493 33.2665V33.4631C166.493 33.8082 166.553 34.1372 166.678 34.4502C166.798 34.7631 166.979 35.044 167.219 35.2848C167.456 35.5295 167.749 35.7221 168.094 35.8666C168.439 36.011 168.836 36.0832 169.286 36.0832C169.735 36.0832 170.124 36.011 170.469 35.8666C170.814 35.7221 171.103 35.5295 171.344 35.2848C171.581 35.04 171.761 34.7631 171.886 34.4502C172.006 34.1372 172.07 33.8082 172.07 33.4631V33.2665C172.07 32.9175 172.006 32.5804 171.882 32.2675C171.757 31.9505 171.573 31.6696 171.332 31.4208H171.324ZM170.582 34.1814C170.465 34.4221 170.297 34.6147 170.08 34.7551C169.859 34.8956 169.595 34.9678 169.282 34.9678C168.969 34.9678 168.692 34.8956 168.475 34.7551C168.254 34.6147 168.09 34.4221 167.974 34.1814C167.857 33.9406 167.801 33.6678 167.801 33.3588C167.801 33.0499 167.861 32.777 167.978 32.5323C168.098 32.2875 168.267 32.0949 168.491 31.9545C168.712 31.8141 168.977 31.7418 169.286 31.7418C169.595 31.7418 169.855 31.8101 170.076 31.9545C170.297 32.0949 170.465 32.2875 170.582 32.5323C170.702 32.777 170.758 33.0499 170.758 33.3588C170.758 33.6678 170.698 33.9406 170.586 34.1814H170.582Z" fill="white"/>
<path d="M175.81 30.6465H175.754C175.348 30.6465 175.007 30.7348 174.734 30.9113C174.462 31.0879 174.257 31.3486 174.121 31.6937C174.072 31.8181 174.04 31.9706 174.008 32.119V30.807H172.977V35.9067H174.281V32.9135C174.281 32.5885 174.381 32.3277 174.578 32.123C174.775 31.9224 175.031 31.8221 175.352 31.8221C175.673 31.8221 175.902 31.9184 176.087 32.115C176.267 32.3076 176.359 32.5644 176.359 32.8774V35.9107H177.663V32.9897C177.663 32.2153 177.507 31.6295 177.194 31.2363C176.881 30.8471 176.42 30.6505 175.814 30.6505L175.81 30.6465Z" fill="white"/>
<path d="M182.386 33.3147C182.045 33.0459 181.576 32.8773 180.974 32.8172L180.524 32.769C180.247 32.7369 180.051 32.6767 179.927 32.5925C179.806 32.5042 179.742 32.3798 179.742 32.2153C179.742 32.0508 179.818 31.9104 179.967 31.802C180.115 31.6937 180.328 31.6415 180.605 31.6415C180.91 31.6415 181.146 31.7057 181.303 31.8301C181.459 31.9545 181.551 32.107 181.572 32.2915H182.747C182.727 31.7539 182.527 31.3446 182.137 31.0718C181.748 30.7949 181.243 30.6585 180.617 30.6585C180.211 30.6585 179.85 30.7187 179.541 30.8431C179.232 30.9634 178.988 31.144 178.815 31.3807C178.639 31.6175 178.554 31.9144 178.554 32.2635C178.554 32.7008 178.707 33.0539 179.016 33.3187C179.321 33.5835 179.762 33.744 180.34 33.8002L180.781 33.8483C181.126 33.8844 181.367 33.9567 181.507 34.057C181.648 34.1573 181.72 34.2897 181.72 34.4502C181.72 34.6428 181.628 34.7993 181.439 34.9116C181.251 35.024 181.006 35.0801 180.697 35.0801C180.32 35.0801 180.047 35.0079 179.87 34.8635C179.694 34.719 179.597 34.5585 179.577 34.386H178.394C178.418 34.9116 178.631 35.3249 179.028 35.6218C179.425 35.9187 179.975 36.0672 180.677 36.0672C181.126 36.0672 181.519 35.999 181.852 35.8666C182.185 35.7341 182.442 35.5415 182.627 35.2888C182.811 35.036 182.904 34.7431 182.904 34.406C182.904 33.9486 182.731 33.5875 182.39 33.3187L182.386 33.3147Z" fill="white"/>
</svg>
