<svg width="45" height="45" viewBox="0 0 45 45" fill="none" xmlns="http://www.w3.org/2000/svg">
<rect width="45" height="45" rx="10.2987" fill="url(#paint0_linear_260_3559)"/>
<path d="M19.6875 17.8125C19.6875 15.7444 18.0056 14.0625 15.9375 14.0625C13.8694 14.0625 12.1875 15.7444 12.1875 17.8125C12.1875 19.8806 13.8694 21.5625 15.9375 21.5625C18.0056 21.5625 19.6875 19.8806 19.6875 17.8125ZM15.9375 19.6875C14.9034 19.6875 14.0625 18.8466 14.0625 17.8125C14.0625 16.7784 14.9034 15.9375 15.9375 15.9375C16.9716 15.9375 17.8125 16.7784 17.8125 17.8125C17.8125 18.8466 16.9716 19.6875 15.9375 19.6875Z" fill="white"/>
<path d="M18.7894 21.5625H15.9375H13.0856C11.0391 21.5625 9.375 23.2266 9.375 25.2731V30C9.375 30.5184 9.795 30.9375 10.3125 30.9375H13.125C13.6425 30.9375 14.0625 30.5184 14.0625 30C14.0625 29.4816 13.6425 29.0625 13.125 29.0625H11.25V25.2731C11.25 24.2606 12.0731 23.4375 13.0856 23.4375H18.7903C19.8019 23.4375 20.625 24.2606 20.625 25.2731V29.0625H18.75C18.2325 29.0625 17.8125 29.4816 17.8125 30C17.8125 30.5184 18.2325 30.9375 18.75 30.9375H21.5625C22.08 30.9375 22.5 30.5184 22.5 30V25.2731C22.5 23.2266 20.8359 21.5625 18.7894 21.5625Z" fill="white"/>
<path d="M28.6744 23.4375L28.3997 23.7122C28.0331 24.0787 28.0331 24.6712 28.3997 25.0378C28.5825 25.2206 28.8225 25.3125 29.0625 25.3125C29.3025 25.3125 29.5425 25.2206 29.7253 25.0378L31.6003 23.1628C31.9669 22.7962 31.9669 22.2037 31.6003 21.8372L29.7253 19.9622C29.3588 19.5956 28.7662 19.5956 28.3997 19.9622C28.0331 20.3287 28.0331 20.9212 28.3997 21.2878L28.6744 21.5625H23.4375C22.92 21.5625 22.5 21.9816 22.5 22.5C22.5 23.0184 22.92 23.4375 23.4375 23.4375H28.6744Z" fill="white"/>
<path d="M34.6875 9.375H24.375C23.8575 9.375 23.4375 9.79406 23.4375 10.3125V19.6875C23.4375 20.2059 23.8575 20.625 24.375 20.625C24.8925 20.625 25.3125 20.2059 25.3125 19.6875V11.25H33.75V33.75H25.3125V25.3125C25.3125 24.7941 24.8925 24.375 24.375 24.375C23.8575 24.375 23.4375 24.7941 23.4375 25.3125V34.6875C23.4375 35.2059 23.8575 35.625 24.375 35.625H34.6875C35.205 35.625 35.625 35.2059 35.625 34.6875V10.3125C35.625 9.79406 35.205 9.375 34.6875 9.375Z" fill="white"/>
<defs>
<linearGradient id="paint0_linear_260_3559" x1="8.41304" y1="37.1875" x2="48.2333" y2="12.1328" gradientUnits="userSpaceOnUse">
<stop stop-color="#6F90B4"/>
<stop offset="0.567308" stop-color="#2E5A88"/>
<stop offset="1" stop-color="#87BBF3"/>
</linearGradient>
</defs>
</svg>
