<svg width="45" height="45" viewBox="0 0 45 45" fill="none" xmlns="http://www.w3.org/2000/svg">
<rect width="45" height="45" rx="10.2987" fill="url(#paint0_linear_260_3766)"/>
<g clip-path="url(#clip0_260_3766)">
<path fill-rule="evenodd" clip-rule="evenodd" d="M20.4219 29.9369C22.3375 29.9369 24.1205 29.3705 25.6136 28.3963C25.954 28.1743 26.3912 28.2202 26.6784 28.5073L29.3603 31.1893C29.4272 31.0822 29.5076 30.9803 29.6005 30.8874L30.8879 29.5999C30.9808 29.5065 31.0828 29.4266 31.1898 29.3598L28.5079 26.6778C28.2207 26.3907 28.1754 25.9528 28.3969 25.613C29.3711 24.1199 29.9369 22.3369 29.9369 20.4213C29.9369 19.3661 29.7653 18.3517 29.4481 17.4035L27.6351 18.6343C27.7767 19.2069 27.8514 19.8056 27.8514 20.4219C27.8514 24.5249 24.5249 27.852 20.4213 27.852C16.3177 27.852 12.9918 24.5249 12.9918 20.4219C12.9918 16.3188 16.3183 12.9918 20.4219 12.9918C23.2885 12.9918 25.886 14.6355 27.1219 17.2058L28.8625 16.0249C27.2748 12.9833 24.0911 10.9062 20.4224 10.9062C15.1662 10.9062 10.9062 15.1662 10.9062 20.4219C10.9062 25.6776 15.1662 29.9375 20.4219 29.9375V29.9369ZM37.4979 37.4979C36.7032 38.2926 35.4033 38.2926 34.6087 37.4979L30.0009 32.8902C29.5597 32.4489 29.5597 31.7296 30.0009 31.2884L31.2884 30.0009C31.7296 29.5597 32.4495 29.5597 32.8902 30.0009L37.4979 34.6087C38.2926 35.4033 38.2926 36.7032 37.4979 37.4979ZM13.5763 20.9231L13.5599 20.2604L16.2707 21.8334C16.4531 21.6589 16.7006 21.5519 16.9725 21.5519C17.105 21.5519 17.2319 21.5773 17.348 21.6238L19.4528 18.9181C19.331 18.7504 19.2596 18.5448 19.2596 18.3222C19.2596 17.7615 19.7144 17.3066 20.2752 17.3066C20.8676 17.3066 21.3344 17.8113 21.2873 18.4032L23.6436 19.2947C23.8288 19.0478 24.1239 18.8886 24.4564 18.8886C24.7033 18.8886 24.9293 18.9764 25.1055 19.1231L30.3402 15.57C30.3079 15.4709 30.2904 15.365 30.2904 15.2551C30.2904 14.6944 30.7452 14.2396 31.3059 14.2396C31.8667 14.2396 32.3215 14.6944 32.3215 15.2551C32.3215 15.8159 31.8667 16.2707 31.3059 16.2707C31.059 16.2707 30.833 16.1829 30.6568 16.0362L25.4221 19.5893C25.4544 19.6884 25.472 19.7943 25.472 19.9042C25.472 20.4649 25.0171 20.9197 24.4564 20.9197C23.8639 20.9197 23.3972 20.4151 23.4442 19.8232L21.088 18.9317C20.9028 19.1786 20.6077 19.3378 20.2752 19.3378C20.1426 19.3378 20.0158 19.3123 19.8996 19.2658L17.7949 21.9716C17.9167 22.1392 17.988 22.3448 17.988 22.5674C17.988 23.1282 17.5332 23.583 16.9725 23.583C16.4117 23.583 15.9569 23.1282 15.9569 22.5674C15.9569 22.483 15.9671 22.4009 15.9869 22.3222L13.5763 20.9237V20.9231Z" fill="white"/>
</g>
<defs>
<linearGradient id="paint0_linear_260_3766" x1="8.41304" y1="37.1875" x2="48.2333" y2="12.1328" gradientUnits="userSpaceOnUse">
<stop stop-color="#6F90B4"/>
<stop offset="0.567308" stop-color="#2E5A88"/>
<stop offset="1" stop-color="#87BBF3"/>
</linearGradient>
<clipPath id="clip0_260_3766">
<rect width="29" height="29" fill="white" transform="translate(10 10)"/>
</clipPath>
</defs>
</svg>
