<svg width="45" height="45" viewBox="0 0 45 45" fill="none" xmlns="http://www.w3.org/2000/svg">
<rect width="45" height="45" rx="10.2987" fill="url(#paint0_linear_260_3551)"/>
<path d="M20.3877 12.3965C20.4317 12.3855 24.7657 11.203 26.8612 13.271C26.9657 13.3755 27.1087 13.4305 27.2462 13.4305C27.3892 13.4305 27.5322 13.3755 27.6367 13.2655C27.8512 13.051 27.8457 12.699 27.6312 12.49C25.0902 9.98198 20.2942 11.28 20.0907 11.335C19.7992 11.4175 19.6287 11.72 19.7112 12.0115C19.7882 12.303 20.0962 12.4735 20.3877 12.3965Z" fill="white"/>
<path d="M16.7473 15.229C16.9233 15.4765 17.2698 15.5315 17.5118 15.3555C17.5668 15.317 23.3583 11.313 29.5348 16.9945C29.6393 17.0935 29.7713 17.1375 29.9088 17.1375C30.0573 17.1375 30.2058 17.077 30.3158 16.9615C30.5193 16.736 30.5083 16.3895 30.2828 16.186C23.4463 9.89398 16.9398 14.415 16.8738 14.459C16.6263 14.635 16.5713 14.9815 16.7473 15.229Z" fill="white"/>
<path d="M30.6066 21.5485C30.7001 21.5485 30.7936 21.5265 30.8816 21.477C31.1456 21.3285 31.2391 20.9875 31.0851 20.729C29.1711 17.3905 26.7456 15.427 23.8746 14.899C19.1336 14.0245 14.9591 17.3905 14.7831 17.5335C14.5466 17.726 14.5136 18.0725 14.7061 18.309C14.8986 18.5455 15.2451 18.5785 15.4816 18.386C15.5201 18.353 19.4306 15.2015 23.6766 15.9825C26.2121 16.45 28.3846 18.232 30.1281 21.279C30.2326 21.4495 30.4141 21.5485 30.6066 21.5485Z" fill="white"/>
<path d="M29.5508 27.1255H29.5893C29.8753 27.1255 30.1173 26.9055 30.1393 26.614C30.4693 22.0545 28.0438 19.6785 27.9723 19.618C26.2948 17.7095 24.3808 16.7415 22.2853 16.7415C22.2468 16.7415 22.2083 16.7415 22.1698 16.7415C17.7258 16.8185 14.1013 21.18 13.9473 21.3615C13.7548 21.598 13.7878 21.9445 14.0243 22.137C14.2608 22.3295 14.6073 22.2965 14.7998 22.06C14.8328 22.016 18.2593 17.902 22.1973 17.8415C24.0068 17.8195 25.6733 18.6555 27.1913 20.377C27.2133 20.399 29.3473 22.4835 29.0503 26.537C29.0228 26.8395 29.2483 27.1035 29.5508 27.1255Z" fill="white"/>
<path d="M24.0126 34.017C24.1721 34.017 24.3261 33.951 24.4361 33.819C27.3676 30.31 28.5996 27.1035 28.0991 24.2875C27.5601 21.2515 25.1951 19.86 25.1071 19.805C22.6981 18.331 20.1351 18.5455 17.8966 20.41C17.0991 21.07 16.4171 21.95 15.8671 23.0225C15.0036 24.711 13.8046 25.6185 13.7936 25.6295C13.5516 25.811 13.5021 26.1575 13.6836 26.3995C13.8651 26.6415 14.2061 26.691 14.4536 26.515C14.5086 26.471 15.8616 25.4535 16.8461 23.5285C17.3301 22.588 17.9186 21.829 18.6006 21.2625C20.5036 19.6785 22.5001 19.508 24.5461 20.7565C24.5681 20.7675 26.5811 21.9775 27.0211 24.502C27.4556 26.977 26.3006 29.8755 23.5946 33.1205C23.4021 33.3515 23.4296 33.698 23.6661 33.896C23.7596 33.9785 23.8861 34.017 24.0126 34.017Z" fill="white"/>
<path d="M19.4417 34.5285C19.4912 34.5285 19.5407 34.523 19.5957 34.5065C21.2677 34.028 22.8187 32.6695 23.8252 31.6135C24.7602 30.629 25.4422 29.562 25.8492 28.4345C26.9987 25.25 25.7832 23.204 25.2057 22.4725C25.0462 22.269 24.8592 22.0875 24.6502 21.939C23.2807 20.938 21.9827 20.63 20.8002 21.0315C18.5782 21.785 17.6817 24.777 17.6377 24.9255C16.9997 27.472 14.6182 28.1485 14.2112 28.176C13.9582 28.132 13.7052 28.264 13.6062 28.506C13.4907 28.7865 13.6227 29.111 13.9087 29.221C14.3542 29.4025 15.3442 29.012 15.8062 28.7755C16.6642 28.341 18.1822 27.296 18.7047 25.206C18.7102 25.1785 19.4802 22.632 21.1632 22.0655C21.9882 21.785 22.9452 22.038 24.0067 22.819C24.1332 22.9125 24.2487 23.0225 24.3477 23.149C24.8097 23.7375 25.7832 25.393 24.8207 28.0605C24.4632 29.045 23.8637 29.9855 23.0332 30.8545C22.1202 31.8115 20.7342 33.038 19.2987 33.4505C19.0072 33.533 18.8367 33.841 18.9192 34.1325C18.9852 34.369 19.2052 34.5285 19.4417 34.5285Z" fill="white"/>
<path d="M16.5211 32.125C16.2241 32.1745 16.0206 32.4605 16.0701 32.7575C16.1141 33.027 16.3451 33.2195 16.6146 33.2195C16.6421 33.2195 16.6751 33.2195 16.7081 33.214C19.9311 32.675 22.3236 29.584 22.4226 29.4575C24.0836 27.3125 24.1716 25.6405 23.9516 24.612C23.7811 23.8035 23.1816 23.1985 22.3841 23.0335C21.6141 22.874 20.8496 23.1765 20.3821 23.831C19.9806 24.3975 19.6891 25.2005 19.5186 26.2125C19.3151 27.417 18.7431 28.4675 17.8961 29.1605C16.6641 30.1725 15.2341 30.6235 15.2231 30.629C14.9316 30.717 14.7721 31.0305 14.8601 31.3165C14.9481 31.608 15.2561 31.7675 15.5476 31.6795C15.6136 31.6575 17.1921 31.1625 18.5946 30.0075C19.6451 29.144 20.3601 27.857 20.6021 26.3885C20.7396 25.558 20.9761 24.8925 21.2731 24.469C21.4821 24.1775 21.8121 24.04 22.1531 24.1115C22.4336 24.172 22.7691 24.392 22.8681 24.843C23.0386 25.6405 22.9451 26.977 21.5426 28.792C21.5206 28.8085 19.3206 31.6575 16.5211 32.125Z" fill="white"/>
<path d="M9.8498 13.7C10.1523 13.7 10.3998 13.4525 10.3998 13.15V10.4H13.1498C13.4523 10.4 13.6998 10.1525 13.6998 9.84999C13.6998 9.54749 13.4523 9.29999 13.1498 9.29999H9.8498C9.5473 9.29999 9.2998 9.54749 9.2998 9.84999V13.15C9.2998 13.4525 9.5473 13.7 9.8498 13.7Z" fill="white"/>
<path d="M35.1498 9.29999H31.8498C31.5473 9.29999 31.2998 9.54749 31.2998 9.84999C31.2998 10.1525 31.5473 10.4 31.8498 10.4H34.5998V13.15C34.5998 13.4525 34.8473 13.7 35.1498 13.7C35.4523 13.7 35.6998 13.4525 35.6998 13.15V9.84999C35.6998 9.54749 35.4523 9.29999 35.1498 9.29999Z" fill="white"/>
<path d="M35.1498 31.3C34.8473 31.3 34.5998 31.5475 34.5998 31.85V34.6H31.8498C31.5473 34.6 31.2998 34.8475 31.2998 35.15C31.2998 35.4525 31.5473 35.7 31.8498 35.7H35.1498C35.4523 35.7 35.6998 35.4525 35.6998 35.15V31.85C35.6998 31.5475 35.4523 31.3 35.1498 31.3Z" fill="white"/>
<path d="M9.8498 35.7H13.1498C13.4523 35.7 13.6998 35.4525 13.6998 35.15C13.6998 34.8475 13.4523 34.6 13.1498 34.6H10.3998V31.85C10.3998 31.5475 10.1523 31.3 9.8498 31.3C9.5473 31.3 9.2998 31.5475 9.2998 31.85V35.15C9.2998 35.4525 9.5473 35.7 9.8498 35.7Z" fill="white"/>
<defs>
<linearGradient id="paint0_linear_260_3551" x1="8.41304" y1="37.1875" x2="48.2333" y2="12.1328" gradientUnits="userSpaceOnUse">
<stop stop-color="#6F90B4"/>
<stop offset="0.567308" stop-color="#2E5A88"/>
<stop offset="1" stop-color="#87BBF3"/>
</linearGradient>
</defs>
</svg>
