<svg width="45" height="45" viewBox="0 0 45 45" fill="none" xmlns="http://www.w3.org/2000/svg">
<rect width="45" height="45" rx="10.2987" fill="url(#paint0_linear_260_3737)"/>
<path fill-rule="evenodd" clip-rule="evenodd" d="M22.362 11.1986C22.4649 11.138 22.5764 11.1427 22.6579 11.1894L22.362 11.1986ZM22.6579 11.1894C22.9559 11.3604 23.2552 11.5374 23.5605 11.7179C25.783 13.0324 28.3262 14.5365 33.0704 15.3103C33.268 15.3425 33.3875 15.5066 33.3864 15.6613C33.3433 22.0495 32.9045 25.4908 31.448 28.0574C29.9938 30.6199 27.4488 32.4508 22.6712 35.3556C22.5692 35.4176 22.4313 35.4176 22.3293 35.3556C17.5477 32.4484 15.0024 30.6167 13.5488 28.0508C12.0927 25.4804 11.6557 22.0326 11.6138 15.6295C11.6128 15.4764 11.7284 15.3164 11.9176 15.2806C16.9125 14.3368 19.8818 12.6622 22.362 11.1986M21.3635 9.47164C22.0537 9.06444 22.9186 9.03891 23.6357 9.4503C23.9475 9.62919 24.2552 9.81092 24.5642 9.9935C26.7524 11.2859 29.0166 12.6232 33.3859 13.3359C34.5012 13.5177 35.3746 14.4865 35.3664 15.6752C35.3664 15.6752 35.3664 15.6753 35.3664 15.6752C35.3235 22.0306 34.9118 25.9754 33.1658 29.0519C31.4176 32.1326 28.4083 34.2019 23.6923 37.0691C22.962 37.5131 22.0385 37.5131 21.3082 37.0691C16.5882 34.1994 13.5779 32.1291 11.8303 29.0442C10.0852 25.9636 9.67557 22.012 9.63384 15.6427C9.62624 14.4809 10.463 13.5208 11.5535 13.3147C16.2218 12.4326 18.962 10.8887 21.3635 9.47164Z" fill="white"/>
<defs>
<linearGradient id="paint0_linear_260_3737" x1="8.41304" y1="37.1875" x2="48.2333" y2="12.1328" gradientUnits="userSpaceOnUse">
<stop stop-color="#6F90B4"/>
<stop offset="0.567308" stop-color="#2E5A88"/>
<stop offset="1" stop-color="#87BBF3"/>
</linearGradient>
</defs>
</svg>
