<svg width="46" height="45" viewBox="0 0 46 45" fill="none" xmlns="http://www.w3.org/2000/svg">
<rect width="46" height="45" rx="10.2987" fill="url(#paint0_linear_425_3092)"/>
<g clip-path="url(#clip0_425_3092)">
<path d="M33.5417 32.0834V16.75C33.5417 16.4959 33.4407 16.2521 33.261 16.0724C33.0813 15.8927 32.8375 15.7917 32.5833 15.7917H29.7083C29.4542 15.7917 29.2104 15.8927 29.0307 16.0724C28.851 16.2521 28.75 16.4959 28.75 16.75V32.0834H26.8333V20.5834C26.8333 20.3292 26.7324 20.0854 26.5526 19.9057C26.3729 19.726 26.1292 19.625 25.875 19.625H23C22.7458 19.625 22.5021 19.726 22.3224 19.9057C22.1426 20.0854 22.0417 20.3292 22.0417 20.5834V32.0834H20.125V24.4167C20.125 24.1625 20.024 23.9188 19.8443 23.739C19.6646 23.5593 19.4208 23.4584 19.1667 23.4584H16.2917C16.0375 23.4584 15.7937 23.5593 15.614 23.739C15.4343 23.9188 15.3333 24.1625 15.3333 24.4167V32.0834H13.4167V15.7917H11.5V33.0417C11.5 33.2959 11.601 33.5396 11.7807 33.7193C11.9604 33.8991 12.2042 34 12.4583 34H34.5V32.0834H33.5417ZM17.25 32.0834V25.375H18.2083V32.0834H17.25ZM23.9583 32.0834V21.5417H24.9167V32.0834H23.9583ZM30.6667 32.0834V17.7084H31.625V32.0834H30.6667Z" fill="white"/>
</g>
<defs>
<linearGradient id="paint0_linear_425_3092" x1="8.6" y1="37.1875" x2="48.7929" y2="11.3364" gradientUnits="userSpaceOnUse">
<stop stop-color="#6F90B4"/>
<stop offset="0.567308" stop-color="#2E5A88"/>
<stop offset="1" stop-color="#87BBF3"/>
</linearGradient>
<clipPath id="clip0_425_3092">
<rect width="23" height="23" fill="white" transform="translate(11.5 11)"/>
</clipPath>
</defs>
</svg>
