<svg width="45" height="45" viewBox="0 0 45 45" fill="none" xmlns="http://www.w3.org/2000/svg">
<rect width="45" height="45" rx="10.2987" fill="url(#paint0_linear_425_3084)"/>
<path d="M32.047 14.0481L22.8595 10.0747C22.6293 9.97514 22.3706 9.97509 22.1405 10.0747L12.953 14.0481C12.6031 14.1995 12.375 14.5554 12.375 14.95V19.7804C12.375 26.4314 16.2342 32.4142 22.1457 34.9276C22.3728 35.0241 22.6272 35.0241 22.8543 34.9276C28.7657 32.4142 32.625 26.4314 32.625 19.7804V14.95C32.625 14.5554 32.397 14.1995 32.047 14.0481ZM30.75 19.7804C30.75 25.4344 27.5625 30.6393 22.5 32.9627C17.5728 30.7014 14.25 25.5876 14.25 19.7804V15.602L22.5 12.0339L30.75 15.602V19.7804ZM21.4638 23.0721L25.4933 18.8747C25.8594 18.4933 26.453 18.4933 26.8192 18.8747C27.1853 19.256 27.1852 19.8744 26.8191 20.2557L22.1267 25.1436C21.7605 25.5251 21.1669 25.5249 20.8009 25.1436L18.1808 22.4144C17.8147 22.033 17.8147 21.4147 18.1808 21.0334C18.547 20.652 19.1406 20.652 19.5067 21.0334L21.4638 23.0721Z" fill="white"/>
<defs>
<linearGradient id="paint0_linear_425_3084" x1="8.41304" y1="37.1875" x2="48.2333" y2="12.1328" gradientUnits="userSpaceOnUse">
<stop stop-color="#6F90B4"/>
<stop offset="0.567308" stop-color="#2E5A88"/>
<stop offset="1" stop-color="#87BBF3"/>
</linearGradient>
</defs>
</svg>
