<svg width="1224" height="42" viewBox="0 0 1224 42" fill="none" xmlns="http://www.w3.org/2000/svg">
<path d="M31.1925 23.8588C30.5585 25.1347 29.7761 26.4468 28.8252 27.7388L34.9441 38.3876L36.553 35.587L36.5089 35.5107C34.2539 31.5746 37.0947 26.6755 41.6287 26.6755H41.6848L43.3099 23.8588H31.1885H31.1925Z" fill="white"/>
<path d="M20.3544 33.4845C19.7205 33.0391 19.1266 32.5737 18.5649 32.0962L13.3047 41.2484H16.5387C18.8097 37.3043 24.4992 37.3043 26.7702 41.2484H30.0162L24.752 32.0962C24.1902 32.5697 23.5964 33.0351 22.9665 33.4805C22.1841 34.0342 21.1449 34.0342 20.3584 33.4805L20.3544 33.4845Z" fill="white"/>
<path d="M0.00401628 23.8588L1.62099 26.6755H1.65711C6.19911 26.6755 9.03986 31.5906 6.77288 35.5228L6.74479 35.5669L8.36176 38.3836L14.4886 27.7307C13.5377 26.4348 12.7593 25.1267 12.1213 23.8508H0L0.00401628 23.8588Z" fill="white"/>
<path d="M10.42 12.9773C11.2225 12.4557 12.1132 12.0464 13.028 11.7214L8.36165 3.62042L6.74468 6.42908L6.77277 6.47724C9.03574 10.4134 6.19499 15.3205 1.657 15.3205H1.62088L0.00390625 18.1292H10.0027C9.69376 16.9134 9.51721 15.8822 9.4169 15.1399C9.30054 14.2853 9.69376 13.4427 10.42 12.9732V12.9773Z" fill="white"/>
<path d="M21.5701 10.5217C21.6303 10.5217 21.6864 10.5217 21.7426 10.5217C22.0315 10.5097 23.0225 10.4896 24.3586 10.5779L30.0121 0.751587H26.7781V0.759619C24.5031 4.70378 18.8095 4.69976 16.5426 0.759619L13.3086 0.755603L18.958 10.5859C20.2941 10.4936 21.2892 10.5177 21.5781 10.5297L21.5701 10.5217Z" fill="white"/>
<path d="M33.9002 15.144C33.7999 15.8903 33.6233 16.9174 33.3144 18.1332H43.3052L41.6882 15.3245H41.6521C37.1101 15.3245 34.2693 10.4094 36.5363 6.47725L36.5644 6.43311L34.9474 3.62445L30.2891 11.7254C31.2079 12.0504 32.0986 12.4597 32.9011 12.9813C33.6233 13.4507 34.0166 14.2933 33.9042 15.148L33.9002 15.144Z" fill="white"/>
<path d="M69.0726 20.7533C67.9733 21.5477 66.6211 21.9449 65.0121 21.9449C63.9127 21.9449 62.9458 21.7563 62.1112 21.3872C61.2766 21.014 60.5745 20.4884 60.0047 19.8103C59.4349 19.1322 59.0096 18.3418 58.7248 17.439C58.4399 16.5363 58.2994 15.5532 58.2994 14.4939C58.2994 13.4347 58.4399 12.4236 58.7248 11.5208C59.0096 10.618 59.4269 9.83159 59.9766 9.16554C60.5263 8.49948 61.2124 7.97787 62.039 7.60472C62.8615 7.23157 63.7964 7.047 64.8356 7.047C65.8748 7.047 66.8137 7.22354 67.6483 7.57663C68.4828 7.92972 69.1689 8.43929 69.7106 9.10936C70.2483 9.77541 70.5893 10.6019 70.7257 11.581H74.9668C74.7903 9.89176 74.2687 8.41924 73.406 7.16337C72.5434 5.9075 71.3838 4.92446 69.9313 4.21828C68.4788 3.51211 66.7816 3.15901 64.8396 3.15901C62.8976 3.15901 61.3609 3.48 59.9967 4.11396C58.6325 4.75192 57.513 5.59855 56.6423 6.66182C55.7676 7.72109 55.1217 8.90072 54.7004 10.1927C54.2791 11.4887 54.0664 12.8047 54.0664 14.1368V14.7828C54.0664 15.9986 54.271 17.2504 54.6843 18.5344C55.0976 19.8224 55.7396 21.0181 56.6142 22.1255C57.4889 23.2329 58.6164 24.1276 60.0007 24.8057C61.385 25.4838 63.0581 25.8209 65.0202 25.8209C66.9822 25.8209 68.8199 25.4397 70.2884 24.6733C71.7609 23.907 72.9165 22.8878 73.7631 21.6119C74.6057 20.3359 75.1273 18.9316 75.3239 17.4029H71.0828C70.8461 18.8353 70.1801 19.9508 69.0807 20.7452L69.0726 20.7533Z" fill="white"/>
<path d="M84.7167 21.6801H84.0987L80.2027 9.2859H76.082L81.262 24.9181H83.8781L83.6493 25.8008C83.5129 26.3705 83.3163 26.8159 83.0595 27.1409C82.8028 27.4659 82.4858 27.6987 82.1046 27.8471C81.7234 27.9956 81.246 28.0678 80.6762 28.0678H77.6749V31.5706H80.295C81.6111 31.5706 82.7145 31.4141 83.6052 31.1011C84.5 30.7882 85.2302 30.2706 85.8 29.5564C86.3697 28.8382 86.8111 27.8832 87.1241 26.6875L91.8627 9.28992H87.9466L84.7206 21.6841L84.7167 21.6801Z" fill="white"/>
<path d="M108.875 23.4014C109.541 22.6471 110.051 21.7684 110.408 20.7653C110.761 19.7662 110.938 18.6869 110.938 17.5273V16.9094C110.938 15.7538 110.765 14.6825 110.424 13.6995C110.079 12.7205 109.585 11.8578 108.935 11.1236C108.285 10.3893 107.511 9.81554 106.608 9.40226C105.705 8.98899 104.706 8.78437 103.607 8.78437C102.371 8.78437 101.26 9.06122 100.281 9.61091C99.3539 10.1325 98.6116 10.9029 98.0418 11.914V3.78094H93.9492V25.2712H97.1872V21.7965C97.2835 22.0452 97.3878 22.29 97.5122 22.5187C98.082 23.59 98.8684 24.4045 99.8675 24.9622C100.867 25.5199 102.026 25.8008 103.342 25.8008C104.502 25.8008 105.545 25.5882 106.476 25.1669C107.407 24.7456 108.209 24.1557 108.875 23.4014ZM106.267 19.8826C105.902 20.6489 105.388 21.2508 104.722 21.6921C104.056 22.1335 103.29 22.3542 102.427 22.3542C101.661 22.3542 100.935 22.1776 100.249 21.8246C99.5625 21.4715 99.0008 20.9699 98.5715 20.3239C98.1381 19.6779 97.9255 18.8915 97.9255 17.9687V16.789C97.9255 15.8261 98.1381 15.0075 98.5594 14.3295C98.9807 13.6514 99.5304 13.1338 100.209 12.7686C100.887 12.4035 101.625 12.223 102.431 12.223C103.294 12.223 104.056 12.4276 104.714 12.8409C105.372 13.2541 105.886 13.8359 106.259 14.5943C106.632 15.3486 106.817 16.2273 106.817 17.2304C106.817 18.2335 106.636 19.1122 106.271 19.8786L106.267 19.8826Z" fill="white"/>
<path d="M125.109 9.85967C123.942 9.10535 122.493 8.72818 120.768 8.72818C119.452 8.72818 118.288 8.96089 117.281 9.42231C116.27 9.88373 115.432 10.5017 114.766 11.276C114.1 12.0504 113.594 12.9331 113.249 13.9242C112.904 14.9153 112.735 15.9424 112.735 17.0017V17.5594C112.735 18.5785 112.908 19.5816 113.249 20.5647C113.59 21.5477 114.104 22.4344 114.782 23.2289C115.46 24.0233 116.314 24.6573 117.342 25.1267C118.369 25.5962 119.572 25.8329 120.949 25.8329C122.325 25.8329 123.436 25.6082 124.468 25.1548C125.499 24.7054 126.345 24.0674 127.015 23.2409C127.681 22.4144 128.135 21.4554 128.372 20.356H124.576C124.399 20.9458 123.998 21.4394 123.368 21.8406C122.738 22.2418 121.936 22.4424 120.953 22.4424C119.97 22.4424 119.127 22.2218 118.481 21.7804C117.835 21.3391 117.354 20.7292 117.037 19.9548C116.832 19.4492 116.7 18.8915 116.631 18.2937H128.636V16.793C128.636 15.3807 128.343 14.0606 127.754 12.8328C127.164 11.605 126.285 10.614 125.118 9.85967H125.109ZM118.473 12.7446C119.099 12.3233 119.865 12.1106 120.768 12.1106C121.671 12.1106 122.417 12.3072 123.007 12.7004C123.597 13.0936 124.042 13.6514 124.347 14.3776C124.52 14.7909 124.636 15.2563 124.712 15.7619H116.688C116.768 15.3125 116.888 14.8992 117.045 14.5261C117.37 13.7597 117.843 13.1659 118.473 12.7446Z" fill="white"/>
<path d="M140.846 12.6402V9.07726H140.256C138.35 9.07726 136.91 9.67109 135.927 10.8587C135.185 11.7575 134.723 12.9692 134.543 14.4899V9.28189H131.305V25.2672H135.397V16.9656C135.397 15.5733 135.774 14.502 136.529 13.7557C137.283 13.0094 138.35 12.6362 139.723 12.6362H140.842L140.846 12.6402Z" fill="white"/>
<path d="M147.763 25.2712H149.38H150.559H152.088H153.119L157.449 9.2859H153.501L150.247 21.9168H149.552L145.761 9.2859H141.552L146.555 25.2712H147.763Z" fill="white"/>
<path d="M170.842 25.1548C171.921 24.7054 172.832 24.0955 173.579 23.3292C174.325 22.5628 174.891 21.6921 175.272 20.7091C175.653 19.7261 175.846 18.6989 175.846 17.6196V17.0017C175.846 15.9023 175.649 14.8591 175.256 13.868C174.862 12.877 174.289 11.9943 173.534 11.2199C172.78 10.4455 171.861 9.8356 170.782 9.39424C169.703 8.95288 168.487 8.73219 167.131 8.73219C165.774 8.73219 164.555 8.95288 163.467 9.39424C162.376 9.8356 161.457 10.4455 160.699 11.2199C159.944 11.9943 159.371 12.881 158.978 13.868C158.584 14.8591 158.388 15.9063 158.388 17.0017V17.6196C158.388 18.6989 158.58 19.7301 158.961 20.7091C159.343 21.6881 159.908 22.5628 160.655 23.3292C161.401 24.0955 162.312 24.7014 163.391 25.1548C164.47 25.6042 165.718 25.8329 167.131 25.8329C168.543 25.8329 169.759 25.6082 170.838 25.1548H170.842ZM163.026 19.8705C162.661 19.1162 162.48 18.2576 162.48 17.2946C162.48 16.3316 162.665 15.469 163.038 14.7026C163.411 13.9362 163.945 13.3344 164.643 12.893C165.341 12.4517 166.168 12.231 167.131 12.231C168.094 12.231 168.916 12.4517 169.602 12.893C170.288 13.3344 170.818 13.9362 171.191 14.7026C171.564 15.469 171.749 16.3316 171.749 17.2946C171.749 18.2576 171.568 19.1162 171.203 19.8705C170.838 20.6248 170.316 21.2267 169.626 21.6681C168.94 22.1094 168.106 22.3301 167.123 22.3301C166.14 22.3301 165.277 22.1094 164.591 21.6681C163.905 21.2267 163.379 20.6289 163.014 19.8705H163.026Z" fill="white"/>
<path d="M178.907 3.78094H176.905V6.84237H178.907V25.2712H183V6.84237V3.78094H178.907Z" fill="white"/>
<path d="M99.2172 32.1443C99.0126 31.9116 98.7638 31.7271 98.4749 31.5946C98.186 31.4622 97.869 31.398 97.516 31.398C97.1227 31.398 96.7696 31.4863 96.4567 31.6629C96.1598 31.8274 95.9231 32.0801 95.7425 32.4052V29.8051H94.4385V36.6582H95.4697V35.5027C95.5058 35.595 95.5298 35.6953 95.574 35.7795C95.7545 36.1206 96.0073 36.3814 96.3243 36.5579C96.6453 36.7345 97.0144 36.8268 97.4317 36.8268C97.8008 36.8268 98.1339 36.7586 98.4308 36.6262C98.7277 36.4938 98.9845 36.3052 99.1971 36.0644C99.4098 35.8237 99.5743 35.5428 99.6867 35.2259C99.799 34.9049 99.8552 34.5638 99.8552 34.1947V33.998C99.8552 33.6289 99.799 33.2879 99.6906 32.9749C99.5823 32.6619 99.4218 32.3891 99.2172 32.1524V32.1443ZM98.3666 34.941C98.2502 35.1857 98.0857 35.3783 97.8731 35.5188C97.6604 35.6592 97.4156 35.7314 97.1388 35.7314C96.894 35.7314 96.6613 35.6752 96.4447 35.5629C96.224 35.4505 96.0474 35.29 95.911 35.0814C95.7746 34.8768 95.7064 34.624 95.7064 34.3311V33.9579C95.7064 33.653 95.7746 33.3882 95.907 33.1755C96.0434 32.9589 96.2159 32.7943 96.4326 32.678C96.6493 32.5616 96.886 32.5055 97.1428 32.5055C97.4197 32.5055 97.6604 32.5697 97.869 32.7021C98.0777 32.8345 98.2422 33.019 98.3626 33.2598C98.4829 33.5005 98.5391 33.7814 98.5391 34.0984C98.5391 34.4153 98.4789 34.7002 98.3666 34.945V34.941Z" fill="white"/>
<path d="M102.753 35.5107H102.556L101.312 31.5585H99.9961L101.649 36.5459H102.484L102.412 36.8268C102.367 37.0073 102.303 37.1518 102.223 37.2521C102.143 37.3564 102.038 37.4286 101.918 37.4768C101.798 37.5249 101.645 37.549 101.461 37.549H100.502V38.6644H101.336C101.754 38.6644 102.107 38.6163 102.391 38.516C102.676 38.4157 102.909 38.2512 103.09 38.0225C103.27 37.7938 103.411 37.4888 103.511 37.1076L105.024 31.5585H103.776L102.749 35.5107H102.753Z" fill="white"/>
<path d="M111.563 34.1265C111.964 33.966 112.273 33.7212 112.498 33.3922C112.723 33.0632 112.831 32.6499 112.831 32.1484V31.9959C112.831 31.4903 112.723 31.073 112.502 30.744C112.281 30.415 111.972 30.1663 111.567 30.0018C111.162 29.8372 110.684 29.753 110.135 29.753H107.591V36.6543H108.923V34.3632H110.135C110.135 34.3632 110.147 34.3632 110.155 34.3632L111.768 36.6543H113.337L111.503 34.1385C111.503 34.1385 111.543 34.1305 111.559 34.1225L111.563 34.1265ZM108.927 30.8925H110.279C110.524 30.8925 110.733 30.9447 110.913 31.049C111.09 31.1533 111.23 31.2937 111.326 31.4703C111.423 31.6468 111.471 31.8555 111.471 32.0962C111.471 32.3369 111.423 32.5416 111.326 32.7221C111.23 32.9027 111.09 33.0391 110.913 33.1394C110.737 33.2397 110.524 33.2919 110.279 33.2919H108.927V30.8965V30.8925Z" fill="white"/>
<path d="M118.417 32.1724C118.176 31.9236 117.883 31.7311 117.538 31.5906C117.193 31.4502 116.804 31.378 116.375 31.378C115.945 31.378 115.552 31.4502 115.207 31.5906C114.858 31.7311 114.565 31.9236 114.324 32.1724C114.083 32.4212 113.899 32.7021 113.775 33.019C113.65 33.336 113.586 33.669 113.586 34.0181V34.2147C113.586 34.5598 113.646 34.8888 113.771 35.2017C113.891 35.5147 114.071 35.7956 114.312 36.0363C114.549 36.2811 114.842 36.4737 115.187 36.6181C115.532 36.7626 115.929 36.8348 116.379 36.8348C116.828 36.8348 117.217 36.7626 117.562 36.6181C117.907 36.4737 118.196 36.2811 118.437 36.0363C118.674 35.7916 118.854 35.5147 118.979 35.2017C119.099 34.8888 119.163 34.5598 119.163 34.2147V34.0181C119.163 33.669 119.099 33.332 118.975 33.019C118.85 32.7021 118.666 32.4212 118.425 32.1724H118.417ZM117.675 34.9329C117.558 35.1737 117.39 35.3663 117.173 35.5067C116.952 35.6471 116.688 35.7194 116.375 35.7194C116.062 35.7194 115.785 35.6471 115.568 35.5067C115.347 35.3663 115.183 35.1737 115.067 34.9329C114.95 34.6922 114.894 34.4193 114.894 34.1104C114.894 33.8014 114.954 33.5286 115.071 33.2838C115.191 33.0391 115.359 32.8465 115.584 32.7061C115.805 32.5656 116.07 32.4934 116.379 32.4934C116.688 32.4934 116.948 32.5616 117.169 32.7061C117.39 32.8465 117.558 33.0391 117.675 33.2838C117.795 33.5286 117.851 33.8014 117.851 34.1104C117.851 34.4193 117.791 34.6922 117.679 34.9329H117.675Z" fill="white"/>
<path d="M121.442 30.1221H120.21V31.5586H119.403V32.5175H120.21V34.7444C120.21 35.2379 120.282 35.6311 120.43 35.924C120.579 36.2169 120.804 36.4215 121.109 36.5459C121.414 36.6663 121.803 36.7305 122.276 36.7305H123.01V35.6151H122.212C121.963 35.6151 121.771 35.5469 121.634 35.4144C121.498 35.282 121.434 35.0894 121.434 34.8367V32.5255H123.01V31.5666H121.438V30.1302L121.442 30.1221Z" fill="white"/>
<path d="M126.076 35.587H125.856L124.644 31.5585H123.304L124.897 36.6582H125.282H125.799H126.177H126.662H126.991L128.371 31.5585H127.115L126.076 35.587Z" fill="white"/>
<path d="M133.503 32.1724C133.262 31.9236 132.969 31.7311 132.624 31.5906C132.279 31.4502 131.89 31.378 131.46 31.378C131.031 31.378 130.638 31.4502 130.293 31.5906C129.944 31.7311 129.651 31.9236 129.41 32.1724C129.169 32.4212 128.985 32.7021 128.86 33.019C128.736 33.336 128.672 33.669 128.672 34.0181V34.2147C128.672 34.5598 128.732 34.8888 128.856 35.2017C128.977 35.5147 129.157 35.7956 129.398 36.0363C129.635 36.2811 129.928 36.4737 130.273 36.6181C130.618 36.7626 131.015 36.8348 131.464 36.8348C131.914 36.8348 132.303 36.7626 132.648 36.6181C132.993 36.4737 133.282 36.2811 133.523 36.0363C133.76 35.7916 133.94 35.5147 134.064 35.2017C134.185 34.8888 134.249 34.5598 134.249 34.2147V34.0181C134.249 33.669 134.185 33.332 134.06 33.019C133.936 32.7021 133.752 32.4212 133.511 32.1724H133.503ZM132.76 34.9329C132.644 35.1737 132.476 35.3663 132.259 35.5067C132.038 35.6471 131.773 35.7194 131.46 35.7194C131.147 35.7194 130.871 35.6471 130.654 35.5067C130.433 35.3663 130.269 35.1737 130.152 34.9329C130.036 34.6922 129.98 34.4193 129.98 34.1104C129.98 33.8014 130.04 33.5286 130.156 33.2838C130.277 33.0391 130.445 32.8465 130.67 32.7061C130.891 32.5656 131.156 32.4934 131.464 32.4934C131.773 32.4934 132.034 32.5616 132.255 32.7061C132.476 32.8465 132.644 33.0391 132.76 33.2838C132.881 33.5286 132.937 33.8014 132.937 34.1104C132.937 34.4193 132.877 34.6922 132.764 34.9329H132.76Z" fill="white"/>
<path d="M134.578 29.8011V30.7802H135.216V36.6583H136.524V30.7802V29.8011H135.216H134.578Z" fill="white"/>
<path d="M143.614 32.9308C143.249 32.7623 142.815 32.6579 142.322 32.6218L141.732 32.5657C141.395 32.5416 141.146 32.4493 140.99 32.2888C140.833 32.1283 140.753 31.9437 140.753 31.7311C140.753 31.5545 140.797 31.394 140.885 31.2456C140.974 31.0971 141.102 30.9808 141.275 30.8885C141.447 30.7962 141.664 30.7521 141.929 30.7521C142.194 30.7521 142.434 30.8042 142.615 30.9045C142.795 31.0048 142.932 31.1332 143.02 31.2937C143.108 31.4542 143.152 31.6228 143.152 31.8073H144.456C144.456 31.3619 144.356 30.9768 144.152 30.6477C143.947 30.3187 143.658 30.066 143.277 29.8814C142.9 29.7008 142.45 29.6086 141.929 29.6086C141.407 29.6086 140.99 29.6968 140.621 29.8653C140.248 30.0379 139.959 30.2826 139.75 30.5996C139.545 30.9166 139.441 31.2937 139.441 31.7311C139.441 32.3129 139.638 32.7823 140.027 33.1354C140.416 33.4885 140.942 33.6931 141.6 33.7493L142.202 33.8055C142.639 33.8416 142.964 33.9339 143.169 34.0823C143.373 34.2308 143.478 34.4234 143.478 34.6601C143.478 34.8527 143.421 35.0292 143.313 35.1817C143.205 35.3342 143.04 35.4586 142.823 35.5549C142.607 35.6471 142.334 35.6953 142.001 35.6953C141.644 35.6953 141.355 35.6431 141.134 35.5348C140.914 35.4265 140.749 35.2901 140.649 35.1175C140.548 34.945 140.5 34.7684 140.5 34.5879H139.196C139.196 35.0212 139.305 35.4064 139.521 35.7475C139.738 36.0885 140.055 36.3573 140.476 36.5499C140.898 36.7425 141.407 36.8428 142.005 36.8428C142.575 36.8428 143.068 36.7506 143.486 36.57C143.903 36.3894 144.224 36.1326 144.448 35.8036C144.673 35.4746 144.786 35.0934 144.786 34.6641C144.786 34.2589 144.681 33.9098 144.477 33.6209C144.272 33.332 143.983 33.1033 143.618 32.9348L143.614 32.9308Z" fill="white"/>
<path d="M150.163 32.1724C149.922 31.9236 149.629 31.7311 149.284 31.5906C148.939 31.4502 148.55 31.378 148.121 31.378C147.691 31.378 147.298 31.4502 146.953 31.5906C146.604 31.7311 146.311 31.9236 146.07 32.1724C145.83 32.4212 145.645 32.7021 145.521 33.019C145.396 33.336 145.332 33.669 145.332 34.0181V34.2147C145.332 34.5598 145.392 34.8888 145.517 35.2017C145.637 35.5147 145.818 35.7956 146.058 36.0363C146.295 36.2811 146.588 36.4737 146.933 36.6181C147.278 36.7626 147.675 36.8348 148.125 36.8348C148.574 36.8348 148.963 36.7626 149.308 36.6181C149.653 36.4737 149.942 36.2811 150.183 36.0363C150.42 35.7916 150.6 35.5147 150.725 35.2017C150.845 34.8888 150.909 34.5598 150.909 34.2147V34.0181C150.909 33.669 150.845 33.332 150.721 33.019C150.596 32.7021 150.412 32.4212 150.171 32.1724H150.163ZM149.421 34.9329C149.304 35.1737 149.136 35.3663 148.919 35.5067C148.698 35.6471 148.434 35.7194 148.121 35.7194C147.808 35.7194 147.531 35.6471 147.314 35.5067C147.093 35.3663 146.929 35.1737 146.813 34.9329C146.696 34.6922 146.64 34.4193 146.64 34.1104C146.64 33.8014 146.7 33.5286 146.817 33.2838C146.937 33.0391 147.105 32.8465 147.33 32.7061C147.551 32.5656 147.816 32.4934 148.125 32.4934C148.434 32.4934 148.694 32.5616 148.915 32.7061C149.136 32.8465 149.304 33.0391 149.421 33.2838C149.541 33.5286 149.597 33.8014 149.597 34.1104C149.597 34.4193 149.537 34.6922 149.425 34.9329H149.421Z" fill="white"/>
<path d="M151.233 29.8011V30.7802H151.875V36.6583H153.179V30.7802V29.8011H151.875H151.233Z" fill="white"/>
<path d="M157.629 34.5638C157.629 34.8968 157.533 35.1576 157.345 35.3542C157.152 35.5468 156.907 35.6472 156.606 35.6472C156.305 35.6472 156.069 35.5549 155.892 35.3703C155.716 35.1857 155.627 34.937 155.627 34.624V31.5545H154.323V34.5116C154.323 35.282 154.484 35.8598 154.801 36.245C155.122 36.6302 155.575 36.8228 156.173 36.8228H156.229C156.622 36.8228 156.951 36.7385 157.212 36.566C157.473 36.3934 157.67 36.1367 157.802 35.7916C157.846 35.6792 157.87 35.5428 157.902 35.4104V36.6623H158.933V31.5545H157.629V34.5678V34.5638Z" fill="white"/>
<path d="M161.581 30.1221H160.349V31.5586H159.543V32.5175H160.349V34.7444C160.349 35.2379 160.422 35.6311 160.57 35.924C160.719 36.2169 160.943 36.4215 161.248 36.5459C161.553 36.6663 161.942 36.7305 162.416 36.7305H163.15V35.6151H162.352C162.103 35.6151 161.91 35.5469 161.774 35.4144C161.637 35.282 161.573 35.0894 161.573 34.8367V32.5255H163.15V31.5666H161.577V30.1302L161.581 30.1221Z" fill="white"/>
<path d="M163.544 31.5585V32.5376H164.258V36.6582H165.562V32.5376V31.5585H164.258H163.544Z" fill="white"/>
<path d="M164.17 29.7289C164.05 29.8613 163.985 30.0298 163.985 30.2385C163.985 30.4471 164.046 30.6237 164.17 30.7561C164.29 30.8885 164.483 30.9527 164.74 30.9527C164.996 30.9527 165.185 30.8885 165.301 30.7561C165.422 30.6237 165.478 30.4511 165.478 30.2385C165.478 30.0258 165.418 29.8613 165.301 29.7289C165.181 29.5965 164.996 29.5323 164.74 29.5323C164.483 29.5323 164.294 29.5965 164.17 29.7289Z" fill="white"/>
<path d="M171.324 32.1724C171.083 31.9236 170.79 31.7311 170.445 31.5906C170.1 31.4502 169.711 31.378 169.282 31.378C168.852 31.378 168.459 31.4502 168.114 31.5906C167.765 31.7311 167.472 31.9236 167.231 32.1724C166.991 32.4212 166.806 32.7021 166.682 33.019C166.557 33.336 166.493 33.669 166.493 34.0181V34.2147C166.493 34.5598 166.553 34.8888 166.678 35.2017C166.798 35.5147 166.979 35.7956 167.219 36.0363C167.456 36.2811 167.749 36.4737 168.094 36.6181C168.439 36.7626 168.836 36.8348 169.286 36.8348C169.735 36.8348 170.124 36.7626 170.469 36.6181C170.814 36.4737 171.103 36.2811 171.344 36.0363C171.581 35.7916 171.761 35.5147 171.886 35.2017C172.006 34.8888 172.07 34.5598 172.07 34.2147V34.0181C172.07 33.669 172.006 33.332 171.882 33.019C171.757 32.7021 171.573 32.4212 171.332 32.1724H171.324ZM170.582 34.9329C170.465 35.1737 170.297 35.3663 170.08 35.5067C169.86 35.6471 169.595 35.7194 169.282 35.7194C168.969 35.7194 168.692 35.6471 168.475 35.5067C168.255 35.3663 168.09 35.1737 167.974 34.9329C167.857 34.6922 167.801 34.4193 167.801 34.1104C167.801 33.8014 167.861 33.5286 167.978 33.2838C168.098 33.0391 168.267 32.8465 168.491 32.7061C168.712 32.5656 168.977 32.4934 169.286 32.4934C169.595 32.4934 169.855 32.5616 170.076 32.7061C170.297 32.8465 170.465 33.0391 170.582 33.2838C170.702 33.5286 170.758 33.8014 170.758 34.1104C170.758 34.4193 170.698 34.6922 170.586 34.9329H170.582Z" fill="white"/>
<path d="M175.809 31.398H175.753C175.348 31.398 175.007 31.4863 174.734 31.6629C174.461 31.8394 174.256 32.1002 174.12 32.4453C174.072 32.5696 174.04 32.7221 174.008 32.8706V31.5585H172.977V36.6582H174.281V33.665C174.281 33.34 174.381 33.0792 174.577 32.8746C174.774 32.674 175.031 32.5737 175.352 32.5737C175.673 32.5737 175.902 32.67 176.086 32.8666C176.267 33.0592 176.359 33.316 176.359 33.6289V36.6623H177.663V33.7413C177.663 32.9669 177.506 32.3811 177.194 31.9879C176.881 31.5987 176.419 31.4021 175.813 31.4021L175.809 31.398Z" fill="white"/>
<path d="M182.386 34.0663C182.045 33.7974 181.575 33.6289 180.973 33.5687L180.524 33.5206C180.247 33.4885 180.051 33.4283 179.926 33.344C179.806 33.2558 179.742 33.1314 179.742 32.9669C179.742 32.8024 179.818 32.6619 179.966 32.5536C180.115 32.4453 180.327 32.3931 180.604 32.3931C180.909 32.3931 181.146 32.4573 181.303 32.5817C181.459 32.7061 181.551 32.8585 181.571 33.0431H182.747C182.727 32.5055 182.526 32.0962 182.137 31.8233C181.748 31.5465 181.242 31.4101 180.616 31.4101C180.211 31.4101 179.85 31.4702 179.541 31.5946C179.232 31.715 178.987 31.8956 178.815 32.1323C178.638 32.369 178.554 32.666 178.554 33.015C178.554 33.4524 178.706 33.8055 179.015 34.0703C179.32 34.3351 179.762 34.4956 180.34 34.5517L180.781 34.5999C181.126 34.636 181.367 34.7082 181.507 34.8085C181.648 34.9089 181.72 35.0413 181.72 35.2017C181.72 35.3943 181.628 35.5508 181.439 35.6632C181.25 35.7755 181.006 35.8317 180.697 35.8317C180.319 35.8317 180.047 35.7595 179.87 35.615C179.694 35.4706 179.597 35.3101 179.577 35.1376H178.394C178.418 35.6632 178.63 36.0765 179.027 36.3734C179.425 36.6703 179.974 36.8187 180.677 36.8187C181.126 36.8187 181.519 36.7505 181.852 36.6181C182.185 36.4857 182.442 36.2931 182.627 36.0403C182.811 35.7876 182.903 35.4947 182.903 35.1576C182.903 34.7002 182.731 34.3391 182.39 34.0703L182.386 34.0663Z" fill="white"/>
<path d="M442.12 27V15.48H443.296V20.672H449.664V15.48H450.832V27H449.664V21.8H443.296V27H442.12ZM456.681 27.24C455.822 27.24 455.089 27.0453 454.481 26.656C453.873 26.2667 453.406 25.728 453.081 25.04C452.756 24.352 452.593 23.5627 452.593 22.672C452.593 21.7653 452.758 20.9707 453.089 20.288C453.42 19.6053 453.889 19.0747 454.497 18.696C455.11 18.312 455.838 18.12 456.681 18.12C457.545 18.12 458.281 18.3147 458.889 18.704C459.502 19.088 459.969 19.624 460.289 20.312C460.614 20.9947 460.777 21.7813 460.777 22.672C460.777 23.5787 460.614 24.376 460.289 25.064C459.964 25.7467 459.494 26.28 458.881 26.664C458.268 27.048 457.534 27.24 456.681 27.24ZM456.681 26.112C457.641 26.112 458.356 25.7947 458.825 25.16C459.294 24.52 459.529 23.6907 459.529 22.672C459.529 21.6267 459.292 20.7947 458.817 20.176C458.348 19.5573 457.636 19.248 456.681 19.248C456.036 19.248 455.502 19.3947 455.081 19.688C454.665 19.976 454.353 20.3787 454.145 20.896C453.942 21.408 453.841 22 453.841 22.672C453.841 23.712 454.081 24.5467 454.561 25.176C455.041 25.8 455.748 26.112 456.681 26.112ZM472.846 27L472.854 21.328C472.854 20.6613 472.667 20.1387 472.294 19.76C471.926 19.376 471.457 19.184 470.886 19.184C470.561 19.184 470.243 19.2587 469.934 19.408C469.625 19.5573 469.369 19.7973 469.166 20.128C468.969 20.4587 468.87 20.8907 468.87 21.424L468.174 21.224C468.158 20.6053 468.278 20.064 468.534 19.6C468.795 19.136 469.153 18.776 469.606 18.52C470.065 18.2587 470.582 18.128 471.158 18.128C472.027 18.128 472.723 18.3973 473.246 18.936C473.769 19.4693 474.03 20.192 474.03 21.104L474.022 27H472.846ZM462.534 27V18.36H463.59V20.488H463.718V27H462.534ZM467.702 27L467.71 21.408C467.71 20.72 467.526 20.1787 467.158 19.784C466.795 19.384 466.315 19.184 465.718 19.184C465.121 19.184 464.638 19.3893 464.27 19.8C463.902 20.2053 463.718 20.7467 463.718 21.424L463.014 21.04C463.014 20.4853 463.145 19.9893 463.406 19.552C463.667 19.1093 464.025 18.7627 464.478 18.512C464.931 18.256 465.446 18.128 466.022 18.128C466.571 18.128 467.059 18.2453 467.486 18.48C467.918 18.7147 468.257 19.056 468.502 19.504C468.747 19.952 468.87 20.496 468.87 21.136L468.862 27H467.702ZM479.714 27.24C478.871 27.24 478.14 27.0533 477.522 26.68C476.908 26.3067 476.431 25.7813 476.09 25.104C475.748 24.4267 475.578 23.632 475.578 22.72C475.578 21.776 475.746 20.96 476.082 20.272C476.418 19.584 476.89 19.0533 477.498 18.68C478.111 18.3067 478.834 18.12 479.666 18.12C480.519 18.12 481.247 18.3173 481.85 18.712C482.452 19.1013 482.908 19.6613 483.218 20.392C483.527 21.1227 483.668 21.9947 483.642 23.008H482.442V22.592C482.42 21.472 482.178 20.6267 481.714 20.056C481.255 19.4853 480.583 19.2 479.698 19.2C478.77 19.2 478.058 19.5013 477.562 20.104C477.071 20.7067 476.826 21.5653 476.826 22.68C476.826 23.768 477.071 24.6133 477.562 25.216C478.058 25.8133 478.759 26.112 479.666 26.112C480.284 26.112 480.823 25.9707 481.282 25.688C481.746 25.4 482.111 24.9867 482.378 24.448L483.474 24.872C483.132 25.624 482.628 26.208 481.962 26.624C481.3 27.0347 480.551 27.24 479.714 27.24ZM476.41 23.008V22.024H483.01V23.008H476.41Z" fill="white"/>
<path d="M519.32 27L523.288 15.48H524.848L528.816 27H527.592L523.824 16.136H524.288L520.544 27H519.32ZM521.088 24.208V23.104H527.04V24.208H521.088ZM534.141 27.24C533.346 27.24 532.674 27.04 532.125 26.64C531.575 26.2347 531.159 25.688 530.877 25C530.594 24.3067 530.453 23.5307 530.453 22.672C530.453 21.7973 530.594 21.0187 530.877 20.336C531.165 19.648 531.586 19.1067 532.141 18.712C532.695 18.3173 533.378 18.12 534.189 18.12C534.978 18.12 535.655 18.32 536.221 18.72C536.786 19.12 537.218 19.664 537.517 20.352C537.821 21.04 537.973 21.8133 537.973 22.672C537.973 23.536 537.821 24.312 537.517 25C537.213 25.688 536.775 26.2347 536.205 26.64C535.634 27.04 534.946 27.24 534.141 27.24ZM530.253 27V15.48H531.437V20.496H531.309V27H530.253ZM534.021 26.144C534.623 26.144 535.125 25.992 535.525 25.688C535.925 25.384 536.223 24.9707 536.421 24.448C536.623 23.92 536.725 23.328 536.725 22.672C536.725 22.0213 536.626 21.4347 536.429 20.912C536.231 20.3893 535.93 19.976 535.525 19.672C535.125 19.368 534.615 19.216 533.997 19.216C533.394 19.216 532.893 19.3627 532.493 19.656C532.098 19.9493 531.802 20.3573 531.605 20.88C531.407 21.3973 531.309 21.9947 531.309 22.672C531.309 23.3387 531.407 23.936 531.605 24.464C531.802 24.9867 532.101 25.3973 532.501 25.696C532.901 25.9947 533.407 26.144 534.021 26.144ZM543.337 27.24C542.479 27.24 541.745 27.0453 541.137 26.656C540.529 26.2667 540.063 25.728 539.737 25.04C539.412 24.352 539.249 23.5627 539.249 22.672C539.249 21.7653 539.415 20.9707 539.745 20.288C540.076 19.6053 540.545 19.0747 541.153 18.696C541.767 18.312 542.495 18.12 543.337 18.12C544.201 18.12 544.937 18.3147 545.545 18.704C546.159 19.088 546.625 19.624 546.945 20.312C547.271 20.9947 547.433 21.7813 547.433 22.672C547.433 23.5787 547.271 24.376 546.945 25.064C546.62 25.7467 546.151 26.28 545.537 26.664C544.924 27.048 544.191 27.24 543.337 27.24ZM543.337 26.112C544.297 26.112 545.012 25.7947 545.481 25.16C545.951 24.52 546.185 23.6907 546.185 22.672C546.185 21.6267 545.948 20.7947 545.473 20.176C545.004 19.5573 544.292 19.248 543.337 19.248C542.692 19.248 542.159 19.3947 541.737 19.688C541.321 19.976 541.009 20.3787 540.801 20.896C540.599 21.408 540.497 22 540.497 22.672C540.497 23.712 540.737 24.5467 541.217 25.176C541.697 25.8 542.404 26.112 543.337 26.112ZM552.502 27.216C551.985 27.216 551.531 27.136 551.142 26.976C550.758 26.816 550.43 26.6 550.158 26.328C549.891 26.056 549.675 25.7467 549.51 25.4C549.345 25.048 549.225 24.6773 549.15 24.288C549.075 23.8933 549.038 23.5013 549.038 23.112V18.36H550.222V22.768C550.222 23.2427 550.267 23.6827 550.358 24.088C550.449 24.4933 550.593 24.848 550.79 25.152C550.993 25.4507 551.251 25.6827 551.566 25.848C551.886 26.0133 552.273 26.096 552.726 26.096C553.142 26.096 553.507 26.024 553.822 25.88C554.142 25.736 554.409 25.5307 554.622 25.264C554.841 24.992 555.006 24.664 555.118 24.28C555.23 23.8907 555.286 23.4533 555.286 22.968L556.118 23.152C556.118 24.0373 555.963 24.7813 555.654 25.384C555.345 25.9867 554.918 26.4427 554.374 26.752C553.83 27.0613 553.206 27.216 552.502 27.216ZM555.406 27V24.872H555.286V18.36H556.462V27H555.406ZM563.402 27C562.917 27.1013 562.437 27.1413 561.962 27.12C561.493 27.0987 561.071 26.9973 560.698 26.816C560.33 26.6347 560.05 26.352 559.858 25.968C559.703 25.648 559.618 25.3253 559.602 25C559.591 24.6693 559.586 24.2933 559.586 23.872V15.96H560.754V23.824C560.754 24.1867 560.757 24.4907 560.762 24.736C560.773 24.976 560.829 25.1893 560.93 25.376C561.122 25.7333 561.426 25.9467 561.842 26.016C562.263 26.0853 562.783 26.0693 563.402 25.968V27ZM557.738 19.368V18.36H563.402V19.368H557.738ZM571.612 27.216C571.094 27.216 570.641 27.136 570.252 26.976C569.868 26.816 569.54 26.6 569.268 26.328C569.001 26.056 568.785 25.7467 568.62 25.4C568.454 25.048 568.334 24.6773 568.26 24.288C568.185 23.8933 568.148 23.5013 568.148 23.112V18.36H569.332V22.768C569.332 23.2427 569.377 23.6827 569.468 24.088C569.558 24.4933 569.702 24.848 569.9 25.152C570.102 25.4507 570.361 25.6827 570.676 25.848C570.996 26.0133 571.382 26.096 571.836 26.096C572.252 26.096 572.617 26.024 572.932 25.88C573.252 25.736 573.518 25.5307 573.732 25.264C573.95 24.992 574.116 24.664 574.228 24.28C574.34 23.8907 574.396 23.4533 574.396 22.968L575.227 23.152C575.227 24.0373 575.073 24.7813 574.764 25.384C574.454 25.9867 574.028 26.4427 573.484 26.752C572.94 27.0613 572.316 27.216 571.612 27.216ZM574.516 27V24.872H574.396V18.36H575.572V27H574.516ZM581.032 27.232C580.018 27.232 579.184 27.0133 578.528 26.576C577.877 26.1387 577.477 25.5307 577.328 24.752L578.528 24.552C578.656 25.0427 578.946 25.4347 579.4 25.728C579.858 26.016 580.424 26.16 581.095 26.16C581.752 26.16 582.269 26.024 582.648 25.752C583.026 25.4747 583.216 25.0987 583.216 24.624C583.216 24.3573 583.154 24.1413 583.032 23.976C582.914 23.8053 582.672 23.648 582.304 23.504C581.936 23.36 581.386 23.1893 580.656 22.992C579.872 22.7787 579.258 22.5653 578.816 22.352C578.373 22.1387 578.058 21.8933 577.872 21.616C577.685 21.3333 577.592 20.9893 577.592 20.584C577.592 20.0933 577.73 19.664 578.008 19.296C578.285 18.9227 578.669 18.6347 579.16 18.432C579.65 18.224 580.221 18.12 580.872 18.12C581.522 18.12 582.104 18.2267 582.616 18.44C583.133 18.648 583.549 18.9413 583.864 19.32C584.178 19.6987 584.365 20.1387 584.424 20.64L583.224 20.856C583.144 20.3493 582.89 19.9493 582.464 19.656C582.042 19.3573 581.506 19.2027 580.856 19.192C580.242 19.176 579.744 19.2933 579.36 19.544C578.976 19.7893 578.784 20.1173 578.784 20.528C578.784 20.7573 578.853 20.9547 578.992 21.12C579.13 21.28 579.381 21.432 579.744 21.576C580.112 21.72 580.634 21.8773 581.312 22.048C582.106 22.2507 582.73 22.464 583.184 22.688C583.637 22.912 583.96 23.176 584.152 23.48C584.344 23.784 584.44 24.16 584.44 24.608C584.44 25.424 584.136 26.0667 583.528 26.536C582.925 27 582.093 27.232 581.032 27.232Z" fill="white"/>
<path d="M625.384 24.24C624.541 24.24 623.781 24.0933 623.104 23.8C622.432 23.5067 621.877 23.088 621.44 22.544C621.008 21.9947 620.733 21.344 620.616 20.592L622.616 20.288C622.787 20.9707 623.136 21.4987 623.664 21.872C624.197 22.2453 624.811 22.432 625.504 22.432C625.915 22.432 626.301 22.368 626.664 22.24C627.027 22.112 627.32 21.9253 627.544 21.68C627.773 21.4347 627.888 21.1333 627.888 20.776C627.888 20.616 627.861 20.4693 627.808 20.336C627.755 20.1973 627.675 20.0747 627.568 19.968C627.467 19.8613 627.333 19.7653 627.168 19.68C627.008 19.5893 626.821 19.512 626.608 19.448L623.632 18.568C623.376 18.4933 623.099 18.3947 622.8 18.272C622.507 18.144 622.227 17.9707 621.96 17.752C621.699 17.528 621.483 17.2453 621.312 16.904C621.147 16.5573 621.064 16.1307 621.064 15.624C621.064 14.8827 621.251 14.2613 621.624 13.76C622.003 13.2533 622.509 12.8747 623.144 12.624C623.784 12.3733 624.493 12.2507 625.272 12.256C626.061 12.2613 626.765 12.3973 627.384 12.664C628.003 12.9253 628.52 13.3067 628.936 13.808C629.352 14.3093 629.645 14.9147 629.816 15.624L627.744 15.984C627.659 15.5787 627.493 15.2347 627.248 14.952C627.008 14.664 626.712 14.4453 626.36 14.296C626.013 14.1467 625.643 14.0667 625.248 14.056C624.864 14.0507 624.507 14.1093 624.176 14.232C623.851 14.3493 623.587 14.52 623.384 14.744C623.187 14.968 623.088 15.2293 623.088 15.528C623.088 15.8107 623.173 16.0427 623.344 16.224C623.515 16.4 623.725 16.5413 623.976 16.648C624.232 16.7493 624.491 16.8347 624.752 16.904L626.816 17.48C627.099 17.5547 627.416 17.656 627.768 17.784C628.12 17.912 628.459 18.0907 628.784 18.32C629.109 18.5493 629.376 18.8507 629.584 19.224C629.797 19.5973 629.904 20.072 629.904 20.648C629.904 21.2453 629.779 21.7707 629.528 22.224C629.283 22.672 628.949 23.0453 628.528 23.344C628.107 23.6427 627.624 23.8667 627.08 24.016C626.541 24.1653 625.976 24.24 625.384 24.24ZM635.564 24.24C634.689 24.24 633.921 24.0507 633.26 23.672C632.598 23.2933 632.081 22.768 631.708 22.096C631.34 21.424 631.156 20.6507 631.156 19.776C631.156 18.832 631.337 18.0133 631.7 17.32C632.062 16.6213 632.566 16.08 633.212 15.696C633.857 15.312 634.604 15.12 635.452 15.12C636.348 15.12 637.108 15.3307 637.732 15.752C638.361 16.168 638.828 16.7573 639.132 17.52C639.436 18.2827 639.55 19.1813 639.476 20.216H637.564V19.512C637.558 18.5733 637.393 17.888 637.068 17.456C636.742 17.024 636.23 16.808 635.532 16.808C634.742 16.808 634.156 17.0533 633.772 17.544C633.388 18.0293 633.196 18.7413 633.196 19.68C633.196 20.5547 633.388 21.232 633.772 21.712C634.156 22.192 634.716 22.432 635.452 22.432C635.926 22.432 636.334 22.328 636.676 22.12C637.022 21.9067 637.289 21.6 637.476 21.2L639.38 21.776C639.049 22.5547 638.537 23.16 637.844 23.592C637.156 24.024 636.396 24.24 635.564 24.24ZM632.588 20.216V18.76H638.532V20.216H632.588ZM641.261 24V15.36H642.965V17.464L642.757 17.192C642.863 16.904 643.005 16.6427 643.181 16.408C643.362 16.168 643.578 15.9707 643.829 15.816C644.042 15.672 644.277 15.56 644.533 15.48C644.794 15.3947 645.061 15.344 645.333 15.328C645.605 15.3067 645.869 15.3173 646.125 15.36V17.16C645.869 17.0853 645.573 17.0613 645.237 17.088C644.906 17.1147 644.607 17.208 644.341 17.368C644.074 17.512 643.855 17.696 643.685 17.92C643.519 18.144 643.397 18.4 643.317 18.688C643.237 18.9707 643.197 19.2773 643.197 19.608V24H641.261ZM649.987 24L646.851 15.36H648.779L650.955 21.624L653.123 15.36H655.059L651.923 24H649.987ZM656.655 14.048V12.28H658.583V14.048H656.655ZM656.655 24V15.36H658.583V24H656.655ZM664.731 24.24C663.841 24.24 663.081 24.0427 662.451 23.648C661.822 23.248 661.339 22.704 661.003 22.016C660.673 21.328 660.505 20.5493 660.499 19.68C660.505 18.7947 660.678 18.0107 661.019 17.328C661.366 16.64 661.857 16.1013 662.491 15.712C663.126 15.3173 663.881 15.12 664.755 15.12C665.737 15.12 666.566 15.368 667.243 15.864C667.926 16.3547 668.371 17.0267 668.579 17.88L666.659 18.4C666.51 17.936 666.262 17.576 665.915 17.32C665.569 17.0587 665.174 16.928 664.731 16.928C664.23 16.928 663.817 17.048 663.491 17.288C663.166 17.5227 662.926 17.848 662.771 18.264C662.617 18.68 662.539 19.152 662.539 19.68C662.539 20.5013 662.723 21.1653 663.091 21.672C663.459 22.1787 664.006 22.432 664.731 22.432C665.243 22.432 665.646 22.3147 665.939 22.08C666.238 21.8453 666.462 21.5067 666.611 21.064L668.579 21.504C668.313 22.384 667.846 23.0613 667.179 23.536C666.513 24.0053 665.697 24.24 664.731 24.24ZM673.876 24.24C673.001 24.24 672.233 24.0507 671.572 23.672C670.911 23.2933 670.393 22.768 670.02 22.096C669.652 21.424 669.468 20.6507 669.468 19.776C669.468 18.832 669.649 18.0133 670.012 17.32C670.375 16.6213 670.879 16.08 671.524 15.696C672.169 15.312 672.916 15.12 673.764 15.12C674.66 15.12 675.42 15.3307 676.044 15.752C676.673 16.168 677.14 16.7573 677.444 17.52C677.748 18.2827 677.863 19.1813 677.788 20.216H675.876V19.512C675.871 18.5733 675.705 17.888 675.38 17.456C675.055 17.024 674.543 16.808 673.844 16.808C673.055 16.808 672.468 17.0533 672.084 17.544C671.7 18.0293 671.508 18.7413 671.508 19.68C671.508 20.5547 671.7 21.232 672.084 21.712C672.468 22.192 673.028 22.432 673.764 22.432C674.239 22.432 674.647 22.328 674.988 22.12C675.335 21.9067 675.601 21.6 675.788 21.2L677.692 21.776C677.361 22.5547 676.849 23.16 676.156 23.592C675.468 24.024 674.708 24.24 673.876 24.24ZM670.9 20.216V18.76H676.844V20.216H670.9ZM682.909 24.24C681.842 24.24 680.976 24 680.309 23.52C679.642 23.04 679.237 22.3653 679.093 21.496L681.061 21.192C681.162 21.6187 681.386 21.9547 681.733 22.2C682.08 22.4453 682.517 22.568 683.045 22.568C683.509 22.568 683.866 22.4773 684.117 22.296C684.373 22.1093 684.501 21.856 684.501 21.536C684.501 21.3387 684.453 21.1813 684.357 21.064C684.266 20.9413 684.064 20.824 683.749 20.712C683.434 20.6 682.952 20.4587 682.301 20.288C681.576 20.096 681 19.8907 680.573 19.672C680.146 19.448 679.84 19.184 679.653 18.88C679.466 18.576 679.373 18.208 679.373 17.776C679.373 17.2373 679.514 16.768 679.797 16.368C680.08 15.968 680.474 15.6613 680.981 15.448C681.488 15.2293 682.085 15.12 682.773 15.12C683.445 15.12 684.04 15.224 684.557 15.432C685.08 15.64 685.501 15.936 685.821 16.32C686.141 16.704 686.338 17.1547 686.413 17.672L684.445 18.024C684.397 17.656 684.229 17.3653 683.941 17.152C683.658 16.9387 683.28 16.8187 682.805 16.792C682.352 16.7653 681.986 16.8347 681.709 17C681.432 17.16 681.293 17.3867 681.293 17.68C681.293 17.8453 681.349 17.9867 681.461 18.104C681.573 18.2213 681.797 18.3387 682.133 18.456C682.474 18.5733 682.981 18.7173 683.653 18.888C684.341 19.064 684.89 19.2667 685.301 19.496C685.717 19.72 686.016 19.9893 686.197 20.304C686.384 20.6187 686.477 21 686.477 21.448C686.477 22.3173 686.16 23 685.525 23.496C684.896 23.992 684.024 24.24 682.909 24.24Z" fill="white"/>
<path fill-rule="evenodd" clip-rule="evenodd" d="M697.528 15.5286C697.268 15.7889 697.268 16.211 697.528 16.4714L701.528 20.4714C701.789 20.7317 702.211 20.7317 702.471 20.4714L706.471 16.4714C706.731 16.211 706.731 15.7889 706.471 15.5286C706.211 15.2682 705.789 15.2682 705.528 15.5286L702 19.0572L698.471 15.5286C698.211 15.2682 697.789 15.2682 697.528 15.5286Z" fill="white"/>
<line x1="621.5" y1="34.5" x2="708.5" y2="34.5" stroke="white"/>
<path d="M745.12 27V15.48H749.568C749.68 15.48 749.805 15.4853 749.944 15.496C750.088 15.5013 750.232 15.5173 750.376 15.544C750.979 15.6347 751.488 15.8453 751.904 16.176C752.325 16.5013 752.643 16.912 752.856 17.408C753.075 17.904 753.184 18.4533 753.184 19.056C753.184 19.9253 752.955 20.68 752.496 21.32C752.037 21.96 751.381 22.3627 750.528 22.528L750.12 22.624H746.296V27H745.12ZM752.096 27L749.824 22.312L750.952 21.88L753.448 27H752.096ZM746.296 21.504H749.536C749.632 21.504 749.744 21.4987 749.872 21.488C750 21.4773 750.125 21.4587 750.248 21.432C750.643 21.3467 750.965 21.184 751.216 20.944C751.472 20.704 751.661 20.4187 751.784 20.088C751.912 19.7573 751.976 19.4133 751.976 19.056C751.976 18.6987 751.912 18.3547 751.784 18.024C751.661 17.688 751.472 17.4 751.216 17.16C750.965 16.92 750.643 16.7573 750.248 16.672C750.125 16.6453 750 16.6293 749.872 16.624C749.744 16.6133 749.632 16.608 749.536 16.608H746.296V21.504ZM758.87 27.24C758.027 27.24 757.296 27.0533 756.678 26.68C756.064 26.3067 755.587 25.7813 755.246 25.104C754.904 24.4267 754.734 23.632 754.734 22.72C754.734 21.776 754.902 20.96 755.238 20.272C755.574 19.584 756.046 19.0533 756.654 18.68C757.267 18.3067 757.99 18.12 758.822 18.12C759.675 18.12 760.403 18.3173 761.006 18.712C761.608 19.1013 762.064 19.6613 762.374 20.392C762.683 21.1227 762.824 21.9947 762.798 23.008H761.598V22.592C761.576 21.472 761.334 20.6267 760.87 20.056C760.411 19.4853 759.739 19.2 758.854 19.2C757.926 19.2 757.214 19.5013 756.718 20.104C756.227 20.7067 755.982 21.5653 755.982 22.68C755.982 23.768 756.227 24.6133 756.718 25.216C757.214 25.8133 757.915 26.112 758.822 26.112C759.44 26.112 759.979 25.9707 760.438 25.688C760.902 25.4 761.267 24.9867 761.534 24.448L762.63 24.872C762.288 25.624 761.784 26.208 761.118 26.624C760.456 27.0347 759.707 27.24 758.87 27.24ZM755.566 23.008V22.024H762.166V23.008H755.566ZM767.797 27.232C766.784 27.232 765.949 27.0133 765.293 26.576C764.642 26.1387 764.242 25.5307 764.093 24.752L765.293 24.552C765.421 25.0427 765.712 25.4347 766.165 25.728C766.624 26.016 767.189 26.16 767.861 26.16C768.517 26.16 769.034 26.024 769.413 25.752C769.792 25.4747 769.981 25.0987 769.981 24.624C769.981 24.3573 769.92 24.1413 769.797 23.976C769.68 23.8053 769.437 23.648 769.069 23.504C768.701 23.36 768.152 23.1893 767.421 22.992C766.637 22.7787 766.024 22.5653 765.581 22.352C765.138 22.1387 764.824 21.8933 764.637 21.616C764.45 21.3333 764.357 20.9893 764.357 20.584C764.357 20.0933 764.496 19.664 764.773 19.296C765.05 18.9227 765.434 18.6347 765.925 18.432C766.416 18.224 766.986 18.12 767.637 18.12C768.288 18.12 768.869 18.2267 769.381 18.44C769.898 18.648 770.314 18.9413 770.629 19.32C770.944 19.6987 771.13 20.1387 771.189 20.64L769.989 20.856C769.909 20.3493 769.656 19.9493 769.229 19.656C768.808 19.3573 768.272 19.2027 767.621 19.192C767.008 19.176 766.509 19.2933 766.125 19.544C765.741 19.7893 765.549 20.1173 765.549 20.528C765.549 20.7573 765.618 20.9547 765.757 21.12C765.896 21.28 766.146 21.432 766.509 21.576C766.877 21.72 767.4 21.8773 768.077 22.048C768.872 22.2507 769.496 22.464 769.949 22.688C770.402 22.912 770.725 23.176 770.917 23.48C771.109 23.784 771.205 24.16 771.205 24.608C771.205 25.424 770.901 26.0667 770.293 26.536C769.69 27 768.858 27.232 767.797 27.232ZM776.587 27.24C775.729 27.24 774.995 27.0453 774.387 26.656C773.779 26.2667 773.313 25.728 772.987 25.04C772.662 24.352 772.499 23.5627 772.499 22.672C772.499 21.7653 772.665 20.9707 772.995 20.288C773.326 19.6053 773.795 19.0747 774.403 18.696C775.017 18.312 775.745 18.12 776.587 18.12C777.451 18.12 778.187 18.3147 778.795 18.704C779.409 19.088 779.875 19.624 780.195 20.312C780.521 20.9947 780.683 21.7813 780.683 22.672C780.683 23.5787 780.521 24.376 780.195 25.064C779.87 25.7467 779.401 26.28 778.787 26.664C778.174 27.048 777.441 27.24 776.587 27.24ZM776.587 26.112C777.547 26.112 778.262 25.7947 778.731 25.16C779.201 24.52 779.435 23.6907 779.435 22.672C779.435 21.6267 779.198 20.7947 778.723 20.176C778.254 19.5573 777.542 19.248 776.587 19.248C775.942 19.248 775.409 19.3947 774.987 19.688C774.571 19.976 774.259 20.3787 774.051 20.896C773.849 21.408 773.747 22 773.747 22.672C773.747 23.712 773.987 24.5467 774.467 25.176C774.947 25.8 775.654 26.112 776.587 26.112ZM785.752 27.216C785.235 27.216 784.781 27.136 784.392 26.976C784.008 26.816 783.68 26.6 783.408 26.328C783.141 26.056 782.925 25.7467 782.76 25.4C782.595 25.048 782.475 24.6773 782.4 24.288C782.325 23.8933 782.288 23.5013 782.288 23.112V18.36H783.472V22.768C783.472 23.2427 783.517 23.6827 783.608 24.088C783.699 24.4933 783.843 24.848 784.04 25.152C784.243 25.4507 784.501 25.6827 784.816 25.848C785.136 26.0133 785.523 26.096 785.976 26.096C786.392 26.096 786.757 26.024 787.072 25.88C787.392 25.736 787.659 25.5307 787.872 25.264C788.091 24.992 788.256 24.664 788.368 24.28C788.48 23.8907 788.536 23.4533 788.536 22.968L789.368 23.152C789.368 24.0373 789.213 24.7813 788.904 25.384C788.595 25.9867 788.168 26.4427 787.624 26.752C787.08 27.0613 786.456 27.216 785.752 27.216ZM788.656 27V24.872H788.536V18.36H789.712V27H788.656ZM791.948 27V18.36H793.004V20.44L792.796 20.168C792.892 19.912 793.017 19.6773 793.172 19.464C793.327 19.2453 793.495 19.0667 793.676 18.928C793.9 18.7307 794.161 18.5813 794.46 18.48C794.759 18.3733 795.06 18.312 795.364 18.296C795.668 18.2747 795.945 18.296 796.196 18.36V19.464C795.881 19.384 795.537 19.3653 795.164 19.408C794.791 19.4507 794.447 19.6 794.132 19.856C793.844 20.08 793.628 20.3493 793.484 20.664C793.34 20.9733 793.244 21.304 793.196 21.656C793.148 22.0027 793.124 22.3467 793.124 22.688V27H791.948ZM801.141 27.24C800.272 27.24 799.536 27.0453 798.934 26.656C798.331 26.2667 797.872 25.7307 797.558 25.048C797.248 24.36 797.088 23.5707 797.078 22.68C797.088 21.7733 797.254 20.9787 797.574 20.296C797.894 19.608 798.355 19.0747 798.958 18.696C799.56 18.312 800.291 18.12 801.15 18.12C802.024 18.12 802.784 18.3333 803.43 18.76C804.08 19.1867 804.526 19.7707 804.766 20.512L803.614 20.88C803.411 20.3627 803.088 19.9627 802.646 19.68C802.208 19.392 801.707 19.248 801.141 19.248C800.507 19.248 799.982 19.3947 799.566 19.688C799.15 19.976 798.84 20.3787 798.638 20.896C798.435 21.4133 798.331 22.008 798.326 22.68C798.336 23.7147 798.576 24.5467 799.046 25.176C799.515 25.8 800.214 26.112 801.141 26.112C801.728 26.112 802.227 25.9787 802.638 25.712C803.054 25.44 803.368 25.0453 803.582 24.528L804.766 24.88C804.446 25.648 803.976 26.2347 803.358 26.64C802.739 27.04 802 27.24 801.141 27.24ZM809.839 27.24C808.996 27.24 808.265 27.0533 807.647 26.68C807.033 26.3067 806.556 25.7813 806.215 25.104C805.873 24.4267 805.703 23.632 805.703 22.72C805.703 21.776 805.871 20.96 806.207 20.272C806.543 19.584 807.015 19.0533 807.623 18.68C808.236 18.3067 808.959 18.12 809.791 18.12C810.644 18.12 811.372 18.3173 811.975 18.712C812.577 19.1013 813.033 19.6613 813.343 20.392C813.652 21.1227 813.793 21.9947 813.767 23.008H812.567V22.592C812.545 21.472 812.303 20.6267 811.839 20.056C811.38 19.4853 810.708 19.2 809.823 19.2C808.895 19.2 808.183 19.5013 807.687 20.104C807.196 20.7067 806.951 21.5653 806.951 22.68C806.951 23.768 807.196 24.6133 807.687 25.216C808.183 25.8133 808.884 26.112 809.791 26.112C810.409 26.112 810.948 25.9707 811.407 25.688C811.871 25.4 812.236 24.9867 812.503 24.448L813.599 24.872C813.257 25.624 812.753 26.208 812.087 26.624C811.425 27.0347 810.676 27.24 809.839 27.24ZM806.535 23.008V22.024H813.135V23.008H806.535ZM818.766 27.232C817.753 27.232 816.918 27.0133 816.262 26.576C815.611 26.1387 815.211 25.5307 815.062 24.752L816.262 24.552C816.39 25.0427 816.681 25.4347 817.134 25.728C817.593 26.016 818.158 26.16 818.83 26.16C819.486 26.16 820.003 26.024 820.382 25.752C820.761 25.4747 820.95 25.0987 820.95 24.624C820.95 24.3573 820.889 24.1413 820.766 23.976C820.649 23.8053 820.406 23.648 820.038 23.504C819.67 23.36 819.121 23.1893 818.39 22.992C817.606 22.7787 816.993 22.5653 816.55 22.352C816.107 22.1387 815.793 21.8933 815.606 21.616C815.419 21.3333 815.326 20.9893 815.326 20.584C815.326 20.0933 815.465 19.664 815.742 19.296C816.019 18.9227 816.403 18.6347 816.894 18.432C817.385 18.224 817.955 18.12 818.606 18.12C819.257 18.12 819.838 18.2267 820.35 18.44C820.867 18.648 821.283 18.9413 821.598 19.32C821.913 19.6987 822.099 20.1387 822.158 20.64L820.958 20.856C820.878 20.3493 820.625 19.9493 820.198 19.656C819.777 19.3573 819.241 19.2027 818.59 19.192C817.977 19.176 817.478 19.2933 817.094 19.544C816.71 19.7893 816.518 20.1173 816.518 20.528C816.518 20.7573 816.587 20.9547 816.726 21.12C816.865 21.28 817.115 21.432 817.478 21.576C817.846 21.72 818.369 21.8773 819.046 22.048C819.841 22.2507 820.465 22.464 820.918 22.688C821.371 22.912 821.694 23.176 821.886 23.48C822.078 23.784 822.174 24.16 822.174 24.608C822.174 25.424 821.87 26.0667 821.262 26.536C820.659 27 819.827 27.232 818.766 27.232Z" fill="white"/>
<path fill-rule="evenodd" clip-rule="evenodd" d="M832.528 18.5286C832.268 18.7889 832.268 19.211 832.528 19.4714L836.528 23.4714C836.789 23.7317 837.211 23.7317 837.471 23.4714L841.471 19.4714C841.731 19.211 841.731 18.7889 841.471 18.5286C841.211 18.2682 840.789 18.2682 840.528 18.5286L837 22.0572L833.471 18.5286C833.211 18.2682 832.789 18.2682 832.528 18.5286Z" fill="white"/>
<rect x="1103" width="121" height="42" rx="8" fill="white"/>
<path d="M1126.93 27.24C1125.78 27.24 1124.79 26.9893 1123.98 26.488C1123.17 25.9813 1122.55 25.2773 1122.12 24.376C1121.69 23.4747 1121.48 22.4293 1121.48 21.24C1121.48 20.0507 1121.69 19.0053 1122.12 18.104C1122.55 17.2027 1123.17 16.5013 1123.98 16C1124.79 15.4933 1125.78 15.24 1126.93 15.24C1128.26 15.24 1129.35 15.576 1130.22 16.248C1131.1 16.92 1131.71 17.824 1132.05 18.96L1130.35 19.416C1130.13 18.6107 1129.73 17.9787 1129.15 17.52C1128.58 17.0613 1127.84 16.832 1126.93 16.832C1126.11 16.832 1125.43 17.016 1124.89 17.384C1124.34 17.752 1123.93 18.2667 1123.66 18.928C1123.38 19.5893 1123.25 20.36 1123.25 21.24C1123.24 22.12 1123.38 22.8907 1123.65 23.552C1123.93 24.2133 1124.34 24.728 1124.88 25.096C1125.43 25.464 1126.11 25.648 1126.93 25.648C1127.84 25.648 1128.58 25.4187 1129.15 24.96C1129.73 24.496 1130.13 23.864 1130.35 23.064L1132.05 23.52C1131.71 24.656 1131.1 25.56 1130.22 26.232C1129.35 26.904 1128.26 27.24 1126.93 27.24ZM1137.56 27.24C1136.7 27.24 1135.95 27.0453 1135.31 26.656C1134.68 26.2667 1134.19 25.7307 1133.84 25.048C1133.5 24.36 1133.33 23.568 1133.33 22.672C1133.33 21.7707 1133.5 20.9787 1133.86 20.296C1134.21 19.608 1134.7 19.0747 1135.34 18.696C1135.97 18.312 1136.71 18.12 1137.56 18.12C1138.42 18.12 1139.17 18.3147 1139.81 18.704C1140.44 19.0933 1140.93 19.6293 1141.28 20.312C1141.63 20.9947 1141.8 21.7813 1141.8 22.672C1141.8 23.5733 1141.62 24.368 1141.27 25.056C1140.92 25.7387 1140.43 26.2747 1139.8 26.664C1139.16 27.048 1138.42 27.24 1137.56 27.24ZM1137.56 25.664C1138.39 25.664 1139 25.3867 1139.41 24.832C1139.82 24.272 1140.02 23.552 1140.02 22.672C1140.02 21.7707 1139.82 21.0507 1139.4 20.512C1138.99 19.968 1138.38 19.696 1137.56 19.696C1137 19.696 1136.54 19.824 1136.18 20.08C1135.81 20.3307 1135.54 20.68 1135.37 21.128C1135.19 21.5707 1135.1 22.0853 1135.1 22.672C1135.1 23.5787 1135.31 24.304 1135.73 24.848C1136.14 25.392 1136.75 25.664 1137.56 25.664ZM1149.62 27V22.752C1149.62 22.416 1149.59 22.072 1149.53 21.72C1149.48 21.3627 1149.37 21.032 1149.21 20.728C1149.06 20.424 1148.84 20.1787 1148.55 19.992C1148.27 19.8053 1147.9 19.712 1147.44 19.712C1147.14 19.712 1146.86 19.7627 1146.59 19.864C1146.32 19.96 1146.09 20.1173 1145.89 20.336C1145.69 20.5547 1145.53 20.8427 1145.41 21.2C1145.3 21.5573 1145.25 21.992 1145.25 22.504L1144.21 22.112C1144.21 21.328 1144.35 20.6373 1144.65 20.04C1144.94 19.4373 1145.36 18.968 1145.91 18.632C1146.46 18.296 1147.12 18.128 1147.9 18.128C1148.5 18.128 1149 18.224 1149.41 18.416C1149.81 18.608 1150.14 18.8613 1150.39 19.176C1150.65 19.4853 1150.84 19.824 1150.97 20.192C1151.11 20.56 1151.2 20.92 1151.25 21.272C1151.29 21.624 1151.32 21.9333 1151.32 22.2V27H1149.62ZM1143.55 27V18.36H1145.05V20.856H1145.25V27H1143.55ZM1158.35 27C1157.8 27.1067 1157.27 27.152 1156.75 27.136C1156.22 27.12 1155.76 27.0187 1155.35 26.832C1154.93 26.6453 1154.63 26.352 1154.42 25.952C1154.23 25.5947 1154.13 25.232 1154.11 24.864C1154.1 24.4907 1154.1 24.0693 1154.1 23.6V15.96H1155.78V23.52C1155.78 23.8667 1155.78 24.168 1155.79 24.424C1155.8 24.68 1155.85 24.896 1155.95 25.072C1156.15 25.4027 1156.45 25.592 1156.87 25.64C1157.29 25.6827 1157.78 25.664 1158.35 25.584V27ZM1152.44 19.704V18.36H1158.35V19.704H1152.44ZM1162.61 27.24C1161.97 27.24 1161.43 27.1227 1161 26.888C1160.57 26.648 1160.24 26.3333 1160.01 25.944C1159.8 25.5493 1159.69 25.1173 1159.69 24.648C1159.69 24.2107 1159.76 23.8267 1159.92 23.496C1160.07 23.1653 1160.3 22.8853 1160.61 22.656C1160.91 22.4213 1161.28 22.232 1161.73 22.088C1162.11 21.976 1162.55 21.8773 1163.03 21.792C1163.52 21.7067 1164.03 21.6267 1164.56 21.552C1165.1 21.4773 1165.63 21.4027 1166.16 21.328L1165.55 21.664C1165.56 20.9867 1165.42 20.4853 1165.12 20.16C1164.83 19.8293 1164.32 19.664 1163.6 19.664C1163.15 19.664 1162.73 19.7707 1162.35 19.984C1161.97 20.192 1161.71 20.5387 1161.56 21.024L1160 20.544C1160.21 19.8027 1160.62 19.2133 1161.21 18.776C1161.82 18.3387 1162.62 18.12 1163.61 18.12C1164.39 18.12 1165.06 18.2533 1165.63 18.52C1166.21 18.7813 1166.63 19.1973 1166.89 19.768C1167.03 20.0507 1167.12 20.3493 1167.15 20.664C1167.18 20.9787 1167.2 21.3173 1167.2 21.68V27H1165.72V25.024L1166.01 25.28C1165.65 25.9413 1165.19 26.4347 1164.64 26.76C1164.09 27.08 1163.41 27.24 1162.61 27.24ZM1162.9 25.872C1163.38 25.872 1163.79 25.7893 1164.13 25.624C1164.47 25.4533 1164.74 25.2373 1164.95 24.976C1165.16 24.7147 1165.29 24.4427 1165.36 24.16C1165.45 23.904 1165.5 23.616 1165.51 23.296C1165.53 22.976 1165.53 22.72 1165.53 22.528L1166.08 22.728C1165.55 22.808 1165.07 22.88 1164.64 22.944C1164.21 23.008 1163.81 23.072 1163.46 23.136C1163.12 23.1947 1162.81 23.2667 1162.53 23.352C1162.31 23.432 1162.1 23.528 1161.92 23.64C1161.74 23.752 1161.6 23.888 1161.49 24.048C1161.39 24.208 1161.34 24.4027 1161.34 24.632C1161.34 24.856 1161.4 25.064 1161.51 25.256C1161.62 25.4427 1161.79 25.592 1162.02 25.704C1162.25 25.816 1162.55 25.872 1162.9 25.872ZM1172.97 27.24C1172.09 27.24 1171.33 27.0427 1170.72 26.648C1170.1 26.2533 1169.62 25.712 1169.29 25.024C1168.97 24.336 1168.8 23.5547 1168.8 22.68C1168.8 21.7893 1168.97 21.0027 1169.31 20.32C1169.64 19.632 1170.12 19.0933 1170.75 18.704C1171.37 18.3147 1172.12 18.12 1173 18.12C1173.94 18.12 1174.75 18.3547 1175.41 18.824C1176.08 19.2933 1176.53 19.936 1176.74 20.752L1175.08 21.232C1174.91 20.7467 1174.64 20.3707 1174.26 20.104C1173.89 19.832 1173.46 19.696 1172.97 19.696C1172.42 19.696 1171.97 19.8267 1171.62 20.088C1171.27 20.344 1171.01 20.696 1170.84 21.144C1170.67 21.592 1170.58 22.104 1170.57 22.68C1170.58 23.5707 1170.78 24.2907 1171.18 24.84C1171.59 25.3893 1172.18 25.664 1172.97 25.664C1173.51 25.664 1173.95 25.5413 1174.28 25.296C1174.61 25.0453 1174.87 24.688 1175.04 24.224L1176.74 24.624C1176.46 25.4667 1175.99 26.1147 1175.34 26.568C1174.69 27.016 1173.9 27.24 1172.97 27.24ZM1183.31 27C1182.77 27.1067 1182.24 27.152 1181.71 27.136C1181.19 27.12 1180.72 27.0187 1180.31 26.832C1179.9 26.6453 1179.59 26.352 1179.39 25.952C1179.2 25.5947 1179.1 25.232 1179.08 24.864C1179.07 24.4907 1179.07 24.0693 1179.07 23.6V15.96H1180.75V23.52C1180.75 23.8667 1180.75 24.168 1180.75 24.424C1180.76 24.68 1180.82 24.896 1180.92 25.072C1181.11 25.4027 1181.42 25.592 1181.83 25.64C1182.26 25.6827 1182.75 25.664 1183.31 25.584V27ZM1177.41 19.704V18.36H1183.31V19.704H1177.41ZM1191.59 27.232C1191 27.232 1190.5 27.136 1190.09 26.944C1189.69 26.752 1189.35 26.5013 1189.1 26.192C1188.85 25.8773 1188.66 25.536 1188.52 25.168C1188.39 24.8 1188.3 24.44 1188.25 24.088C1188.2 23.736 1188.18 23.4267 1188.18 23.16V18.36H1189.87V22.608C1189.87 22.944 1189.9 23.2907 1189.95 23.648C1190.01 24 1190.12 24.328 1190.27 24.632C1190.43 24.936 1190.66 25.1813 1190.94 25.368C1191.23 25.5547 1191.6 25.648 1192.06 25.648C1192.36 25.648 1192.64 25.6 1192.91 25.504C1193.17 25.4027 1193.41 25.2427 1193.6 25.024C1193.81 24.8053 1193.96 24.5173 1194.07 24.16C1194.19 23.8027 1194.25 23.368 1194.25 22.856L1195.29 23.248C1195.29 24.032 1195.14 24.7253 1194.85 25.328C1194.56 25.9253 1194.14 26.392 1193.59 26.728C1193.04 27.064 1192.37 27.232 1191.59 27.232ZM1194.45 27V24.504H1194.25V18.36H1195.94V27H1194.45ZM1201.49 27.232C1200.44 27.232 1199.58 27 1198.92 26.536C1198.26 26.072 1197.85 25.4187 1197.7 24.576L1199.41 24.312C1199.52 24.76 1199.77 25.1147 1200.15 25.376C1200.54 25.632 1201.02 25.76 1201.6 25.76C1202.12 25.76 1202.53 25.6533 1202.82 25.44C1203.12 25.2267 1203.27 24.9333 1203.27 24.56C1203.27 24.3413 1203.22 24.1653 1203.11 24.032C1203.01 23.8933 1202.79 23.7627 1202.46 23.64C1202.13 23.5173 1201.63 23.3653 1200.95 23.184C1200.21 22.992 1199.62 22.7867 1199.18 22.568C1198.75 22.344 1198.44 22.0853 1198.25 21.792C1198.07 21.4933 1197.98 21.1333 1197.98 20.712C1197.98 20.1893 1198.12 19.7333 1198.4 19.344C1198.68 18.9547 1199.07 18.6533 1199.57 18.44C1200.07 18.2267 1200.67 18.12 1201.34 18.12C1202 18.12 1202.59 18.224 1203.11 18.432C1203.63 18.64 1204.05 18.936 1204.37 19.32C1204.69 19.6987 1204.88 20.144 1204.94 20.656L1203.23 20.968C1203.17 20.552 1202.98 20.224 1202.65 19.984C1202.32 19.744 1201.89 19.6133 1201.36 19.592C1200.85 19.5707 1200.44 19.656 1200.13 19.848C1199.81 20.0347 1199.65 20.2933 1199.65 20.624C1199.65 20.816 1199.71 20.9787 1199.83 21.112C1199.95 21.2453 1200.19 21.3733 1200.53 21.496C1200.88 21.6187 1201.39 21.7653 1202.07 21.936C1202.8 22.1227 1203.37 22.3307 1203.8 22.56C1204.23 22.784 1204.53 23.0533 1204.71 23.368C1204.9 23.6773 1204.99 24.0533 1204.99 24.496C1204.99 25.3493 1204.68 26.0187 1204.05 26.504C1203.44 26.9893 1202.58 27.232 1201.49 27.232Z" fill="#212121"/>
</svg>
