<svg width="46" height="45" viewBox="0 0 46 45" fill="none" xmlns="http://www.w3.org/2000/svg">
<rect width="46" height="45" rx="10.2987" fill="url(#paint0_linear_425_3123)"/>
<path d="M29.2969 24.6797C28.8955 24.6797 28.5703 24.3545 28.5703 23.9531V10.1484H17.4297V23.9531C17.4297 24.3545 17.1045 24.6797 16.7031 24.6797C16.3018 24.6797 15.9766 24.3545 15.9766 23.9531V9.42188C15.9766 9.02052 16.3018 8.69531 16.7031 8.69531H29.2969C29.6982 8.69531 30.0234 9.02052 30.0234 9.42188V23.9531C30.0234 24.3545 29.6982 24.6797 29.2969 24.6797Z" fill="white"/>
<path d="M9.92188 26.1328C9.52052 26.1328 9.19531 25.8076 9.19531 25.4062V18.5396C9.19531 18.2296 9.39209 17.9538 9.68513 17.8528L16.4664 15.5163C16.8469 15.385 17.2594 15.5872 17.39 15.9664C17.5207 16.3457 17.3192 16.7594 16.9399 16.89L10.6484 19.0578V25.4063C10.6484 25.8076 10.3232 26.1328 9.92188 26.1328Z" fill="white"/>
<path d="M36.0783 26.1328C35.6769 26.1328 35.3517 25.8076 35.3517 25.4062V19.0578L29.0603 16.8899C28.6809 16.7594 28.4794 16.3457 28.6102 15.9663C28.7407 15.5872 29.1535 15.3848 29.5338 15.5163L36.315 17.8528C36.6081 17.9537 36.8048 18.2295 36.8048 18.5396V25.4062C36.8048 25.8076 36.4796 26.1328 36.0783 26.1328Z" fill="white"/>
<path d="M19.6094 17.8984C19.208 17.8984 18.8828 17.5732 18.8828 17.1719V15.7188C18.8828 15.3174 19.208 14.9922 19.6094 14.9922C20.0107 14.9922 20.3359 15.3174 20.3359 15.7188V17.1719C20.3359 17.5732 20.0107 17.8984 19.6094 17.8984Z" fill="white"/>
<path d="M13.3125 22.7422C12.9111 22.7422 12.5859 22.417 12.5859 22.0156V20.5625C12.5859 20.1611 12.9111 19.8359 13.3125 19.8359C13.7139 19.8359 14.0391 20.1611 14.0391 20.5625V22.0156C14.0391 22.417 13.7139 22.7422 13.3125 22.7422Z" fill="white"/>
<path d="M32.6875 22.7422C32.2861 22.7422 31.9609 22.417 31.9609 22.0156V20.5625C31.9609 20.1611 32.2861 19.8359 32.6875 19.8359C33.0889 19.8359 33.4141 20.1611 33.4141 20.5625V22.0156C33.4141 22.417 33.0889 22.7422 32.6875 22.7422Z" fill="white"/>
<path d="M23 17.8984C22.5986 17.8984 22.2734 17.5732 22.2734 17.1719V15.7188C22.2734 15.3174 22.5986 14.9922 23 14.9922C23.4014 14.9922 23.7266 15.3174 23.7266 15.7188V17.1719C23.7266 17.5732 23.4014 17.8984 23 17.8984Z" fill="white"/>
<path d="M26.3906 17.8984C25.9893 17.8984 25.6641 17.5732 25.6641 17.1719V15.7188C25.6641 15.3174 25.9893 14.9922 26.3906 14.9922C26.792 14.9922 27.1172 15.3174 27.1172 15.7188V17.1719C27.1172 17.5732 26.792 17.8984 26.3906 17.8984Z" fill="white"/>
<path d="M19.6094 14.0234C19.208 14.0234 18.8828 13.6982 18.8828 13.2969V11.8438C18.8828 11.4424 19.208 11.1172 19.6094 11.1172C20.0107 11.1172 20.3359 11.4424 20.3359 11.8438V13.2969C20.3359 13.6982 20.0107 14.0234 19.6094 14.0234Z" fill="white"/>
<path d="M23 14.0234C22.5986 14.0234 22.2734 13.6982 22.2734 13.2969V11.8438C22.2734 11.4424 22.5986 11.1172 23 11.1172C23.4014 11.1172 23.7266 11.4424 23.7266 11.8438V13.2969C23.7266 13.6982 23.4014 14.0234 23 14.0234Z" fill="white"/>
<path d="M26.3906 14.0234C25.9893 14.0234 25.6641 13.6982 25.6641 13.2969V11.8438C25.6641 11.4424 25.9893 11.1172 26.3906 11.1172C26.792 11.1172 27.1172 11.4424 27.1172 11.8438V13.2969C27.1172 13.6982 26.792 14.0234 26.3906 14.0234Z" fill="white"/>
<path d="M19.6094 21.7734C19.208 21.7734 18.8828 21.4482 18.8828 21.0469V19.5938C18.8828 19.1924 19.208 18.8672 19.6094 18.8672C20.0107 18.8672 20.3359 19.1924 20.3359 19.5938V21.0469C20.3359 21.4482 20.0107 21.7734 19.6094 21.7734Z" fill="white"/>
<path d="M23 21.7734C22.5986 21.7734 22.2734 21.4482 22.2734 21.0469V19.5938C22.2734 19.1924 22.5986 18.8672 23 18.8672C23.4014 18.8672 23.7266 19.1924 23.7266 19.5938V21.0469C23.7266 21.4482 23.4014 21.7734 23 21.7734Z" fill="white"/>
<path d="M26.3906 21.7734C25.9893 21.7734 25.6641 21.4482 25.6641 21.0469V19.5938C25.6641 19.1924 25.9893 18.8672 26.3906 18.8672C26.792 18.8672 27.1172 19.1924 27.1172 19.5938V21.0469C27.1172 21.4482 26.792 21.7734 26.3906 21.7734Z" fill="white"/>
<path d="M14.04 32.1875C12.1947 32.1875 10.6934 30.6862 10.6934 28.8409C10.6934 26.9956 12.1947 25.4943 14.04 25.4943C15.8853 25.4943 17.3866 26.9956 17.3866 28.8409C17.3866 30.6862 15.8853 32.1875 14.04 32.1875ZM14.04 26.9474C12.9958 26.9474 12.1465 27.7967 12.1465 28.8409C12.1465 29.8851 12.9958 30.7344 14.04 30.7344C15.0842 30.7344 15.9335 29.8851 15.9335 28.8409C15.9335 27.7967 15.0842 26.9474 14.04 26.9474Z" fill="white"/>
<path d="M14.7656 36.3047H9.92188C9.52052 36.3047 9.19531 35.9795 9.19531 35.5781C9.19531 32.9072 11.3681 30.7344 14.0391 30.7344C16.0317 30.7344 17.8481 31.9829 18.5588 33.8414C18.7021 34.2161 18.5146 34.6361 18.1397 34.7794C17.7644 34.923 17.3453 34.7352 17.2017 34.3603C16.7045 33.0607 15.4335 32.1875 14.0391 32.1875C12.4187 32.1875 11.0602 33.3298 10.7267 34.8516H14.7656C15.167 34.8516 15.4922 35.1768 15.4922 35.5781C15.4922 35.9795 15.167 36.3047 14.7656 36.3047Z" fill="white"/>
<path d="M31.9619 32.1875C30.1166 32.1875 28.6152 30.6862 28.6152 28.8409C28.6152 26.9956 30.1166 25.4943 31.9619 25.4943C33.8071 25.4943 35.3085 26.9956 35.3085 28.8409C35.3085 30.6862 33.8071 32.1875 31.9619 32.1875ZM31.9619 26.9474C30.9177 26.9474 30.0684 27.7967 30.0684 28.8409C30.0684 29.8851 30.9177 30.7344 31.9619 30.7344C33.0061 30.7344 33.8554 29.8851 33.8554 28.8409C33.8554 27.7967 33.0061 26.9474 31.9619 26.9474Z" fill="white"/>
<path d="M36.0776 36.3047H31.2339C30.8325 36.3047 30.5073 35.9795 30.5073 35.5781C30.5073 35.1768 30.8325 34.8516 31.2339 34.8516H35.2728C34.9393 33.3298 33.5808 32.1875 31.9604 32.1875C30.566 32.1875 29.295 33.0607 28.7978 34.3603C28.6547 34.7352 28.2359 34.9228 27.8598 34.7794C27.4849 34.6361 27.2974 34.2161 27.4407 33.8414C28.1514 31.9829 29.9678 30.7344 31.9604 30.7344C34.6314 30.7344 36.8042 32.9072 36.8042 35.5781C36.8042 35.9795 36.479 36.3047 36.0776 36.3047Z" fill="white"/>
<path d="M13.3125 18.0971C12.9111 18.0971 12.5859 17.7719 12.5859 17.3705V13.7812C12.5859 13.4906 12.7591 13.228 13.0263 13.1133L16.4165 11.6602C16.7845 11.5032 17.2126 11.6732 17.3706 12.0419C17.5286 12.4107 17.3578 12.8378 16.9888 12.996L14.0391 14.2604V17.3705C14.0391 17.7719 13.7139 18.0971 13.3125 18.0971Z" fill="white"/>
<path d="M32.6873 18.0971C32.2859 18.0971 31.9607 17.7719 31.9607 17.3705V14.2604L29.0109 12.996C28.642 12.8378 28.4712 12.4107 28.6292 12.0419C28.7879 11.6732 29.2162 11.5032 29.5833 11.6602L32.9734 13.1133C33.2407 13.228 33.4138 13.4906 33.4138 13.7812V17.3705C33.4138 17.7719 33.0886 18.0971 32.6873 18.0971Z" fill="white"/>
<path d="M23 30.9766C20.7297 30.9766 18.8828 29.1296 18.8828 26.8594C18.8828 24.5891 20.7297 22.7422 23 22.7422C25.2703 22.7422 27.1172 24.5891 27.1172 26.8594C27.1172 29.1296 25.2703 30.9766 23 30.9766ZM23 24.1953C21.531 24.1953 20.3359 25.3904 20.3359 26.8594C20.3359 28.3283 21.531 29.5234 23 29.5234C24.469 29.5234 25.6641 28.3283 25.6641 26.8594C25.6641 25.3904 24.469 24.1953 23 24.1953Z" fill="white"/>
<path d="M28.3281 36.3047H17.6719C17.2705 36.3047 16.9453 35.9795 16.9453 35.5781C16.9453 32.2395 19.6614 29.5234 23 29.5234C26.3386 29.5234 29.0547 32.2395 29.0547 35.5781C29.0547 35.9795 28.7295 36.3047 28.3281 36.3047ZM18.4557 34.8516H27.5443C27.195 32.6582 25.2901 30.9766 23 30.9766C20.7099 30.9766 18.805 32.6582 18.4557 34.8516Z" fill="white"/>
<defs>
<linearGradient id="paint0_linear_425_3123" x1="8.6" y1="37.1875" x2="48.7929" y2="11.3364" gradientUnits="userSpaceOnUse">
<stop stop-color="#6F90B4"/>
<stop offset="0.567308" stop-color="#2E5A88"/>
<stop offset="1" stop-color="#87BBF3"/>
</linearGradient>
</defs>
</svg>
