<svg width="45" height="45" viewBox="0 0 45 45" fill="none" xmlns="http://www.w3.org/2000/svg">
<rect width="45" height="45" rx="10.2987" fill="url(#paint0_linear_425_3113)"/>
<path d="M30.6527 19.9089C30.5624 19.747 30.4305 19.6122 30.2706 19.5184C30.1108 19.4245 29.9288 19.375 29.7435 19.375H23.5146L24.5814 11.224C24.6125 10.9875 24.5614 10.7475 24.4369 10.5441C24.3123 10.3407 24.1217 10.1863 23.8969 10.1065C23.6721 10.0268 23.4268 10.0266 23.2019 10.106C22.977 10.1854 22.7861 10.3395 22.6612 10.5427L14.3633 24.0378C14.2662 24.1956 14.2131 24.3765 14.2092 24.5617C14.2054 24.747 14.251 24.9299 14.3414 25.0917C14.4318 25.2534 14.5638 25.3881 14.7236 25.4818C14.8834 25.5756 15.0654 25.625 15.2507 25.625H21.3772L20.4185 33.7891C20.3908 34.0248 20.4444 34.2628 20.5705 34.4639C20.6965 34.665 20.8874 34.817 21.1116 34.8948C21.3358 34.9726 21.5799 34.9715 21.8034 34.8916C22.0269 34.8118 22.2164 34.6581 22.3406 34.4559L30.6311 20.9624C30.7281 20.8045 30.7812 20.6237 30.785 20.4385C30.7888 20.2534 30.7431 20.0705 30.6527 19.9089ZM23.0387 29.3402L23.5829 24.7055C23.6002 24.5594 23.5863 24.4113 23.5422 24.271C23.4981 24.1306 23.4247 24.0012 23.327 23.8913C23.2293 23.7813 23.1094 23.6933 22.9752 23.6331C22.841 23.5728 22.6955 23.5417 22.5484 23.5417H17.1141L21.8833 15.7853L21.2949 20.2815C21.2757 20.4285 21.288 20.5778 21.3311 20.7196C21.3742 20.8614 21.4471 20.9924 21.5449 21.1038C21.6426 21.2152 21.763 21.3044 21.898 21.3656C22.033 21.4267 22.1795 21.4583 22.3277 21.4583H27.881L23.0387 29.3402Z" fill="white"/>
<defs>
<linearGradient id="paint0_linear_425_3113" x1="8.41304" y1="37.1875" x2="48.2333" y2="12.1328" gradientUnits="userSpaceOnUse">
<stop stop-color="#6F90B4"/>
<stop offset="0.567308" stop-color="#2E5A88"/>
<stop offset="1" stop-color="#87BBF3"/>
</linearGradient>
</defs>
</svg>
