<svg width="33" height="33" viewBox="0 0 33 33" fill="none" xmlns="http://www.w3.org/2000/svg">
<rect width="33" height="33" rx="7.69758" fill="white"/>
<g clip-path="url(#clip0_314_4545)">
<path d="M16.5017 7.93268C12.9591 7.93268 10.0762 10.8356 10.0762 14.4046C10.0762 19.4757 15.8977 24.7117 16.1454 24.9316C16.2475 25.0223 16.3746 25.0673 16.5017 25.0673C16.6287 25.0673 16.7558 25.0223 16.8579 24.9324C17.1056 24.7118 22.9271 19.4757 22.9271 14.4046C22.9271 10.8356 20.0442 7.93268 16.5017 7.93268ZM16.5017 17.9279C14.5333 17.9279 12.9319 16.3265 12.9319 14.3582C12.9319 12.3898 14.5333 10.7884 16.5017 10.7884C18.47 10.7884 20.0714 12.3898 20.0714 14.3582C20.0714 16.3265 18.47 17.9279 16.5017 17.9279Z" fill="#2E5A88"/>
</g>
<defs>
<clipPath id="clip0_314_4545">
<rect width="17.1346" height="17.1346" fill="white" transform="translate(7.93359 7.93268)"/>
</clipPath>
</defs>
</svg>
