<svg width="33" height="33" viewBox="0 0 33 33" fill="none" xmlns="http://www.w3.org/2000/svg">
<rect width="33" height="33" rx="7.69758" fill="white"/>
<path d="M12.1449 15.5206C13.3105 17.8113 15.1883 19.681 17.479 20.8547L19.2597 19.074C19.4782 18.8554 19.802 18.7826 20.0853 18.8797C20.9918 19.1792 21.9712 19.3411 22.9749 19.3411C23.4201 19.3411 23.7843 19.7053 23.7843 20.1505V22.9753C23.7843 23.4205 23.4201 23.7848 22.9749 23.7848C15.3745 23.7848 9.21484 17.6251 9.21484 10.0247C9.21484 9.57951 9.57908 9.21527 10.0243 9.21527H12.8572C13.3024 9.21527 13.6666 9.57951 13.6666 10.0247C13.6666 11.0365 13.8285 12.0078 14.128 12.9143C14.217 13.1976 14.1523 13.5133 13.9256 13.7399L12.1449 15.5206Z" fill="#2E5A88"/>
</svg>
