<svg width="516" height="452" viewBox="0 0 516 452" fill="none" xmlns="http://www.w3.org/2000/svg">
<circle cx="250.989" cy="229.491" r="221.999" stroke="url(#paint0_linear_288_1541)" stroke-width="0.984474"/>
<circle cx="251.482" cy="229.983" r="174.252" stroke="url(#paint1_linear_288_1541)" stroke-width="0.984474"/>
<circle cx="251.482" cy="229.983" r="122.075" stroke="url(#paint2_linear_288_1541)" stroke-width="0.984474"/>
<g filter="url(#filter0_i_288_1541)">
<rect x="174.2" y="152.702" width="154.562" height="154.562" rx="77.2812" fill="white"/>
<rect x="186.015" y="164.516" width="130.38" height="130.38" rx="65.1901" fill="url(#paint3_linear_288_1541)"/>
<path d="M211.746 240L207.041 224.972H210.999L215.51 240H211.746ZM212.881 240V236.845H216.949V240H212.881ZM214.403 240L218.278 224.972H221.986L217.918 240H214.403ZM234.302 240.526C232.475 240.526 230.907 240.203 229.597 239.557C228.287 238.911 227.217 238.072 226.386 237.039C225.575 236.005 224.975 234.88 224.587 233.662C224.2 232.445 224.006 231.273 224.006 230.147V229.539C224.006 228.284 224.2 227.048 224.587 225.83C224.993 224.612 225.611 223.505 226.442 222.509C227.272 221.513 228.324 220.719 229.597 220.129C230.888 219.52 232.41 219.216 234.163 219.216C235.99 219.216 237.577 219.548 238.923 220.212C240.289 220.858 241.377 221.78 242.189 222.979C243.001 224.16 243.49 225.544 243.656 227.131H239.698C239.551 226.208 239.219 225.433 238.702 224.806C238.204 224.16 237.567 223.681 236.792 223.367C236.017 223.035 235.141 222.869 234.163 222.869C233.167 222.869 232.281 223.044 231.506 223.395C230.731 223.727 230.086 224.206 229.569 224.834C229.052 225.461 228.656 226.199 228.379 227.048C228.121 227.897 227.992 228.837 227.992 229.871C227.992 230.867 228.121 231.79 228.379 232.638C228.656 233.487 229.062 234.234 229.597 234.88C230.132 235.507 230.787 235.996 231.562 236.347C232.355 236.697 233.268 236.873 234.302 236.873C235.815 236.873 237.088 236.504 238.121 235.766C239.173 235.009 239.809 233.957 240.03 232.611H243.988C243.804 234.05 243.315 235.369 242.521 236.568C241.728 237.767 240.639 238.727 239.256 239.446C237.872 240.166 236.22 240.526 234.302 240.526ZM247.36 240V219.797H251.29V240H247.36ZM263.223 240.526C261.433 240.526 259.92 240.24 258.684 239.668C257.466 239.096 256.534 238.312 255.889 237.315C255.243 236.301 254.92 235.157 254.92 233.884H258.767C258.767 234.419 258.914 234.945 259.21 235.461C259.505 235.959 259.975 236.365 260.621 236.679C261.285 236.993 262.153 237.149 263.223 237.149C264.182 237.149 264.985 237.011 265.63 236.734C266.276 236.458 266.756 236.098 267.07 235.655C267.383 235.194 267.54 234.677 267.54 234.105C267.54 233.386 267.236 232.814 266.627 232.389C266.018 231.946 265.077 231.67 263.804 231.559L262.033 231.421C260.095 231.254 258.545 230.655 257.383 229.622C256.239 228.57 255.667 227.186 255.667 225.47C255.667 224.179 255.972 223.072 256.581 222.149C257.189 221.208 258.038 220.489 259.127 219.99C260.234 219.474 261.525 219.216 263.001 219.216C264.533 219.216 265.852 219.483 266.959 220.018C268.066 220.553 268.924 221.31 269.533 222.288C270.142 223.247 270.446 224.382 270.446 225.692H266.599C266.599 225.138 266.461 224.631 266.184 224.17C265.926 223.69 265.529 223.312 264.994 223.035C264.477 222.74 263.813 222.592 263.001 222.592C262.226 222.592 261.581 222.721 261.064 222.979C260.547 223.238 260.16 223.588 259.902 224.031C259.643 224.474 259.514 224.954 259.514 225.47C259.514 226.098 259.745 226.651 260.206 227.131C260.667 227.592 261.396 227.86 262.392 227.933L264.164 228.099C265.603 228.21 266.867 228.515 267.955 229.013C269.044 229.511 269.883 230.184 270.474 231.033C271.083 231.882 271.387 232.906 271.387 234.105C271.387 235.378 271.055 236.504 270.391 237.482C269.726 238.441 268.776 239.188 267.54 239.723C266.322 240.258 264.883 240.526 263.223 240.526ZM284.473 240.526C282.646 240.526 281.059 240.203 279.713 239.557C278.384 238.911 277.277 238.072 276.392 237.039C275.524 235.987 274.869 234.862 274.427 233.662C274.002 232.445 273.79 231.273 273.79 230.147V229.539C273.79 228.302 274.011 227.075 274.454 225.858C274.897 224.622 275.561 223.505 276.447 222.509C277.351 221.513 278.467 220.719 279.796 220.129C281.124 219.52 282.683 219.216 284.473 219.216C286.244 219.216 287.794 219.52 289.122 220.129C290.451 220.719 291.558 221.513 292.443 222.509C293.347 223.505 294.021 224.622 294.464 225.858C294.907 227.075 295.128 228.302 295.128 229.539V230.147C295.128 231.273 294.907 232.445 294.464 233.662C294.039 234.862 293.384 235.987 292.499 237.039C291.632 238.072 290.525 238.911 289.178 239.557C287.849 240.203 286.281 240.526 284.473 240.526ZM284.473 236.873C285.506 236.873 286.429 236.688 287.24 236.319C288.071 235.95 288.772 235.443 289.344 234.797C289.934 234.133 290.377 233.386 290.672 232.555C290.986 231.707 291.143 230.812 291.143 229.871C291.143 228.856 290.986 227.924 290.672 227.075C290.377 226.227 289.934 225.489 289.344 224.861C288.772 224.234 288.071 223.745 287.24 223.395C286.41 223.044 285.488 222.869 284.473 222.869C283.44 222.869 282.508 223.044 281.678 223.395C280.847 223.745 280.137 224.234 279.547 224.861C278.975 225.489 278.532 226.227 278.218 227.075C277.923 227.924 277.775 228.856 277.775 229.871C277.775 230.812 277.923 231.707 278.218 232.555C278.532 233.386 278.975 234.133 279.547 234.797C280.137 235.443 280.847 235.95 281.678 236.319C282.508 236.688 283.44 236.873 284.473 236.873Z" fill="white"/>
</g>
<g filter="url(#filter1_d_288_1541)">
<rect x="18.4893" y="146" width="47.5178" height="47.0337" rx="10.7336" fill="white"/>
<g clip-path="url(#clip0_288_1541)">
<path d="M54.6192 170.636C53.8612 169.878 52.6446 169.847 51.8496 170.566L47.6295 174.385C47.5506 173.243 46.5964 172.338 45.4348 172.338H41.7457C40.8073 171.723 39.72 171.409 38.5964 171.429C37.7683 171.443 36.9661 171.64 36.2347 172.003C35.9208 171.611 35.4392 171.36 34.8997 171.36H31.8917C30.9482 171.36 30.1807 172.128 30.1807 173.071V179.426C30.1807 180.37 30.9482 181.137 31.8917 181.137H34.8997C35.5808 181.137 36.1701 180.737 36.4453 180.16H46.3911C47.678 180.16 48.9184 179.619 49.7942 178.676L54.6707 173.425C55.4098 172.629 55.3872 171.404 54.6192 170.636ZM35.1441 179.426C35.1441 179.561 35.0344 179.671 34.8997 179.671H31.8917C31.7569 179.671 31.6473 179.561 31.6473 179.426V173.071C31.6473 172.936 31.7569 172.827 31.8917 172.827H34.8997C35.0344 172.827 35.1441 172.936 35.1441 173.071V179.426ZM53.5961 172.427L48.7195 177.678C48.1203 178.323 47.2716 178.693 46.3911 178.693H36.6107V173.466C37.9509 172.675 39.6584 172.709 40.9687 173.582L41.1173 173.681C41.2377 173.762 41.3792 173.804 41.524 173.804H45.4348C45.8392 173.804 46.1681 174.133 46.1681 174.538C46.1681 174.942 45.8392 175.271 45.4349 175.271H41.0351C40.6301 175.271 40.3018 175.599 40.3018 176.004C40.3018 176.409 40.6301 176.738 41.0351 176.738H45.8023C46.7132 176.738 47.5868 176.401 48.2622 175.79L52.8335 171.654C53.0484 171.459 53.3772 171.468 53.5821 171.673C53.7898 171.88 53.7959 172.211 53.5961 172.427Z" fill="#2E5A88"/>
<path d="M38.9109 170.182H49.5862C50.3726 170.182 51.0808 169.777 51.4806 169.1C51.8804 168.423 51.8923 167.608 51.5124 166.919L46.1747 157.245C45.7818 156.533 45.0617 156.108 44.2485 156.108C43.4353 156.108 42.7152 156.533 42.3224 157.245L36.9847 166.919C36.6048 167.608 36.6167 168.423 37.0165 169.1C37.4163 169.778 38.1245 170.182 38.9109 170.182ZM38.2688 167.628L43.6065 157.953C43.7952 157.611 44.1184 157.574 44.2485 157.574C44.3787 157.574 44.7018 157.611 44.8906 157.953L50.2283 167.628C50.4108 167.959 50.2817 168.246 50.2177 168.355C50.1537 168.463 49.9641 168.715 49.5862 168.715H38.9109C38.5331 168.715 38.3435 168.463 38.2795 168.355C38.2154 168.246 38.0863 167.959 38.2688 167.628Z" fill="#2E5A88"/>
<path d="M44.2489 164.804C44.6539 164.804 44.9822 164.476 44.9822 164.071V160.893C44.9822 160.488 44.6539 160.16 44.2489 160.16C43.8439 160.16 43.5156 160.488 43.5156 160.893V164.071C43.5156 164.476 43.8439 164.804 44.2489 164.804Z" fill="#2E5A88"/>
<path d="M44.2489 165.782C43.8439 165.782 43.5156 166.11 43.5156 166.515C43.5156 166.92 43.8439 167.249 44.2489 167.249C44.6539 167.249 44.9822 166.92 44.9822 166.515C44.9822 166.11 44.6539 165.782 44.2489 165.782Z" fill="#2E5A88"/>
</g>
</g>
<g filter="url(#filter2_d_288_1541)">
<rect x="126.489" y="68" width="47.5178" height="47.0337" rx="10.7336" fill="white"/>
<g clip-path="url(#clip1_288_1541)">
<path d="M158.023 104.233C161.457 104.233 164.241 101.45 164.241 98.0159C164.241 94.5821 161.457 91.7985 158.023 91.7985C154.589 91.7985 151.806 94.5821 151.806 98.0159C151.806 101.45 154.589 104.233 158.023 104.233Z" stroke="#2E5A88" stroke-width="1.69568" stroke-miterlimit="10"/>
<path d="M151.805 98.5254C150.677 98.9137 149.466 99.1245 148.206 99.1245C142.1 99.1245 137.149 94.1743 137.149 88.068C137.149 81.9617 142.1 77.0115 148.206 77.0115C154.312 77.0115 159.262 81.9617 159.262 88.068C159.262 89.3874 159.031 90.6528 158.607 91.826" stroke="#2E5A88" stroke-width="1.69568" stroke-miterlimit="10"/>
<path d="M151.961 83.2875H146.985C145.71 83.2875 144.676 84.3214 144.676 85.597C144.676 86.8725 145.71 87.9065 146.985 87.9065H149.294C150.565 87.9065 151.596 88.9369 151.596 90.208C151.596 91.4791 150.565 92.5096 149.294 92.5096H145.385" stroke="#2E5A88" stroke-width="1.69568" stroke-miterlimit="10"/>
<path d="M148.041 95.0423V80.7544" stroke="#2E5A88" stroke-width="1.69568" stroke-miterlimit="10"/>
<path d="M154.876 97.8377L157.269 99.9653L161.168 96.0664" stroke="#2E5A88" stroke-width="1.69568" stroke-miterlimit="10"/>
</g>
</g>
<g filter="url(#filter3_d_288_1541)">
<rect x="384.489" y="46" width="47.5178" height="47.0337" rx="10.7336" fill="white"/>
<g clip-path="url(#clip2_288_1541)">
<path d="M397.039 76.8363C396.272 76.8353 395.527 77.0901 394.921 77.5604C394.315 78.0307 393.884 78.6896 393.694 79.4329C393.505 80.1762 393.569 80.9614 393.877 81.6641C394.184 82.3668 394.717 82.9469 395.391 83.3126C396.065 83.6783 396.842 83.8086 397.599 83.683C398.356 83.5574 399.049 83.183 399.569 82.619C400.088 82.0551 400.405 81.3339 400.469 80.5696C400.533 79.8053 400.34 79.0415 399.921 78.3992L401.963 76.3704C403.83 77.9973 406.224 78.893 408.7 78.8917C411.177 78.8904 413.57 77.9924 415.436 76.3636L417.47 78.3983C417.004 79.112 416.819 79.9732 416.951 80.8154C417.082 81.6577 417.522 82.4213 418.183 82.9586C418.845 83.496 419.683 83.769 420.534 83.725C421.385 83.6809 422.19 83.3229 422.793 82.7201C423.396 82.1173 423.754 81.3125 423.798 80.4611C423.842 79.6098 423.569 78.7723 423.032 78.1105C422.494 77.4487 421.731 77.0095 420.888 76.8778C420.046 76.7461 419.185 76.9312 418.471 77.3974L416.437 75.3627C418.065 73.4971 418.963 71.1049 418.965 68.6285C418.966 66.152 418.071 63.7588 416.445 61.8912L418.472 59.8479C419.186 60.3137 420.047 60.4985 420.89 60.3665C421.732 60.2345 422.495 59.795 423.032 59.133C423.569 58.471 423.842 57.6335 423.798 56.7822C423.753 55.9309 423.395 55.1262 422.792 54.5236C422.189 53.921 421.384 53.5633 420.533 53.5196C419.681 53.4758 418.844 53.7491 418.182 54.2867C417.521 54.8242 417.082 55.5879 416.951 56.4302C416.819 57.2725 417.004 58.1336 417.471 58.8472L415.445 60.8891C413.578 59.2555 411.182 58.3544 408.701 58.3529C406.221 58.3514 403.824 59.2497 401.955 60.881L399.92 58.8464C400.386 58.1326 400.571 57.2715 400.44 56.4292C400.308 55.5869 399.869 54.8234 399.207 54.286C398.545 53.7486 397.708 53.4756 396.856 53.5197C396.005 53.5637 395.2 53.9217 394.597 54.5245C393.995 55.1274 393.637 55.9322 393.593 56.7835C393.549 57.6349 393.822 58.4724 394.359 59.1342C394.896 59.796 395.66 60.2352 396.502 60.3669C397.344 60.4986 398.206 60.3134 398.919 59.8473L400.954 61.8819C399.323 63.7504 398.425 66.1471 398.426 68.6274C398.427 71.1078 399.328 73.5035 400.961 75.3704L398.92 77.398C398.362 77.031 397.708 76.8358 397.039 76.8363ZM397.039 82.3045C396.639 82.3045 396.247 82.1856 395.914 81.963C395.58 81.7403 395.321 81.4238 395.167 81.0535C395.014 80.6832 394.974 80.2758 395.052 79.8827C395.13 79.4896 395.323 79.1286 395.607 78.8452C395.89 78.5618 396.251 78.3688 396.644 78.2906C397.037 78.2124 397.445 78.2526 397.815 78.406C398.185 78.5594 398.502 78.8191 398.724 79.1523C398.947 79.4856 399.066 79.8774 399.066 80.2782C399.065 80.8154 398.851 81.3305 398.472 81.7104C398.092 82.0903 397.577 82.3039 397.039 82.3046V82.3045ZM422.378 80.2782C422.378 80.6789 422.259 81.0707 422.036 81.404C421.813 81.7372 421.497 81.9969 421.127 82.1503C420.756 82.3037 420.349 82.3438 419.956 82.2656C419.563 82.1874 419.202 81.9944 418.918 81.711C418.635 81.4276 418.442 81.0666 418.364 80.6735C418.286 80.2804 418.326 79.873 418.479 79.5027C418.632 79.1324 418.892 78.8159 419.225 78.5933C419.559 78.3706 419.95 78.2518 420.351 78.2518C420.888 78.2524 421.404 78.4661 421.783 78.846C422.163 79.2259 422.377 79.7409 422.378 80.2782ZM420.351 54.9399C420.752 54.9399 421.144 55.0588 421.477 55.2814C421.81 55.5041 422.07 55.8206 422.223 56.1908C422.377 56.5611 422.417 56.9686 422.339 57.3616C422.261 57.7547 422.068 58.1158 421.784 58.3992C421.501 58.6826 421.14 58.8756 420.747 58.9538C420.353 59.032 419.946 58.9918 419.576 58.8385C419.205 58.6851 418.889 58.4254 418.666 58.0921C418.444 57.7589 418.325 57.3671 418.325 56.9663C418.325 56.4291 418.539 55.914 418.919 55.5341C419.299 55.1542 419.814 54.9405 420.351 54.9399ZM397.039 58.9927C396.639 58.9927 396.247 58.8738 395.914 58.6512C395.58 58.4285 395.321 58.112 395.167 57.7417C395.014 57.3715 394.974 56.964 395.052 56.5709C395.13 56.1779 395.323 55.8168 395.607 55.5334C395.89 55.25 396.251 55.057 396.644 54.9788C397.037 54.9007 397.445 54.9408 397.815 55.0942C398.185 55.2475 398.502 55.5073 398.724 55.8405C398.947 56.1737 399.066 56.5655 399.066 56.9663C399.065 57.5036 398.851 58.0186 398.472 58.3985C398.092 58.7784 397.577 58.9921 397.039 58.9927ZM408.695 59.7683C413.577 59.7683 417.549 63.7402 417.549 68.6222C417.549 73.5043 413.577 77.4762 408.695 77.4762C403.813 77.4762 399.841 73.5043 399.841 68.6222C399.841 63.7402 403.813 59.7683 408.695 59.7683ZM408.414 75.405C408.503 75.4435 408.598 75.4634 408.695 75.4634C408.792 75.4634 408.888 75.4435 408.977 75.405C410.756 74.6336 412.292 73.1993 413.301 71.3667C414.426 69.3232 414.806 66.9549 414.4 64.5182C414.372 64.3439 414.278 64.1866 414.139 64.0775C414 63.9684 413.825 63.9154 413.649 63.9289C411.407 64.0978 409.994 63.5243 409.33 62.1762C409.272 62.0576 409.182 61.9577 409.069 61.8878C408.957 61.818 408.828 61.781 408.695 61.781C408.563 61.781 408.434 61.818 408.321 61.8878C408.209 61.9577 408.119 62.0576 408.06 62.1762C407.397 63.5243 405.984 64.0974 403.742 63.9289C403.565 63.9155 403.391 63.9686 403.252 64.0777C403.112 64.1867 403.019 64.3439 402.99 64.5182C402.584 66.9549 402.964 69.3232 404.09 71.3667C405.099 73.1993 406.635 74.6336 408.414 75.405ZM404.302 65.3711C406.271 65.4013 407.743 64.8644 408.695 63.766C409.648 64.8644 411.12 65.4026 413.089 65.3711C413.542 69.6138 411.228 72.7328 408.695 73.9763C406.162 72.7328 403.849 69.6138 404.302 65.3711ZM407.935 70.7025L406.078 69.0453C405.941 68.9195 405.859 68.7449 405.85 68.5593C405.841 68.3737 405.906 68.1919 406.029 68.0533C406.153 67.9147 406.326 67.8303 406.512 67.8184C406.697 67.8065 406.88 67.868 407.02 67.9897L408.314 69.1446L410.284 66.6332C410.341 66.5592 410.412 66.4973 410.494 66.4509C410.575 66.4046 410.664 66.3748 410.757 66.3632C410.85 66.3517 410.944 66.3585 411.034 66.3835C411.124 66.4085 411.208 66.451 411.281 66.5086C411.355 66.5663 411.416 66.6379 411.462 66.7194C411.508 66.8009 411.537 66.8906 411.547 66.9834C411.558 67.0762 411.551 67.1702 411.525 67.26C411.499 67.3498 411.456 67.4337 411.398 67.5067L408.962 70.6116C408.902 70.6877 408.828 70.7508 408.743 70.7969C408.658 70.843 408.564 70.8712 408.468 70.8798C408.447 70.8816 408.426 70.8825 408.405 70.8825C408.232 70.8824 408.064 70.8183 407.935 70.7026V70.7025Z" fill="#2E5A88"/>
</g>
</g>
<g filter="url(#filter4_d_288_1541)">
<rect x="268.489" y="96" width="47.5178" height="47.0337" rx="10.7336" fill="white"/>
<g clip-path="url(#clip3_288_1541)">
<path d="M306.769 110.38L301.156 104.948C300.998 104.796 300.784 104.71 300.561 104.71H287.651C286.258 104.71 285.125 105.806 285.125 107.154V117.9C281.342 118.307 278.39 121.42 278.39 125.188C278.39 129.231 281.789 132.521 285.967 132.521H304.49C305.882 132.521 307.015 131.424 307.015 130.076V110.956C307.015 110.74 306.927 110.533 306.769 110.38ZM301.402 107.492L303.232 109.262L304.141 110.142H301.402V107.492ZM280.074 125.188C280.074 122.043 282.717 119.484 285.967 119.484C289.217 119.484 291.861 122.043 291.861 125.188C291.861 128.333 289.217 130.891 285.967 130.891C282.717 130.891 280.074 128.333 280.074 125.188ZM304.49 130.891H290.724C292.237 129.707 293.272 127.971 293.497 126.002H302.244C302.709 126.002 303.086 125.638 303.086 125.188C303.086 124.738 302.709 124.373 302.244 124.373H293.497C293.36 123.177 292.925 122.067 292.264 121.114H302.244C302.709 121.114 303.086 120.749 303.086 120.299C303.086 119.849 302.709 119.484 302.244 119.484H290.724C289.628 118.627 288.282 118.059 286.809 117.9V107.154C286.809 106.705 287.187 106.339 287.651 106.339H299.719V110.956C299.719 111.406 300.096 111.771 300.561 111.771H305.331V130.076C305.331 130.526 304.954 130.891 304.49 130.891Z" fill="#2E5A88"/>
<path d="M302.245 114.596H289.897C289.432 114.596 289.055 114.96 289.055 115.41C289.055 115.86 289.432 116.225 289.897 116.225H302.245C302.71 116.225 303.087 115.86 303.087 115.41C303.087 114.96 302.71 114.596 302.245 114.596Z" fill="#2E5A88"/>
<path d="M289.313 123.145C288.984 122.827 288.451 122.827 288.122 123.145L284.789 126.371L283.7 125.318C283.371 125 282.838 125 282.509 125.318C282.18 125.636 282.18 126.152 282.509 126.47L284.193 128.099C284.358 128.259 284.573 128.338 284.789 128.338C285.004 128.338 285.219 128.259 285.384 128.099L289.313 124.297C289.642 123.979 289.642 123.463 289.313 123.145Z" fill="#2E5A88"/>
</g>
</g>
<g filter="url(#filter5_d_288_1541)">
<rect x="449.489" y="171" width="47.5178" height="47.0337" rx="10.7336" fill="white"/>
<g clip-path="url(#clip4_288_1541)">
<path d="M483.653 190.986C484.153 190.986 484.558 190.565 484.558 190.045V187.22C484.558 186.863 484.365 186.538 484.058 186.378L475.005 181.67C474.879 181.605 474.74 181.571 474.6 181.571H471.884C471.73 181.571 471.579 181.612 471.444 181.69L463.297 186.397C463.009 186.563 462.831 186.878 462.831 187.22V190.045C462.831 190.565 463.236 190.986 463.736 190.986H464.642V200.187C463.588 200.575 462.831 201.622 462.831 202.849V204.732C462.831 205.252 463.236 205.674 463.736 205.674H483.653C484.153 205.674 484.558 205.252 484.558 204.732V202.849C484.558 201.622 483.801 200.575 482.748 200.187V190.986H483.653ZM464.642 187.774L472.119 183.454H474.386L482.748 187.802V189.103H464.642V187.774ZM471.884 200.025V190.986H475.505V200.025H471.884ZM470.073 190.986V200.025H466.452V190.986H470.073ZM482.748 203.791H464.642V202.849C464.642 202.33 465.048 201.908 465.547 201.908H481.842C482.342 201.908 482.748 202.33 482.748 202.849V203.791ZM480.937 200.025H477.316V190.986H480.937V200.025Z" fill="#2E5A88"/>
<path d="M473.695 187.22C474.195 187.22 474.601 186.799 474.601 186.279C474.601 185.759 474.195 185.337 473.695 185.337C473.195 185.337 472.79 185.759 472.79 186.279C472.79 186.799 473.195 187.22 473.695 187.22Z" fill="#2E5A88"/>
</g>
</g>
<g filter="url(#filter6_di_288_1541)">
<circle cx="242.599" cy="7.11" r="7.11" fill="white"/>
</g>
<g filter="url(#filter7_di_288_1541)">
<circle cx="373.599" cy="236.11" r="7.11" fill="white"/>
</g>
<g filter="url(#filter8_di_288_1541)">
<circle cx="356.599" cy="90.11" r="7.11" fill="white"/>
</g>
<g filter="url(#filter9_di_288_1541)">
<circle cx="75.5993" cy="234.11" r="7.11" fill="white"/>
</g>
<defs>
<filter id="filter0_i_288_1541" x="174.2" y="152.702" width="154.562" height="155.265" filterUnits="userSpaceOnUse" color-interpolation-filters="sRGB">
<feFlood flood-opacity="0" result="BackgroundImageFix"/>
<feBlend mode="normal" in="SourceGraphic" in2="BackgroundImageFix" result="shape"/>
<feColorMatrix in="SourceAlpha" type="matrix" values="0 0 0 0 0 0 0 0 0 0 0 0 0 0 0 0 0 0 127 0" result="hardAlpha"/>
<feMorphology radius="2.10767" operator="erode" in="SourceAlpha" result="effect1_innerShadow_288_1541"/>
<feOffset dy="0.702557"/>
<feGaussianBlur stdDeviation="3.16151"/>
<feComposite in2="hardAlpha" operator="arithmetic" k2="-1" k3="1"/>
<feColorMatrix type="matrix" values="0 0 0 0 0.329864 0 0 0 0 0.477118 0 0 0 0 0.634514 0 0 0 0.22 0"/>
<feBlend mode="normal" in2="shape" result="effect1_innerShadow_288_1541"/>
</filter>
<filter id="filter1_d_288_1541" x="0.000257492" y="129.639" width="84.4956" height="84.0117" filterUnits="userSpaceOnUse" color-interpolation-filters="sRGB">
<feFlood flood-opacity="0" result="BackgroundImageFix"/>
<feColorMatrix in="SourceAlpha" type="matrix" values="0 0 0 0 0 0 0 0 0 0 0 0 0 0 0 0 0 0 127 0" result="hardAlpha"/>
<feOffset dy="2.12753"/>
<feGaussianBlur stdDeviation="9.2445"/>
<feColorMatrix type="matrix" values="0 0 0 0 0.392157 0 0 0 0 0.392157 0 0 0 0 0.435294 0 0 0 0.1 0"/>
<feBlend mode="normal" in2="BackgroundImageFix" result="effect1_dropShadow_288_1541"/>
<feBlend mode="normal" in="SourceGraphic" in2="effect1_dropShadow_288_1541" result="shape"/>
</filter>
<filter id="filter2_d_288_1541" x="108" y="51.6385" width="84.4956" height="84.0117" filterUnits="userSpaceOnUse" color-interpolation-filters="sRGB">
<feFlood flood-opacity="0" result="BackgroundImageFix"/>
<feColorMatrix in="SourceAlpha" type="matrix" values="0 0 0 0 0 0 0 0 0 0 0 0 0 0 0 0 0 0 127 0" result="hardAlpha"/>
<feOffset dy="2.12753"/>
<feGaussianBlur stdDeviation="9.2445"/>
<feColorMatrix type="matrix" values="0 0 0 0 0.392157 0 0 0 0 0.392157 0 0 0 0 0.435294 0 0 0 0.1 0"/>
<feBlend mode="normal" in2="BackgroundImageFix" result="effect1_dropShadow_288_1541"/>
<feBlend mode="normal" in="SourceGraphic" in2="effect1_dropShadow_288_1541" result="shape"/>
</filter>
<filter id="filter3_d_288_1541" x="366" y="29.6385" width="84.4956" height="84.0117" filterUnits="userSpaceOnUse" color-interpolation-filters="sRGB">
<feFlood flood-opacity="0" result="BackgroundImageFix"/>
<feColorMatrix in="SourceAlpha" type="matrix" values="0 0 0 0 0 0 0 0 0 0 0 0 0 0 0 0 0 0 127 0" result="hardAlpha"/>
<feOffset dy="2.12753"/>
<feGaussianBlur stdDeviation="9.2445"/>
<feColorMatrix type="matrix" values="0 0 0 0 0.392157 0 0 0 0 0.392157 0 0 0 0 0.435294 0 0 0 0.1 0"/>
<feBlend mode="normal" in2="BackgroundImageFix" result="effect1_dropShadow_288_1541"/>
<feBlend mode="normal" in="SourceGraphic" in2="effect1_dropShadow_288_1541" result="shape"/>
</filter>
<filter id="filter4_d_288_1541" x="250" y="79.6385" width="84.4956" height="84.0117" filterUnits="userSpaceOnUse" color-interpolation-filters="sRGB">
<feFlood flood-opacity="0" result="BackgroundImageFix"/>
<feColorMatrix in="SourceAlpha" type="matrix" values="0 0 0 0 0 0 0 0 0 0 0 0 0 0 0 0 0 0 127 0" result="hardAlpha"/>
<feOffset dy="2.12753"/>
<feGaussianBlur stdDeviation="9.2445"/>
<feColorMatrix type="matrix" values="0 0 0 0 0.392157 0 0 0 0 0.392157 0 0 0 0 0.435294 0 0 0 0.1 0"/>
<feBlend mode="normal" in2="BackgroundImageFix" result="effect1_dropShadow_288_1541"/>
<feBlend mode="normal" in="SourceGraphic" in2="effect1_dropShadow_288_1541" result="shape"/>
</filter>
<filter id="filter5_d_288_1541" x="431" y="154.639" width="84.4956" height="84.0117" filterUnits="userSpaceOnUse" color-interpolation-filters="sRGB">
<feFlood flood-opacity="0" result="BackgroundImageFix"/>
<feColorMatrix in="SourceAlpha" type="matrix" values="0 0 0 0 0 0 0 0 0 0 0 0 0 0 0 0 0 0 127 0" result="hardAlpha"/>
<feOffset dy="2.12753"/>
<feGaussianBlur stdDeviation="9.2445"/>
<feColorMatrix type="matrix" values="0 0 0 0 0.392157 0 0 0 0 0.392157 0 0 0 0 0.435294 0 0 0 0.1 0"/>
<feBlend mode="normal" in2="BackgroundImageFix" result="effect1_dropShadow_288_1541"/>
<feBlend mode="normal" in="SourceGraphic" in2="effect1_dropShadow_288_1541" result="shape"/>
</filter>
<filter id="filter6_di_288_1541" x="232.321" y="0" width="20.556" height="20.5562" filterUnits="userSpaceOnUse" color-interpolation-filters="sRGB">
<feFlood flood-opacity="0" result="BackgroundImageFix"/>
<feColorMatrix in="SourceAlpha" type="matrix" values="0 0 0 0 0 0 0 0 0 0 0 0 0 0 0 0 0 0 127 0" result="hardAlpha"/>
<feOffset dy="3.16813"/>
<feGaussianBlur stdDeviation="1.58406"/>
<feComposite in2="hardAlpha" operator="out"/>
<feColorMatrix type="matrix" values="0 0 0 0 0 0 0 0 0 0 0 0 0 0 0 0 0 0 0.25 0"/>
<feBlend mode="normal" in2="BackgroundImageFix" result="effect1_dropShadow_288_1541"/>
<feBlend mode="normal" in="SourceGraphic" in2="effect1_dropShadow_288_1541" result="shape"/>
<feColorMatrix in="SourceAlpha" type="matrix" values="0 0 0 0 0 0 0 0 0 0 0 0 0 0 0 0 0 0 127 0" result="hardAlpha"/>
<feMorphology radius="0.792032" operator="erode" in="SourceAlpha" result="effect2_innerShadow_288_1541"/>
<feOffset/>
<feGaussianBlur stdDeviation="4.35618"/>
<feComposite in2="hardAlpha" operator="arithmetic" k2="-1" k3="1"/>
<feColorMatrix type="matrix" values="0 0 0 0 0.435294 0 0 0 0 0.564706 0 0 0 0 0.705882 0 0 0 0.64 0"/>
<feBlend mode="normal" in2="shape" result="effect2_innerShadow_288_1541"/>
</filter>
<filter id="filter7_di_288_1541" x="363.321" y="229" width="20.556" height="20.5562" filterUnits="userSpaceOnUse" color-interpolation-filters="sRGB">
<feFlood flood-opacity="0" result="BackgroundImageFix"/>
<feColorMatrix in="SourceAlpha" type="matrix" values="0 0 0 0 0 0 0 0 0 0 0 0 0 0 0 0 0 0 127 0" result="hardAlpha"/>
<feOffset dy="3.16813"/>
<feGaussianBlur stdDeviation="1.58406"/>
<feComposite in2="hardAlpha" operator="out"/>
<feColorMatrix type="matrix" values="0 0 0 0 0 0 0 0 0 0 0 0 0 0 0 0 0 0 0.25 0"/>
<feBlend mode="normal" in2="BackgroundImageFix" result="effect1_dropShadow_288_1541"/>
<feBlend mode="normal" in="SourceGraphic" in2="effect1_dropShadow_288_1541" result="shape"/>
<feColorMatrix in="SourceAlpha" type="matrix" values="0 0 0 0 0 0 0 0 0 0 0 0 0 0 0 0 0 0 127 0" result="hardAlpha"/>
<feMorphology radius="0.792032" operator="erode" in="SourceAlpha" result="effect2_innerShadow_288_1541"/>
<feOffset/>
<feGaussianBlur stdDeviation="4.35618"/>
<feComposite in2="hardAlpha" operator="arithmetic" k2="-1" k3="1"/>
<feColorMatrix type="matrix" values="0 0 0 0 0.435294 0 0 0 0 0.564706 0 0 0 0 0.705882 0 0 0 0.64 0"/>
<feBlend mode="normal" in2="shape" result="effect2_innerShadow_288_1541"/>
</filter>
<filter id="filter8_di_288_1541" x="346.321" y="83" width="20.556" height="20.5562" filterUnits="userSpaceOnUse" color-interpolation-filters="sRGB">
<feFlood flood-opacity="0" result="BackgroundImageFix"/>
<feColorMatrix in="SourceAlpha" type="matrix" values="0 0 0 0 0 0 0 0 0 0 0 0 0 0 0 0 0 0 127 0" result="hardAlpha"/>
<feOffset dy="3.16813"/>
<feGaussianBlur stdDeviation="1.58406"/>
<feComposite in2="hardAlpha" operator="out"/>
<feColorMatrix type="matrix" values="0 0 0 0 0 0 0 0 0 0 0 0 0 0 0 0 0 0 0.25 0"/>
<feBlend mode="normal" in2="BackgroundImageFix" result="effect1_dropShadow_288_1541"/>
<feBlend mode="normal" in="SourceGraphic" in2="effect1_dropShadow_288_1541" result="shape"/>
<feColorMatrix in="SourceAlpha" type="matrix" values="0 0 0 0 0 0 0 0 0 0 0 0 0 0 0 0 0 0 127 0" result="hardAlpha"/>
<feMorphology radius="0.792032" operator="erode" in="SourceAlpha" result="effect2_innerShadow_288_1541"/>
<feOffset/>
<feGaussianBlur stdDeviation="4.35618"/>
<feComposite in2="hardAlpha" operator="arithmetic" k2="-1" k3="1"/>
<feColorMatrix type="matrix" values="0 0 0 0 0.435294 0 0 0 0 0.564706 0 0 0 0 0.705882 0 0 0 0.64 0"/>
<feBlend mode="normal" in2="shape" result="effect2_innerShadow_288_1541"/>
</filter>
<filter id="filter9_di_288_1541" x="65.3211" y="227" width="20.556" height="20.5562" filterUnits="userSpaceOnUse" color-interpolation-filters="sRGB">
<feFlood flood-opacity="0" result="BackgroundImageFix"/>
<feColorMatrix in="SourceAlpha" type="matrix" values="0 0 0 0 0 0 0 0 0 0 0 0 0 0 0 0 0 0 127 0" result="hardAlpha"/>
<feOffset dy="3.16813"/>
<feGaussianBlur stdDeviation="1.58406"/>
<feComposite in2="hardAlpha" operator="out"/>
<feColorMatrix type="matrix" values="0 0 0 0 0 0 0 0 0 0 0 0 0 0 0 0 0 0 0.25 0"/>
<feBlend mode="normal" in2="BackgroundImageFix" result="effect1_dropShadow_288_1541"/>
<feBlend mode="normal" in="SourceGraphic" in2="effect1_dropShadow_288_1541" result="shape"/>
<feColorMatrix in="SourceAlpha" type="matrix" values="0 0 0 0 0 0 0 0 0 0 0 0 0 0 0 0 0 0 127 0" result="hardAlpha"/>
<feMorphology radius="0.792032" operator="erode" in="SourceAlpha" result="effect2_innerShadow_288_1541"/>
<feOffset/>
<feGaussianBlur stdDeviation="4.35618"/>
<feComposite in2="hardAlpha" operator="arithmetic" k2="-1" k3="1"/>
<feColorMatrix type="matrix" values="0 0 0 0 0.435294 0 0 0 0 0.564706 0 0 0 0 0.705882 0 0 0 0.64 0"/>
<feBlend mode="normal" in2="shape" result="effect2_innerShadow_288_1541"/>
</filter>
<linearGradient id="paint0_linear_288_1541" x1="250.989" y1="7" x2="250.989" y2="451.982" gradientUnits="userSpaceOnUse">
<stop stop-color="#6F90B4" stop-opacity="0.46"/>
<stop offset="0.446886" stop-color="#6F90B4" stop-opacity="0.14"/>
<stop offset="1" stop-color="#6F90B4" stop-opacity="0"/>
</linearGradient>
<linearGradient id="paint1_linear_288_1541" x1="251.482" y1="55.2393" x2="251.482" y2="404.728" gradientUnits="userSpaceOnUse">
<stop stop-color="#6F90B4" stop-opacity="0.46"/>
<stop offset="0.446886" stop-color="#6F90B4" stop-opacity="0.14"/>
<stop offset="1" stop-color="#6F90B4" stop-opacity="0"/>
</linearGradient>
<linearGradient id="paint2_linear_288_1541" x1="251.482" y1="107.416" x2="251.482" y2="352.55" gradientUnits="userSpaceOnUse">
<stop stop-color="#6F90B4" stop-opacity="0.46"/>
<stop offset="0.446886" stop-color="#6F90B4" stop-opacity="0.14"/>
<stop offset="1" stop-color="#6F90B4" stop-opacity="0"/>
</linearGradient>
<linearGradient id="paint3_linear_288_1541" x1="210.39" y1="272.261" x2="325.763" y2="199.669" gradientUnits="userSpaceOnUse">
<stop stop-color="#6F90B4"/>
<stop offset="0.567308" stop-color="#2E5A88"/>
<stop offset="1" stop-color="#87BBF3"/>
</linearGradient>
<clipPath id="clip0_288_1541">
<rect width="25.0298" height="25.0298" fill="white" transform="translate(30.1807 156.108)"/>
</clipPath>
<clipPath id="clip1_288_1541">
<rect width="28.9176" height="28.9176" fill="white" transform="translate(136.236 76.1636)"/>
</clipPath>
<clipPath id="clip2_288_1541">
<rect width="30.1955" height="30.1955" fill="white" transform="translate(393.598 53.5247)"/>
</clipPath>
<clipPath id="clip3_288_1541">
<rect width="28.723" height="27.8254" fill="white" transform="translate(278.334 104.71)"/>
</clipPath>
<clipPath id="clip4_288_1541">
<rect width="23.1758" height="24.1028" fill="white" transform="translate(462.107 181.571)"/>
</clipPath>
</defs>
</svg>
