<svg width="45" height="45" viewBox="0 0 45 45" fill="none" xmlns="http://www.w3.org/2000/svg">
<rect width="45" height="45" rx="10.2987" fill="url(#paint0_linear_288_1150)"/>
<g clip-path="url(#clip0_288_1150)">
<path d="M31.1434 16.685L26.5207 16.0133L24.4533 11.8244C23.6548 10.2064 21.3459 10.2069 20.5477 11.8244L18.4803 16.0132L13.8576 16.685C12.0719 16.9444 11.3591 19.1404 12.6507 20.3995L15.9957 23.6601L15.2061 28.264C14.9011 30.0425 16.7692 31.399 18.3659 30.5598L22.5005 28.3859L26.6352 30.5598C28.2297 31.398 30.1 30.0422 29.795 28.264L29.0054 23.6601L32.3505 20.3995C33.6423 19.1399 32.9283 16.9444 31.1434 16.685ZM31.0473 19.0629L27.3509 22.6659C27.131 22.8803 27.0306 23.1893 27.0825 23.492L27.9551 28.5796C27.9989 28.8351 27.7331 29.0281 27.5037 28.9076L22.9348 26.5056C22.6629 26.3627 22.338 26.3627 22.0662 26.5056L17.4972 28.9076C17.2677 29.0282 17.002 28.8351 17.0458 28.5796L17.9184 23.492C17.9703 23.1893 17.8699 22.8803 17.65 22.6659L13.9536 19.0629C13.7679 18.8819 13.8695 18.5695 14.126 18.5322L19.2343 17.7899C19.5382 17.7457 19.8011 17.5549 19.937 17.2794L22.2215 12.6505C22.3362 12.4182 22.6647 12.418 22.7794 12.6505L25.064 17.2794C25.1999 17.5549 25.4627 17.7458 25.7667 17.7899L30.8749 18.5322C31.1314 18.5695 31.2329 18.882 31.0473 19.0629Z" fill="white"/>
<path d="M15.8681 11.0786L14.7519 9.54223C14.4488 9.12529 13.8652 9.03276 13.4483 9.33584C13.0313 9.63881 12.9388 10.2225 13.2418 10.6395L14.358 12.1758C14.6612 12.5929 15.2449 12.6851 15.6617 12.3821C16.0787 12.0792 16.1712 11.4956 15.8681 11.0786Z" fill="white"/>
<path d="M12.1639 24.8464C12.0047 24.3562 11.4782 24.0877 10.9879 24.2472L9.14513 24.8459C8.65491 25.0052 8.38667 25.5317 8.54592 26.022C8.70544 26.513 9.23285 26.7803 9.72197 26.6212L11.5647 26.0224C12.055 25.8631 12.3232 25.3366 12.1639 24.8464Z" fill="white"/>
<path d="M31.5523 9.33605C31.1354 9.03308 30.5517 9.12545 30.2487 9.54244L29.1324 11.0787C28.8294 11.4957 28.9219 12.0794 29.3389 12.3824C29.756 12.6854 30.3397 12.5928 30.6425 12.176L31.7588 10.6397C32.0617 10.2227 31.9693 9.63896 31.5523 9.33605Z" fill="white"/>
<path d="M35.8548 24.846L34.012 24.2472C33.5218 24.0876 32.9953 24.3562 32.836 24.8464C32.6767 25.3366 32.9449 25.8632 33.4352 26.0225L35.2779 26.6213C35.7671 26.7803 36.2945 26.513 36.454 26.022C36.6133 25.5318 36.345 25.0053 35.8548 24.846Z" fill="white"/>
<path d="M22.4997 32.0815C21.9843 32.0815 21.5664 32.4994 21.5664 33.0148V34.9091C21.5664 35.4245 21.9843 35.8424 22.4997 35.8424C23.0151 35.8424 23.433 35.4245 23.433 34.9091V33.0148C23.4331 32.4994 23.0152 32.0815 22.4997 32.0815Z" fill="white"/>
</g>
<defs>
<linearGradient id="paint0_linear_288_1150" x1="8.41304" y1="37.1875" x2="48.2333" y2="12.1328" gradientUnits="userSpaceOnUse">
<stop stop-color="#6F90B4"/>
<stop offset="0.567308" stop-color="#2E5A88"/>
<stop offset="1" stop-color="#87BBF3"/>
</linearGradient>
<clipPath id="clip0_288_1150">
<rect width="28" height="28" fill="white" transform="translate(8.5 8.5)"/>
</clipPath>
</defs>
</svg>
