<svg width="488" height="482" viewBox="0 0 488 482" fill="none" xmlns="http://www.w3.org/2000/svg">
<circle cx="239.873" cy="244.43" r="208.022" stroke="#6F90B4" stroke-opacity="0.23" stroke-width="0.922493"/>
<circle cx="240.334" cy="244.891" r="163.281" stroke="#6F90B4" stroke-opacity="0.23" stroke-width="0.922493"/>
<circle cx="240.335" cy="244.891" r="114.389" stroke="#6F90B4" stroke-opacity="0.23" stroke-width="0.922493"/>
<g filter="url(#filter0_d_423_3505)">
<rect x="75.4219" y="124.965" width="44.5261" height="44.0725" rx="10.0578" fill="white"/>
<path d="M94.6779 142.61H90.1099C89.8406 142.61 89.5824 142.503 89.3921 142.313C89.2017 142.123 89.0947 141.864 89.0947 141.595V137.027C89.0947 136.758 89.2017 136.5 89.3921 136.309C89.5824 136.119 89.8406 136.012 90.1099 136.012C90.3791 136.012 90.6373 136.119 90.8277 136.309C91.018 136.5 91.125 136.758 91.125 137.027V140.58H94.6779C94.9472 140.58 95.2054 140.687 95.3957 140.877C95.5861 141.068 95.6931 141.326 95.6931 141.595C95.6931 141.864 95.5861 142.123 95.3957 142.313C95.2054 142.503 94.9472 142.61 94.6779 142.61Z" fill="#2E5A88"/>
<path d="M107.24 147.178C106.971 147.178 106.713 147.071 106.522 146.881C106.332 146.691 106.225 146.433 106.225 146.163C106.226 144.376 105.637 142.639 104.549 141.221C103.462 139.803 101.936 138.783 100.21 138.321C98.4841 137.858 96.6534 137.978 95.0025 138.662C93.3515 139.346 91.9724 140.556 91.0793 142.104C90.9444 142.337 90.7225 142.507 90.4624 142.576C90.2022 142.646 89.9252 142.609 89.6921 142.474C89.4591 142.339 89.2892 142.117 89.2198 141.857C89.1505 141.597 89.1872 141.32 89.3221 141.087C90.439 139.152 92.1632 137.64 94.227 136.785C96.2909 135.931 98.5792 135.781 100.737 136.36C102.894 136.938 104.801 138.213 106.16 139.985C107.52 141.758 108.256 143.929 108.255 146.163C108.255 146.433 108.148 146.691 107.958 146.881C107.768 147.071 107.509 147.178 107.24 147.178ZM106.098 156.315C105.829 156.315 105.571 156.208 105.38 156.017C105.19 155.827 105.083 155.569 105.083 155.299V151.747H101.53C101.261 151.747 101.003 151.64 100.812 151.449C100.622 151.259 100.515 151.001 100.515 150.731C100.515 150.462 100.622 150.204 100.812 150.014C101.003 149.823 101.261 149.716 101.53 149.716H106.098C106.367 149.716 106.626 149.823 106.816 150.014C107.006 150.204 107.113 150.462 107.113 150.731V155.299C107.113 155.569 107.006 155.827 106.816 156.017C106.626 156.208 106.367 156.315 106.098 156.315Z" fill="#2E5A88"/>
<path d="M98.1044 156.315C95.4129 156.312 92.8325 155.242 90.9293 153.338C89.0262 151.435 87.9558 148.855 87.9531 146.163C87.9531 145.894 88.0601 145.636 88.2504 145.446C88.4408 145.255 88.699 145.148 88.9683 145.148C89.2375 145.148 89.4957 145.255 89.6861 145.446C89.8764 145.636 89.9834 145.894 89.9834 146.163C89.9826 147.95 90.5717 149.688 91.6593 151.106C92.7468 152.524 94.272 153.543 95.9982 154.006C97.7243 154.469 99.5549 154.349 101.206 153.665C102.857 152.981 104.236 151.771 105.129 150.223C105.196 150.107 105.285 150.006 105.391 149.925C105.496 149.844 105.617 149.785 105.746 149.751C105.875 149.716 106.009 149.708 106.141 149.725C106.273 149.743 106.401 149.786 106.516 149.853C106.632 149.92 106.733 150.008 106.814 150.114C106.895 150.22 106.954 150.341 106.989 150.47C107.023 150.599 107.032 150.733 107.014 150.865C106.996 150.997 106.953 151.125 106.886 151.24C105.994 152.78 104.713 154.058 103.172 154.949C101.631 155.839 99.884 156.31 98.1044 156.315Z" fill="#2E5A88"/>
</g>
<g filter="url(#filter1_d_423_3505)">
<rect x="123.211" y="360.162" width="44.5261" height="44.0725" rx="10.0578" fill="white"/>
<g clip-path="url(#clip0_423_3505)">
<path d="M156.05 373.19C155.914 371.43 154.439 370.04 152.645 370.04H136.66C134.776 370.04 133.243 371.573 133.243 373.457V389.264C133.243 391.148 134.776 392.681 136.66 392.681H155.127C157.011 392.681 158.543 391.148 158.543 389.264V376.479C158.543 374.915 157.487 373.594 156.05 373.19ZM136.66 371.636H152.645C153.514 371.636 154.242 372.248 154.422 373.063H136.66C135.991 373.063 135.367 373.257 134.839 373.59V373.457C134.839 372.453 135.656 371.636 136.66 371.636ZM155.127 391.085H136.66C135.656 391.085 134.839 390.268 134.839 389.264V376.479C134.839 375.475 135.656 374.659 136.66 374.659H155.127C156.131 374.659 156.947 375.475 156.947 376.479V379.264H151.858C149.842 379.264 148.201 380.905 148.201 382.921C148.201 384.938 149.842 386.579 151.858 386.579H156.947V389.264C156.947 390.268 156.13 391.085 155.127 391.085ZM156.947 384.982H151.858C150.722 384.982 149.797 384.058 149.797 382.921C149.797 381.785 150.722 380.86 151.858 380.86H156.947V384.982Z" fill="#2E5A88"/>
<path d="M152.155 383.813C152.614 383.813 152.986 383.441 152.986 382.982C152.986 382.523 152.614 382.151 152.155 382.151C151.696 382.151 151.324 382.523 151.324 382.982C151.324 383.441 151.696 383.813 152.155 383.813Z" fill="#2E5A88"/>
</g>
</g>
<g filter="url(#filter2_d_423_3505)">
<rect x="17.3252" y="257.088" width="44.5261" height="44.0725" rx="10.0578" fill="white"/>
<g clip-path="url(#clip1_423_3505)">
<path d="M44.6239 279.457C43.4526 281.869 40.9722 283.591 38.0784 283.591C34.1511 283.591 30.8439 280.353 30.8439 276.357C30.8439 272.43 34.0133 269.122 38.0784 269.122C40.0076 269.122 41.8679 269.88 43.2459 271.258C44.0727 272.085 44.6239 273.05 44.9684 274.083L46.5531 272.498C46.0708 271.465 45.4507 270.569 44.6239 269.742C42.8325 268.02 40.4899 266.986 38.0095 266.986C32.9109 267.055 28.708 271.258 28.708 276.357C28.708 281.524 32.9109 285.658 38.0095 285.658C42.8325 285.658 46.6909 282.007 47.2421 277.528C46.2086 278.493 45.7952 279.457 44.6239 279.457Z" fill="#2E5A88"/>
<path d="M50.4809 288.759C49.4474 289.792 47.7249 289.792 46.6225 288.759L43.4531 285.589C44.211 285.107 44.9689 284.556 45.589 283.936C46.278 283.247 46.8292 282.558 47.3115 281.731L50.4809 284.9C51.5144 285.934 51.5833 287.656 50.4809 288.759Z" fill="#2E5A88"/>
<path d="M49.8603 273.05L48.5512 274.359L44.9684 277.873C44.6928 278.148 44.2794 278.148 44.0038 277.873L41.7301 275.599L38.1473 279.182C37.8717 279.457 37.4583 279.457 37.1827 279.182L35.598 277.597L33.3243 279.871C33.0487 279.526 32.7731 279.044 32.5664 278.631L35.1157 276.219C35.3913 275.943 35.8047 275.943 36.0803 276.219L37.665 277.804L41.2478 274.221C41.5234 273.945 41.9368 273.945 42.2124 274.221L43.866 275.874L44.4861 276.495L48.1378 272.843L48.8957 272.085C49.1713 271.809 49.5847 271.809 49.8603 272.085C50.1359 272.361 50.1359 272.774 49.8603 273.05Z" fill="#2E5A88"/>
</g>
</g>
<g filter="url(#filter3_d_423_3505)">
<rect x="364.968" y="72.4908" width="44.5261" height="44.0725" rx="10.0578" fill="white"/>
<path d="M389.681 103.546C388.62 103.862 387.5 103.926 386.41 103.733C385.321 103.54 384.291 103.095 383.404 102.433C382.516 101.771 381.796 100.912 381.299 99.9222C380.803 98.9328 380.545 97.8412 380.545 96.7343V93.626C380.545 92.5659 380.967 91.5494 381.716 90.7999C382.466 90.0503 383.482 89.629 384.542 89.6284H390.759C391.819 89.629 392.836 90.0503 393.585 90.7999C394.335 91.5494 394.756 92.5659 394.757 93.626V96.7343C394.759 98.5942 394.03 100.38 392.726 101.707" stroke="#2E5A88" stroke-width="1.40556" stroke-linecap="round"/>
<path d="M383.844 89.1208C383.844 88.9189 383.764 88.7252 383.621 88.5824C383.478 88.4397 383.285 88.3595 383.083 88.3595C382.881 88.3595 382.687 88.4397 382.544 88.5824C382.402 88.7252 382.321 88.9189 382.321 89.1208H383.844ZM383.22 86.1597C383.161 86.2426 383.119 86.3366 383.097 86.436C383.074 86.5354 383.072 86.6383 383.091 86.7385C383.109 86.8387 383.147 86.9342 383.203 87.0193C383.259 87.1045 383.332 87.1775 383.416 87.2342C383.501 87.2909 383.596 87.33 383.696 87.3492C383.796 87.3684 383.899 87.3673 383.999 87.3461C384.098 87.3248 384.193 87.2838 384.276 87.2254C384.359 87.1671 384.43 87.0926 384.485 87.0063L383.22 86.1597ZM392.98 90.1359V89.1208H391.457V90.1359H392.98ZM382.321 89.1208V90.1359H383.844V89.1208H382.321ZM392.98 89.1208C392.98 86.1769 390.595 83.7914 387.651 83.7914V85.3141C388.66 85.3141 389.629 85.7151 390.342 86.429C391.056 87.1429 391.457 88.1112 391.457 89.1208H392.98ZM387.651 83.7914C386.774 83.7914 385.911 84.0075 385.139 84.4206C384.366 84.8337 383.707 85.431 383.22 86.1597L384.485 87.0063C384.832 86.4856 385.303 86.0587 385.856 85.7635C386.408 85.4683 387.024 85.314 387.651 85.3141V83.7914Z" fill="#2E5A88"/>
<path d="M394.757 95.7191H397.803M380.545 95.7191H377.5M390.189 85.0603L392.727 83.5376M385.113 85.0603L382.576 83.5376M396.28 101.81L394.25 100.998M396.28 89.6284L394.25 90.4405M379.023 101.81L381.053 100.998M379.023 89.6284L381.053 90.4405M387.651 103.333V96.7343" stroke="#2E5A88" stroke-width="1.40556" stroke-linecap="round"/>
</g>
<g filter="url(#filter4_d_423_3505)">
<rect x="364.968" y="301.129" width="44.5261" height="44.0725" rx="10.0578" fill="white"/>
<g clip-path="url(#clip2_423_3505)">
<path fill-rule="evenodd" clip-rule="evenodd" d="M393.955 334.86C394.212 335.016 394.529 335.016 394.785 334.86C394.785 334.86 396.288 333.936 397.667 333.087C399.304 332.079 400.3 330.295 400.3 328.373V321.536C400.3 321.13 399.992 320.79 399.589 320.75C397.695 320.561 396.039 320.158 394.825 319.308C394.552 319.117 394.189 319.117 393.916 319.308C392.702 320.158 391.046 320.561 389.152 320.75C388.749 320.79 388.441 321.13 388.441 321.536V328.373C388.441 330.295 389.437 332.079 391.073 333.087C392.453 333.936 393.955 334.86 393.955 334.86ZM386.859 333.396C387.346 333.396 387.824 333.366 388.294 333.31C388.725 333.257 389.038 332.863 388.982 332.43C388.962 332.243 388.876 332.079 388.749 331.957C388.737 331.927 388.721 331.897 388.706 331.868C388.484 331.492 387.998 331.367 387.622 331.588C387.377 331.732 387.124 331.814 386.859 331.814C386.045 331.814 385.353 331.116 384.741 330.069C384.163 329.082 383.697 327.783 383.377 326.28H386.859C387.294 326.28 387.65 325.926 387.65 325.489C387.65 325.053 387.294 324.699 386.859 324.699H383.108C382.977 323.7 382.906 322.637 382.906 321.536C382.906 320.435 382.977 319.373 383.108 318.374H390.611C390.631 318.521 390.647 318.67 390.662 318.82C390.714 319.254 391.105 319.566 391.536 319.518C391.971 319.469 392.283 319.078 392.236 318.644C392.224 318.554 392.216 318.463 392.204 318.374H396.639C396.711 318.584 396.77 318.797 396.825 319.013C396.932 319.436 397.363 319.693 397.786 319.585C398.209 319.479 398.466 319.048 398.359 318.625C397.059 313.485 392.402 309.677 386.859 309.677C380.313 309.677 375 314.991 375 321.536C375 328.082 380.313 333.396 386.859 333.396ZM394.37 333.258L391.904 331.74C390.734 331.02 390.022 329.746 390.022 328.373V322.24C391.698 322.016 393.184 321.596 394.37 320.894C395.56 321.596 397.043 322.016 398.719 322.24V328.373C398.719 329.746 398.007 331.02 396.837 331.74L394.37 333.258ZM381.768 326.28H377.74C378.973 328.638 381.088 330.46 383.649 331.302C383.555 331.164 383.464 331.019 383.377 330.867C382.689 329.691 382.128 328.112 381.768 326.28ZM391.441 327.63L393.022 329.211C393.331 329.52 393.829 329.52 394.137 329.211L397.3 326.048C397.608 325.74 397.608 325.239 397.3 324.93C396.991 324.622 396.493 324.622 396.185 324.93L393.58 327.534L392.556 326.512C392.248 326.203 391.749 326.203 391.441 326.512C391.133 326.82 391.133 327.321 391.441 327.63ZM381.519 318.374H377.079C376.755 319.37 376.581 320.433 376.581 321.536C376.581 322.64 376.755 323.703 377.079 324.699H381.519C381.392 323.694 381.325 322.633 381.325 321.536C381.325 320.439 381.392 319.379 381.519 318.374ZM383.649 311.77C381.088 312.613 378.969 314.435 377.74 316.793H381.768C382.128 314.961 382.689 313.382 383.377 312.205C383.464 312.054 383.555 311.909 383.649 311.77ZM390.338 316.793C389.959 314.995 389.37 313.491 388.634 312.471C388.101 311.737 387.52 311.258 386.859 311.258C386.045 311.258 385.353 311.957 384.741 313.003C384.163 313.99 383.697 315.289 383.377 316.793H390.338ZM390.069 311.771C390.884 312.987 391.544 314.729 391.951 316.793H395.979C394.75 314.435 392.631 312.613 390.069 311.771Z" fill="#2E5A88"/>
</g>
</g>
<g filter="url(#filter5_d_423_3505)">
<rect x="256.271" y="119.343" width="44.5261" height="44.0725" rx="10.0578" fill="white"/>
<g clip-path="url(#clip3_423_3505)">
<path d="M292.139 132.818L286.88 127.728C286.732 127.585 286.531 127.504 286.322 127.504H274.225C272.92 127.504 271.858 128.532 271.858 129.795V139.864C268.313 140.245 265.547 143.162 265.547 146.693C265.547 150.482 268.732 153.564 272.647 153.564H290.004C291.309 153.564 292.37 152.537 292.37 151.274V133.358C292.37 133.155 292.287 132.961 292.139 132.818ZM287.111 130.111L288.825 131.77L289.677 132.594H287.111V130.111ZM267.125 146.693C267.125 143.746 269.602 141.349 272.647 141.349C275.692 141.349 278.17 143.746 278.17 146.693C278.17 149.64 275.692 152.037 272.647 152.037C269.602 152.037 267.125 149.64 267.125 146.693ZM290.004 152.037H277.105C278.523 150.927 279.492 149.301 279.703 147.456H287.9C288.335 147.456 288.689 147.115 288.689 146.693C288.689 146.271 288.335 145.929 287.9 145.929H279.703C279.575 144.809 279.167 143.768 278.548 142.876H287.9C288.335 142.876 288.689 142.534 288.689 142.112C288.689 141.69 288.335 141.349 287.9 141.349H277.105C276.078 140.545 274.816 140.013 273.436 139.864V129.795C273.436 129.374 273.79 129.031 274.225 129.031H285.533V133.358C285.533 133.779 285.886 134.121 286.322 134.121H290.792V151.274C290.792 151.695 290.439 152.037 290.004 152.037Z" fill="#2E5A88"/>
<path d="M287.9 136.768H276.329C275.893 136.768 275.54 137.11 275.54 137.531C275.54 137.953 275.893 138.295 276.329 138.295H287.9C288.336 138.295 288.689 137.953 288.689 137.531C288.689 137.11 288.336 136.768 287.9 136.768Z" fill="#2E5A88"/>
<path d="M275.782 144.779C275.474 144.481 274.974 144.481 274.666 144.779L271.543 147.802L270.523 146.815C270.215 146.517 269.715 146.517 269.407 146.815C269.099 147.113 269.099 147.596 269.407 147.894L270.985 149.421C271.139 149.571 271.341 149.645 271.543 149.645C271.744 149.645 271.946 149.571 272.1 149.421L275.782 145.859C276.09 145.56 276.09 145.077 275.782 144.779Z" fill="#2E5A88"/>
</g>
</g>
<g filter="url(#filter6_d_423_3505)">
<rect x="256.271" y="418.259" width="44.5261" height="44.0725" rx="10.0578" fill="white"/>
<path d="M289.023 433.995C288.92 433.747 288.723 433.55 288.475 433.447C288.353 433.395 288.222 433.368 288.089 433.366H283.014C282.744 433.366 282.486 433.473 282.296 433.663C282.105 433.854 281.998 434.112 281.998 434.381C281.998 434.65 282.105 434.909 282.296 435.099C282.486 435.289 282.744 435.396 283.014 435.396H285.643L279.968 441.071L276.628 437.721C276.534 437.626 276.422 437.55 276.298 437.499C276.174 437.447 276.042 437.421 275.908 437.421C275.774 437.421 275.641 437.447 275.517 437.499C275.394 437.55 275.281 437.626 275.187 437.721L269.096 443.812C269.001 443.906 268.926 444.018 268.874 444.142C268.822 444.266 268.796 444.398 268.796 444.532C268.796 444.666 268.822 444.799 268.874 444.923C268.926 445.047 269.001 445.159 269.096 445.253C269.191 445.348 269.303 445.424 269.427 445.475C269.55 445.527 269.683 445.554 269.817 445.554C269.951 445.554 270.084 445.527 270.207 445.475C270.331 445.424 270.443 445.348 270.538 445.253L275.908 439.873L279.247 443.223C279.342 443.318 279.454 443.394 279.578 443.445C279.701 443.497 279.834 443.523 279.968 443.523C280.102 443.523 280.235 443.497 280.359 443.445C280.482 443.394 280.595 443.318 280.689 443.223L287.074 436.828V439.457C287.074 439.726 287.181 439.984 287.371 440.175C287.562 440.365 287.82 440.472 288.089 440.472C288.358 440.472 288.617 440.365 288.807 440.175C288.997 439.984 289.104 439.726 289.104 439.457V434.381C289.103 434.249 289.075 434.118 289.023 433.995Z" fill="#2E5A88"/>
</g>
<g filter="url(#filter7_d_423_3505)">
<rect x="181.308" y="15.3314" width="44.5261" height="44.0725" rx="10.0578" fill="white"/>
<path d="M193.126 36.9101C193.035 36.6646 193.035 36.3946 193.126 36.1492C194.013 33.9976 195.52 32.1579 197.454 30.8634C199.388 29.5689 201.663 28.8778 203.99 28.8778C206.318 28.8778 208.593 29.5689 210.527 30.8634C212.461 32.1579 213.967 33.9976 214.855 36.1492C214.946 36.3946 214.946 36.6646 214.855 36.9101C213.967 39.0617 212.461 40.9014 210.527 42.1959C208.593 43.4904 206.318 44.1815 203.99 44.1815C201.663 44.1815 199.388 43.4904 197.454 42.1959C195.52 40.9014 194.013 39.0617 193.126 36.9101Z" stroke="#2E5A88" stroke-width="1.87408" stroke-linecap="round" stroke-linejoin="round"/>
<path d="M203.99 39.8092C205.801 39.8092 207.269 38.3408 207.269 36.5295C207.269 34.7182 205.801 33.2499 203.99 33.2499C202.178 33.2499 200.71 34.7182 200.71 36.5295C200.71 38.3408 202.178 39.8092 203.99 39.8092Z" stroke="#2E5A88" stroke-width="1.87408" stroke-linecap="round" stroke-linejoin="round"/>
</g>
<g filter="url(#filter8_d_423_3505)">
<rect x="425.875" y="189.621" width="44.5261" height="44.0725" rx="10.0578" fill="white"/>
<path d="M455.629 201.853C453.635 200.861 451.192 200.277 448.557 200.277C445.921 200.277 443.48 200.861 441.484 201.853C440.506 202.34 440.017 202.584 439.544 203.349C439.07 204.115 439.069 204.856 439.069 206.337V210.016C439.069 216.007 443.857 219.338 446.631 220.764C447.405 221.162 447.79 221.361 448.557 221.361C449.323 221.361 449.709 221.162 450.483 220.764C453.255 219.337 458.044 216.006 458.044 210.015V206.337C458.044 204.856 458.044 204.115 457.57 203.349C457.096 202.584 456.608 202.34 455.629 201.853Z" stroke="#2E5A88" stroke-width="1.40556" stroke-linecap="round" stroke-linejoin="round"/>
<path d="M448.557 207.657V208.711M447.503 208.184C447.503 208.463 447.614 208.731 447.812 208.929C448.009 209.127 448.278 209.238 448.557 209.238C448.837 209.238 449.105 209.127 449.303 208.929C449.5 208.731 449.611 208.463 449.611 208.184C449.611 207.904 449.5 207.636 449.303 207.438C449.105 207.241 448.837 207.13 448.557 207.13C448.278 207.13 448.009 207.241 447.812 207.438C447.614 207.636 447.503 207.904 447.503 208.184Z" stroke="#2E5A88" stroke-width="1.40556" stroke-linecap="round" stroke-linejoin="round"/>
<path d="M449.348 212.928H447.767L448.557 209.238L449.348 212.928Z" stroke="#2E5A88" stroke-width="1.40556" stroke-linecap="round" stroke-linejoin="round"/>
</g>
<g filter="url(#filter9_di_423_3505)">
<circle cx="150.489" cy="106.327" r="6.66236" fill="white"/>
</g>
<g filter="url(#filter10_di_423_3505)">
<circle cx="276.989" cy="351.832" r="6.66236" fill="white"/>
</g>
<g filter="url(#filter11_di_423_3505)">
<circle cx="69.9026" cy="365.888" r="6.66236" fill="white"/>
</g>
<g filter="url(#filter12_di_423_3505)">
<circle cx="354.763" cy="250.632" r="6.66236" fill="white"/>
</g>
<g filter="url(#filter13_di_423_3505)">
<circle cx="338.833" cy="113.824" r="6.66236" fill="white"/>
</g>
<g filter="url(#filter14_di_423_3505)">
<circle cx="127.999" cy="248.758" r="6.66236" fill="white"/>
</g>
<g filter="url(#filter15_d_423_3505)">
<mask id="path-40-inside-1_423_3505" fill="white">
<path fill-rule="evenodd" clip-rule="evenodd" d="M233.244 190.89C237.8 189.052 242.874 188.963 247.493 190.637L283.611 203.734C288.845 205.632 292.352 210.579 292.41 216.146L292.762 249.765L292.765 250.819C292.737 256.09 292.061 261.373 289.923 266.187L289.442 267.245C279.165 289.377 257.34 306.056 244.542 313.396L244.199 313.578C242.578 314.374 240.69 314.402 239.033 313.678L238.681 313.513C210.895 299.265 197.725 278.053 193.114 265.117L192.901 264.508C191.735 261.104 191.454 257.488 191.416 253.89L191.032 217.206C190.974 211.623 194.343 206.575 199.521 204.487L233.244 190.89Z"/>
</mask>
<path fill-rule="evenodd" clip-rule="evenodd" d="M233.244 190.89C237.8 189.052 242.874 188.963 247.493 190.637L283.611 203.734C288.845 205.632 292.352 210.579 292.41 216.146L292.762 249.765L292.765 250.819C292.737 256.09 292.061 261.373 289.923 266.187L289.442 267.245C279.165 289.377 257.34 306.056 244.542 313.396L244.199 313.578C242.578 314.374 240.69 314.402 239.033 313.678L238.681 313.513C210.895 299.265 197.725 278.053 193.114 265.117L192.901 264.508C191.735 261.104 191.454 257.488 191.416 253.89L191.032 217.206C190.974 211.623 194.343 206.575 199.521 204.487L233.244 190.89Z" fill="#F5F9FC"/>
<path d="M233.244 190.89L232.727 189.609L232.727 189.609L233.244 190.89ZM247.493 190.637L247.964 189.34L247.964 189.34L247.493 190.637ZM283.611 203.734L284.082 202.436L284.082 202.436L283.611 203.734ZM292.41 216.146L291.03 216.16L291.03 216.16L292.41 216.146ZM292.762 249.765L294.142 249.761L294.142 249.75L292.762 249.765ZM292.765 250.819L294.146 250.826L294.146 250.815L292.765 250.819ZM289.923 266.187L291.18 266.758L291.185 266.747L289.923 266.187ZM289.442 267.245L290.694 267.826L290.699 267.816L289.442 267.245ZM244.542 313.396L245.188 314.616L245.209 314.605L245.229 314.593L244.542 313.396ZM244.199 313.578L244.807 314.817L244.826 314.807L244.844 314.798L244.199 313.578ZM239.033 313.678L238.446 314.927L238.463 314.935L238.481 314.943L239.033 313.678ZM238.681 313.513L238.051 314.741L238.072 314.752L238.094 314.762L238.681 313.513ZM193.114 265.117L191.811 265.572L191.814 265.58L193.114 265.117ZM192.901 264.508L191.595 264.956L191.598 264.964L192.901 264.508ZM191.416 253.89L192.796 253.875L192.796 253.875L191.416 253.89ZM191.032 217.206L189.652 217.22L189.652 217.22L191.032 217.206ZM199.521 204.487L199.004 203.207L199.004 203.207L199.521 204.487ZM233.244 190.89L233.76 192.17C238.001 190.46 242.724 190.376 247.023 191.935L247.493 190.637L247.964 189.34C243.025 187.549 237.599 187.645 232.727 189.609L233.244 190.89ZM247.493 190.637L247.022 191.935L283.141 205.031L283.611 203.734L284.082 202.436L247.964 189.34L247.493 190.637ZM283.611 203.734L283.141 205.031C287.834 206.733 290.978 211.169 291.03 216.16L292.41 216.146L293.79 216.131C293.726 209.989 289.857 204.53 284.082 202.436L283.611 203.734ZM292.41 216.146L291.03 216.16L291.382 249.779L292.762 249.765L294.142 249.75L293.79 216.131L292.41 216.146ZM292.762 249.765L291.382 249.769L291.385 250.823L292.765 250.819L294.146 250.815L294.142 249.761L292.762 249.765ZM292.765 250.819L291.385 250.811C291.358 255.981 290.693 261.053 288.662 265.627L289.923 266.187L291.185 266.747C293.429 261.693 294.117 256.199 294.146 250.826L292.765 250.819ZM289.923 266.187L288.667 265.616L288.186 266.673L289.442 267.245L290.699 267.816L291.18 266.758L289.923 266.187ZM289.442 267.245L288.19 266.663C278.085 288.424 256.542 304.922 243.856 312.199L244.542 313.396L245.229 314.593C258.138 307.189 280.244 290.331 290.694 267.826L289.442 267.245ZM244.542 313.396L243.897 312.176L243.553 312.358L244.199 313.578L244.844 314.798L245.188 314.616L244.542 313.396ZM244.199 313.578L243.59 312.339C242.341 312.953 240.878 312.978 239.586 312.413L239.033 313.678L238.481 314.943C240.501 315.826 242.814 315.796 244.807 314.817L244.199 313.578ZM239.033 313.678L239.621 312.429L239.269 312.264L238.681 313.513L238.094 314.762L238.446 314.927L239.033 313.678ZM238.681 313.513L239.311 312.285C211.869 298.214 198.92 277.294 194.414 264.653L193.114 265.117L191.814 265.58C196.53 278.811 209.92 300.317 238.051 314.741L238.681 313.513ZM193.114 265.117L194.417 264.661L194.204 264.053L192.901 264.508L191.598 264.964L191.811 265.572L193.114 265.117ZM192.901 264.508L194.207 264.061C193.113 260.866 192.834 257.426 192.796 253.875L191.416 253.89L190.036 253.904C190.074 257.55 190.357 261.341 191.595 264.956L192.901 264.508ZM191.416 253.89L192.796 253.875L192.412 217.191L191.032 217.206L189.652 217.22L190.036 253.904L191.416 253.89ZM191.032 217.206L192.412 217.191C192.36 212.177 195.386 207.642 200.037 205.767L199.521 204.487L199.004 203.207C193.3 205.507 189.587 211.07 189.652 217.22L191.032 217.206ZM199.521 204.487L200.037 205.767L233.76 192.17L233.244 190.89L232.727 189.609L199.004 203.207L199.521 204.487Z" fill="#2E5A88" fill-opacity="0.13" mask="url(#path-40-inside-1_423_3505)"/>
<mask id="path-42-inside-2_423_3505" fill="white">
<path fill-rule="evenodd" clip-rule="evenodd" d="M233.323 199.142C237.88 197.304 242.955 197.215 247.574 198.889L277.701 209.813C282.211 211.448 285.233 215.711 285.284 220.508L285.574 248.302L285.577 249.357C285.551 254.63 284.885 259.921 282.653 264.692L282.235 265.568C273.299 283.904 255.301 297.757 244.429 304.075C242.628 305.121 240.429 305.151 238.581 304.192C215.778 292.365 204.511 275.098 200.186 263.94L199.789 262.879C198.72 259.918 198.376 256.78 198.282 253.631L198.255 252.282L197.932 221.422C197.882 216.612 200.785 212.262 205.246 210.463L233.323 199.142Z"/>
</mask>
<path d="M233.323 199.142L232.807 197.861L232.807 197.861L233.323 199.142ZM247.574 198.889L247.103 200.187L247.103 200.187L247.574 198.889ZM277.701 209.813L278.172 208.516L278.172 208.516L277.701 209.813ZM285.284 220.508L286.664 220.494L286.664 220.494L285.284 220.508ZM285.574 248.302L286.954 248.298L286.954 248.288L285.574 248.302ZM285.577 249.357L286.957 249.364L286.957 249.353L285.577 249.357ZM282.653 264.692L283.899 265.287L283.903 265.277L282.653 264.692ZM282.235 265.568L283.475 266.173L283.48 266.163L282.235 265.568ZM244.429 304.075L245.122 305.269L245.122 305.269L244.429 304.075ZM238.581 304.192L237.946 305.418L237.946 305.418L238.581 304.192ZM200.186 263.94L198.894 264.424L198.897 264.432L198.899 264.439L200.186 263.94ZM199.789 262.879L198.491 263.348L198.494 263.356L198.497 263.363L199.789 262.879ZM198.282 253.631L196.902 253.659L196.902 253.672L198.282 253.631ZM198.255 252.282L196.875 252.296L196.875 252.309L198.255 252.282ZM197.932 221.422L199.313 221.407L199.313 221.407L197.932 221.422ZM205.246 210.463L204.73 209.183L204.73 209.183L205.246 210.463ZM233.323 199.142L233.84 200.422C238.081 198.712 242.804 198.628 247.103 200.187L247.574 198.889L248.044 197.592C243.106 195.801 237.679 195.897 232.807 197.861L233.323 199.142ZM247.574 198.889L247.103 200.187L277.231 211.111L277.701 209.813L278.172 208.516L248.044 197.592L247.574 198.889ZM277.701 209.813L277.231 211.111C281.199 212.55 283.859 216.301 283.903 220.523L285.284 220.508L286.664 220.494C286.608 215.121 283.223 210.347 278.172 208.516L277.701 209.813ZM285.284 220.508L283.903 220.523L284.194 248.317L285.574 248.302L286.954 248.288L286.664 220.494L285.284 220.508ZM285.574 248.302L284.194 248.306L284.197 249.361L285.577 249.357L286.957 249.353L286.954 248.298L285.574 248.302ZM285.577 249.357L284.197 249.35C284.171 254.525 283.515 259.591 281.403 264.107L282.653 264.692L283.903 265.277C286.255 260.25 286.93 254.734 286.957 249.364L285.577 249.357ZM282.653 264.692L281.407 264.097L280.989 264.974L282.235 265.568L283.48 266.163L283.899 265.287L282.653 264.692ZM282.235 265.568L280.994 264.964C272.23 282.948 254.497 296.628 243.735 302.882L244.429 304.075L245.122 305.269C256.105 298.886 274.369 284.859 283.475 266.173L282.235 265.568ZM244.429 304.075L243.735 302.882C242.353 303.685 240.657 303.714 239.217 302.967L238.581 304.192L237.946 305.418C240.202 306.588 242.903 306.558 245.122 305.269L244.429 304.075ZM238.581 304.192L239.217 302.967C216.744 291.311 205.69 274.321 201.473 263.442L200.186 263.94L198.899 264.439C203.331 275.875 214.813 293.419 237.946 305.418L238.581 304.192ZM200.186 263.94L201.479 263.457L201.082 262.395L199.789 262.879L198.497 263.363L198.894 264.424L200.186 263.94ZM199.789 262.879L201.088 262.411C200.09 259.647 199.754 256.676 199.661 253.59L198.282 253.631L196.902 253.672C196.998 256.884 197.35 260.188 198.491 263.348L199.789 262.879ZM198.282 253.631L199.662 253.604L199.635 252.254L198.255 252.282L196.875 252.309L196.902 253.659L198.282 253.631ZM198.255 252.282L199.635 252.267L199.313 221.407L197.932 221.422L196.552 221.436L196.875 252.296L198.255 252.282ZM197.932 221.422L199.313 221.407C199.268 217.166 201.828 213.33 205.762 211.743L205.246 210.463L204.73 209.183C199.742 211.195 196.496 216.058 196.552 221.436L197.932 221.422ZM205.246 210.463L205.762 211.743L233.84 200.422L233.323 199.142L232.807 197.861L204.73 209.183L205.246 210.463Z" fill="#2E5A88" mask="url(#path-42-inside-2_423_3505)"/>
<g filter="url(#filter16_d_423_3505)">
<path fill-rule="evenodd" clip-rule="evenodd" d="M234.403 207.34C238.268 205.781 242.573 205.704 246.491 207.125L272.047 216.392C275.872 217.779 278.435 221.395 278.478 225.464L278.725 249.041C278.774 253.807 278.267 258.626 276.247 262.943L275.892 263.687C268.312 279.24 253.046 290.992 243.824 296.352L243.533 296.508C242.162 297.19 240.563 297.212 239.161 296.593L238.864 296.45C218.897 286.094 209.355 270.819 205.957 261.405C205.05 258.893 204.759 256.232 204.679 253.561L204.656 252.416L204.382 226.238C204.34 222.158 206.802 218.468 210.587 216.943L234.403 207.34Z" fill="url(#paint0_linear_423_3505)"/>
</g>
<path d="M257.469 251.678L255.01 249.576C255.127 248.862 255.187 248.134 255.187 247.406C255.187 246.678 255.127 245.949 255.01 245.236L257.469 243.134C257.655 242.975 257.788 242.764 257.85 242.528C257.912 242.292 257.901 242.042 257.818 241.813L257.785 241.715C257.108 239.823 256.094 238.069 254.793 236.538L254.725 236.459C254.567 236.274 254.357 236.14 254.122 236.077C253.886 236.013 253.638 236.022 253.408 236.103L250.356 237.188C249.229 236.264 247.972 235.536 246.613 235.025L246.024 231.835C245.979 231.595 245.863 231.374 245.69 231.201C245.517 231.029 245.295 230.913 245.055 230.87L244.954 230.851C242.998 230.498 240.941 230.498 238.985 230.851L238.884 230.87C238.643 230.913 238.422 231.029 238.249 231.201C238.076 231.374 237.96 231.595 237.915 231.835L237.322 235.04C235.974 235.551 234.718 236.279 233.606 237.195L230.531 236.103C230.301 236.022 230.052 236.012 229.817 236.076C229.581 236.14 229.371 236.273 229.213 236.459L229.146 236.538C227.846 238.07 226.833 239.824 226.154 241.715L226.12 241.813C225.951 242.282 226.09 242.807 226.469 243.134L228.958 245.259C228.842 245.964 228.785 246.685 228.785 247.402C228.785 248.123 228.842 248.844 228.958 249.546L226.469 251.67C226.284 251.829 226.151 252.041 226.089 252.277C226.026 252.513 226.037 252.762 226.12 252.992L226.154 253.089C226.833 254.981 227.839 256.727 229.146 258.266L229.213 258.345C229.371 258.531 229.582 258.664 229.817 258.728C230.052 258.791 230.301 258.782 230.531 258.702L233.606 257.609C234.724 258.529 235.974 259.257 237.322 259.764L237.915 262.97C237.96 263.21 238.076 263.431 238.249 263.603C238.422 263.775 238.643 263.891 238.884 263.935L238.985 263.953C240.959 264.308 242.98 264.308 244.954 263.953L245.055 263.935C245.295 263.891 245.517 263.775 245.69 263.603C245.863 263.431 245.979 263.21 246.024 262.97L246.613 259.779C247.971 259.27 249.236 258.539 250.356 257.617L253.408 258.702C253.637 258.783 253.887 258.792 254.122 258.729C254.357 258.665 254.568 258.531 254.725 258.345L254.793 258.266C256.099 256.723 257.105 254.981 257.785 253.089L257.818 252.992C257.987 252.53 257.848 252.005 257.469 251.678ZM252.345 245.679C252.439 246.246 252.488 246.828 252.488 247.41C252.488 247.992 252.439 248.573 252.345 249.14L252.097 250.646L254.902 253.044C254.477 254.024 253.94 254.951 253.302 255.807L249.819 254.572L248.64 255.541C247.743 256.277 246.744 256.855 245.663 257.26L244.233 257.797L243.561 261.438C242.501 261.558 241.43 261.558 240.37 261.438L239.698 257.789L238.279 257.245C237.209 256.84 236.215 256.262 235.325 255.529L234.146 254.557L230.64 255.804C230.002 254.944 229.469 254.017 229.041 253.041L231.875 250.619L231.631 249.118C231.541 248.558 231.492 247.98 231.492 247.41C231.492 246.835 231.537 246.261 231.631 245.702L231.875 244.2L229.041 241.779C229.465 240.799 230.002 239.876 230.64 239.016L234.146 240.262L235.325 239.29C236.215 238.558 237.209 237.98 238.279 237.574L239.702 237.038L240.374 233.389C241.429 233.269 242.506 233.269 243.565 233.389L244.237 237.03L245.667 237.567C246.744 237.972 247.747 238.55 248.644 239.286L249.823 240.255L253.306 239.02C253.944 239.879 254.477 240.807 254.905 241.783L252.101 244.181L252.345 245.679ZM241.973 240.427C238.324 240.427 235.366 243.385 235.366 247.034C235.366 250.683 238.324 253.641 241.973 253.641C245.622 253.641 248.58 250.683 248.58 247.034C248.58 243.385 245.622 240.427 241.973 240.427ZM244.946 250.007C244.556 250.399 244.093 250.709 243.583 250.92C243.072 251.131 242.525 251.24 241.973 251.239C240.851 251.239 239.796 250.8 239 250.007C238.609 249.617 238.299 249.154 238.087 248.644C237.876 248.134 237.768 247.587 237.769 247.034C237.769 245.912 238.208 244.857 239 244.061C239.796 243.265 240.851 242.83 241.973 242.83C243.095 242.83 244.15 243.265 244.946 244.061C245.337 244.451 245.647 244.915 245.859 245.425C246.07 245.935 246.178 246.482 246.177 247.034C246.177 248.157 245.738 249.212 244.946 250.007Z" fill="white"/>
</g>
<defs>
<filter id="filter0_d_423_3505" x="58.0969" y="109.634" width="79.1763" height="78.7224" filterUnits="userSpaceOnUse" color-interpolation-filters="sRGB">
<feFlood flood-opacity="0" result="BackgroundImageFix"/>
<feColorMatrix in="SourceAlpha" type="matrix" values="0 0 0 0 0 0 0 0 0 0 0 0 0 0 0 0 0 0 127 0" result="hardAlpha"/>
<feOffset dy="1.99358"/>
<feGaussianBlur stdDeviation="8.66247"/>
<feColorMatrix type="matrix" values="0 0 0 0 0.392157 0 0 0 0 0.392157 0 0 0 0 0.435294 0 0 0 0.1 0"/>
<feBlend mode="normal" in2="BackgroundImageFix" result="effect1_dropShadow_423_3505"/>
<feBlend mode="normal" in="SourceGraphic" in2="effect1_dropShadow_423_3505" result="shape"/>
</filter>
<filter id="filter1_d_423_3505" x="105.886" y="344.831" width="79.1763" height="78.7224" filterUnits="userSpaceOnUse" color-interpolation-filters="sRGB">
<feFlood flood-opacity="0" result="BackgroundImageFix"/>
<feColorMatrix in="SourceAlpha" type="matrix" values="0 0 0 0 0 0 0 0 0 0 0 0 0 0 0 0 0 0 127 0" result="hardAlpha"/>
<feOffset dy="1.99358"/>
<feGaussianBlur stdDeviation="8.66247"/>
<feColorMatrix type="matrix" values="0 0 0 0 0.392157 0 0 0 0 0.392157 0 0 0 0 0.435294 0 0 0 0.1 0"/>
<feBlend mode="normal" in2="BackgroundImageFix" result="effect1_dropShadow_423_3505"/>
<feBlend mode="normal" in="SourceGraphic" in2="effect1_dropShadow_423_3505" result="shape"/>
</filter>
<filter id="filter2_d_423_3505" x="0.000249863" y="241.757" width="79.1763" height="78.7224" filterUnits="userSpaceOnUse" color-interpolation-filters="sRGB">
<feFlood flood-opacity="0" result="BackgroundImageFix"/>
<feColorMatrix in="SourceAlpha" type="matrix" values="0 0 0 0 0 0 0 0 0 0 0 0 0 0 0 0 0 0 127 0" result="hardAlpha"/>
<feOffset dy="1.99358"/>
<feGaussianBlur stdDeviation="8.66247"/>
<feColorMatrix type="matrix" values="0 0 0 0 0.392157 0 0 0 0 0.392157 0 0 0 0 0.435294 0 0 0 0.1 0"/>
<feBlend mode="normal" in2="BackgroundImageFix" result="effect1_dropShadow_423_3505"/>
<feBlend mode="normal" in="SourceGraphic" in2="effect1_dropShadow_423_3505" result="shape"/>
</filter>
<filter id="filter3_d_423_3505" x="347.643" y="57.1595" width="79.1763" height="78.7224" filterUnits="userSpaceOnUse" color-interpolation-filters="sRGB">
<feFlood flood-opacity="0" result="BackgroundImageFix"/>
<feColorMatrix in="SourceAlpha" type="matrix" values="0 0 0 0 0 0 0 0 0 0 0 0 0 0 0 0 0 0 127 0" result="hardAlpha"/>
<feOffset dy="1.99358"/>
<feGaussianBlur stdDeviation="8.66247"/>
<feColorMatrix type="matrix" values="0 0 0 0 0.392157 0 0 0 0 0.392157 0 0 0 0 0.435294 0 0 0 0.1 0"/>
<feBlend mode="normal" in2="BackgroundImageFix" result="effect1_dropShadow_423_3505"/>
<feBlend mode="normal" in="SourceGraphic" in2="effect1_dropShadow_423_3505" result="shape"/>
</filter>
<filter id="filter4_d_423_3505" x="347.643" y="285.797" width="79.1763" height="78.7224" filterUnits="userSpaceOnUse" color-interpolation-filters="sRGB">
<feFlood flood-opacity="0" result="BackgroundImageFix"/>
<feColorMatrix in="SourceAlpha" type="matrix" values="0 0 0 0 0 0 0 0 0 0 0 0 0 0 0 0 0 0 127 0" result="hardAlpha"/>
<feOffset dy="1.99358"/>
<feGaussianBlur stdDeviation="8.66247"/>
<feColorMatrix type="matrix" values="0 0 0 0 0.392157 0 0 0 0 0.392157 0 0 0 0 0.435294 0 0 0 0.1 0"/>
<feBlend mode="normal" in2="BackgroundImageFix" result="effect1_dropShadow_423_3505"/>
<feBlend mode="normal" in="SourceGraphic" in2="effect1_dropShadow_423_3505" result="shape"/>
</filter>
<filter id="filter5_d_423_3505" x="238.946" y="104.012" width="79.1763" height="78.7224" filterUnits="userSpaceOnUse" color-interpolation-filters="sRGB">
<feFlood flood-opacity="0" result="BackgroundImageFix"/>
<feColorMatrix in="SourceAlpha" type="matrix" values="0 0 0 0 0 0 0 0 0 0 0 0 0 0 0 0 0 0 127 0" result="hardAlpha"/>
<feOffset dy="1.99358"/>
<feGaussianBlur stdDeviation="8.66247"/>
<feColorMatrix type="matrix" values="0 0 0 0 0.392157 0 0 0 0 0.392157 0 0 0 0 0.435294 0 0 0 0.1 0"/>
<feBlend mode="normal" in2="BackgroundImageFix" result="effect1_dropShadow_423_3505"/>
<feBlend mode="normal" in="SourceGraphic" in2="effect1_dropShadow_423_3505" result="shape"/>
</filter>
<filter id="filter6_d_423_3505" x="238.946" y="402.928" width="79.1763" height="78.7224" filterUnits="userSpaceOnUse" color-interpolation-filters="sRGB">
<feFlood flood-opacity="0" result="BackgroundImageFix"/>
<feColorMatrix in="SourceAlpha" type="matrix" values="0 0 0 0 0 0 0 0 0 0 0 0 0 0 0 0 0 0 127 0" result="hardAlpha"/>
<feOffset dy="1.99358"/>
<feGaussianBlur stdDeviation="8.66247"/>
<feColorMatrix type="matrix" values="0 0 0 0 0.392157 0 0 0 0 0.392157 0 0 0 0 0.435294 0 0 0 0.1 0"/>
<feBlend mode="normal" in2="BackgroundImageFix" result="effect1_dropShadow_423_3505"/>
<feBlend mode="normal" in="SourceGraphic" in2="effect1_dropShadow_423_3505" result="shape"/>
</filter>
<filter id="filter7_d_423_3505" x="163.983" y="5.38826e-05" width="79.1763" height="78.7224" filterUnits="userSpaceOnUse" color-interpolation-filters="sRGB">
<feFlood flood-opacity="0" result="BackgroundImageFix"/>
<feColorMatrix in="SourceAlpha" type="matrix" values="0 0 0 0 0 0 0 0 0 0 0 0 0 0 0 0 0 0 127 0" result="hardAlpha"/>
<feOffset dy="1.99358"/>
<feGaussianBlur stdDeviation="8.66247"/>
<feColorMatrix type="matrix" values="0 0 0 0 0.392157 0 0 0 0 0.392157 0 0 0 0 0.435294 0 0 0 0.1 0"/>
<feBlend mode="normal" in2="BackgroundImageFix" result="effect1_dropShadow_423_3505"/>
<feBlend mode="normal" in="SourceGraphic" in2="effect1_dropShadow_423_3505" result="shape"/>
</filter>
<filter id="filter8_d_423_3505" x="408.55" y="174.29" width="79.1763" height="78.7224" filterUnits="userSpaceOnUse" color-interpolation-filters="sRGB">
<feFlood flood-opacity="0" result="BackgroundImageFix"/>
<feColorMatrix in="SourceAlpha" type="matrix" values="0 0 0 0 0 0 0 0 0 0 0 0 0 0 0 0 0 0 127 0" result="hardAlpha"/>
<feOffset dy="1.99358"/>
<feGaussianBlur stdDeviation="8.66247"/>
<feColorMatrix type="matrix" values="0 0 0 0 0.392157 0 0 0 0 0.392157 0 0 0 0 0.435294 0 0 0 0.1 0"/>
<feBlend mode="normal" in2="BackgroundImageFix" result="effect1_dropShadow_423_3505"/>
<feBlend mode="normal" in="SourceGraphic" in2="effect1_dropShadow_423_3505" result="shape"/>
</filter>
<filter id="filter9_di_423_3505" x="140.858" y="99.665" width="19.2625" height="19.262" filterUnits="userSpaceOnUse" color-interpolation-filters="sRGB">
<feFlood flood-opacity="0" result="BackgroundImageFix"/>
<feColorMatrix in="SourceAlpha" type="matrix" values="0 0 0 0 0 0 0 0 0 0 0 0 0 0 0 0 0 0 127 0" result="hardAlpha"/>
<feOffset dy="2.96867"/>
<feGaussianBlur stdDeviation="1.48433"/>
<feComposite in2="hardAlpha" operator="out"/>
<feColorMatrix type="matrix" values="0 0 0 0 0 0 0 0 0 0 0 0 0 0 0 0 0 0 0.25 0"/>
<feBlend mode="normal" in2="BackgroundImageFix" result="effect1_dropShadow_423_3505"/>
<feBlend mode="normal" in="SourceGraphic" in2="effect1_dropShadow_423_3505" result="shape"/>
<feColorMatrix in="SourceAlpha" type="matrix" values="0 0 0 0 0 0 0 0 0 0 0 0 0 0 0 0 0 0 127 0" result="hardAlpha"/>
<feMorphology radius="0.742166" operator="erode" in="SourceAlpha" result="effect2_innerShadow_423_3505"/>
<feOffset/>
<feGaussianBlur stdDeviation="4.08191"/>
<feComposite in2="hardAlpha" operator="arithmetic" k2="-1" k3="1"/>
<feColorMatrix type="matrix" values="0 0 0 0 0.435294 0 0 0 0 0.564706 0 0 0 0 0.705882 0 0 0 0.64 0"/>
<feBlend mode="normal" in2="shape" result="effect2_innerShadow_423_3505"/>
</filter>
<filter id="filter10_di_423_3505" x="267.358" y="345.17" width="19.2625" height="19.262" filterUnits="userSpaceOnUse" color-interpolation-filters="sRGB">
<feFlood flood-opacity="0" result="BackgroundImageFix"/>
<feColorMatrix in="SourceAlpha" type="matrix" values="0 0 0 0 0 0 0 0 0 0 0 0 0 0 0 0 0 0 127 0" result="hardAlpha"/>
<feOffset dy="2.96867"/>
<feGaussianBlur stdDeviation="1.48433"/>
<feComposite in2="hardAlpha" operator="out"/>
<feColorMatrix type="matrix" values="0 0 0 0 0 0 0 0 0 0 0 0 0 0 0 0 0 0 0.25 0"/>
<feBlend mode="normal" in2="BackgroundImageFix" result="effect1_dropShadow_423_3505"/>
<feBlend mode="normal" in="SourceGraphic" in2="effect1_dropShadow_423_3505" result="shape"/>
<feColorMatrix in="SourceAlpha" type="matrix" values="0 0 0 0 0 0 0 0 0 0 0 0 0 0 0 0 0 0 127 0" result="hardAlpha"/>
<feMorphology radius="0.742166" operator="erode" in="SourceAlpha" result="effect2_innerShadow_423_3505"/>
<feOffset/>
<feGaussianBlur stdDeviation="4.08191"/>
<feComposite in2="hardAlpha" operator="arithmetic" k2="-1" k3="1"/>
<feColorMatrix type="matrix" values="0 0 0 0 0.435294 0 0 0 0 0.564706 0 0 0 0 0.705882 0 0 0 0.64 0"/>
<feBlend mode="normal" in2="shape" result="effect2_innerShadow_423_3505"/>
</filter>
<filter id="filter11_di_423_3505" x="60.2716" y="359.225" width="19.2625" height="19.262" filterUnits="userSpaceOnUse" color-interpolation-filters="sRGB">
<feFlood flood-opacity="0" result="BackgroundImageFix"/>
<feColorMatrix in="SourceAlpha" type="matrix" values="0 0 0 0 0 0 0 0 0 0 0 0 0 0 0 0 0 0 127 0" result="hardAlpha"/>
<feOffset dy="2.96867"/>
<feGaussianBlur stdDeviation="1.48433"/>
<feComposite in2="hardAlpha" operator="out"/>
<feColorMatrix type="matrix" values="0 0 0 0 0 0 0 0 0 0 0 0 0 0 0 0 0 0 0.25 0"/>
<feBlend mode="normal" in2="BackgroundImageFix" result="effect1_dropShadow_423_3505"/>
<feBlend mode="normal" in="SourceGraphic" in2="effect1_dropShadow_423_3505" result="shape"/>
<feColorMatrix in="SourceAlpha" type="matrix" values="0 0 0 0 0 0 0 0 0 0 0 0 0 0 0 0 0 0 127 0" result="hardAlpha"/>
<feMorphology radius="0.742166" operator="erode" in="SourceAlpha" result="effect2_innerShadow_423_3505"/>
<feOffset/>
<feGaussianBlur stdDeviation="4.08191"/>
<feComposite in2="hardAlpha" operator="arithmetic" k2="-1" k3="1"/>
<feColorMatrix type="matrix" values="0 0 0 0 0.435294 0 0 0 0 0.564706 0 0 0 0 0.705882 0 0 0 0.64 0"/>
<feBlend mode="normal" in2="shape" result="effect2_innerShadow_423_3505"/>
</filter>
<filter id="filter12_di_423_3505" x="345.132" y="243.969" width="19.2625" height="19.262" filterUnits="userSpaceOnUse" color-interpolation-filters="sRGB">
<feFlood flood-opacity="0" result="BackgroundImageFix"/>
<feColorMatrix in="SourceAlpha" type="matrix" values="0 0 0 0 0 0 0 0 0 0 0 0 0 0 0 0 0 0 127 0" result="hardAlpha"/>
<feOffset dy="2.96867"/>
<feGaussianBlur stdDeviation="1.48433"/>
<feComposite in2="hardAlpha" operator="out"/>
<feColorMatrix type="matrix" values="0 0 0 0 0 0 0 0 0 0 0 0 0 0 0 0 0 0 0.25 0"/>
<feBlend mode="normal" in2="BackgroundImageFix" result="effect1_dropShadow_423_3505"/>
<feBlend mode="normal" in="SourceGraphic" in2="effect1_dropShadow_423_3505" result="shape"/>
<feColorMatrix in="SourceAlpha" type="matrix" values="0 0 0 0 0 0 0 0 0 0 0 0 0 0 0 0 0 0 127 0" result="hardAlpha"/>
<feMorphology radius="0.742166" operator="erode" in="SourceAlpha" result="effect2_innerShadow_423_3505"/>
<feOffset/>
<feGaussianBlur stdDeviation="4.08191"/>
<feComposite in2="hardAlpha" operator="arithmetic" k2="-1" k3="1"/>
<feColorMatrix type="matrix" values="0 0 0 0 0.435294 0 0 0 0 0.564706 0 0 0 0 0.705882 0 0 0 0.64 0"/>
<feBlend mode="normal" in2="shape" result="effect2_innerShadow_423_3505"/>
</filter>
<filter id="filter13_di_423_3505" x="329.202" y="107.161" width="19.2625" height="19.262" filterUnits="userSpaceOnUse" color-interpolation-filters="sRGB">
<feFlood flood-opacity="0" result="BackgroundImageFix"/>
<feColorMatrix in="SourceAlpha" type="matrix" values="0 0 0 0 0 0 0 0 0 0 0 0 0 0 0 0 0 0 127 0" result="hardAlpha"/>
<feOffset dy="2.96867"/>
<feGaussianBlur stdDeviation="1.48433"/>
<feComposite in2="hardAlpha" operator="out"/>
<feColorMatrix type="matrix" values="0 0 0 0 0 0 0 0 0 0 0 0 0 0 0 0 0 0 0.25 0"/>
<feBlend mode="normal" in2="BackgroundImageFix" result="effect1_dropShadow_423_3505"/>
<feBlend mode="normal" in="SourceGraphic" in2="effect1_dropShadow_423_3505" result="shape"/>
<feColorMatrix in="SourceAlpha" type="matrix" values="0 0 0 0 0 0 0 0 0 0 0 0 0 0 0 0 0 0 127 0" result="hardAlpha"/>
<feMorphology radius="0.742166" operator="erode" in="SourceAlpha" result="effect2_innerShadow_423_3505"/>
<feOffset/>
<feGaussianBlur stdDeviation="4.08191"/>
<feComposite in2="hardAlpha" operator="arithmetic" k2="-1" k3="1"/>
<feColorMatrix type="matrix" values="0 0 0 0 0.435294 0 0 0 0 0.564706 0 0 0 0 0.705882 0 0 0 0.64 0"/>
<feBlend mode="normal" in2="shape" result="effect2_innerShadow_423_3505"/>
</filter>
<filter id="filter14_di_423_3505" x="118.368" y="242.095" width="19.2625" height="19.262" filterUnits="userSpaceOnUse" color-interpolation-filters="sRGB">
<feFlood flood-opacity="0" result="BackgroundImageFix"/>
<feColorMatrix in="SourceAlpha" type="matrix" values="0 0 0 0 0 0 0 0 0 0 0 0 0 0 0 0 0 0 127 0" result="hardAlpha"/>
<feOffset dy="2.96867"/>
<feGaussianBlur stdDeviation="1.48433"/>
<feComposite in2="hardAlpha" operator="out"/>
<feColorMatrix type="matrix" values="0 0 0 0 0 0 0 0 0 0 0 0 0 0 0 0 0 0 0.25 0"/>
<feBlend mode="normal" in2="BackgroundImageFix" result="effect1_dropShadow_423_3505"/>
<feBlend mode="normal" in="SourceGraphic" in2="effect1_dropShadow_423_3505" result="shape"/>
<feColorMatrix in="SourceAlpha" type="matrix" values="0 0 0 0 0 0 0 0 0 0 0 0 0 0 0 0 0 0 127 0" result="hardAlpha"/>
<feMorphology radius="0.742166" operator="erode" in="SourceAlpha" result="effect2_innerShadow_423_3505"/>
<feOffset/>
<feGaussianBlur stdDeviation="4.08191"/>
<feComposite in2="hardAlpha" operator="arithmetic" k2="-1" k3="1"/>
<feColorMatrix type="matrix" values="0 0 0 0 0.435294 0 0 0 0 0.564706 0 0 0 0 0.705882 0 0 0 0.64 0"/>
<feBlend mode="normal" in2="shape" result="effect2_innerShadow_423_3505"/>
</filter>
<filter id="filter15_d_423_3505" x="172.994" y="171.407" width="144.25" height="167.271" filterUnits="userSpaceOnUse" color-interpolation-filters="sRGB">
<feFlood flood-opacity="0" result="BackgroundImageFix"/>
<feColorMatrix in="SourceAlpha" type="matrix" values="0 0 0 0 0 0 0 0 0 0 0 0 0 0 0 0 0 0 127 0" result="hardAlpha"/>
<feOffset dx="3.22085" dy="3.22085"/>
<feGaussianBlur stdDeviation="10.6288"/>
<feComposite in2="hardAlpha" operator="out"/>
<feColorMatrix type="matrix" values="0 0 0 0 1 0 0 0 0 1 0 0 0 0 1 0 0 0 0.25 0"/>
<feBlend mode="normal" in2="BackgroundImageFix" result="effect1_dropShadow_423_3505"/>
<feBlend mode="normal" in="SourceGraphic" in2="effect1_dropShadow_423_3505" result="shape"/>
</filter>
<filter id="filter16_d_423_3505" x="175.394" y="180.346" width="132.321" height="148.902" filterUnits="userSpaceOnUse" color-interpolation-filters="sRGB">
<feFlood flood-opacity="0" result="BackgroundImageFix"/>
<feColorMatrix in="SourceAlpha" type="matrix" values="0 0 0 0 0 0 0 0 0 0 0 0 0 0 0 0 0 0 127 0" result="hardAlpha"/>
<feOffset dy="3.22085"/>
<feGaussianBlur stdDeviation="14.4938"/>
<feComposite in2="hardAlpha" operator="out"/>
<feColorMatrix type="matrix" values="0 0 0 0 0.496671 0 0 0 0 0.701064 0 0 0 0 0.924038 0 0 0 0.59 0"/>
<feBlend mode="normal" in2="BackgroundImageFix" result="effect1_dropShadow_423_3505"/>
<feBlend mode="normal" in="SourceGraphic" in2="effect1_dropShadow_423_3505" result="shape"/>
</filter>
<linearGradient id="paint0_linear_423_3505" x1="214.623" y1="279.262" x2="290.816" y2="246.093" gradientUnits="userSpaceOnUse">
<stop stop-color="#6F90B4"/>
<stop offset="0.567308" stop-color="#2E5A88"/>
<stop offset="1" stop-color="#87BBF3"/>
</linearGradient>
<clipPath id="clip0_423_3505">
<rect width="25.3001" height="25.3001" fill="white" transform="translate(133.243 368.71)"/>
</clipPath>
<clipPath id="clip1_423_3505">
<rect width="23.426" height="23.426" fill="white" transform="translate(28.2949 266.573)"/>
</clipPath>
<clipPath id="clip2_423_3505">
<rect width="25.3001" height="25.3001" fill="white" transform="translate(375 309.677)"/>
</clipPath>
<clipPath id="clip3_423_3505">
<rect width="26.9146" height="26.0735" fill="white" transform="translate(265.495 127.504)"/>
</clipPath>
</defs>
</svg>
