<svg width="45" height="45" viewBox="0 0 45 45" fill="none" xmlns="http://www.w3.org/2000/svg">
<rect width="45" height="45" rx="10.2987" fill="url(#paint0_linear_288_1174)"/>
<g clip-path="url(#clip0_288_1174)">
<path d="M22.499 11.7808C22.046 11.7808 21.6787 12.148 21.6787 12.6011C21.6787 13.0541 22.046 13.4214 22.499 13.4214C25.2134 13.4214 27.4217 15.6293 27.4217 18.3433C27.4217 18.7963 27.789 19.1636 28.242 19.1636C28.6951 19.1636 29.0623 18.7963 29.0623 18.3433C29.0623 14.7247 26.1181 11.7808 22.499 11.7808Z" fill="white"/>
<path d="M20.386 8.72048C16.6798 9.49491 13.6747 12.4712 12.884 16.2004C12.2163 19.3494 13.0391 22.5109 15.1413 24.8742C16.169 26.0294 16.7583 27.5542 16.7583 29.062V30.7027C16.7583 31.7942 17.4729 32.7216 18.4587 33.0427C18.7828 34.9582 20.4453 36.4995 22.5005 36.4995C24.555 36.4995 26.2179 34.9587 26.5422 33.0427C27.528 32.7216 28.2426 31.7942 28.2426 30.7026V29.062C28.2426 27.5512 28.8339 26.0447 29.9074 24.8199C31.4788 23.0273 32.3442 20.7271 32.3442 18.3433C32.3442 12.1327 26.6595 7.40984 20.386 8.72048ZM22.5005 34.8589C21.446 34.8589 20.5214 34.1333 20.18 33.1581H24.8208C24.4795 34.1333 23.5549 34.8589 22.5005 34.8589ZM26.602 30.7027C26.602 31.155 26.234 31.523 25.7817 31.523H19.2192C18.7669 31.523 18.3989 31.155 18.3989 30.7027V29.8824H26.602V30.7027ZM28.6737 23.7386C27.5296 25.0438 26.8257 26.6177 26.6471 28.2417H18.3539C18.1755 26.6168 17.4735 25.0275 16.3672 23.7838C14.6152 21.8142 13.9305 19.1742 14.489 16.5407C15.1408 13.4665 17.6455 10.9692 20.7216 10.3265C25.9729 9.22907 30.7036 13.1727 30.7036 18.3433C30.7036 20.3291 29.9827 22.2452 28.6737 23.7386Z" fill="white"/>
<path d="M10.9609 18.3433H9.32031C8.86728 18.3433 8.5 18.7105 8.5 19.1636C8.5 19.6166 8.86728 19.9839 9.32031 19.9839H10.9609C11.414 19.9839 11.7812 19.6166 11.7812 19.1636C11.7812 18.7105 11.414 18.3433 10.9609 18.3433Z" fill="white"/>
<path d="M11.3007 14.2417L10.1406 13.0816C9.82029 12.7612 9.30086 12.7612 8.9805 13.0816C8.66014 13.4019 8.66014 13.9213 8.9805 14.2417L10.1406 15.4018C10.4609 15.7221 10.9803 15.7222 11.3007 15.4018C11.621 15.0814 11.621 14.562 11.3007 14.2417Z" fill="white"/>
<path d="M11.3007 22.9253C10.9803 22.605 10.4609 22.605 10.1406 22.9253L8.9805 24.0854C8.66014 24.4058 8.66014 24.9251 8.9805 25.2455C9.30081 25.5659 9.82023 25.5659 10.1406 25.2455L11.3007 24.0854C11.621 23.7651 11.621 23.2457 11.3007 22.9253Z" fill="white"/>
<path d="M35.6797 18.3433H34.0391C33.586 18.3433 33.2188 18.7105 33.2188 19.1636C33.2188 19.6166 33.586 19.9839 34.0391 19.9839H35.6797C36.1327 19.9839 36.5 19.6166 36.5 19.1636C36.5 18.7105 36.1327 18.3433 35.6797 18.3433Z" fill="white"/>
<path d="M36.0194 13.0816C35.6991 12.7612 35.1797 12.7612 34.8593 13.0816L33.6993 14.2417C33.3789 14.562 33.3789 15.0814 33.6993 15.4017C34.0196 15.7221 34.539 15.7221 34.8593 15.4017L36.0194 14.2417C36.3398 13.9213 36.3398 13.4019 36.0194 13.0816Z" fill="white"/>
<path d="M36.0194 24.0854L34.8593 22.9253C34.539 22.605 34.0196 22.605 33.6993 22.9253C33.3789 23.2457 33.3789 23.7651 33.6993 24.0854L34.8593 25.2455C35.1796 25.5658 35.6991 25.5659 36.0194 25.2455C36.3398 24.9251 36.3398 24.4058 36.0194 24.0854Z" fill="white"/>
</g>
<defs>
<linearGradient id="paint0_linear_288_1174" x1="8.41304" y1="37.1875" x2="48.2333" y2="12.1328" gradientUnits="userSpaceOnUse">
<stop stop-color="#6F90B4"/>
<stop offset="0.567308" stop-color="#2E5A88"/>
<stop offset="1" stop-color="#87BBF3"/>
</linearGradient>
<clipPath id="clip0_288_1174">
<rect width="28" height="28" fill="white" transform="translate(8.5 8.5)"/>
</clipPath>
</defs>
</svg>
