<svg width="45" height="45" viewBox="0 0 45 45" fill="none" xmlns="http://www.w3.org/2000/svg">
<rect width="45" height="45" rx="10.2987" fill="url(#paint0_linear_288_1182)"/>
<path fill-rule="evenodd" clip-rule="evenodd" d="M22.362 11.1987C22.4649 11.1381 22.5764 11.1428 22.6579 11.1895L22.362 11.1987ZM22.6579 11.1895C22.9559 11.3605 23.2552 11.5375 23.5605 11.718C25.783 13.0325 28.3262 14.5366 33.0704 15.3103C33.268 15.3426 33.3875 15.5067 33.3864 15.6614C33.3433 22.0496 32.9045 25.4909 31.448 28.0574C29.9938 30.62 27.4488 32.4509 22.6712 35.3557C22.5692 35.4177 22.4313 35.4177 22.3293 35.3557C17.5477 32.4485 15.0024 30.6168 13.5488 28.0509C12.0927 25.4805 11.6557 22.0326 11.6138 15.6296C11.6128 15.4764 11.7284 15.3164 11.9176 15.2807C16.9125 14.3369 19.8818 12.6622 22.362 11.1987M21.3635 9.4717C22.0537 9.0645 22.9186 9.03897 23.6357 9.45036C23.9475 9.62925 24.2552 9.81098 24.5642 9.99356C26.7524 11.286 29.0166 12.6233 33.3859 13.3359C34.5012 13.5178 35.3746 14.4865 35.3664 15.6753C35.3664 15.6753 35.3664 15.6753 35.3664 15.6753C35.3235 22.0306 34.9118 25.9754 33.1658 29.052C31.4176 32.1326 28.4083 34.202 23.6923 37.0692C22.962 37.5132 22.0385 37.5132 21.3082 37.0692C16.5882 34.1994 13.5779 32.1292 11.8303 29.0442C10.0852 25.9637 9.67557 22.0121 9.63384 15.6428C9.62624 14.481 10.463 13.5209 11.5535 13.3148C16.2218 12.4327 18.962 10.8887 21.3635 9.4717Z" fill="white"/>
<defs>
<linearGradient id="paint0_linear_288_1182" x1="8.41304" y1="37.1875" x2="48.2333" y2="12.1328" gradientUnits="userSpaceOnUse">
<stop stop-color="#6F90B4"/>
<stop offset="0.567308" stop-color="#2E5A88"/>
<stop offset="1" stop-color="#87BBF3"/>
</linearGradient>
</defs>
</svg>
