<svg width="46" height="45" viewBox="0 0 46 45" fill="none" xmlns="http://www.w3.org/2000/svg">
<rect width="46" height="45" rx="10.2987" fill="url(#paint0_linear_279_4608)"/>
<path d="M16.7108 31.593C15.2662 32.4225 13.6378 32.72 12.6736 32.8268C12.7803 31.8625 13.0778 30.2342 13.9064 28.7887C14.1234 28.4115 13.9931 27.9303 13.6159 27.7133C13.2353 27.4954 12.7567 27.6275 12.5406 28.0047C11.0566 30.5929 11.0391 33.5487 11.0391 33.6738C11.0391 34.1087 11.3917 34.4613 11.8266 34.4613C11.9517 34.4613 14.9074 34.4438 17.4957 32.9598C17.8728 32.7428 18.0032 32.2624 17.7862 31.8844C17.5709 31.5073 17.0906 31.376 16.7108 31.593Z" fill="white"/>
<path d="M36.0455 11.3657C36.0552 10.8486 35.86 10.3639 35.496 10.0007C35.1329 9.63761 34.6079 9.45823 34.1337 9.45386C31.9532 9.49498 26.0714 10.1206 20.5064 15.116C19.5142 14.7301 18.0188 14.157 16.8839 14.3031C15.2144 14.5175 12.7478 16.789 10.3319 19.2127C10.0117 19.5339 9.88391 19.9889 9.99154 20.4299C10.0983 20.8726 10.422 21.22 10.856 21.3591L14.6973 22.5929C14.4077 23.1214 14.1224 23.6621 13.8468 24.2326C13.5003 24.9501 13.6473 25.812 14.2125 26.3755L19.1239 31.2869C19.4844 31.6482 19.9674 31.839 20.4548 31.839C20.7304 31.839 21.0087 31.7786 21.2677 31.6535C21.8382 31.3779 22.3789 31.0926 22.9057 30.8039L24.1403 34.6442C24.2794 35.0782 24.6268 35.402 25.0704 35.5096C25.1728 35.5341 25.276 35.5464 25.3793 35.5464C25.7162 35.5464 26.0408 35.4142 26.2875 35.1684C28.7113 32.7525 30.9828 30.2867 31.1963 28.6181C31.3442 27.4727 30.7693 25.9861 30.3834 24.9939C35.3779 19.4289 36.0044 13.5471 36.0455 11.3657ZM11.7722 20.0002C13.054 18.7236 15.8383 16.026 17.0843 15.8659C17.6399 15.795 18.5123 16.0584 19.249 16.3252C17.9479 17.6701 16.6844 19.2819 15.5067 21.199L11.7722 20.0002ZM20.5825 30.2351C20.4714 30.2894 20.3288 30.2649 20.2378 30.1739L15.3255 25.2616C15.2354 25.1715 15.21 25.0297 15.2652 24.9169C21.3823 12.246 31.2768 11.084 34.1643 11.0297H34.1713C34.2754 11.0297 34.3437 11.0761 34.3839 11.1164C34.4172 11.1496 34.474 11.2231 34.4723 11.3369C34.4163 14.2244 33.2534 24.1189 20.5825 30.2351ZM29.6344 28.4169C29.4743 29.662 26.7767 32.4471 25.5 33.7281L24.2995 29.9945C26.2184 28.8167 27.8302 27.5524 29.175 26.2512C29.4428 26.9871 29.7062 27.8577 29.6344 28.4169Z" fill="white"/>
<path d="M30.1117 20.0625C31.3997 18.7736 31.3997 16.6771 30.1117 15.3882C28.8622 14.1405 26.6852 14.1405 25.4375 15.3882C24.8136 16.0121 24.4697 16.8425 24.4697 17.7253C24.4697 18.6082 24.8145 19.4386 25.4375 20.0625C26.0614 20.6863 26.8917 21.0302 27.7746 21.0302C28.6575 21.0302 29.487 20.6863 30.1117 20.0625ZM28.997 18.9486C28.3434 19.6031 27.2032 19.6031 26.5514 18.9486C26.2241 18.6222 26.0439 18.1873 26.0439 17.7253C26.0439 17.2633 26.2241 16.8293 26.5514 16.5021C26.8777 16.1757 27.3117 15.9955 27.7737 15.9955C28.2349 15.9955 28.6697 16.1757 28.9961 16.5021C29.6716 17.1767 29.6716 18.274 28.997 18.9486Z" fill="white"/>
<defs>
<linearGradient id="paint0_linear_279_4608" x1="8.6" y1="37.1875" x2="48.7929" y2="11.3364" gradientUnits="userSpaceOnUse">
<stop stop-color="#6F90B4"/>
<stop offset="0.567308" stop-color="#2E5A88"/>
<stop offset="1" stop-color="#87BBF3"/>
</linearGradient>
</defs>
</svg>
