<svg width="46" height="45" viewBox="0 0 46 45" fill="none" xmlns="http://www.w3.org/2000/svg">
<rect width="46" height="45" rx="10.2987" fill="url(#paint0_linear_346_2211)"/>
<g clip-path="url(#clip0_346_2211)">
<path d="M34.9239 24.5131C34.1659 23.755 32.9493 23.7245 32.1543 24.4439L27.9342 28.2621C27.8553 27.1202 26.9011 26.2152 25.7395 26.2152H22.0504C21.112 25.6001 20.0247 25.2864 18.9011 25.306C18.073 25.3209 17.2708 25.5179 16.5393 25.8801C16.2255 25.4887 15.7439 25.2375 15.2044 25.2375H12.1964C11.2529 25.2375 10.4854 26.0051 10.4854 26.9485V33.3038C10.4854 34.2472 11.2529 35.0148 12.1964 35.0148H15.2044C15.8855 35.0148 16.4748 34.6146 16.7499 34.0371H26.6958C27.9827 34.0371 29.2231 33.4962 30.0989 32.5532L34.9754 27.302C35.7145 26.5061 35.6919 25.2811 34.9239 24.5131ZM15.4488 33.3038C15.4488 33.4385 15.3391 33.5482 15.2044 33.5482H12.1964C12.0616 33.5482 11.9519 33.4385 11.9519 33.3038V26.9485C11.9519 26.8138 12.0616 26.7041 12.1964 26.7041H15.2044C15.3391 26.7041 15.4488 26.8138 15.4488 26.9485V33.3038ZM33.9008 26.304L29.0242 31.5551C28.425 32.2004 27.5763 32.5705 26.6958 32.5705H16.9154V27.3436C18.2555 26.5525 19.9631 26.5861 21.2733 27.4596L21.422 27.5587C21.5424 27.639 21.6839 27.6818 21.8286 27.6818H25.7395C26.1438 27.6818 26.4728 28.0108 26.4728 28.4151C26.4728 28.8195 26.1438 29.1484 25.7396 29.1484H21.3398C20.9348 29.1484 20.6065 29.4767 20.6065 29.8817C20.6065 30.2867 20.9348 30.615 21.3398 30.615H26.107C27.0178 30.615 27.8914 30.2784 28.5669 29.6673L33.1382 25.5314C33.3531 25.3368 33.6819 25.3451 33.8868 25.5501C34.0945 25.7578 34.1006 26.0888 33.9008 26.304Z" fill="white"/>
<path d="M19.2156 24.0593H29.8909C30.6773 24.0593 31.3855 23.6549 31.7853 22.9778C32.1851 22.3006 32.197 21.4853 31.8171 20.7967L26.4794 11.1222C26.0865 10.4101 25.3664 9.98499 24.5532 9.98499C23.74 9.98503 23.0199 10.4101 22.6271 11.1222L17.2894 20.7967C16.9095 21.4853 16.9214 22.3006 17.3212 22.9778C17.721 23.655 18.4291 24.0593 19.2156 24.0593ZM18.5735 21.5052L23.9112 11.8306C24.0999 11.4885 24.423 11.4516 24.5532 11.4516C24.6834 11.4516 25.0065 11.4885 25.1953 11.8306L30.533 21.5052C30.7155 21.836 30.5864 22.1238 30.5224 22.2322C30.4584 22.3406 30.2688 22.5927 29.8909 22.5927H19.2156C18.8378 22.5927 18.6481 22.3406 18.5842 22.2322C18.5201 22.1238 18.391 21.836 18.5735 21.5052Z" fill="white"/>
<path d="M24.5536 18.6818C24.9586 18.6818 25.2869 18.3535 25.2869 17.9485V14.7709C25.2869 14.3659 24.9586 14.0376 24.5536 14.0376C24.1486 14.0376 23.8203 14.3659 23.8203 14.7709V17.9485C23.8203 18.3535 24.1486 18.6818 24.5536 18.6818Z" fill="white"/>
<path d="M24.5536 19.6595C24.1486 19.6595 23.8203 19.9879 23.8203 20.3928C23.8203 20.7978 24.1486 21.1261 24.5536 21.1261C24.9586 21.1261 25.2869 20.7978 25.2869 20.3928C25.2869 19.9879 24.9586 19.6595 24.5536 19.6595Z" fill="white"/>
</g>
<defs>
<linearGradient id="paint0_linear_346_2211" x1="8.6" y1="37.1875" x2="48.7929" y2="11.3364" gradientUnits="userSpaceOnUse">
<stop stop-color="#6F90B4"/>
<stop offset="0.567308" stop-color="#2E5A88"/>
<stop offset="1" stop-color="#87BBF3"/>
</linearGradient>
<clipPath id="clip0_346_2211">
<rect width="25.0298" height="25.0298" fill="white" transform="translate(10.4854 9.98511)"/>
</clipPath>
</defs>
</svg>
