<svg width="45" height="45" viewBox="0 0 45 45" fill="none" xmlns="http://www.w3.org/2000/svg">
<rect width="45" height="45" rx="10.2987" fill="url(#paint0_linear_346_2186)"/>
<g clip-path="url(#clip0_346_2186)">
<path d="M10.844 30.7139C10.077 30.7129 9.3316 30.9676 8.72573 31.438C8.11987 31.9083 7.68819 32.5672 7.49904 33.3105C7.30988 34.0538 7.37406 34.839 7.68142 35.5417C7.98877 36.2444 8.52173 36.8245 9.19593 37.1902C9.87013 37.5558 10.647 37.6862 11.4037 37.5606C12.1603 37.435 12.8534 37.0606 13.3733 36.4966C13.8931 35.9327 14.21 35.2115 14.2738 34.4472C14.3376 33.6828 14.1446 32.9191 13.7254 32.2768L15.7674 30.248C17.6349 31.8749 20.0284 32.7705 22.5052 32.7693C24.9819 32.768 27.3745 31.87 29.2404 30.2412L31.275 32.2758C30.8088 32.9896 30.6237 33.8508 30.7554 34.693C30.8871 35.5353 31.3263 36.2989 31.9881 36.8362C32.6499 37.3736 33.4874 37.6466 34.3388 37.6026C35.1901 37.5585 35.9949 37.2005 36.5977 36.5977C37.2005 35.9949 37.5586 35.1901 37.6026 34.3387C37.6467 33.4873 37.3736 32.6499 36.8363 31.9881C36.2989 31.3262 35.5354 30.8871 34.6931 30.7554C33.8508 30.6237 32.9896 30.8088 32.2759 31.275L30.2412 29.2403C31.8698 27.3747 32.7679 24.9825 32.7694 22.5061C32.7709 20.0296 31.8757 17.6364 30.2494 15.7688L32.277 13.7254C32.9909 14.1913 33.8521 14.3761 34.6943 14.2441C35.5365 14.1121 36.2998 13.6726 36.8369 13.0106C37.374 12.3486 37.6467 11.5111 37.6024 10.6598C37.558 9.80846 37.1997 9.00379 36.5967 8.40122C35.9937 7.79864 35.1888 7.44092 34.3375 7.39716C33.4861 7.35339 32.6488 7.62669 31.9871 8.16426C31.3255 8.70183 30.8866 9.46552 30.7552 10.3078C30.6238 11.1501 30.8092 12.0112 31.2756 12.7247L29.2494 14.7667C27.3826 13.1331 24.9866 12.232 22.506 12.2305C20.0253 12.229 17.6283 13.1272 15.7595 14.7586L13.7248 12.724C14.191 12.0102 14.3761 11.1491 14.2444 10.3068C14.1127 9.46453 13.6736 8.70096 13.0118 8.1636C12.35 7.62623 11.5125 7.35321 10.6611 7.39726C9.80976 7.44132 9.00493 7.79933 8.40213 8.40214C7.79932 9.00495 7.44131 9.80977 7.39725 10.6611C7.35319 11.5125 7.62622 12.35 8.16358 13.0118C8.70095 13.6736 9.46452 14.1128 10.3068 14.2445C11.149 14.3762 12.0102 14.191 12.724 13.7249L14.7586 15.7595C13.1274 17.628 12.2292 20.0247 12.2305 22.505C12.2317 24.9854 13.1324 27.3811 14.7655 29.248L12.7249 31.2756C12.1663 30.9086 11.5124 30.7134 10.844 30.7139ZM10.844 36.1821C10.4432 36.1821 10.0514 36.0632 9.71821 35.8405C9.38498 35.6179 9.12526 35.3014 8.97189 34.9311C8.81853 34.5608 8.77841 34.1534 8.85662 33.7603C8.93482 33.3672 9.12782 33.0062 9.41123 32.7228C9.69463 32.4394 10.0557 32.2464 10.4488 32.1682C10.8419 32.09 11.2493 32.1302 11.6196 32.2836C11.9899 32.437 12.3063 32.6967 12.529 33.0299C12.7516 33.3632 12.8705 33.755 12.8705 34.1558C12.8698 34.693 12.6561 35.2081 12.2762 35.588C11.8963 35.9679 11.3813 36.1815 10.844 36.1822V36.1821ZM36.1823 34.1558C36.1823 34.5565 36.0635 34.9483 35.8408 35.2816C35.6181 35.6148 35.3017 35.8745 34.9314 36.0279C34.5611 36.1813 34.1537 36.2214 33.7606 36.1432C33.3675 36.065 33.0064 35.872 32.723 35.5886C32.4396 35.3052 32.2466 34.9442 32.1685 34.5511C32.0903 34.158 32.1304 33.7506 32.2838 33.3803C32.4371 33.01 32.6969 32.6935 33.0301 32.4709C33.3633 32.2482 33.7551 32.1294 34.1559 32.1294C34.6932 32.13 35.2082 32.3437 35.5881 32.7236C35.968 33.1034 36.1817 33.6185 36.1823 34.1558ZM34.1559 8.8175C34.5567 8.8175 34.9485 8.93635 35.2817 9.15901C35.615 9.38168 35.8747 9.69816 36.0281 10.0684C36.1814 10.4387 36.2216 10.8461 36.1434 11.2392C36.0652 11.6323 35.8722 11.9934 35.5888 12.2768C35.3054 12.5602 34.9443 12.7532 34.5512 12.8314C34.1582 12.9096 33.7507 12.8694 33.3804 12.7161C33.0102 12.5627 32.6937 12.3029 32.471 11.9697C32.2484 11.6365 32.1295 11.2447 32.1295 10.8439C32.1301 10.3067 32.3438 9.7916 32.7237 9.41171C33.1036 9.03182 33.6187 8.81813 34.1559 8.8175ZM10.844 12.8703C10.4432 12.8703 10.0514 12.7514 9.71822 12.5288C9.38498 12.3061 9.12526 11.9896 8.9719 11.6193C8.81854 11.2491 8.77841 10.8416 8.85661 10.4485C8.93481 10.0555 9.12781 9.69439 9.41121 9.411C9.69461 9.12761 10.0557 8.93462 10.4488 8.85643C10.8418 8.77825 11.2493 8.81838 11.6195 8.97176C11.9898 9.12513 12.3063 9.38486 12.529 9.7181C12.7516 10.0513 12.8705 10.4431 12.8705 10.8439C12.8698 11.3812 12.6561 11.8962 12.2762 12.2761C11.8963 12.656 11.3813 12.8697 10.844 12.8703ZM22.5 13.6459C27.382 13.6459 31.3539 17.6178 31.3539 22.4998C31.3539 27.3819 27.382 31.3538 22.5 31.3538C17.6179 31.3538 13.6461 27.3819 13.6461 22.4998C13.6461 17.6178 17.6179 13.6459 22.5 13.6459ZM22.2185 29.2826C22.3073 29.3211 22.4032 29.341 22.5 29.341C22.5968 29.341 22.6926 29.3211 22.7815 29.2826C24.5607 28.5111 26.0963 27.0769 27.1056 25.2443C28.231 23.2008 28.6112 20.8325 28.205 18.3958C28.1762 18.2215 28.0831 18.0642 27.9441 17.9551C27.8051 17.846 27.6302 17.793 27.4539 17.8065C25.2116 17.9754 23.7986 17.4019 23.1351 16.0538C23.0767 15.9352 22.9863 15.8353 22.8741 15.7654C22.7619 15.6956 22.6323 15.6586 22.5001 15.6586C22.3679 15.6586 22.2384 15.6956 22.1261 15.7654C22.0139 15.8353 21.9235 15.9352 21.8651 16.0538C21.2016 17.4019 19.7887 17.975 17.5463 17.8065C17.3701 17.7931 17.1952 17.8462 17.0562 17.9552C16.9172 18.0643 16.824 18.2215 16.7951 18.3958C16.3889 20.8325 16.7691 23.2008 17.8945 25.2443C18.9037 27.0769 20.4393 28.5111 22.2185 29.2826ZM18.1063 19.2487C20.0761 19.2789 21.5473 18.742 22.5 17.6436C23.4528 18.742 24.9244 19.2802 26.8937 19.2487C27.3463 23.4914 25.0328 26.6104 22.5 27.8539C19.9671 26.6104 17.6536 23.4914 18.1063 19.2487ZM21.7392 24.5801L19.8825 22.9229C19.7458 22.7971 19.6641 22.6225 19.655 22.4369C19.6459 22.2513 19.7102 22.0695 19.834 21.9309C19.9578 21.7923 20.1311 21.7079 20.3165 21.696C20.502 21.6841 20.6847 21.7456 20.8251 21.8673L22.1191 23.0222L24.0889 20.5108C24.146 20.4368 24.2171 20.3749 24.2982 20.3285C24.3793 20.2822 24.4688 20.2524 24.5615 20.2408C24.6542 20.2292 24.7483 20.2361 24.8383 20.2611C24.9283 20.286 25.0125 20.3286 25.086 20.3862C25.1595 20.4439 25.2209 20.5155 25.2666 20.597C25.3122 20.6785 25.3413 20.7682 25.3522 20.861C25.363 20.9538 25.3554 21.0478 25.3297 21.1376C25.304 21.2274 25.2608 21.3113 25.2025 21.3843L22.7669 24.4892C22.7072 24.5653 22.6325 24.6283 22.5475 24.6745C22.4625 24.7206 22.3689 24.7488 22.2726 24.7574C22.2517 24.7592 22.2308 24.7601 22.2101 24.7601C22.0364 24.76 21.8688 24.6959 21.7392 24.5802V24.5801Z" fill="white"/>
</g>
<defs>
<linearGradient id="paint0_linear_346_2186" x1="8.41304" y1="37.1875" x2="48.2333" y2="12.1328" gradientUnits="userSpaceOnUse">
<stop stop-color="#6F90B4"/>
<stop offset="0.567308" stop-color="#2E5A88"/>
<stop offset="1" stop-color="#87BBF3"/>
</linearGradient>
<clipPath id="clip0_346_2186">
<rect width="30.1955" height="30.1955" fill="white" transform="translate(7.40234 7.40225)"/>
</clipPath>
</defs>
</svg>
