<svg width="45" height="45" viewBox="0 0 45 45" fill="none" xmlns="http://www.w3.org/2000/svg">
<rect width="45" height="45" rx="10.2987" fill="url(#paint0_linear_346_2427)"/>
<g clip-path="url(#clip0_346_2427)">
<path d="M35.562 14.8503L30.3527 9.8088C30.2062 9.66693 30.0074 9.58728 29.8002 9.58728H17.8182C16.5256 9.58728 15.474 10.605 15.474 11.8559V21.8297C11.9625 22.2071 9.22266 25.0962 9.22266 28.5933C9.22266 32.3461 12.3775 35.3992 16.2554 35.3992H33.4466C34.7392 35.3992 35.7908 34.3815 35.7908 33.1306V15.385C35.7908 15.1844 35.7085 14.9922 35.562 14.8503ZM30.5814 12.1691L32.2791 13.8122L33.1229 14.6287H30.5814V12.1691ZM10.7855 28.5933C10.7855 25.6745 13.2393 23.2999 16.2554 23.2999C19.2715 23.2999 21.7253 25.6745 21.7253 28.5933C21.7253 31.5122 19.2715 33.8868 16.2554 33.8868C13.2393 33.8868 10.7855 31.5122 10.7855 28.5933ZM33.4466 33.8868H20.6704C22.075 32.7875 23.0349 31.1766 23.2445 29.3496H31.3628C31.7943 29.3496 32.1442 29.011 32.1442 28.5933C32.1442 28.1757 31.7943 27.8371 31.3628 27.8371H23.2445C23.1171 26.727 22.7129 25.6966 22.1001 24.8123H31.3628C31.7943 24.8123 32.1442 24.4737 32.1442 24.0561C32.1442 23.6385 31.7943 23.2999 31.3628 23.2999H20.6704C19.6534 22.504 18.4037 21.9766 17.0368 21.8297V11.8559C17.0368 11.4389 17.3874 11.0997 17.8182 11.0997H29.0185V15.3849C29.0185 15.8025 29.3684 16.1411 29.8 16.1411H34.228V33.1306C34.228 33.5476 33.8774 33.8868 33.4466 33.8868Z" fill="white"/>
<path d="M31.3633 18.7626H19.9025C19.471 18.7626 19.1211 19.1012 19.1211 19.5188C19.1211 19.9364 19.471 20.275 19.9025 20.275H31.3633C31.7948 20.275 32.1447 19.9364 32.1447 19.5188C32.1447 19.1012 31.7948 18.7626 31.3633 18.7626Z" fill="white"/>
<path d="M19.3608 26.6975C19.0557 26.4022 18.5609 26.4022 18.2557 26.6975L15.1617 29.6917L14.1513 28.714C13.8462 28.4187 13.3514 28.4187 13.0463 28.714C12.7411 29.0093 12.7411 29.4881 13.0463 29.7834L14.6091 31.2959C14.7617 31.4435 14.9617 31.5174 15.1617 31.5174C15.3616 31.5174 15.5616 31.4435 15.7142 31.2959L19.3608 27.7669C19.666 27.4716 19.666 26.9928 19.3608 26.6975Z" fill="white"/>
</g>
<defs>
<linearGradient id="paint0_linear_346_2427" x1="8.41304" y1="37.1875" x2="48.2333" y2="12.1328" gradientUnits="userSpaceOnUse">
<stop stop-color="#6F90B4"/>
<stop offset="0.567308" stop-color="#2E5A88"/>
<stop offset="1" stop-color="#87BBF3"/>
</linearGradient>
<clipPath id="clip0_346_2427">
<rect width="26.6585" height="25.8254" fill="white" transform="translate(9.1709 9.58731)"/>
</clipPath>
</defs>
</svg>
