<svg width="53" height="53" viewBox="0 0 53 53" fill="none" xmlns="http://www.w3.org/2000/svg">
<rect width="53" height="53" rx="12.1295" fill="url(#paint0_linear_314_2957)"/>
<g clip-path="url(#clip0_314_2957)">
<path d="M38.0405 18.5315L30.7751 11.2661C30.6055 11.0965 30.374 11 30.1328 11H17.418C15.9156 11 14.6934 12.2223 14.6934 13.7246V39.2754C14.6934 40.7777 15.9156 42 17.418 42H35.582C37.0844 42 38.3066 40.7777 38.3066 39.2754V19.1738C38.3066 18.9262 38.2027 18.6936 38.0405 18.5315ZM31.041 14.1008L35.2059 18.2656H31.9492C31.4484 18.2656 31.041 17.8582 31.041 17.3574V14.1008ZM35.582 40.1836H17.418C16.9172 40.1836 16.5098 39.7762 16.5098 39.2754V13.7246C16.5098 13.2238 16.9172 12.8164 17.418 12.8164H29.2246V17.3574C29.2246 18.8598 30.4469 20.082 31.9492 20.082H36.4902V39.2754C36.4902 39.7762 36.0828 40.1836 35.582 40.1836Z" fill="white"/>
<path d="M31.9492 23.8359H21.0508C20.5492 23.8359 20.1426 24.2426 20.1426 24.7441C20.1426 25.2457 20.5492 25.6523 21.0508 25.6523H31.9492C32.4508 25.6523 32.8574 25.2457 32.8574 24.7441C32.8574 24.2426 32.4508 23.8359 31.9492 23.8359Z" fill="white"/>
<path d="M31.9492 27.4688H21.0508C20.5492 27.4688 20.1426 27.8754 20.1426 28.377C20.1426 28.8785 20.5492 29.2852 21.0508 29.2852H31.9492C32.4508 29.2852 32.8574 28.8785 32.8574 28.377C32.8574 27.8754 32.4508 27.4688 31.9492 27.4688Z" fill="white"/>
<path d="M31.9492 31.1016H21.0508C20.5492 31.1016 20.1426 31.5082 20.1426 32.0098C20.1426 32.5113 20.5492 32.918 21.0508 32.918H31.9492C32.4508 32.918 32.8574 32.5113 32.8574 32.0098C32.8574 31.5082 32.4508 31.1016 31.9492 31.1016Z" fill="white"/>
<path d="M28.3164 34.7344H21.0508C20.5492 34.7344 20.1426 35.141 20.1426 35.6426C20.1426 36.1441 20.5492 36.5508 21.0508 36.5508H28.3164C28.818 36.5508 29.2246 36.1441 29.2246 35.6426C29.2246 35.141 28.818 34.7344 28.3164 34.7344Z" fill="white"/>
</g>
<defs>
<linearGradient id="paint0_linear_314_2957" x1="9.9087" y1="43.7986" x2="56.8081" y2="14.2898" gradientUnits="userSpaceOnUse">
<stop stop-color="#6F90B4"/>
<stop offset="0.567308" stop-color="#2E5A88"/>
<stop offset="1" stop-color="#87BBF3"/>
</linearGradient>
<clipPath id="clip0_314_2957">
<rect width="31" height="31" fill="white" transform="translate(11 11)"/>
</clipPath>
</defs>
</svg>
