<svg width="36" height="36" viewBox="0 0 36 36" fill="none" xmlns="http://www.w3.org/2000/svg">
<rect width="35.4525" height="35.4525" rx="7.42256" fill="#6F90B4"/>
<path fill-rule="evenodd" clip-rule="evenodd" d="M7.50781 17.726C7.50781 22.7783 11.1977 26.9791 16.023 27.8306L16.08 27.7851C16.0609 27.7814 16.0419 27.7776 16.023 27.7739V20.5644H13.4684V17.726H16.023V15.4553C16.023 12.9007 17.6692 11.4815 19.9967 11.4815C20.7347 11.4815 21.5294 11.5951 22.2674 11.7086V14.3199H20.9618C19.7129 14.3199 19.429 14.9444 19.429 15.7391V17.726H22.1539L21.6997 20.5644H19.429V27.7739C19.4101 27.7776 19.3911 27.7814 19.372 27.7851L19.429 27.8306C24.2543 26.9791 27.9442 22.7783 27.9442 17.726C27.9442 12.106 23.346 7.50781 17.726 7.50781C12.106 7.50781 7.50781 12.106 7.50781 17.726Z" fill="white"/>
</svg>
