<svg width="109" height="48" viewBox="0 0 109 48" fill="none" xmlns="http://www.w3.org/2000/svg">
<rect width="47.4275" height="47.4275" rx="23.7137" fill="#045184"/>
<path d="M28.8106 33.4905C28.0305 33.4905 27.3675 33.2174 26.8214 32.6714C26.2754 32.1254 26.0024 31.4623 26.0024 30.6823C26.0024 30.5886 26.0258 30.3702 26.0726 30.027L19.4967 26.1891C19.2471 26.4231 18.9584 26.6066 18.6308 26.7395C18.3032 26.8725 17.9522 26.9386 17.5777 26.938C16.7977 26.938 16.1346 26.665 15.5886 26.1189C15.0426 25.5729 14.7695 24.9098 14.7695 24.1298C14.7695 23.3497 15.0426 22.6867 15.5886 22.1406C16.1346 21.5946 16.7977 21.3216 17.5777 21.3216C17.9522 21.3216 18.3032 21.388 18.6308 21.521C18.9584 21.6539 19.2471 21.837 19.4967 22.0704L26.0726 18.2325C26.0414 18.1233 26.022 18.0182 26.0145 17.9171C26.007 17.816 26.003 17.7027 26.0024 17.5773C26.0024 16.7972 26.2754 16.1342 26.8214 15.5881C27.3675 15.0421 28.0305 14.7691 28.8106 14.7691C29.5906 14.7691 30.2537 15.0421 30.7997 15.5881C31.3457 16.1342 31.6188 16.7972 31.6188 17.5773C31.6188 18.3574 31.3457 19.0204 30.7997 19.5664C30.2537 20.1125 29.5906 20.3855 28.8106 20.3855C28.4361 20.3855 28.0851 20.319 27.7575 20.1861C27.4299 20.0532 27.1412 19.87 26.8916 19.6366L20.3157 23.4745C20.3469 23.5837 20.3666 23.6892 20.3747 23.7909C20.3828 23.8926 20.3866 24.0056 20.3859 24.1298C20.3853 24.254 20.3816 24.3672 20.3747 24.4696C20.3678 24.5719 20.3482 24.6771 20.3157 24.785L26.8916 28.6229C27.1412 28.3889 27.4299 28.2057 27.7575 28.0734C28.0851 27.9411 28.4361 27.8747 28.8106 27.8741C29.5906 27.8741 30.2537 28.1471 30.7997 28.6931C31.3457 29.2392 31.6188 29.9022 31.6188 30.6823C31.6188 31.4623 31.3457 32.1254 30.7997 32.6714C30.2537 33.2174 29.5906 33.4905 28.8106 33.4905Z" fill="white"/>
<rect x="61.4277" width="47.4275" height="47.4275" rx="23.7137" fill="#C7C7C7"/>
<path d="M85.6655 31.1693L85.558 31.2768L85.4398 31.1693C80.3347 26.5372 76.96 23.4742 76.96 20.3681C76.96 18.2187 78.5722 16.6065 80.7216 16.6065C82.3768 16.6065 83.9889 17.6813 84.5585 19.1429H86.5575C87.1271 17.6813 88.7392 16.6065 90.3944 16.6065C92.5438 16.6065 94.156 18.2187 94.156 20.3681C94.156 23.4742 90.7813 26.5372 85.6655 31.1693ZM90.3944 14.457C88.5243 14.457 86.7295 15.3276 85.558 16.6925C84.3865 15.3276 82.5917 14.457 80.7216 14.457C77.4114 14.457 74.8105 17.0472 74.8105 20.3681C74.8105 24.4199 78.4647 27.7409 83.9996 32.76L85.558 34.1786L87.1164 32.76C92.6513 27.7409 96.3055 24.4199 96.3055 20.3681C96.3055 17.0472 93.7046 14.457 90.3944 14.457Z" fill="white"/>
</svg>
