<svg width="36" height="36" viewBox="0 0 36 36" fill="none" xmlns="http://www.w3.org/2000/svg">
<rect width="35.4525" height="35.4525" rx="7.42256" fill="#6F90B4"/>
<path d="M17.7269 8.39673C15.1932 8.39673 14.8752 8.4078 13.88 8.4531C12.8868 8.49857 12.2088 8.65582 11.6156 8.88653C11.002 9.12483 10.4815 9.44359 9.9629 9.96236C9.44393 10.4809 9.12517 11.0014 8.88609 11.6149C8.65479 12.2083 8.49736 12.8864 8.45265 13.8792C8.40814 14.8744 8.39648 15.1926 8.39648 17.7263C8.39648 20.2601 8.40775 20.5772 8.45285 21.5723C8.49853 22.5655 8.65576 23.2434 8.88629 23.8367C9.12478 24.4503 9.44355 24.9708 9.96232 25.4894C10.4807 26.0083 11.0012 26.3278 11.6145 26.5661C12.2081 26.7968 12.8862 26.9541 13.8793 26.9996C14.8744 27.0448 15.1922 27.0559 17.7258 27.0559C20.2598 27.0559 20.5769 27.0448 21.572 26.9996C22.5652 26.9541 23.244 26.7968 23.8376 26.5661C24.451 26.3278 24.9707 26.0083 25.4891 25.4894C26.0081 24.9708 26.3268 24.4503 26.566 23.8368C26.7953 23.2434 26.9528 22.5653 26.9994 21.5725C27.044 20.5773 27.0557 20.2601 27.0557 17.7263C27.0557 15.1926 27.044 14.8746 26.9994 13.8794C26.9528 12.8862 26.7953 12.2083 26.566 11.6151C26.3268 11.0014 26.0081 10.4809 25.4891 9.96236C24.9702 9.44339 24.4513 9.12463 23.837 8.88653C23.2422 8.65582 22.5638 8.49857 21.5707 8.4531C20.5755 8.4078 20.2587 8.39673 17.7241 8.39673H17.7269ZM16.8901 10.078C17.1384 10.0776 17.4156 10.078 17.7269 10.078C20.2181 10.078 20.5132 10.0869 21.497 10.1316C22.4067 10.1732 22.9004 10.3252 23.2292 10.4529C23.6646 10.622 23.975 10.8242 24.3014 11.1507C24.6279 11.4773 24.83 11.7882 24.9995 12.2236C25.1272 12.5521 25.2795 13.0458 25.3208 13.9554C25.3655 14.9389 25.3752 15.2344 25.3752 17.7242C25.3752 20.214 25.3655 20.5095 25.3208 21.493C25.2792 22.4026 25.1272 22.8963 24.9995 23.2248C24.8304 23.6602 24.6279 23.9702 24.3014 24.2965C23.9748 24.6231 23.6647 24.8252 23.2292 24.9943C22.9007 25.1226 22.4067 25.2742 21.497 25.3158C20.5135 25.3605 20.2181 25.3702 17.7269 25.3702C15.2358 25.3702 14.9405 25.3605 13.957 25.3158C13.0474 25.2738 12.5536 25.1218 12.2246 24.9941C11.7892 24.825 11.4782 24.6229 11.1517 24.2964C10.8251 23.9698 10.623 23.6596 10.4535 23.2241C10.3258 22.8955 10.1736 22.4019 10.1322 21.4922C10.0875 20.5087 10.0785 20.2133 10.0785 17.7219C10.0785 15.2305 10.0875 14.9366 10.1322 13.9531C10.1738 13.0435 10.3258 12.5498 10.4535 12.2209C10.6226 11.7855 10.8251 11.4745 11.1517 11.148C11.4782 10.8215 11.7892 10.6193 12.2246 10.4498C12.5535 10.3215 13.0474 10.1699 13.957 10.1282C14.8177 10.0893 15.1512 10.0776 16.8901 10.0757V10.078ZM22.7071 11.6271C22.089 11.6271 21.5875 12.128 21.5875 12.7463C21.5875 13.3644 22.089 13.8658 22.7071 13.8658C23.3252 13.8658 23.8267 13.3644 23.8267 12.7463C23.8267 12.1282 23.3252 11.6271 22.7071 11.6271ZM17.7269 12.9352C15.081 12.9352 12.9358 15.0804 12.9358 17.7263C12.9358 20.3722 15.081 22.5165 17.7269 22.5165C20.373 22.5165 22.5174 20.3722 22.5174 17.7263C22.5174 15.0804 20.3729 12.9352 17.7269 12.9352ZM17.7269 14.6165C19.4444 14.6165 20.8369 16.0087 20.8369 17.7263C20.8369 19.4438 19.4444 20.8362 17.7269 20.8362C16.0094 20.8362 14.6171 19.4438 14.6171 17.7263C14.6171 16.0087 16.0094 14.6165 17.7269 14.6165Z" fill="white"/>
</svg>
