<svg width="36" height="36" viewBox="0 0 36 36" fill="none" xmlns="http://www.w3.org/2000/svg">
<rect width="35.4525" height="35.4525" rx="7.42256" fill="#6F90B4"/>
<path d="M18.3253 29.1046L18.3142 29.1066L18.2424 29.142L18.2222 29.1461L18.208 29.142L18.1363 29.1066C18.1255 29.1033 18.1174 29.105 18.112 29.1117L18.108 29.1218L18.0908 29.5544L18.0958 29.5746L18.1059 29.5877L18.2111 29.6625L18.2262 29.6666L18.2383 29.6625L18.3435 29.5877L18.3556 29.5716L18.3596 29.5544L18.3425 29.1228C18.3398 29.112 18.334 29.106 18.3253 29.1046ZM18.5931 28.9904L18.58 28.9924L18.393 29.0864L18.3829 29.0965L18.3798 29.1076L18.398 29.5423L18.4031 29.5544L18.4112 29.5615L18.6143 29.6555C18.6271 29.6588 18.6369 29.6561 18.6436 29.6474L18.6477 29.6332L18.6133 29.0126C18.61 29.0005 18.6032 28.9931 18.5931 28.9904ZM17.8705 28.9924C17.866 28.9897 17.8607 28.9889 17.8556 28.99C17.8505 28.9911 17.8461 28.9942 17.8432 28.9985L17.8371 29.0126L17.8027 29.6332C17.8034 29.6453 17.8091 29.6534 17.8199 29.6575L17.8351 29.6555L18.0382 29.5615L18.0483 29.5534L18.0524 29.5423L18.0696 29.1076L18.0665 29.0955L18.0564 29.0854L17.8705 28.9924Z" fill="white"/>
<path d="M17.7262 9.64038C18.5904 9.64038 19.4768 9.66262 20.3359 9.699L21.3506 9.74752L22.3219 9.80513L23.2315 9.86678L24.0623 9.93146C24.9641 10.0001 25.8127 10.3847 26.4587 11.0176C27.1047 11.6504 27.5066 12.491 27.5938 13.3911L27.6342 13.8207L27.71 14.7404C27.7807 15.6935 27.8333 16.7325 27.8333 17.726C27.8333 18.7196 27.7807 19.7586 27.71 20.7117L27.6342 21.6314L27.5938 22.061C27.5066 22.9613 27.1045 23.8019 26.4583 24.4348C25.8121 25.0677 24.9633 25.4522 24.0613 25.5206L23.2326 25.5843L22.3229 25.647L21.3506 25.7046L20.3359 25.7531C19.4665 25.7907 18.5964 25.8103 17.7262 25.8117C16.856 25.8103 15.986 25.7907 15.1166 25.7531L14.1018 25.7046L13.1305 25.647L12.2209 25.5843L11.3901 25.5206C10.4884 25.452 9.63975 25.0674 8.99375 24.4345C8.34775 23.8016 7.94579 22.9611 7.85868 22.061L7.81825 21.6314L7.74245 20.7117C7.66546 19.7183 7.62434 18.7224 7.61914 17.726C7.61914 16.7325 7.6717 15.6935 7.74245 14.7404L7.81825 13.8207L7.85868 13.3911C7.94576 12.4911 8.34757 11.6507 8.99336 11.0179C9.63916 10.385 10.4875 10.0003 11.3891 9.93146L12.2189 9.86678L13.1285 9.80513L14.1008 9.74752L15.1156 9.699C15.9853 9.66133 16.8557 9.64179 17.7262 9.64038ZM17.7262 11.6618C16.8924 11.6618 16.0343 11.684 15.1994 11.7184L14.211 11.7659L13.2619 11.8215L12.3705 11.8821L11.5538 11.9458C11.1245 11.9759 10.7197 12.1572 10.4114 12.4575C10.1031 12.7578 9.91126 13.1578 9.86999 13.5862C9.75173 14.8081 9.64056 16.3292 9.64056 17.726C9.64056 19.1228 9.75173 20.644 9.86999 21.8659C9.9559 22.7472 10.6553 23.4325 11.5538 23.5063L12.3705 23.5689L13.2619 23.6296L14.211 23.6862L15.1994 23.7337C16.0343 23.7681 16.8924 23.7903 17.7262 23.7903C18.5601 23.7903 19.4181 23.7681 20.253 23.7337L21.2415 23.6862L22.1905 23.6306L23.082 23.57L23.8986 23.5063C24.328 23.4762 24.7328 23.2949 25.041 22.9946C25.3493 22.6942 25.5412 22.2943 25.5824 21.8659C25.7007 20.644 25.8119 19.1228 25.8119 17.726C25.8119 16.3292 25.7007 14.8081 25.5824 13.5862C25.5412 13.1578 25.3493 12.7578 25.041 12.4575C24.7328 12.1572 24.328 11.9759 23.8986 11.9458L23.082 11.8831L22.1905 11.8225L21.2415 11.7659L20.253 11.7184C19.4112 11.6823 18.5688 11.6634 17.7262 11.6618ZM15.7048 15.2751C15.7047 15.1763 15.7288 15.079 15.7749 14.9916C15.821 14.9043 15.8878 14.8295 15.9694 14.7738C16.0509 14.7181 16.1449 14.6832 16.2431 14.6721C16.3412 14.661 16.4406 14.674 16.5326 14.7101L16.6144 14.7505L20.8594 17.2005C20.9439 17.2492 21.0155 17.3177 21.0679 17.4C21.1203 17.4823 21.1521 17.5761 21.1605 17.6733C21.1689 17.7706 21.1538 17.8684 21.1163 17.9585C21.0788 18.0486 21.0202 18.1284 20.9453 18.191L20.8594 18.2516L16.6144 20.7026C16.5289 20.7521 16.4325 20.78 16.3338 20.7838C16.235 20.7876 16.1368 20.7671 16.0477 20.7243C15.9586 20.6814 15.8814 20.6175 15.8226 20.5379C15.7639 20.4584 15.7256 20.3657 15.7109 20.268L15.7048 20.177V15.2751Z" fill="white"/>
</svg>
